<svg width="48" height="50" viewBox="0 0 48 50" fill="none" xmlns="http://www.w3.org/2000/svg">
<g id="Icons 48x48">
<g id="Group 1853">
<rect id="Rectangle 844" y="0.998047" width="48" height="48" rx="16" fill="#FFA3A3"/>
<path id="Vector" d="M31.1925 23.4761C30.8986 23.0928 30.5408 22.7605 30.2086 22.4283C29.3525 21.6616 28.3814 21.1122 27.5636 20.3071C25.6597 18.4415 25.238 15.362 26.4519 12.998C25.238 13.2919 24.1774 13.9564 23.2702 14.6848C19.9607 17.3426 18.6574 22.0322 20.2163 26.0573C20.2674 26.1851 20.3185 26.3129 20.3185 26.479C20.3185 26.7601 20.1268 27.0157 19.8713 27.1179C19.5774 27.2457 19.2707 27.169 19.0279 26.9646C18.9513 26.9007 18.9001 26.8368 18.849 26.7473C17.4051 24.9201 17.1751 22.3005 18.1463 20.2049C16.0123 21.9427 14.8495 24.8817 15.0157 27.6546C15.0923 28.2935 15.169 28.9324 15.3862 29.5713C15.5651 30.338 15.9101 31.1047 16.2935 31.7819C17.6735 33.9925 20.0629 35.577 22.6313 35.8965C25.3658 36.2415 28.2919 35.7431 30.3875 33.852C32.7259 31.7308 33.5436 28.3318 32.3425 25.4184L32.1764 25.0862C31.9081 24.4984 31.1925 23.4761 31.1925 23.4761ZM27.1547 31.5264C26.7969 31.833 26.2091 32.1653 25.7491 32.293C24.318 32.8042 22.8869 32.0886 22.0435 31.2452C23.5641 30.8874 24.4713 29.763 24.7397 28.6257C24.9569 27.6035 24.548 26.7601 24.3819 25.7762C24.2285 24.8306 24.2541 24.0256 24.5991 23.1439C24.8419 23.6295 25.0974 24.115 25.4041 24.4984C26.388 25.7762 27.9341 26.3384 28.2664 28.0763C28.3175 28.2551 28.343 28.434 28.343 28.6257C28.3814 29.6735 27.9214 30.8236 27.1547 31.5264Z" fill="#FFEDED"/>
</g>
</g>
</svg>
