<svg width="48" height="50" viewBox="0 0 48 50" fill="none" xmlns="http://www.w3.org/2000/svg">
<g id="Group 1860">
<g id="Group 1855">
<rect id="Rectangle 846" y="0.994141" width="48" height="48" rx="16" fill="#9AB1C0"/>
<g id="Group 1690">
<g id="Intersect">
<mask id="path-2-outside-1_1045_46313" maskUnits="userSpaceOnUse" x="8.82803" y="13.0395" width="20.3923" height="23.3205" fill="black">
<rect fill="white" x="8.82803" y="13.0395" width="20.3923" height="23.3205"/>
<path fill-rule="evenodd" clip-rule="evenodd" d="M15.2087 17.9617C13.9275 20.424 14.0288 23.7896 15.7361 26.7467C17.4432 29.7035 20.3069 31.474 23.0798 31.5958C24.361 29.1335 24.2597 25.7679 22.5524 22.8108C20.8453 19.854 17.9816 18.0835 15.2087 17.9617Z"/>
</mask>
<path fill-rule="evenodd" clip-rule="evenodd" d="M15.2087 17.9617C13.9275 20.424 14.0288 23.7896 15.7361 26.7467C17.4432 29.7035 20.3069 31.474 23.0798 31.5958C24.361 29.1335 24.2597 25.7679 22.5524 22.8108C20.8453 19.854 17.9816 18.0835 15.2087 17.9617Z" fill="#E6ECEF"/>
<path d="M15.2087 17.9617L15.2663 16.651L14.431 16.6143L14.045 17.3561L15.2087 17.9617ZM23.0798 31.5958L23.0222 32.9065L23.8575 32.9432L24.2435 32.2014L23.0798 31.5958ZM16.8722 26.0907C15.3585 23.469 15.3248 20.5806 16.3725 18.5672L14.045 17.3561C12.5302 20.2673 12.6991 24.1102 14.6 27.4026L16.8722 26.0907ZM23.1374 30.2852C20.87 30.1856 18.3858 28.7123 16.8722 26.0907L14.6 27.4026C16.5007 30.6948 19.7439 32.7624 23.0222 32.9065L23.1374 30.2852ZM21.4163 23.4668C22.93 26.0885 22.9637 28.9769 21.916 30.9903L24.2435 32.2014C25.7583 29.2902 25.5894 25.4473 23.6885 22.1549L21.4163 23.4668ZM15.1511 19.2723C17.4185 19.3719 19.9028 20.8452 21.4163 23.4668L23.6885 22.1549C21.7878 18.8627 18.5446 16.7951 15.2663 16.651L15.1511 19.2723Z" fill="#9AB1C0" mask="url(#path-2-outside-1_1045_46313)"/>
</g>
<g id="Intersect_2">
<mask id="path-4-outside-2_1045_46313" maskUnits="userSpaceOnUse" x="16.9276" y="12.9799" width="20.3923" height="23.3205" fill="black">
<rect fill="white" x="16.9276" y="12.9799" width="20.3923" height="23.3205"/>
<path fill-rule="evenodd" clip-rule="evenodd" d="M23.1799 31.6007C21.8987 29.1384 21.9999 25.7728 23.7072 22.8157C25.4144 19.8589 28.2781 18.0884 31.0509 17.9666C32.3321 20.4289 32.2308 23.7945 30.5236 26.7516C28.8164 29.7084 25.9527 31.4789 23.1799 31.6007Z"/>
</mask>
<path fill-rule="evenodd" clip-rule="evenodd" d="M23.1799 31.6007C21.8987 29.1384 21.9999 25.7728 23.7072 22.8157C25.4144 19.8589 28.2781 18.0884 31.0509 17.9666C32.3321 20.4289 32.2308 23.7945 30.5236 26.7516C28.8164 29.7084 25.9527 31.4789 23.1799 31.6007Z" fill="#E6ECEF"/>
<path d="M23.1799 31.6007L22.0161 32.2063L22.4021 32.9481L23.2375 32.9114L23.1799 31.6007ZM31.0509 17.9666L32.2147 17.361L31.8287 16.6192L30.9933 16.656L31.0509 17.9666ZM24.3436 30.9952C23.296 28.9818 23.3296 26.0934 24.8433 23.4717L22.5711 22.1598C20.6702 25.4522 20.5013 29.2951 22.0161 32.2063L24.3436 30.9952ZM24.8433 23.4717C26.3569 20.8501 28.8411 19.3768 31.1085 19.2772L30.9933 16.656C27.715 16.8 24.4718 18.8676 22.5711 22.1598L24.8433 23.4717ZM29.8871 18.5721C30.9348 20.5855 30.9011 23.4739 29.3874 26.0956L31.6597 27.4075C33.5606 24.1151 33.7294 20.2722 32.2147 17.361L29.8871 18.5721ZM29.3874 26.0956C27.8739 28.7172 25.3897 30.1905 23.1223 30.2901L23.2375 32.9114C26.5157 32.7673 29.759 30.6997 31.6597 27.4075L29.3874 26.0956Z" fill="#9AB1C0" mask="url(#path-4-outside-2_1045_46313)"/>
</g>
<g id="Intersect_3">
<mask id="path-6-outside-3_1045_46313" maskUnits="userSpaceOnUse" x="5.26798" y="17.8685" width="23.3203" height="20.3925" fill="black">
<rect fill="white" x="5.26798" y="17.8685" width="23.3203" height="20.3925"/>
<path fill-rule="evenodd" clip-rule="evenodd" d="M9.96726 24.1213C12.4295 22.8401 15.7951 22.9413 18.7521 24.6486C21.7086 26.3556 23.4789 29.2189 23.6011 31.9915C21.1388 33.2728 17.7733 33.1715 14.8162 31.4643C11.8598 29.7573 10.0894 26.8939 9.96726 24.1213Z"/>
</mask>
<path fill-rule="evenodd" clip-rule="evenodd" d="M9.96726 24.1213C12.4295 22.8401 15.7951 22.9413 18.7521 24.6486C21.7086 26.3556 23.4789 29.2189 23.6011 31.9915C21.1388 33.2728 17.7733 33.1715 14.8162 31.4643C11.8598 29.7573 10.0894 26.8939 9.96726 24.1213Z" fill="#E6ECEF"/>
<path d="M9.96726 24.1213L9.36171 22.9576L8.61986 23.3436L8.65667 24.1791L9.96726 24.1213ZM23.6011 31.9915L24.2066 33.1553L24.9485 32.7693L24.9117 31.9338L23.6011 31.9915ZM10.5728 25.2851C12.5862 24.2374 15.4745 24.2711 18.0962 25.7847L19.408 23.5125C16.1157 21.6116 12.2728 21.4428 9.36171 22.9576L10.5728 25.2851ZM18.0962 25.7847C20.7174 27.2981 22.1906 29.782 22.2905 32.0493L24.9117 31.9338C24.7673 28.6558 22.6998 25.413 19.408 23.5125L18.0962 25.7847ZM22.9955 30.8278C20.9821 31.8754 18.0939 31.8418 15.4722 30.3281L14.1603 32.6004C17.4527 34.5013 21.2955 34.6701 24.2066 33.1553L22.9955 30.8278ZM15.4722 30.3281C12.851 28.8147 11.3777 26.3308 11.2779 24.0636L8.65667 24.1791C8.80108 27.457 10.8685 30.6998 14.1603 32.6004L15.4722 30.3281Z" fill="#9AB1C0" mask="url(#path-6-outside-3_1045_46313)"/>
</g>
<path id="Intersect_4" fill-rule="evenodd" clip-rule="evenodd" d="M24.3953 31.9986C24.5168 29.2254 26.2872 26.3611 29.2444 24.6538C32.2015 22.9465 35.567 22.8452 38.0293 24.1265C37.9079 26.8997 36.1374 29.764 33.1803 31.4714C30.2232 33.1786 26.8576 33.2799 24.3953 31.9986Z" fill="#E6ECEF"/>
<g id="Intersect_5">
<mask id="path-9-outside-4_1045_46313" maskUnits="userSpaceOnUse" x="19.6313" y="17.7468" width="23.3203" height="20.3925" fill="black">
<rect fill="white" x="19.6313" y="17.7468" width="23.3203" height="20.3925"/>
<path fill-rule="evenodd" clip-rule="evenodd" d="M24.3953 31.9986C24.5168 29.2254 26.2872 26.3611 29.2444 24.6538C32.2015 22.9465 35.567 22.8452 38.0293 24.1265C37.9079 26.8997 36.1374 29.764 33.1803 31.4714C30.2232 33.1786 26.8576 33.2799 24.3953 31.9986Z"/>
</mask>
<path fill-rule="evenodd" clip-rule="evenodd" d="M24.3953 31.9986C24.5168 29.2254 26.2872 26.3611 29.2444 24.6538C32.2015 22.9465 35.567 22.8452 38.0293 24.1265C37.9079 26.8997 36.1374 29.764 33.1803 31.4714C30.2232 33.1786 26.8576 33.2799 24.3953 31.9986Z" fill="#E6ECEF"/>
<path d="M24.3953 31.9986L23.0847 31.9412L23.0482 32.7764L23.7898 33.1623L24.3953 31.9986ZM38.0293 24.1265L39.3399 24.1839L39.3765 23.3487L38.6349 22.9628L38.0293 24.1265ZM25.706 32.056C25.8052 29.7883 27.2785 27.3036 29.9003 25.7899L28.5885 23.5176C25.296 25.4186 23.2283 28.6625 23.0847 31.9412L25.706 32.056ZM29.9003 25.7899C32.522 24.2762 35.4103 24.2426 37.4238 25.2903L38.6349 22.9628C35.7237 21.4479 31.8809 21.6167 28.5885 23.5176L29.9003 25.7899ZM36.7187 24.0692C36.6194 26.3368 35.1462 28.8215 32.5243 30.3352L33.8362 32.6075C37.1287 30.7065 39.1964 27.4626 39.3399 24.1839L36.7187 24.0692ZM32.5243 30.3352C29.9026 31.8489 27.0143 31.8825 25.0009 30.8348L23.7898 33.1623C26.7009 34.6772 30.5438 34.5084 33.8362 32.6075L32.5243 30.3352Z" fill="#9AB1C0" mask="url(#path-9-outside-4_1045_46313)"/>
</g>
<g id="Intersect_6">
<mask id="path-11-outside-5_1045_46313" maskUnits="userSpaceOnUse" x="17.6758" y="14.5264" width="12" height="20" fill="black">
<rect fill="white" x="17.6758" y="14.5264" width="12" height="20"/>
<path fill-rule="evenodd" clip-rule="evenodd" d="M23.74 16.7829C21.3992 18.2747 19.8041 21.2401 19.8041 24.6547C19.8041 28.0692 21.3991 31.0345 23.7398 32.5264C26.0806 31.0346 27.6758 28.0692 27.6758 24.6546C27.6758 21.24 26.0807 18.2747 23.74 16.7829Z"/>
</mask>
<path fill-rule="evenodd" clip-rule="evenodd" d="M23.74 16.7829C21.3992 18.2747 19.8041 21.2401 19.8041 24.6547C19.8041 28.0692 21.3991 31.0345 23.7398 32.5264C26.0806 31.0346 27.6758 28.0692 27.6758 24.6546C27.6758 21.24 26.0807 18.2747 23.74 16.7829Z" fill="#E6ECEF"/>
<path d="M23.74 16.7829L24.4451 15.6766L23.74 15.2272L23.0349 15.6766L23.74 16.7829ZM23.7398 32.5264L23.0348 33.6327L23.7398 34.082L24.4449 33.6327L23.7398 32.5264ZM21.1159 24.6547C21.1159 21.6273 22.531 19.109 24.445 17.8892L23.0349 15.6766C20.2674 17.4403 18.4922 20.8529 18.4922 24.6547L21.1159 24.6547ZM24.4449 31.4201C22.5309 30.2002 21.1159 27.682 21.1159 24.6547L18.4922 24.6547C18.4922 28.4564 20.2674 31.8689 23.0348 33.6327L24.4449 31.4201ZM26.3639 24.6546C26.3639 27.682 24.9489 30.2002 23.0348 31.4201L24.4449 33.6327C27.2124 31.8689 28.9877 28.4564 28.9877 24.6546L26.3639 24.6546ZM23.0349 17.8892C24.9489 19.109 26.3639 21.6272 26.3639 24.6546L28.9877 24.6546C28.9877 20.8528 27.2125 17.4404 24.4451 15.6766L23.0349 17.8892Z" fill="#9AB1C0" mask="url(#path-11-outside-5_1045_46313)"/>
</g>
</g>
</g>
</g>
</svg>
