<svg width="26" height="34" viewBox="0 0 26 34" fill="none" xmlns="http://www.w3.org/2000/svg">
<path id="Vector" d="M12.5814 0.970703C5.70005 0.970703 0.101562 6.56457 0.101562 13.4404C0.101562 17.6937 2.12088 22.2601 6.10358 27.0127C9.02873 30.5035 11.9141 32.7486 12.0356 32.8425C12.1963 32.9668 12.3889 33.0289 12.5815 33.0289C12.7741 33.0289 12.9668 32.9668 13.1275 32.8425C13.2489 32.7486 16.1344 30.5035 19.0595 27.0127C23.0422 22.2601 25.0615 17.6938 25.0615 13.4404C25.0613 6.56457 19.4628 0.970703 12.5814 0.970703ZM17.2032 13.4403C17.2032 15.9906 15.1339 18.0582 12.5814 18.0582C10.0289 18.0582 7.95965 15.9907 7.95965 13.4403C7.95965 10.8898 10.0289 8.82227 12.5814 8.82227C15.1339 8.82227 17.2032 10.8899 17.2032 13.4403Z" fill="#077453"/>
</svg>
