<svg width="38" height="31" viewBox="0 0 38 31" fill="none" xmlns="http://www.w3.org/2000/svg">
<g id="Group 560">
<path id="path6251" d="M3.31526 12.0507C2.34682 14.911 1.86912 17.7678 3.18526 20.4162C4.47049 23.0025 7.20721 24.8552 11.1898 26.4793C15.8066 28.3621 22.86 29.4578 28.0006 28.643C30.4912 28.2482 33.1496 27.3078 34.4769 25.1279C35.9285 22.7436 35.2566 19.8767 33.3522 16.9829C32.2426 15.2969 28.9059 11.318 24.9565 7.99555C22.974 6.32781 20.7538 4.75382 18.5069 3.72435C16.2907 2.70895 13.7878 2.10533 11.3963 2.78774C8.58129 3.59099 6.77526 4.67524 5.55868 6.46729C4.99136 7.30296 4.61057 8.20919 4.28872 9.11042C4.1169 9.59153 3.92985 10.1699 3.73816 10.7626C3.5983 11.195 3.45596 11.6351 3.31526 12.0507Z" fill="#BFFFC8" stroke="#057D58" stroke-width="4"/>
</g>
</svg>
