<svg width="47" height="43" viewBox="0 0 47 43" fill="none" xmlns="http://www.w3.org/2000/svg">
<path id="path6019" d="M4.8305 11.9992L4.83049 11.9992C1.84893 17.5237 1.55042 23.2787 2.57958 27.9391C3.09363 30.2669 3.94652 32.3592 4.99829 34.045C6.0299 35.6986 7.34526 37.1061 8.86173 37.8517C14.9351 40.8378 21.6076 41.2136 27.4692 39.7994C33.3057 38.3914 38.5071 35.1642 41.5367 30.7325C43.8652 27.3262 45.1683 24.0622 43.4442 20.5623C42.6598 18.9701 41.3248 17.5105 39.5879 16.0537C37.8398 14.5874 35.5601 13.0228 32.7443 11.255C31.792 10.6572 30.8713 10.0712 29.9828 9.50567C27.871 8.1616 25.9413 6.9334 24.202 5.93707C21.7377 4.52544 19.393 3.41833 17.1248 3.07087C14.7264 2.70347 12.4885 3.19619 10.3901 4.77581C8.39401 6.27835 6.6126 8.69722 4.8305 11.9992Z" fill="#BFFFC8" stroke="white" stroke-width="4"/>
</svg>
