<svg width="64" height="65" viewBox="0 0 64 65" fill="none" xmlns="http://www.w3.org/2000/svg">
<path id="Subtract" fill-rule="evenodd" clip-rule="evenodd" d="M32 64.0059C49.6731 64.0059 64 49.679 64 32.0059C64 14.3327 49.6731 0.00585938 32 0.00585938C14.3269 0.00585938 0 14.3327 0 32.0059C0 49.679 14.3269 64.0059 32 64.0059ZM34.011 13.9042C32.9001 12.7934 31.0991 12.7934 29.9883 13.9042C28.8775 15.015 28.8775 16.816 29.9883 17.9269L42.0563 29.9948C43.1671 31.1056 44.9681 31.1056 46.0789 29.9948C47.1897 28.884 47.1897 27.083 46.0789 25.9722L34.011 13.9042ZM29.9865 46.0849C28.8757 47.1957 28.8757 48.9967 29.9865 50.1075C31.0974 51.2183 32.8984 51.2183 34.0092 50.1075L46.0771 38.0396C47.188 36.9287 47.188 35.1277 46.0771 34.0169C44.9663 32.9061 43.1653 32.9061 42.0545 34.0169L29.9865 46.0849ZM14.681 32.0007C14.681 30.4297 15.9545 29.1562 17.5255 29.1562L34.5922 29.1562C36.1631 29.1562 37.4366 30.4297 37.4366 32.0007C37.4366 33.5716 36.1631 34.8451 34.5922 34.8451H17.5255C15.9545 34.8451 14.681 33.5716 14.681 32.0007Z" fill="#BFFFC8"/>
</svg>
