<svg width="48" height="49" viewBox="0 0 48 49" fill="none" xmlns="http://www.w3.org/2000/svg">
<rect width="48" height="48.0022" rx="16" transform="matrix(1 0 0 -1 0 48.0015)" fill="#8DCAF8"/>
<path d="M14.6582 32.3112C13.6822 32.3112 12.7942 32.0872 11.9942 31.6392C11.1942 31.1832 10.5022 30.5552 9.91816 29.7552C9.34216 28.9552 8.89816 28.0312 8.58616 26.9832C8.27416 25.9272 8.11816 24.7992 8.11816 23.5992C8.11816 22.3992 8.27416 21.2752 8.58616 20.2272C8.89816 19.1712 9.34216 18.2432 9.91816 17.4432C10.5022 16.6432 11.1942 16.0192 11.9942 15.5712C12.7942 15.1152 13.6822 14.8872 14.6582 14.8872C15.6342 14.8872 16.5222 15.1152 17.3222 15.5712C18.1222 16.0192 18.8062 16.6432 19.3742 17.4432C19.9502 18.2432 20.3942 19.1712 20.7062 20.2272C21.0262 21.2752 21.1862 22.3992 21.1862 23.5992C21.1862 24.7992 21.0262 25.9272 20.7062 26.9832C20.3942 28.0312 19.9502 28.9552 19.3742 29.7552C18.8062 30.5552 18.1222 31.1832 17.3222 31.6392C16.5222 32.0872 15.6342 32.3112 14.6582 32.3112ZM14.6582 29.3832C15.5142 29.3832 16.2222 29.1112 16.7822 28.5672C17.3422 28.0232 17.7582 27.3112 18.0302 26.4312C18.3022 25.5512 18.4382 24.6072 18.4382 23.5992C18.4382 22.5352 18.2942 21.5672 18.0062 20.6952C17.7182 19.8152 17.2942 19.1152 16.7342 18.5952C16.1742 18.0752 15.4822 17.8152 14.6582 17.8152C14.0102 17.8152 13.4462 17.9752 12.9662 18.2952C12.4942 18.6072 12.1022 19.0352 11.7902 19.5792C11.4782 20.1232 11.2462 20.7432 11.0942 21.4392C10.9422 22.1272 10.8662 22.8472 10.8662 23.5992C10.8662 24.5992 11.0022 25.5432 11.2742 26.4312C11.5542 27.3112 11.9742 28.0232 12.5342 28.5672C13.1022 29.1112 13.8102 29.3832 14.6582 29.3832Z" fill="#0061A8"/>
<path d="M24.414 31.9992L34.11 15.1992H37.494L27.798 31.9992H24.414ZM26.478 22.4832C25.822 22.4832 25.218 22.3272 24.666 22.0152C24.122 21.6952 23.686 21.2632 23.358 20.7192C23.03 20.1752 22.866 19.5672 22.866 18.8952C22.866 18.2072 23.03 17.5912 23.358 17.0472C23.694 16.5032 24.134 16.0752 24.678 15.7632C25.23 15.4512 25.83 15.2952 26.478 15.2952C27.134 15.2952 27.734 15.4552 28.278 15.7752C28.822 16.0952 29.254 16.5272 29.574 17.0712C29.902 17.6152 30.066 18.2232 30.066 18.8952C30.066 19.5752 29.898 20.1872 29.562 20.7312C29.234 21.2752 28.798 21.7032 28.254 22.0152C27.71 22.3272 27.118 22.4832 26.478 22.4832ZM26.478 20.4792C26.91 20.4792 27.282 20.3272 27.594 20.0232C27.906 19.7112 28.062 19.3352 28.062 18.8952C28.062 18.4472 27.906 18.0712 27.594 17.7672C27.282 17.4632 26.91 17.3112 26.478 17.3112C26.038 17.3112 25.658 17.4632 25.338 17.7672C25.026 18.0712 24.87 18.4472 24.87 18.8952C24.87 19.3352 25.026 19.7112 25.338 20.0232C25.658 20.3272 26.038 20.4792 26.478 20.4792ZM35.43 31.9152C34.766 31.9152 34.162 31.7512 33.618 31.4232C33.074 31.0872 32.642 30.6472 32.322 30.1032C32.002 29.5512 31.842 28.9592 31.842 28.3272C31.842 27.6392 32.006 27.0232 32.334 26.4792C32.67 25.9352 33.11 25.5072 33.654 25.1952C34.206 24.8752 34.798 24.7152 35.43 24.7152C36.118 24.7152 36.734 24.8832 37.278 25.2192C37.822 25.5552 38.25 25.9992 38.562 26.5512C38.882 27.0952 39.042 27.6872 39.042 28.3272C39.042 28.9832 38.878 29.5832 38.55 30.1272C38.23 30.6712 37.794 31.1072 37.242 31.4352C36.698 31.7552 36.094 31.9152 35.43 31.9152ZM35.43 29.9112C35.878 29.9112 36.258 29.7552 36.57 29.4432C36.882 29.1312 37.038 28.7592 37.038 28.3272C37.038 27.8792 36.882 27.4992 36.57 27.1872C36.258 26.8752 35.878 26.7192 35.43 26.7192C34.998 26.7192 34.626 26.8752 34.314 27.1872C34.002 27.4992 33.846 27.8792 33.846 28.3272C33.846 28.7592 34.002 29.1312 34.314 29.4432C34.626 29.7552 34.998 29.9112 35.43 29.9112Z" fill="#0061A8"/>
</svg>
