<svg width="48" height="49" viewBox="0 0 48 49" fill="none" xmlns="http://www.w3.org/2000/svg">
<g id="Group 1794">
<g id="Group 1788">
<g id="Group 759">
<rect id="Rectangle 410" y="0.994629" width="48" height="48.0022" rx="16" fill="#FFAD61"/>
</g>
<path id="Vector" d="M21.3333 28.8636C19.7667 28.8636 18.2905 28.5818 16.994 28.0845C15.6867 29.1073 14.0828 29.7306 12.3789 29.9093C12.3666 29.9106 12.3542 29.9112 12.3418 29.9112C12.1861 29.9112 12.0455 29.8072 12.0077 29.6587C11.9669 29.4937 12.0947 29.3921 12.2213 29.271C12.847 28.6694 13.6056 28.1964 13.9022 26.1753C12.709 25.0315 12 23.6038 12 22.0541C12 18.293 16.179 15.2446 21.3333 15.2446C26.4876 15.2446 30.6667 18.2929 30.6667 22.0541C30.6666 25.818 26.4876 28.8636 21.3333 28.8636ZM35.7944 33.3292C35.2134 32.7822 34.5091 32.3523 34.2336 30.5149C37.1006 27.8246 36.4074 23.976 32.6639 21.8872C32.6652 21.9428 32.6666 21.9984 32.6666 22.0541C32.6666 27.158 27.2673 31.0705 20.8228 30.855C22.4112 32.1451 24.739 32.9589 27.3333 32.9589C28.788 32.9589 30.1587 32.7027 31.3626 32.2505C32.5765 33.1804 34.0659 33.747 35.6482 33.9094C35.8059 33.9259 35.9549 33.8272 35.9927 33.6816C36.0307 33.5316 35.912 33.4393 35.7944 33.3292Z" fill="#8F3300"/>
</g>
</g>
</svg>
