<svg width="48" height="49" viewBox="0 0 48 49" fill="none" xmlns="http://www.w3.org/2000/svg">
<g id="Icons 48x48">
<rect id="Rectangle 410" width="48" height="48.0022" rx="16" fill="#D7BCFE"/>
<path id="Vector" fill-rule="evenodd" clip-rule="evenodd" d="M36.3984 24.0024C36.3984 17.3751 31.0258 12.0024 24.3984 12.0024C17.771 12.0024 12.3984 17.3751 12.3984 24.0024C12.3984 30.6299 17.771 36.0024 24.3984 36.0024C31.0258 36.0024 36.3984 30.6299 36.3984 24.0024ZM19.8166 23.8934C19.8166 26.421 21.8708 28.4752 24.3984 28.4752C25.1697 28.4752 25.9028 28.2843 26.5366 27.9406L27.6515 29.0555C26.7123 29.6512 25.5974 30.0024 24.3984 30.0024C21.0232 30.0024 18.2893 27.2686 18.2893 23.8934H15.9984L19.053 20.8388L22.1075 23.8934H19.8166ZM29.7438 26.9479L26.6894 23.8934H28.9803C28.9803 21.3657 26.9261 19.3115 24.3984 19.3115C23.6272 19.3115 22.8941 19.5024 22.2603 19.8461L21.1453 18.7312C22.0846 18.1355 23.1995 17.7843 24.3984 17.7843C27.7737 17.7843 30.5075 20.5181 30.5075 23.8934H32.7984L29.7438 26.9479Z" fill="#6308EB"/>
</g>
</svg>
