<svg width="48" height="48" viewBox="0 0 48 48" fill="none" xmlns="http://www.w3.org/2000/svg">
<g id="Group 1560">
<rect id="Rectangle 806" width="48" height="48" rx="12" fill="#E1F664"/>
<g id="Group">
<g id="Group_2">
<path id="Vector" d="M24.0012 16.8721C14.9467 16.8721 10.2012 23.5413 10.2012 24.6003C10.2012 25.6564 14.9467 32.3285 24.0012 32.3285C33.0528 32.3285 37.8012 25.6564 37.8012 24.6003C37.8012 23.5413 33.0528 16.8721 24.0012 16.8721ZM24.0012 30.5429C20.6131 30.5429 17.8672 27.8814 17.8672 24.6003C17.8672 21.3163 20.6131 18.6548 24.0012 18.6548C27.3892 18.6548 30.1351 21.3163 30.1351 24.6003C30.1351 27.8842 27.3892 30.5429 24.0012 30.5429ZM24.0012 24.6003C23.4407 23.9835 24.9165 21.629 24.0012 21.629C22.3057 21.629 20.9342 22.9611 20.9342 24.6003C20.9342 26.2394 22.3057 27.5716 24.0012 27.5716C25.6938 27.5716 27.0682 26.2394 27.0682 24.6003C27.0682 23.8455 24.4799 25.1241 24.0012 24.6003Z" fill="#505E00"/>
</g>
</g>
</g>
</svg>
