<svg width="48" height="49" viewBox="0 0 48 49" fill="none" xmlns="http://www.w3.org/2000/svg">
<rect y="0.109375" width="48" height="48" rx="12" fill="#8DCAF8"/>
<path fill-rule="evenodd" clip-rule="evenodd" d="M23.7817 11.2368C23.925 11.201 24.075 11.201 24.2183 11.2368L33.8183 13.6368C34.2189 13.737 34.5 14.097 34.5 14.51V24.11C34.5 28.1118 31.8464 31.3402 29.3927 33.4873C28.1469 34.5774 26.9053 35.4305 25.977 36.0107C25.5119 36.3013 25.123 36.525 24.8484 36.6771C24.711 36.7531 24.602 36.8113 24.5262 36.8512C24.5071 36.8612 24.4901 36.87 24.4753 36.8777C24.4607 36.8853 24.4481 36.8917 24.4378 36.897L24.4133 36.9095L24.4061 36.9131L24.4031 36.9147L24.0001 36.1101C24.4025 36.9149 24.4028 36.9148 24.4031 36.9147C24.1497 37.0413 23.8503 37.0413 23.5969 36.9147C23.5972 36.9148 23.5975 36.9149 24 36.11L23.5969 36.9147L23.5939 36.9131L23.5867 36.9095L23.5622 36.897C23.5414 36.8864 23.5118 36.8711 23.4738 36.8512C23.398 36.8113 23.289 36.7531 23.1516 36.6771C22.877 36.525 22.4881 36.3013 22.023 36.0107C21.0947 35.4305 19.8531 34.5774 18.6073 33.4873C16.1536 31.3402 13.5 28.1118 13.5 24.11V14.51C13.5 14.097 13.7811 13.737 14.1817 13.6368L23.7817 11.2368ZM30.4025 22.2599C30.4025 25.7945 27.5372 28.6599 24.0025 28.6599C20.4679 28.6599 17.6025 25.7945 17.6025 22.2599C17.6025 18.7252 20.4679 15.8599 24.0025 15.8599C27.5372 15.8599 30.4025 18.7252 30.4025 22.2599ZM20.9499 22.0846C20.6721 22.3623 20.6721 22.8125 20.9499 23.0902L22.6254 24.7658L22.6256 24.766L22.626 24.7663C22.9037 25.044 23.3539 25.044 23.6316 24.7663C23.6382 24.7598 23.6445 24.7532 23.6508 24.7465L26.9835 21.4138C27.2612 21.1361 27.2612 20.6858 26.9835 20.4081C26.7058 20.1304 26.2555 20.1304 25.9778 20.4081L23.296 23.0899C23.2035 23.1824 23.0534 23.1824 22.9608 23.0899L21.9555 22.0846C21.6778 21.8069 21.2276 21.8069 20.9499 22.0846Z" fill="#0061A8"/>
</svg>
