<svg width="48" height="49" viewBox="0 0 48 49" fill="none" xmlns="http://www.w3.org/2000/svg">
<g id="Icons 48x48">
<rect id="Rectangle 410" y="0.109375" width="48" height="48.0022" rx="16" fill="#E1F664"/>
<path id="Vector" fill-rule="evenodd" clip-rule="evenodd" d="M12.3984 24.1094C12.3984 20.9268 13.6627 17.8745 15.9132 15.6241C18.1636 13.3737 21.2158 12.1094 24.3984 12.1094C27.581 12.1094 30.6333 13.3737 32.8837 15.6241C35.1342 17.8745 36.3984 20.9268 36.3984 24.1094C36.3984 27.292 35.1342 30.3442 32.8837 32.5947C30.6333 34.8451 27.581 36.1094 24.3984 36.1094C21.2158 36.1094 18.1636 34.8451 15.9132 32.5947C13.6627 30.3442 12.3984 27.292 12.3984 24.1094ZM25.1484 17.7344C25.1484 17.436 25.0299 17.1499 24.8189 16.9389C24.608 16.7279 24.3218 16.6094 24.0234 16.6094C23.7251 16.6094 23.4389 16.7279 23.2279 16.9389C23.017 17.1499 22.8984 17.436 22.8984 17.7344V24.1094C22.8984 24.5354 23.1384 24.9254 23.5209 25.1144L27.2709 26.9894C27.4037 27.0642 27.5503 27.1113 27.7019 27.1277C27.8534 27.1441 28.0067 27.1296 28.1524 27.085C28.2982 27.0404 28.4333 26.9666 28.5497 26.8682C28.6661 26.7698 28.7613 26.6487 28.8294 26.5124C28.8976 26.376 28.9373 26.2273 28.9463 26.0751C28.9552 25.923 28.9331 25.7706 28.8813 25.6272C28.8296 25.4838 28.7492 25.3525 28.6452 25.2411C28.5411 25.1298 28.4155 25.0407 28.2759 24.9794L25.1484 23.4119V17.7344Z" fill="#505E00"/>
</g>
</svg>
