<svg width="48" height="49" viewBox="0 0 48 49" fill="none" xmlns="http://www.w3.org/2000/svg">
<g id="Icons 48x48">
<rect id="Rectangle 410" y="0.108398" width="48" height="48.0022" rx="16" fill="#D7BCFE"/>
<path id="Union" fill-rule="evenodd" clip-rule="evenodd" d="M20.8223 27.6867C24.6263 27.3867 27.6742 24.3388 27.9742 20.5348C27.9862 20.3308 27.9982 20.1148 27.9982 19.9108C27.9982 15.6028 24.5063 12.1108 20.1983 12.1108C15.8904 12.1108 12.3984 15.6028 12.3984 19.9108C12.3984 24.2188 15.8904 27.7107 20.1983 27.7107C20.4023 27.7107 20.6183 27.6987 20.8223 27.6867ZM20.1983 16.9108L21.2543 18.8548L23.1983 19.9108L21.2543 20.9668L20.1983 22.9108L19.1424 20.9668L17.1984 19.9108L19.1424 18.8548L20.1983 16.9108ZM29.7743 20.6069C33.5183 21.1709 36.3983 24.3989 36.3983 28.3109C36.3983 32.6189 32.9063 36.1108 28.5984 36.1108C24.6864 36.1108 21.4584 33.2309 20.8944 29.4869H20.9304C25.6224 29.1149 29.4023 25.3349 29.7743 20.6789V20.6069Z" fill="#6308EB"/>
</g>
</svg>
