<svg width="48" height="49" viewBox="0 0 48 49" fill="none" xmlns="http://www.w3.org/2000/svg">
<rect width="48" height="48.0022" rx="16" transform="matrix(1 0 0 -1 0 48.1104)" fill="#FFC451"/>
<g clip-path="url(#clip0_574_34558)">
<path d="M36.3984 24.1079C36.3984 26.4813 35.6947 28.8014 34.3761 30.7748C33.0575 32.7481 31.1834 34.2862 28.9906 35.1945C26.7979 36.1027 24.3851 36.3404 22.0574 35.8773C19.7296 35.4143 17.5914 34.2714 15.9132 32.5932C14.2349 30.915 13.092 28.7768 12.629 26.449C12.166 24.1212 12.4036 21.7084 13.3119 19.5157C14.2201 17.323 15.7582 15.4489 17.7316 14.1303C19.705 12.8117 22.0251 12.1079 24.3984 12.1079C27.581 12.1079 30.6333 13.3722 32.8837 15.6226C35.1342 17.8731 36.3984 20.9253 36.3984 24.1079Z" fill="#916002"/>
<path fill-rule="evenodd" clip-rule="evenodd" d="M20.9277 17.5877L23.6855 18.3263L24.3018 16.0288L25.6807 16.403L25.0884 18.6055L26.2131 18.9077L26.8066 16.6812L28.2095 17.0564L27.6051 19.295C27.6051 19.295 29.896 19.8023 30.4349 21.6655C30.9738 23.5288 29.2502 24.5074 28.7178 24.5444C28.7178 24.5444 30.7251 25.6452 30.0356 27.8106C29.3462 29.9761 27.2298 30.3634 25.0033 29.867L24.3989 32.1884L22.996 31.8132L23.6124 29.5277L22.4996 29.2244L21.8833 31.5263L20.4913 31.1521L21.1087 28.8612L18.2778 28.0975L18.9913 26.5135C18.9913 26.5135 19.7898 26.7317 20.092 26.8037C20.3942 26.8757 20.5884 26.5615 20.6735 26.2474C20.7586 25.9332 22.0404 20.7263 22.1615 20.2975C22.2826 19.8688 22.2335 19.5339 21.7251 19.4019C21.2167 19.2699 20.5251 19.0637 20.5251 19.0637L20.9277 17.5877ZM23.7095 24.4834L22.9458 27.5194C22.9458 27.5194 26.7324 28.8863 27.2167 26.963C27.7011 25.0397 23.7095 24.4834 23.7095 24.4834ZM24.0607 23.0434L24.8102 20.2615C24.8102 20.2615 28.0524 20.8419 27.6531 22.3899C27.2538 23.9379 25.3426 23.3444 24.0607 23.0434Z" fill="#FFC451"/>
</g>
<defs>
<clipPath id="clip0_574_34558">
<rect width="24" height="24" fill="white" transform="translate(12.3984 12.1079)"/>
</clipPath>
</defs>
</svg>
