<svg width="315" height="369" viewBox="0 0 315 369" fill="none" xmlns="http://www.w3.org/2000/svg">
<rect y="113.002" width="315" height="255" rx="30" fill="#242A2F"/>
<path opacity="0.5" d="M9 139.002C9 129.061 17.0589 121.002 27 121.002H281.5C295.583 121.002 307 132.419 307 146.502V335.502C307 349.585 295.583 361.002 281.5 361.002H27C17.0589 361.002 9 352.943 9 343.002V139.002Z" fill="#BFFFC8"/>
<circle cx="156" cy="48" r="48" fill="#BFFFC8"/>
<path fill-rule="evenodd" clip-rule="evenodd" d="M156 7.5C164.01 7.5 171.84 9.87528 178.501 14.3255C185.161 18.7757 190.352 25.1009 193.417 32.5013C196.482 39.9017 197.284 48.0449 195.722 55.9011C194.159 63.7574 190.302 70.9738 184.638 76.6378C178.974 82.3018 171.757 86.1591 163.901 87.7218C156.045 89.2845 147.902 88.4825 140.501 85.4171C133.101 82.3518 126.776 77.1608 122.325 70.5006C117.875 63.8404 115.5 56.0101 115.5 48C115.5 37.2587 119.767 26.9574 127.362 19.3622C134.957 11.767 145.259 7.5 156 7.5Z" fill="#2D3439"/>
<path d="M160.909 26.0756C167.501 26.0756 173.386 29.1127 177.253 33.8692L180.699 26.4814C175.311 21.3884 167.976 18.248 159.887 18.248C147.291 18.248 136.516 25.855 132.095 36.6236H125.375L121.408 45.1284H130.051C129.986 45.9174 129.944 46.7063 129.944 47.5123C129.944 48.4865 129.995 49.4508 130.091 50.4024H125.747L121.781 58.91H132.301C136.849 69.4057 147.489 76.7737 159.887 76.7737C166.135 76.7737 171.933 74.9016 176.733 71.7033V61.2769C172.867 65.6785 167.213 68.4597 160.909 68.4597C153.541 68.4597 147.059 64.6605 143.285 58.91H165.312L169.28 50.4024H140.044C139.893 49.3787 139.812 48.3324 139.812 47.2663C139.812 46.5452 139.849 45.8325 139.92 45.1284H171.739L175.705 36.6236H142.67C146.324 30.3188 153.122 26.0756 160.909 26.0756Z" fill="#BFFFC8"/>
<circle cx="99" cy="92" r="48" fill="#BFFFC8"/>
<path fill-rule="evenodd" clip-rule="evenodd" d="M139.5 92C139.5 114.368 121.368 132.5 99 132.5C76.6325 132.5 58.5 114.368 58.5 92C58.5 69.6325 76.6325 51.5 99 51.5C121.368 51.5 139.5 69.6325 139.5 92ZM103.873 95.4968V95.5018C113.695 95.0665 121.022 93.3579 121.022 91.3076C121.022 89.2623 113.695 87.5487 103.873 87.1107V93.8008C103.587 93.8262 102.056 93.9527 99.0006 93.9527C96.4542 93.9527 94.6114 93.8439 93.9685 93.7983V87.1057C84.127 87.5461 76.7813 89.2598 76.7813 91.3076C76.7813 93.3579 84.127 95.0715 93.9685 95.5044V95.4968C94.6013 95.5272 96.401 95.6031 98.9576 95.6031C102.16 95.6031 103.595 95.517 103.873 95.4968ZM103.873 80.4257V86.4147C114.993 86.9285 123.349 89.1332 123.349 91.7733C123.349 94.4134 114.993 96.6181 103.873 97.1294V116.326H93.9685V97.1345C82.831 96.6207 74.4551 94.4159 74.4551 91.7733C74.4551 89.1307 82.831 86.9234 93.9685 86.4121V80.4257H80.2643V71.293H117.577V80.4257H103.873Z" fill="#2D3439"/>
<circle cx="216" cy="107" r="48" fill="#BFFFC8"/>
<path fill-rule="evenodd" clip-rule="evenodd" d="M216 66.5C224.01 66.5 231.84 68.8753 238.501 73.3255C245.161 77.7757 250.352 84.1009 253.417 91.5013C256.482 98.9017 257.284 107.045 255.722 114.901C254.159 122.757 250.302 129.974 244.638 135.638C238.974 141.302 231.757 145.159 223.901 146.722C216.045 148.284 207.902 147.482 200.501 144.417C193.101 141.352 186.776 136.161 182.325 129.501C177.875 122.84 175.5 115.01 175.5 107C175.5 96.2587 179.767 85.9574 187.362 78.3622C194.957 70.767 205.259 66.5 216 66.5Z" fill="#2D3439"/>
<path d="M245.439 99.172C242.767 96.705 239.071 92.9376 236.06 90.2658L235.882 90.1411C235.586 89.9031 235.252 89.7164 234.894 89.5889C227.635 88.2351 193.853 81.9206 193.193 82.0008C193.009 82.0266 192.832 82.0936 192.677 82.1967L192.508 82.3303C192.299 82.5419 192.141 82.7975 192.045 83.0784L192 83.1942V83.8265V83.9245C195.803 94.514 210.819 129.204 213.776 137.344C213.954 137.896 214.293 138.947 214.925 139.001H215.068C215.406 139.001 216.849 137.095 216.849 137.095C216.849 137.095 242.642 105.816 245.252 102.485C245.59 102.075 245.888 101.633 246.143 101.167C246.208 100.802 246.177 100.426 246.054 100.077C245.93 99.7272 245.719 99.4155 245.439 99.172ZM223.467 102.815L234.475 93.6858L240.932 99.6351L223.467 102.815ZM219.192 102.218L200.239 86.6854L230.904 92.3409L219.192 102.218ZM220.902 106.288L240.3 103.162L218.123 129.881L220.902 106.288ZM197.665 88.2351L217.606 105.157L214.72 129.899L197.665 88.2351Z" fill="#BFFFC8" stroke="#BFFFC8" stroke-width="1.20002"/>
<path d="M0 141.502C0 134.046 6.04416 128.002 13.5 128.002H285C301.569 128.002 315 141.433 315 158.002V338.002C315 354.57 301.569 368.002 285 368.002H30C13.4315 368.002 0 354.57 0 338.002V141.502Z" fill="#2D3439"/>
<mask id="mask0_574_34312" style="mask-type:alpha" maskUnits="userSpaceOnUse" x="0" y="128" width="315" height="241">
<path d="M0 128.002H285C301.569 128.002 315 141.433 315 158.002V338.002C315 354.57 301.569 368.002 285 368.002H30C13.4315 368.002 0 354.57 0 338.002V128.002Z" fill="#077453"/>
</mask>
<g mask="url(#mask0_574_34312)">
<path opacity="0.4" d="M-16.3922 155.282L-10.7631 160.911L-5.13392 155.282L-10.7631 149.652L-16.3922 155.282ZM67.5752 155.282V156.257H67.979L68.2646 155.971L67.5752 155.282ZM104.952 117.904L96.9916 117.904V125.865L104.952 125.865V117.904ZM-16.3922 176.722L-10.7631 182.351L-5.13392 176.722L-10.7631 171.092L-16.3922 176.722ZM57.1244 176.722L51.4952 171.092L45.866 176.722L51.4952 182.351L57.1244 176.722ZM-17.6292 199.398L-12 205.028L-6.37084 199.398L-12 193.769L-17.6292 199.398ZM70.4613 199.398V200.373H70.8652L71.1507 200.088L70.4613 199.398ZM123.649 146.211V145.236H123.245L122.959 145.521L123.649 146.211ZM238.127 146.211L232.498 140.582L226.869 146.211L232.498 151.84L238.127 146.211ZM-16.3922 224.549L-10.7631 230.178L-5.13392 224.549L-10.7631 218.92L-16.3922 224.549ZM87.3659 224.549V225.524H87.7697L88.0553 225.239L87.3659 224.549ZM139.729 172.186V171.211H139.325L139.039 171.497L139.729 172.186ZM202.256 172.186L196.627 166.557L190.998 172.186L196.627 177.815L202.256 172.186ZM-16.3922 248.875L-10.7631 254.504L-5.13392 248.875L-10.7631 243.246L-16.3922 248.875ZM102.89 248.875L97.2612 243.246L91.6321 248.875L97.2612 254.504L102.89 248.875ZM-10.7631 156.257H-9.13103V154.307H-10.7631V156.257ZM-2.60285 156.257H0.661247V154.307H-2.60285V156.257ZM7.18943 156.257H10.4535V154.307H7.18943V156.257ZM16.9817 156.257H20.2458V154.307H16.9817V156.257ZM26.774 156.257H30.0381V154.307H26.774V156.257ZM36.5663 156.257H39.8304V154.307H36.5663V156.257ZM46.3586 156.257H49.6227V154.307H46.3586V156.257ZM56.1508 156.257H59.4149V154.307H56.1508V156.257ZM65.9431 156.257H67.5752V154.307H65.9431V156.257ZM68.2646 155.971L69.3778 154.858L67.999 153.479L66.8857 154.592L68.2646 155.971ZM73.8307 150.405L76.0572 148.178L74.6783 146.8L72.4519 149.026L73.8307 150.405ZM80.5101 143.726L82.7366 141.499L81.3577 140.12L79.1312 142.347L80.5101 143.726ZM87.1895 137.046L89.4159 134.82L88.0371 133.441L85.8106 135.667L87.1895 137.046ZM93.8688 130.367L96.0953 128.14L94.7164 126.761L92.49 128.988L93.8688 130.367ZM100.548 123.687L101.661 122.574L100.283 121.195L99.1693 122.309L100.548 123.687ZM-10.7631 177.697H-9.28074V175.747H-10.7631V177.697ZM-3.35138 177.697H-0.386698V175.747H-3.35138V177.697ZM5.54266 177.697H8.50735V175.747H5.54266V177.697ZM14.4367 177.697H17.4014V175.747H14.4367V177.697ZM23.3307 177.697H26.2954V175.747H23.3307V177.697ZM32.2248 177.697H35.1895V175.747H32.2248V177.697ZM41.1188 177.697H44.0835V175.747H41.1188V177.697ZM50.0129 177.697H51.4952V175.747H50.0129V177.697ZM-12 200.373H-10.4729V198.423H-12V200.373ZM-4.36469 200.373H-1.31057V198.423H-4.36469V200.373ZM4.79768 200.373H7.8518V198.423H4.79768V200.373ZM13.96 200.373H17.0142V198.423H13.96V200.373ZM23.1224 200.373H26.1765V198.423H23.1224V200.373ZM32.2848 200.373H35.3389V198.423H32.2848V200.373ZM41.4471 200.373H44.5013V198.423H41.4471V200.373ZM50.6095 200.373H53.6636V198.423H50.6095V200.373ZM59.7719 200.373H62.826V198.423H59.7719V200.373ZM68.9343 200.373H70.4613V198.423H68.9343V200.373ZM71.1507 200.088L72.2588 198.98L70.88 197.601L69.7719 198.709L71.1507 200.088ZM76.6911 194.547L78.9073 192.331L77.5284 190.952L75.3123 193.169L76.6911 194.547ZM83.3396 187.899L85.5557 185.683L84.1768 184.304L81.9607 186.52L83.3396 187.899ZM89.988 181.251L92.2041 179.034L90.8253 177.656L88.6091 179.872L89.988 181.251ZM96.6364 174.602L98.8526 172.386L97.4737 171.007L95.2576 173.223L96.6364 174.602ZM103.285 167.954L105.501 165.738L104.122 164.359L101.906 166.575L103.285 167.954ZM109.933 161.305L112.149 159.089L110.771 157.71L108.554 159.926L109.933 161.305ZM116.582 154.657L118.798 152.441L117.419 151.062L115.203 153.278L116.582 154.657ZM123.23 148.008L124.338 146.9L122.959 145.521L121.851 146.629L123.23 148.008ZM123.649 147.186H125.161V145.236H123.649V147.186ZM131.208 147.186H134.231V145.236H131.208V147.186ZM140.279 147.186H143.302V145.236H140.279V147.186ZM149.349 147.186H152.373V145.236H149.349V147.186ZM158.42 147.186H161.444V145.236H158.42V147.186ZM167.491 147.186H170.514V145.236H167.491V147.186ZM176.562 147.186H179.585V145.236H176.562V147.186ZM185.632 147.186H188.656V145.236H185.632V147.186ZM194.703 147.186H197.727V145.236H194.703V147.186ZM203.774 147.186H206.797V145.236H203.774V147.186ZM212.845 147.186H215.868V145.236H212.845V147.186ZM221.915 147.186H224.939V145.236H221.915V147.186ZM230.986 147.186H232.498V145.236H230.986V147.186ZM-10.7631 225.524H-9.27628V223.574H-10.7631V225.524ZM-3.32907 225.524H-0.355463V223.574H-3.32907V225.524ZM5.59175 225.524H8.56535V223.574H5.59175V225.524ZM14.5126 225.524H17.4862V223.574H14.5126V225.524ZM23.4334 225.524H26.407V223.574H23.4334V225.524ZM32.3542 225.524H35.3278V223.574H32.3542V225.524ZM41.275 225.524H44.2486V223.574H41.275V225.524ZM50.1958 225.524H53.1694V223.574H50.1958V225.524ZM59.1166 225.524H62.0902V223.574H59.1166V225.524ZM68.0374 225.524H71.011V223.574H68.0374V225.524ZM76.9583 225.524H79.9319V223.574H76.9583V225.524ZM85.8791 225.524H87.3659V223.574H85.8791V225.524ZM88.0553 225.239L89.1462 224.148L87.7673 222.769L86.6765 223.86L88.0553 225.239ZM93.5098 219.784L95.6916 217.602L94.3127 216.223L92.1309 218.405L93.5098 219.784ZM100.055 213.239L102.237 211.057L100.858 209.678L98.6763 211.86L100.055 213.239ZM106.601 206.693L108.782 204.512L107.403 203.133L105.222 205.314L106.601 206.693ZM113.146 200.148L115.328 197.966L113.949 196.587L111.767 198.769L113.146 200.148ZM119.691 193.603L121.873 191.421L120.494 190.042L118.312 192.224L119.691 193.603ZM126.237 187.057L128.418 184.875L127.04 183.497L124.858 185.678L126.237 187.057ZM132.782 180.512L134.964 178.33L133.585 176.951L131.403 179.133L132.782 180.512ZM139.327 173.966L140.418 172.876L139.039 171.497L137.949 172.588L139.327 173.966ZM139.729 173.161H141.309V171.211H139.729V173.161ZM147.631 173.161H150.792V171.211H147.631V173.161ZM157.114 173.161H160.275V171.211H157.114V173.161ZM166.597 173.161H169.758V171.211H166.597V173.161ZM176.081 173.161H179.242V171.211H176.081V173.161ZM185.564 173.161H188.725V171.211H185.564V173.161ZM195.047 173.161H196.627V171.211H195.047V173.161ZM-10.7631 249.85H-9.26274V247.9H-10.7631V249.85ZM-3.26139 249.85H-0.260715V247.9H-3.26139V249.85ZM5.74063 249.85H8.74131V247.9H5.74063V249.85ZM14.7427 249.85H17.7433V247.9H14.7427V249.85ZM23.7447 249.85H26.7454V247.9H23.7447V249.85ZM32.7467 249.85H35.7474V247.9H32.7467V249.85ZM41.7487 249.85H44.7494V247.9H41.7487V249.85ZM50.7508 249.85H53.7514V247.9H50.7508V249.85ZM59.7528 249.85H62.7535V247.9H59.7528V249.85ZM68.7548 249.85H71.7555V247.9H68.7548V249.85ZM77.7569 249.85H80.7575V247.9H77.7569V249.85ZM86.7589 249.85H89.7596V247.9H86.7589V249.85ZM95.7609 249.85H97.2612V247.9H95.7609V249.85Z" fill="#BFFFC8"/>
<path opacity="0.4" d="M-16.3922 342.468L-10.7631 336.839L-5.13392 342.468L-10.7631 348.098L-16.3922 342.468ZM67.5752 342.468V341.493H67.979L68.2646 341.779L67.5752 342.468ZM104.952 379.846L96.9916 379.846L96.9916 371.885L104.952 371.885V379.846ZM-16.3922 321.028L-10.7631 315.399L-5.13392 321.028L-10.7631 326.658L-16.3922 321.028ZM57.1244 321.028L51.4952 326.658L45.8661 321.028L51.4952 315.399L57.1244 321.028ZM-17.6292 298.352L-12 292.722L-6.37084 298.352L-12 303.981L-17.6292 298.352ZM70.4613 298.352V297.377H70.8652L71.1507 297.662L70.4613 298.352ZM123.649 351.539V352.514H123.245L122.959 352.229L123.649 351.539ZM238.127 351.539L232.498 357.168L226.869 351.539L232.498 345.91L238.127 351.539ZM-16.3922 273.201L-10.7631 267.572L-5.13392 273.201L-10.7631 278.83L-16.3922 273.201ZM87.3659 273.201V272.226H87.7697L88.0553 272.511L87.3659 273.201ZM139.729 325.564V326.539H139.325L139.039 326.253L139.729 325.564ZM202.256 325.564L196.627 331.193L190.998 325.564L196.627 319.935L202.256 325.564ZM-10.7631 341.493H-9.13103V343.443H-10.7631V341.493ZM-2.60285 341.493H0.661247V343.443H-2.60285V341.493ZM7.18943 341.493H10.4535V343.443H7.18943V341.493ZM16.9817 341.493H20.2458V343.443H16.9817V341.493ZM26.774 341.493H30.0381V343.443H26.774V341.493ZM36.5663 341.493H39.8304V343.443H36.5663V341.493ZM46.3586 341.493H49.6227V343.443H46.3586V341.493ZM56.1508 341.493H59.4149V343.443H56.1508V341.493ZM65.9431 341.493H67.5752V343.443H65.9431V341.493ZM68.2646 341.779L69.3778 342.892L67.999 344.271L66.8857 343.158L68.2646 341.779ZM73.8307 347.345L76.0572 349.572L74.6783 350.95L72.4519 348.724L73.8307 347.345ZM80.5101 354.024L82.7366 356.251L81.3577 357.63L79.1312 355.403L80.5101 354.024ZM87.1895 360.704L89.4159 362.93L88.0371 364.309L85.8106 362.083L87.1895 360.704ZM93.8688 367.383L96.0953 369.61L94.7164 370.989L92.49 368.762L93.8688 367.383ZM100.548 374.063L101.661 375.176L100.283 376.555L99.1693 375.441L100.548 374.063ZM-10.7631 320.053H-9.28074V322.003H-10.7631V320.053ZM-3.35138 320.053H-0.386698V322.003H-3.35138V320.053ZM5.54266 320.053H8.50735V322.003H5.54266V320.053ZM14.4367 320.053H17.4014V322.003H14.4367V320.053ZM23.3307 320.053H26.2954V322.003H23.3307V320.053ZM32.2248 320.053H35.1895V322.003H32.2248V320.053ZM41.1188 320.053H44.0835V322.003H41.1188V320.053ZM50.0129 320.053H51.4952V322.003H50.0129V320.053ZM-12 297.377H-10.4729V299.327H-12V297.377ZM-4.36469 297.377H-1.31057V299.327H-4.36469V297.377ZM4.79768 297.377H7.8518V299.327H4.79768V297.377ZM13.96 297.377H17.0142V299.327H13.96V297.377ZM23.1224 297.377H26.1765V299.327H23.1224V297.377ZM32.2848 297.377H35.3389V299.327H32.2848V297.377ZM41.4472 297.377H44.5013V299.327H41.4472V297.377ZM50.6095 297.377H53.6636V299.327H50.6095V297.377ZM59.7719 297.377H62.826V299.327H59.7719V297.377ZM68.9343 297.377H70.4613V299.327H68.9343V297.377ZM71.1507 297.662L72.2588 298.77L70.88 300.149L69.7719 299.041L71.1507 297.662ZM76.6911 303.203L78.9073 305.419L77.5284 306.798L75.3123 304.581L76.6911 303.203ZM83.3396 309.851L85.5557 312.067L84.1768 313.446L81.9607 311.23L83.3396 309.851ZM89.988 316.499L92.2042 318.716L90.8253 320.094L88.6091 317.878L89.988 316.499ZM96.6365 323.148L98.8526 325.364L97.4737 326.743L95.2576 324.527L96.6365 323.148ZM103.285 329.796L105.501 332.012L104.122 333.391L101.906 331.175L103.285 329.796ZM109.933 336.445L112.149 338.661L110.771 340.04L108.554 337.824L109.933 336.445ZM116.582 343.093L118.798 345.309L117.419 346.688L115.203 344.472L116.582 343.093ZM123.23 349.742L124.338 350.85L122.959 352.229L121.851 351.12L123.23 349.742ZM123.649 350.564H125.161V352.514H123.649V350.564ZM131.208 350.564H134.231V352.514H131.208V350.564ZM140.279 350.564H143.302V352.514H140.279V350.564ZM149.349 350.564H152.373V352.514H149.349V350.564ZM158.42 350.564H161.444V352.514H158.42V350.564ZM167.491 350.564H170.514V352.514H167.491V350.564ZM176.562 350.564H179.585V352.514H176.562V350.564ZM185.632 350.564H188.656V352.514H185.632V350.564ZM194.703 350.564H197.727V352.514H194.703V350.564ZM203.774 350.564H206.797V352.514H203.774V350.564ZM212.845 350.564H215.868V352.514H212.845V350.564ZM221.915 350.564H224.939V352.514H221.915V350.564ZM230.986 350.564H232.498V352.514H230.986V350.564ZM-10.7631 272.226H-9.27628V274.176H-10.7631V272.226ZM-3.32907 272.226H-0.355463V274.176H-3.32907V272.226ZM5.59175 272.226H8.56535V274.176H5.59175V272.226ZM14.5126 272.226H17.4862V274.176H14.5126V272.226ZM23.4334 272.226H26.407V274.176H23.4334V272.226ZM32.3542 272.226H35.3278V274.176H32.3542V272.226ZM41.275 272.226H44.2486V274.176H41.275V272.226ZM50.1958 272.226H53.1694V274.176H50.1958V272.226ZM59.1166 272.226H62.0902V274.176H59.1166V272.226ZM68.0375 272.226H71.0111V274.176H68.0375V272.226ZM76.9583 272.226H79.9319V274.176H76.9583V272.226ZM85.8791 272.226H87.3659V274.176H85.8791V272.226ZM88.0553 272.511L89.1462 273.602L87.7673 274.981L86.6765 273.89L88.0553 272.511ZM93.5098 277.966L95.6916 280.148L94.3127 281.527L92.1309 279.345L93.5098 277.966ZM100.055 284.511L102.237 286.693L100.858 288.072L98.6763 285.89L100.055 284.511ZM106.601 291.057L108.782 293.238L107.403 294.617L105.222 292.436L106.601 291.057ZM113.146 297.602L115.328 299.784L113.949 301.163L111.767 298.981L113.146 297.602ZM119.691 304.147L121.873 306.329L120.494 307.708L118.312 305.526L119.691 304.147ZM126.237 310.693L128.418 312.875L127.04 314.253L124.858 312.072L126.237 310.693ZM132.782 317.238L134.964 319.42L133.585 320.799L131.403 318.617L132.782 317.238ZM139.327 323.784L140.418 324.874L139.039 326.253L137.949 325.162L139.327 323.784ZM139.729 324.589H141.309V326.539H139.729V324.589ZM147.631 324.589H150.792V326.539H147.631V324.589ZM157.114 324.589H160.275V326.539H157.114V324.589ZM166.597 324.589H169.758V326.539H166.597V324.589ZM176.081 324.589H179.242V326.539H176.081V324.589ZM185.564 324.589H188.725V326.539H185.564V324.589ZM195.047 324.589H196.627V326.539H195.047V324.589Z" fill="#BFFFC8"/>
</g>
<path d="M199 232C199 223.716 205.716 217 214 217H315V279H214C205.716 279 199 272.284 199 264V232Z" fill="#BFFFC8"/>
<path d="M250.242 246.382H252.921V256.089H250.242V246.382ZM251.601 245.266C251.213 245.266 250.886 245.137 250.621 244.878C250.355 244.619 250.223 244.299 250.223 243.917C250.223 243.535 250.355 243.215 250.621 242.956C250.886 242.697 251.209 242.568 251.591 242.568C251.973 242.568 252.293 242.697 252.552 242.956C252.817 243.215 252.95 243.535 252.95 243.917C252.95 244.299 252.821 244.619 252.562 244.878C252.309 245.137 251.989 245.266 251.601 245.266Z" fill="#2D3439"/>
<path d="M263.876 249.915V256.089H261.197V250.653C261.197 250.31 261.113 250.003 260.944 249.731C260.783 249.453 260.563 249.233 260.284 249.071C260.013 248.909 259.708 248.828 259.372 248.828C259.035 248.828 258.728 248.909 258.45 249.071C258.172 249.233 257.952 249.453 257.79 249.731C257.628 250.003 257.547 250.31 257.547 250.653V256.089H254.868L254.859 246.382H257.537L257.547 247.101C257.871 246.79 258.249 246.547 258.683 246.373C259.123 246.198 259.585 246.111 260.071 246.111C260.776 246.111 261.413 246.282 261.983 246.625C262.559 246.968 263.018 247.427 263.361 248.003C263.704 248.573 263.876 249.21 263.876 249.915Z" fill="#2D3439"/>
<path d="M270.149 256.36C269.211 256.36 268.354 256.131 267.577 255.671C266.807 255.212 266.193 254.594 265.733 253.817C265.274 253.041 265.044 252.18 265.044 251.236C265.044 250.53 265.177 249.87 265.442 249.255C265.707 248.641 266.073 248.1 266.539 247.635C267.011 247.162 267.555 246.793 268.169 246.528C268.784 246.263 269.444 246.13 270.149 246.13C270.712 246.13 271.211 246.253 271.644 246.499C272.078 246.738 272.446 247.049 272.751 247.431V246.382H275.43V261.002H272.751V255.06C272.446 255.435 272.078 255.746 271.644 255.992C271.211 256.237 270.712 256.36 270.149 256.36ZM270.188 248.702C269.742 248.702 269.337 248.819 268.975 249.052C268.613 249.278 268.325 249.585 268.111 249.974C267.898 250.356 267.791 250.776 267.791 251.236C267.791 251.708 267.898 252.135 268.111 252.517C268.325 252.899 268.613 253.203 268.975 253.429C269.337 253.656 269.742 253.769 270.188 253.769C270.628 253.769 271.023 253.656 271.372 253.429C271.728 253.203 272.006 252.899 272.207 252.517C272.414 252.129 272.518 251.701 272.518 251.236C272.518 250.77 272.414 250.346 272.207 249.964C272.006 249.582 271.728 249.278 271.372 249.052C271.023 248.819 270.628 248.702 270.188 248.702Z" fill="#2D3439"/>
<path d="M277.011 252.536V246.382H279.689V251.798C279.689 252.141 279.77 252.452 279.932 252.73C280.1 253.002 280.324 253.219 280.602 253.381C280.88 253.542 281.184 253.623 281.514 253.623C281.851 253.623 282.158 253.542 282.436 253.381C282.715 253.219 282.935 253.002 283.096 252.73C283.258 252.452 283.339 252.141 283.339 251.798V246.382H286.018L286.028 256.089H283.349L283.339 255.351C283.015 255.662 282.634 255.904 282.194 256.079C281.76 256.254 281.301 256.341 280.815 256.341C280.117 256.341 279.479 256.17 278.903 255.827C278.327 255.484 277.868 255.027 277.525 254.458C277.182 253.882 277.011 253.241 277.011 252.536Z" fill="#2D3439"/>
<path d="M294.921 241.529H297.6V256.089H294.921V255.06C294.624 255.435 294.255 255.742 293.815 255.982C293.375 256.221 292.873 256.341 292.31 256.341C291.605 256.341 290.945 256.208 290.33 255.943C289.716 255.678 289.172 255.312 288.7 254.846C288.234 254.374 287.868 253.83 287.603 253.216C287.338 252.601 287.205 251.941 287.205 251.236C287.205 250.53 287.338 249.87 287.603 249.255C287.868 248.641 288.234 248.1 288.7 247.635C289.172 247.162 289.716 246.793 290.33 246.528C290.945 246.263 291.605 246.13 292.31 246.13C292.873 246.13 293.375 246.25 293.815 246.489C294.255 246.722 294.624 247.029 294.921 247.411V241.529ZM292.349 253.769C292.789 253.769 293.187 253.656 293.543 253.429C293.899 253.203 294.181 252.899 294.388 252.517C294.595 252.129 294.698 251.701 294.698 251.236C294.698 250.763 294.595 250.336 294.388 249.954C294.181 249.573 293.899 249.268 293.543 249.042C293.187 248.815 292.789 248.702 292.349 248.702C291.903 248.702 291.498 248.815 291.136 249.042C290.774 249.268 290.486 249.576 290.272 249.964C290.059 250.346 289.952 250.77 289.952 251.236C289.952 251.701 290.059 252.129 290.272 252.517C290.492 252.899 290.783 253.203 291.146 253.429C291.508 253.656 291.909 253.769 292.349 253.769Z" fill="#2D3439"/>
<path fill-rule="evenodd" clip-rule="evenodd" d="M231.56 235.095C231.049 235.033 230.528 235.002 230 235.002C223.711 235.002 218.465 239.468 217.26 245.402H228.44C230.163 245.402 231.56 244.005 231.56 242.282V235.095ZM230 261.001C230.528 261.001 231.048 260.97 231.56 260.909V249.561C231.56 247.838 230.163 246.441 228.44 246.441H217.093C217.031 246.953 217 247.473 217 248.001C217 255.181 222.82 261.001 230 261.001ZM243 248.001C243 254.291 238.534 259.537 232.6 260.741V249.561C232.6 247.838 233.997 246.441 235.72 246.441H242.907C242.968 246.953 243 247.473 243 248.001ZM232.6 242.282C232.6 244.005 233.997 245.402 235.72 245.402H242.74C241.706 240.308 237.693 236.296 232.6 235.262V242.282Z" fill="#2D3439"/>
</svg>
