<svg width="40" height="40" fill="none" xmlns="http://www.w3.org/2000/svg"><circle cx="20" cy="20" r="20" transform="matrix(-1 0 0 1 40 0)" fill="#F4F5FA"/><path opacity=".6" fill-rule="evenodd" clip-rule="evenodd" d="M21.488 6.675a2.107 2.107 0 0 0-2.98 0l-8.94 8.94a2.107 2.107 0 0 0 2.98 2.98l8.94-8.94a2.107 2.107 0 0 0 0-2.98zm.002 26.817a2.107 2.107 0 0 0 0-2.98l-8.94-8.94a2.107 2.107 0 1 0-2.98 2.98l8.94 8.94a2.107 2.107 0 0 0 2.98 0zm9.231-15.518a2.107 2.107 0 0 1 0 4.214H18.08a2.107 2.107 0 1 1 0-4.214h12.642z" fill="#517185"/></svg>