<svg width="40" height="40" fill="none" xmlns="http://www.w3.org/2000/svg"><circle cx="20" cy="20" r="20" fill="#077453"/><path fill-rule="evenodd" clip-rule="evenodd" d="M9.467 11.656c0-1.164.943-2.107 2.107-2.107h12.642a2.107 2.107 0 0 1 0 4.214H11.574a2.107 2.107 0 0 1-2.107-2.107zm18.96 18.963a2.107 2.107 0 0 1-2.107-2.107V15.87a2.107 2.107 0 1 1 4.214 0v12.642a2.107 2.107 0 0 1-2.107 2.107zm-17.5-4.445a2.107 2.107 0 1 0 2.98 2.98l8.94-8.94a2.107 2.107 0 1 0-2.98-2.979l-8.94 8.94z" fill="#BFFFC8"/></svg>