<svg width="24" height="24" fill="none" xmlns="http://www.w3.org/2000/svg"><circle cx="12" cy="12" r="12" fill="#077453"/><path fill-rule="evenodd" clip-rule="evenodd" d="M5.68 6.993c0-.698.566-1.264 1.264-1.264h7.586a1.264 1.264 0 1 1 0 2.529H6.944A1.264 1.264 0 0 1 5.68 6.993zm11.376 11.379a1.264 1.264 0 0 1-1.264-1.265V9.522a1.264 1.264 0 1 1 2.529 0v7.585c0 .698-.566 1.265-1.265 1.265zm-10.5-2.668a1.264 1.264 0 0 0 1.788 1.788l5.364-5.363a1.264 1.264 0 1 0-1.788-1.788l-5.364 5.364z" fill="#BFFFC8"/></svg>