<svg width="40" height="40" fill="none" xmlns="http://www.w3.org/2000/svg"><circle cx="20" cy="20" r="20" fill="#F4F5FA"/><path opacity=".6" fill-rule="evenodd" clip-rule="evenodd" d="M18.512 6.675a2.107 2.107 0 0 1 2.98 0l8.94 8.94a2.107 2.107 0 0 1-2.98 2.98l-8.94-8.94a2.107 2.107 0 0 1 0-2.98zm-.002 26.817a2.107 2.107 0 0 1 0-2.98l8.94-8.94a2.107 2.107 0 1 1 2.98 2.98l-8.94 8.94a2.107 2.107 0 0 1-2.98 0zM9.28 17.974a2.107 2.107 0 0 0 0 4.214H21.92a2.107 2.107 0 1 0 0-4.214H9.279z" fill="#517185"/></svg>