<svg width="36" height="32" viewBox="0 0 36 32" fill="none" xmlns="http://www.w3.org/2000/svg">
<path d="M8.91906 18.5773C8.91906 18.3139 8.93478 18.0544 8.95837 17.7988C5.30187 16.7333 2.59684 14.3232 2.59684 11.5199C2.59684 10.9773 2.61257 10.0376 2.64009 9.95115C3.47362 12.0153 6.59541 13.6587 10.2401 14.2446L12.0762 11.3115C12.4734 10.6785 12.9648 10.1123 13.5428 9.62481C14.0972 9.15694 14.7301 8.75591 15.43 8.43744C16.2675 8.05607 17.1796 7.79264 18.1625 7.64717C18.0604 7.50563 17.9974 7.33263 17.9974 7.14391C17.9974 6.6721 18.3906 6.27893 18.8624 6.27893C19.3342 6.27893 19.7274 6.6721 19.7274 7.14391C19.7274 7.27759 19.6959 7.40733 19.641 7.52135C19.7628 7.51742 19.8808 7.51742 20.0026 7.51742C21.9214 7.51742 23.9344 7.92239 25.8963 8.68907C25.8687 3.89632 20.1481 0 13.1025 0C6.04104 0 0.308619 3.92384 0.308619 8.73232L0.304688 12.5579C0.304688 16.4345 4.03589 19.7136 9.18252 20.838C9.00556 20.0714 8.91513 19.3165 8.91906 18.5773ZM17.3094 2.54775C17.7812 2.54775 18.1743 2.94092 18.1743 3.41272C18.1743 3.88453 17.7812 4.2777 17.3094 4.2777C16.8376 4.2777 16.4444 3.88453 16.4444 3.41272C16.4444 2.94092 16.8336 2.54775 17.3094 2.54775ZM13.9281 5.49652C14.3999 5.49652 14.7931 5.88969 14.7931 6.3615C14.7931 6.8333 14.3999 7.22647 13.9281 7.22647C13.4563 7.22647 13.0631 6.8333 13.0631 6.3615C13.0631 5.88969 13.4563 5.49652 13.9281 5.49652ZM10.7198 3.50315C11.1916 3.50315 11.5848 3.89632 11.5848 4.36812C11.5848 4.83993 11.1916 5.2331 10.7198 5.2331C10.248 5.2331 9.85481 4.83993 9.85481 4.36812C9.85481 3.89632 10.248 3.50315 10.7198 3.50315ZM8.7264 7.4899C9.19821 7.4899 9.59138 7.88307 9.59138 8.35487C9.59138 8.82668 9.19821 9.21985 8.7264 9.21985C8.2546 9.21985 7.86142 8.82668 7.86142 8.35487C7.86142 7.88307 8.2546 7.4899 8.7264 7.4899ZM6.30053 5.1466C6.77234 5.1466 7.16551 5.53977 7.16551 6.01158C7.16551 6.48338 6.77234 6.87655 6.30053 6.87655C5.82872 6.87655 5.43555 6.48338 5.43555 6.01158C5.43555 5.5437 5.82872 5.1466 6.30053 5.1466Z" fill="#BFFFC8"/>
<path d="M28.5547 11.3355C27.6858 10.789 26.7972 10.3329 25.9047 9.95544C23.8956 9.11012 21.8707 8.69336 20.011 8.69336C17.0033 8.69336 14.432 9.78637 13.0794 11.937L11.5343 14.4022L11.0467 15.1807C10.4963 16.0614 10.1936 17.0443 10.1189 18.0862C10.0481 19.0455 10.1739 20.0521 10.4727 21.0664C11.3534 24.0624 13.7596 27.1449 17.2589 29.3427C20.0937 31.1198 23.1368 32.0005 25.8261 32.0005C28.8142 32.0005 31.362 30.9154 32.7066 28.7726C32.7263 28.7411 34.6764 25.6312 34.7472 25.5211C37.3028 21.4439 34.5348 15.0863 28.5547 11.3355ZM28.4879 20.575C28.4879 21.0468 28.0947 21.4399 27.6229 21.4399C27.1511 21.4399 26.7579 21.0468 26.7579 20.575C26.7579 20.1032 27.1511 19.71 27.6229 19.71C28.0947 19.71 28.4879 20.1032 28.4879 20.575ZM27.3594 14.2489C27.8312 14.2489 28.2244 14.642 28.2244 15.1138C28.2244 15.5856 27.8312 15.9788 27.3594 15.9788C26.8876 15.9788 26.4944 15.5856 26.4944 15.1138C26.4944 14.642 26.8876 14.2489 27.3594 14.2489ZM23.6361 18.4086C23.6361 18.8804 23.2429 19.2736 22.7711 19.2736C22.4447 19.2736 22.1538 19.0849 22.0044 18.8096C21.9415 18.6877 21.9022 18.5501 21.9022 18.4086C21.9022 17.9368 22.2954 17.5436 22.7672 17.5436C22.9912 17.5436 23.1957 17.6301 23.349 17.7756C23.526 17.9328 23.6361 18.157 23.6361 18.4086ZM24.847 14.8543C24.847 15.3261 24.4538 15.7193 23.982 15.7193C23.5102 15.7193 23.1171 15.3261 23.1171 14.8543C23.1171 14.3825 23.5102 13.9894 23.982 13.9894C24.4538 13.9894 24.847 14.3825 24.847 14.8543ZM20.6873 11.7365C21.0451 11.7365 21.3596 11.9645 21.4894 12.2791C21.5326 12.3813 21.5562 12.4875 21.5562 12.6054C21.5562 13.0772 21.163 13.4704 20.6912 13.4704C20.3963 13.4704 20.1368 13.3171 19.9795 13.089C19.8813 12.9514 19.8262 12.7823 19.8262 12.6015C19.8223 12.1297 20.2155 11.7365 20.6873 11.7365ZM31.3305 26.6809C29.3175 29.8931 23.4946 29.8695 18.7843 26.9128C16.4056 25.4188 14.5735 23.3468 13.6063 21.2473C13.162 20.28 12.8985 19.3089 12.8474 18.381C12.7924 17.3391 13.0047 16.3562 13.5315 15.5148C13.7321 15.1964 14.0426 14.7167 14.2353 14.4336C14.3179 14.3117 14.3808 14.2252 14.4044 14.2095C14.3926 14.2803 14.3808 14.3511 14.3729 14.4258C14.2471 15.5424 14.6481 16.8634 15.4345 18.2002C15.9377 19.0612 16.6022 19.9262 17.3846 20.7558C18.3754 21.8017 19.5628 22.7807 20.8642 23.5985C24.902 26.1304 29.9268 27.0033 32.1875 25.3677C32.1876 25.3638 31.6214 26.2209 31.3305 26.6809ZM32.0421 19.1006C32.0421 19.5724 31.6489 19.9656 31.1771 19.9656C30.7053 19.9656 30.3121 19.5724 30.3121 19.1006C30.3121 18.6288 30.7053 18.2356 31.1771 18.2356C31.6489 18.2356 32.0421 18.6288 32.0421 19.1006Z" fill="#BFFFC8"/>
</svg>
