<svg width="16" height="16" viewBox="0 0 16 16" fill="none" xmlns="http://www.w3.org/2000/svg">
<g id="Rectangle 851">
<rect id="Rectangle 579" width="16" height="16" transform="matrix(-4.37114e-08 1 1 4.37114e-08 0 0)"/>
<path id="Subtract" fill-rule="evenodd" clip-rule="evenodd" d="M7.13076 2.00386C7.51465 1.33205 8.48335 1.33205 8.86724 2.00386L15.1441 12.9883C15.525 13.655 15.0436 14.4844 14.2758 14.4844H1.72218C0.954358 14.4844 0.472991 13.655 0.853938 12.9883L7.13076 2.00386ZM6.999 6.48444C6.999 5.93215 7.44672 5.48444 7.999 5.48444C8.55129 5.48444 8.999 5.93215 8.999 6.48444V9.48444C8.999 10.0367 8.55129 10.4844 7.999 10.4844C7.44672 10.4844 6.999 10.0367 6.999 9.48444V6.48444ZM7.99902 11C7.44674 11 6.99902 11.4477 6.99902 12C6.99902 12.5523 7.44674 13 7.99902 13C8.55131 13 8.99902 12.5523 8.99902 12C8.99902 11.4477 8.55131 11 7.99902 11Z" fill="#F45C3B"/>
</g>
</svg>
