<svg width="156" height="50" fill="none" xmlns="http://www.w3.org/2000/svg"><path fill-rule="evenodd" clip-rule="evenodd" d="M25 0c1.058 0 2.101.066 3.125.193v13.349a6.25 6.25 0 0 1-6.25 6.25H.543C2.94 8.484 12.98 0 25 0zm0 50c1.058 0 2.101-.066 3.125-.193V28.125a6.25 6.25 0 0 0-6.25-6.25H.193A25.247 25.247 0 0 0 0 25c0 13.807 11.193 25 25 25zm25-25c0-1.058-.066-2.101-.194-3.125H36.458a6.25 6.25 0 0 0-6.25 6.25v21.332C41.515 47.06 49.999 37.02 49.999 25zm-.544-5.208c-2.04-9.628-9.62-17.209-19.248-19.249v12.999a6.25 6.25 0 0 0 6.25 6.25h12.998zm106.1-7.24h-5.151v11.312a6.554 6.554 0 0 0-2.128-1.773c-.847-.46-1.811-.69-2.894-.69a9.503 9.503 0 0 0-3.807.765 9.983 9.983 0 0 0-3.136 2.128 9.924 9.924 0 0 0-2.109 3.117 9.492 9.492 0 0 0-.766 3.808c0 1.356.255 2.625.766 3.808a10.152 10.152 0 0 0 2.109 3.136c.908.896 1.953 1.599 3.136 2.109a9.503 9.503 0 0 0 3.807.765c1.083 0 2.047-.23 2.894-.69a6.88 6.88 0 0 0 2.128-1.774v1.979h5.151v-28zm-7.802 22.885a4.187 4.187 0 0 1-2.296.654 4.277 4.277 0 0 1-2.314-.654 4.939 4.939 0 0 1-1.68-1.754 5.024 5.024 0 0 1-.616-2.464c0-.896.205-1.711.616-2.445A4.74 4.74 0 0 1 143.125 27a4.312 4.312 0 0 1 2.333-.653c.846 0 1.612.218 2.296.653a4.694 4.694 0 0 1 1.624 1.755c.398.734.597 1.555.597 2.464 0 .896-.199 1.717-.597 2.464a4.693 4.693 0 0 1-1.624 1.754zM64.482 21.886h5.152v18.666h-5.152V21.886zm2.614-2.147c-.747 0-1.376-.249-1.886-.746-.51-.498-.765-1.114-.765-1.848 0-.735.255-1.35.765-1.848s1.133-.747 1.867-.747 1.35.249 1.848.747c.51.497.765 1.113.765 1.848 0 .734-.249 1.35-.747 1.848-.485.497-1.1.746-1.847.746zM90.7 28.68v11.872h-5.152V30.099a3.3 3.3 0 0 0-.485-1.773 3.45 3.45 0 0 0-1.27-1.27 3.365 3.365 0 0 0-1.754-.466c-.647 0-1.238.155-1.774.466a3.45 3.45 0 0 0-1.269 1.27 3.4 3.4 0 0 0-.466 1.773v10.453h-5.152l-.019-18.666h5.152l.019 1.381a6.775 6.775 0 0 1 2.183-1.4 7.166 7.166 0 0 1 2.67-.504c1.356 0 2.582.33 3.677.99a7.511 7.511 0 0 1 2.65 2.65c.66 1.095.99 2.32.99 3.677zm7.118 11.07c1.494.883 3.142 1.324 4.947 1.324 1.082 0 2.041-.236 2.874-.709a7.421 7.421 0 0 0 2.128-1.792V50h5.152V21.886h-5.152v2.016a7.047 7.047 0 0 0-2.128-1.792c-.833-.473-1.792-.71-2.874-.71a9.505 9.505 0 0 0-3.808.766 9.997 9.997 0 0 0-5.245 5.245 9.505 9.505 0 0 0-.765 3.808c0 1.817.441 3.472 1.325 4.965a10.037 10.037 0 0 0 3.546 3.565zm2.688-12.731a4.225 4.225 0 0 1 2.333-.672c.847 0 1.606.224 2.278.672a4.55 4.55 0 0 1 1.605 1.755c.398.734.597 1.549.597 2.445 0 .896-.199 1.717-.597 2.464a4.55 4.55 0 0 1-1.605 1.754c-.672.436-1.431.654-2.278.654a4.314 4.314 0 0 1-2.333-.654 4.787 4.787 0 0 1-1.661-1.754c-.41-.734-.616-1.556-.616-2.464 0-.884.205-1.693.616-2.427a4.747 4.747 0 0 1 1.661-1.773zm15.453 6.701V21.886h5.152V32.3a3.5 3.5 0 0 0 .467 1.792c.323.523.753.94 1.288 1.251.535.311 1.12.467 1.754.467a3.47 3.47 0 0 0 1.774-.467 3.495 3.495 0 0 0 1.269-1.25 3.5 3.5 0 0 0 .466-1.793V21.886h5.152l.019 18.666h-5.152l-.019-1.419a6.724 6.724 0 0 1-2.202 1.4 7.024 7.024 0 0 1-2.651.504c-1.344 0-2.569-.33-3.677-.99a7.56 7.56 0 0 1-2.65-2.631c-.66-1.108-.99-2.34-.99-3.696z" fill="#BFFFC8"/></svg>