<svg width="400" height="400" fill="none" xmlns="http://www.w3.org/2000/svg"><rect x="50.299" y="148.503" width="98.204" height="98.204" rx="19.162" transform="rotate(-90 50.299 148.503)" fill="#BFFFC8"/><rect x="100.6" y="198.802" width="47.904" height="47.904" rx="4.79" transform="rotate(-90 100.6 198.802)" fill="#819EB0" fill-opacity=".8"/><path fill-rule="evenodd" clip-rule="evenodd" d="M119.229 198.802c0-10.288-8.341-18.629-18.629-18.629v-10.645c16.168 0 29.274 13.106 29.274 29.274h-10.645z" fill="#BFFFC8"/><rect y="299.401" width="98.204" height="98.204" rx="19.162" transform="rotate(-90 0 299.401)" fill="#BFFFC8"/><rect x="98.203" y="150.898" width="47.904" height="47.904" rx="4.79" transform="rotate(90 98.203 150.898)" fill="#819EB0" fill-opacity=".8"/><path fill-rule="evenodd" clip-rule="evenodd" d="M79.574 150.898c0 10.289 8.34 18.63 18.63 18.63v10.645c-16.169 0-29.276-13.107-29.276-29.275h10.646z" fill="#BFFFC8"/><rect width="47.904" height="47.904" rx="4.79" transform="matrix(0 1 1 0 100.6 251.497)" fill="#819EB0" fill-opacity=".8"/><path fill-rule="evenodd" clip-rule="evenodd" d="M119.229 251.497c0 10.289-8.341 18.629-18.629 18.629v10.646c16.168 0 29.274-13.107 29.274-29.275h-10.645z" fill="#BFFFC8"/><rect x="251.496" y="148.503" width="47.904" height="47.904" rx="4.79" transform="rotate(-90 251.496 148.503)" fill="#819EB0" fill-opacity=".8"/><path fill-rule="evenodd" clip-rule="evenodd" d="M270.126 148.503c0-10.289-8.341-18.629-18.63-18.629v-10.646c16.168 0 29.275 13.107 29.275 29.275h-10.645z" fill="#BFFFC8"/><rect x="198.803" y="299.401" width="47.904" height="47.904" rx="4.79" transform="rotate(180 198.803 299.401)" fill="#819EB0" fill-opacity=".8"/><path fill-rule="evenodd" clip-rule="evenodd" d="M198.803 280.772c-10.289 0-18.63 8.34-18.63 18.629h-10.645c0-16.168 13.107-29.275 29.275-29.275v10.646z" fill="#BFFFC8"/><rect x="150.898" y="400" width="98.204" height="98.204" rx="19.162" transform="rotate(-90 150.898 400)" fill="#BFFFC8"/><rect x="201.197" y="98.204" width="98.204" height="98.204" rx="19.162" transform="rotate(-90 201.197 98.204)" fill="#BFFFC8"/><rect x="150.898" y="148.503" width="47.904" height="47.904" rx="4.79" transform="rotate(-90 150.898 148.503)" fill="#819EB0" fill-opacity=".8"/><rect x="251.496" y="150.898" width="47.904" height="47.904" rx="4.79" fill="#819EB0" fill-opacity=".8"/><path fill-rule="evenodd" clip-rule="evenodd" d="M251.496 169.528c10.289 0 18.63-8.341 18.63-18.63h10.645c0 16.168-13.107 29.275-29.275 29.275v-10.645z" fill="#BFFFC8"/><rect x="198.803" y="98.204" width="47.904" height="47.904" rx="4.79" transform="rotate(180 198.803 98.204)" fill="#819EB0" fill-opacity=".8"/><rect x="249.102" y="100.599" width="47.904" height="47.904" rx="4.79" transform="rotate(90 249.102 100.599)" fill="#819EB0" fill-opacity=".8"/><path fill-rule="evenodd" clip-rule="evenodd" d="M230.472 100.599c0 10.289 8.341 18.629 18.63 18.629v10.646c-16.168 0-29.275-13.107-29.275-29.275h10.645z" fill="#BFFFC8"/><rect x="201.197" y="251.497" width="47.904" height="47.904" rx="4.79" fill="#819EB0" fill-opacity=".8"/><path d="M219.827 251.497c0 10.289-8.341 18.629-18.63 18.629v10.646c9.901 0 18.654-4.915 23.952-12.439 5.298 7.524 14.051 12.439 23.952 12.439v-10.646c-10.288 0-18.629-8.34-18.629-18.629h-10.645z" fill="#BFFFC8"/><rect x="148.504" y="201.198" width="47.904" height="47.904" rx="4.79" transform="rotate(90 148.504 201.198)" fill="#819EB0" fill-opacity=".8"/><path d="M148.504 219.827c-10.289 0-18.63-8.341-18.63-18.629h-10.645c0 9.901 4.915 18.654 12.439 23.952-7.524 5.298-12.439 14.051-12.439 23.952h10.645c0-10.289 8.341-18.629 18.63-18.629v-10.646z" fill="#BFFFC8"/><rect width="47.904" height="47.904" rx="4.79" transform="matrix(0 -1 -1 0 299.4 249.102)" fill="#819EB0" fill-opacity=".8"/><path fill-rule="evenodd" clip-rule="evenodd" d="M280.771 249.102c0-10.289 8.341-18.63 18.629-18.63v-10.645c-16.168 0-29.274 13.107-29.274 29.275h10.645z" fill="#BFFFC8"/><rect width="47.904" height="47.904" rx="4.79" transform="matrix(0 1 1 0 251.496 251.497)" fill="#819EB0" fill-opacity=".8"/><path fill-rule="evenodd" clip-rule="evenodd" d="M270.126 251.497c0 10.289-8.341 18.629-18.63 18.629v10.646c16.168 0 29.275-13.107 29.275-29.275h-10.645z" fill="#BFFFC8"/><rect x="301.797" y="299.401" width="47.904" height="47.904" rx="4.79" transform="rotate(-90 301.797 299.401)" fill="#819EB0" fill-opacity=".8"/><rect x="251.496" y="349.701" width="47.904" height="47.904" rx="4.79" transform="rotate(-90 251.496 349.701)" fill="#819EB0" fill-opacity=".8"/><rect x="301.797" y="148.503" width="47.904" height="47.904" rx="4.79" transform="rotate(-90 301.797 148.503)" fill="#819EB0" fill-opacity=".8"/><rect x="301.797" y="249.102" width="98.204" height="98.204" rx="19.162" transform="rotate(-90 301.797 249.102)" fill="#BFFFC8"/><rect x="150.898" y="150.898" width="98.204" height="98.204" rx="19.162" fill="#BFFFC8"/><rect x="158.084" y="158.084" width="83.832" height="83.832" rx="14.97" fill="#077453"/><rect opacity=".4" x="162.875" y="162.874" width="74.251" height="74.251" rx="11.976" stroke="#BFFFC8" stroke-width="1.198" stroke-dasharray="1.2 2.4"/><path d="M193.45 366.012h2.019l3.658 10.06h-1.862l-.646-1.782h-4.312l-.646 1.782H189.8l3.65-10.06zm-.503 6.524h3.025l-1.516-4.146-1.509 4.146zm7.385 3.536v-10.06h3.593c.546 0 1.039.136 1.48.409a3.036 3.036 0 0 1 1.445 2.616 3.056 3.056 0 0 1-1.466 2.63 2.78 2.78 0 0 1-1.459.402h-1.84v4.003h-1.753zm1.753-5.756h1.653c.249 0 .477-.062.683-.187.206-.124.369-.292.488-.503.125-.211.187-.445.187-.704 0-.263-.062-.501-.187-.711a1.354 1.354 0 0 0-.488-.503 1.292 1.292 0 0 0-.683-.187h-1.653v2.795zm6.294 5.756v-10.06h1.753v10.06h-1.753zM230.31 74.275l-2.573-10.06h1.811l1.753 6.877 1.754-6.876h1.602l1.753 6.876 1.746-6.876h1.811l-2.558 10.06h-1.99l-1.567-6.094-1.545 6.093h-1.997zm10.507-7.185h1.753v7.185h-1.753V67.09zm.891-.927a.915.915 0 0 1-.654-.252.866.866 0 0 1-.266-.646c0-.254.089-.468.266-.64a.893.893 0 0 1 .647-.259c.254 0 .467.087.639.26a.858.858 0 0 1 .266.639.875.875 0 0 1-.259.646.88.88 0 0 1-.639.252zm7.853-2.666h1.754v10.778h-1.754v-.898c-.23.321-.519.582-.869.783-.35.202-.755.302-1.215.302-.522 0-1.01-.098-1.465-.294a3.918 3.918 0 0 1-1.208-.812 3.936 3.936 0 0 1-.812-1.208 3.665 3.665 0 0 1-.294-1.465c0-.523.098-1.011.294-1.466a3.848 3.848 0 0 1 2.02-2.02 3.656 3.656 0 0 1 1.465-.294c.46 0 .865.1 1.215.302.35.196.639.457.869.783v-4.491zm-2.062 9.277c.374 0 .704-.094.992-.28.287-.188.512-.439.675-.755.163-.321.244-.673.244-1.056 0-.388-.081-.74-.244-1.057a1.907 1.907 0 0 0-.683-.761 1.764 1.764 0 0 0-.984-.28c-.369 0-.707.095-1.013.287a2.107 2.107 0 0 0-.726.754 2.126 2.126 0 0 0-.266 1.057 2.109 2.109 0 0 0 .999 1.81c.307.187.642.28 1.006.28zm10.761-5.684h1.754v7.322c0 .517-.106.987-.317 1.408-.21.427-.498.79-.862 1.093a3.915 3.915 0 0 1-1.25.704 4.37 4.37 0 0 1-1.48.251c-.503 0-.987-.103-1.452-.309a4.053 4.053 0 0 1-1.236-.848 3.69 3.69 0 0 1-.812-1.214l1.603-.726c.095.264.239.494.431.69.196.201.421.357.675.467.254.115.518.172.791.172.277 0 .543-.038.797-.114.259-.077.491-.19.697-.338.206-.144.367-.321.482-.532.119-.206.179-.44.179-.704v-1.013a2.652 2.652 0 0 1-.848.769c-.34.196-.733.294-1.178.294a3.597 3.597 0 0 1-1.452-.294 3.847 3.847 0 0 1-1.192-.812 3.97 3.97 0 0 1-.805-1.208 3.732 3.732 0 0 1-.288-1.465c0-.523.096-1.011.288-1.466a3.88 3.88 0 0 1 .805-1.2 3.79 3.79 0 0 1 1.192-.82 3.597 3.597 0 0 1 1.452-.294c.445 0 .838.098 1.178.294.341.192.623.446.848.762v-.87zm-2.004 5.684c.368 0 .694-.094.977-.28.287-.192.512-.446.675-.762.163-.321.245-.671.245-1.05a2.2 2.2 0 0 0-.252-1.049 2 2 0 0 0-.675-.761 1.689 1.689 0 0 0-.97-.288c-.36 0-.688.096-.985.288a2.115 2.115 0 0 0-.977 1.81 2.115 2.115 0 0 0 .977 1.811c.297.187.625.28.985.28zm8.479 1.688c-.661 0-1.264-.17-1.81-.51a3.805 3.805 0 0 1-1.782-3.277c0-.522.093-1.01.28-1.465.187-.46.443-.863.769-1.208.33-.35.714-.622 1.149-.819a3.356 3.356 0 0 1 1.394-.294c.561 0 1.074.12 1.538.359.47.235.867.558 1.193.97.326.412.563.881.711 1.408.149.527.182 1.078.101 1.653h-5.253c.067.268.178.51.331.726.153.21.347.38.582.51.235.124.5.19.797.194.307.005.585-.067.834-.216.254-.153.465-.359.632-.618l1.79.417a3.852 3.852 0 0 1-1.308 1.567 3.338 3.338 0 0 1-1.948.603zm-1.767-4.498h3.535a1.82 1.82 0 0 0-.338-.776 1.886 1.886 0 0 0-.625-.56 1.625 1.625 0 0 0-.805-.209c-.287 0-.553.07-.797.209a1.91 1.91 0 0 0-.625.553c-.168.23-.283.49-.345.783zm10.331-1.12h-1.394v5.431h-1.754v-5.432h-1.063V67.09h1.063v-2.257h1.754v2.257h1.394v1.753z" fill="#077453"/><path d="M172.501 195.491h2.784v11.413h-2.784v-11.413zm1.415-1.472c-.411 0-.757-.133-1.039-.399a1.377 1.377 0 0 1-.422-1.027c0-.404.141-.742.422-1.016a1.419 1.419 0 0 1 1.027-.411c.404 0 .742.137 1.016.411.282.274.422.612.422 1.016 0 .41-.137.753-.41 1.027a1.402 1.402 0 0 1-1.016.399zM188.026 199.691v7.213h-2.785v-6.482c0-.449-.11-.856-.331-1.222a2.403 2.403 0 0 0-.89-.878 2.311 2.311 0 0 0-1.221-.331c-.449 0-.86.11-1.233.331a2.431 2.431 0 0 0-.878.878c-.213.366-.32.773-.32 1.222v6.482h-2.784l-.012-11.413h2.785l.011 1.016a4.206 4.206 0 0 1 1.392-.97 4.213 4.213 0 0 1 1.747-.365 4.33 4.33 0 0 1 2.271.616 4.543 4.543 0 0 1 1.632 1.632c.41.677.616 1.434.616 2.271zM195.395 207.223a5.83 5.83 0 0 1-3.024-.81 6.13 6.13 0 0 1-2.169-2.18c-.54-.913-.81-1.925-.81-3.035 0-.83.156-1.606.468-2.329a6.11 6.11 0 0 1 3.207-3.206 5.809 5.809 0 0 1 2.328-.468c.73 0 1.369.163 1.917.49.548.32 1.004.738 1.37 1.256v-1.45h2.784v16.485h-2.784v-6.499a4.45 4.45 0 0 1-1.37 1.267c-.548.32-1.187.479-1.917.479zm.034-9.346c-.586 0-1.122.152-1.609.456a3.355 3.355 0 0 0-1.153 1.198 3.358 3.358 0 0 0-.422 1.667c0 .616.141 1.179.422 1.689.289.502.674.901 1.153 1.198a3.03 3.03 0 0 0 1.609.445c.594 0 1.115-.148 1.564-.445a3.169 3.169 0 0 0 1.072-1.21 3.646 3.646 0 0 0 .388-1.677c0-.609-.129-1.164-.388-1.667a3.084 3.084 0 0 0-1.072-1.198 2.758 2.758 0 0 0-1.564-.456zM203.395 202.681v-7.19h2.785v6.46c0 .449.11.86.331 1.232.22.366.513.659.879.879.372.213.779.32 1.221.32a2.4 2.4 0 0 0 1.232-.32 2.55 2.55 0 0 0 .879-.879c.221-.372.331-.783.331-1.232v-6.46h2.785l.011 11.413h-2.785l-.011-1.039a4.501 4.501 0 0 1-1.404.982 4.282 4.282 0 0 1-1.734.354c-.83 0-1.587-.202-2.272-.605a4.762 4.762 0 0 1-1.643-1.632 4.419 4.419 0 0 1-.605-2.283zM224.583 190.419h2.784v16.485h-2.784v-1.427a4.33 4.33 0 0 1-1.381 1.244c-.555.32-1.198.48-1.929.48a5.812 5.812 0 0 1-2.328-.468 6.2 6.2 0 0 1-1.917-1.29 6.2 6.2 0 0 1-1.29-1.917 5.812 5.812 0 0 1-.468-2.328c0-.83.156-1.606.468-2.329a6.066 6.066 0 0 1 1.29-1.905 6.095 6.095 0 0 1 1.917-1.301 5.812 5.812 0 0 1 2.328-.468c.731 0 1.374.159 1.929.479a4.173 4.173 0 0 1 1.381 1.244v-6.499zm-3.276 14.1c.594 0 1.119-.149 1.575-.445a3.089 3.089 0 0 0 1.073-1.199 3.646 3.646 0 0 0 .388-1.677c0-.617-.129-1.176-.388-1.678a3.039 3.039 0 0 0-1.084-1.21 2.813 2.813 0 0 0-1.564-.445c-.585 0-1.122.152-1.609.457a3.344 3.344 0 0 0-1.152 1.198 3.366 3.366 0 0 0-.423 1.678 3.35 3.35 0 0 0 1.587 2.876 3.017 3.017 0 0 0 1.597.445z" fill="#BFFFC8"/><path d="M76.322 124.762c-.68 0-1.32-.134-1.918-.403a5.052 5.052 0 0 1-1.581-1.128 5.295 5.295 0 0 1-1.459-3.686 5.321 5.321 0 0 1 1.459-3.686 4.952 4.952 0 0 1 1.58-1.121 4.571 4.571 0 0 1 1.92-.41c.684 0 1.326.137 1.925.41a4.952 4.952 0 0 1 1.58 1.121 5.22 5.22 0 0 1 1.064 1.667c.26.627.388 1.3.388 2.019 0 .719-.129 1.394-.388 2.026a5.233 5.233 0 0 1-1.063 1.66 5.052 5.052 0 0 1-1.58 1.128 4.645 4.645 0 0 1-1.927.403zm0-1.754c.441 0 .855-.091 1.243-.273a3.267 3.267 0 0 0 1.02-.747c.298-.321.528-.69.69-1.106a3.55 3.55 0 0 0 .252-1.337c0-.474-.084-.92-.251-1.337-.168-.421-.4-.79-.697-1.106a3.266 3.266 0 0 0-1.02-.747 2.844 2.844 0 0 0-1.237-.273c-.44 0-.855.091-1.243.273-.388.182-.73.433-1.027.754a3.566 3.566 0 0 0-.69 1.099 3.645 3.645 0 0 0-.244 1.337c0 .479.083.927.251 1.344.168.416.398.785.69 1.106.297.316.637.566 1.02.748a2.96 2.96 0 0 0 1.243.265zm12.915-2.974v4.541h-1.754v-4.081c0-.283-.07-.539-.208-.769a1.513 1.513 0 0 0-.56-.554 1.457 1.457 0 0 0-.77-.208 1.53 1.53 0 0 0-1.33.762c-.133.23-.2.486-.2.769v4.081h-1.753l-.007-7.186h1.753l.007.64c.244-.259.537-.462.877-.611.34-.153.706-.23 1.1-.23.521 0 .998.129 1.43.388.43.254.773.597 1.027 1.028.258.426.388.903.388 1.43zm4.891 4.541-.007-7.186h1.753l.007.64c.245-.259.537-.462.877-.611.34-.153.707-.23 1.1-.23.263 0 .526.038.79.115l-.69 1.768a1.495 1.495 0 0 0-1.322.1 1.53 1.53 0 0 0-.554.554c-.134.23-.2.486-.2.769v4.081h-1.754zm10.407-7.186h1.753v7.186h-1.753l-.079-.891a2.354 2.354 0 0 1-.783.783c-.321.197-.702.295-1.143.295-.532 0-1.03-.101-1.494-.302a3.912 3.912 0 0 1-2.055-2.062 3.801 3.801 0 0 1-.295-1.495c0-.512.093-.994.28-1.444a3.739 3.739 0 0 1 1.976-1.983 3.595 3.595 0 0 1 1.437-.288c.475 0 .899.106 1.272.316.379.211.7.479.963.805l-.079-.92zm-2.048 5.684c.374 0 .704-.093.992-.28.287-.187.512-.438.675-.755.163-.321.244-.673.244-1.056 0-.388-.081-.74-.244-1.056a1.914 1.914 0 0 0-.682-.762 1.767 1.767 0 0 0-.985-.28c-.369 0-.706.096-1.013.287a2.112 2.112 0 0 0-.726.755 2.124 2.124 0 0 0-.266 1.056 2.104 2.104 0 0 0 .999 1.811c.307.187.642.28 1.006.28zm5.233 1.502v-7.186h1.753v.64c.245-.259.537-.462.877-.611a2.65 2.65 0 0 1 1.099-.23c.499 0 .956.117 1.373.352.421.235.757.549 1.006.942a2.835 2.835 0 0 1 1.006-.942 2.745 2.745 0 0 1 1.372-.352c.527 0 1.004.129 1.43.388.431.254.774.597 1.028 1.028.259.426.388.903.388 1.43v4.541h-1.753v-4.074c0-.278-.07-.532-.209-.762a1.52 1.52 0 0 0-.546-.56 1.383 1.383 0 0 0-.762-.216c-.282 0-.539.069-.768.208a1.571 1.571 0 0 0-.547.546c-.138.23-.208.491-.208.784v4.074h-1.753v-4.074c0-.293-.067-.554-.201-.784a1.507 1.507 0 0 0-.547-.546 1.453 1.453 0 0 0-.768-.208c-.278 0-.532.072-.762.216-.23.138-.414.325-.553.56-.135.23-.202.484-.202.762v4.074h-1.753zm14.525 3.593h-1.754v-10.779h1.754v.913c.234-.326.522-.589.862-.791.345-.206.747-.309 1.207-.309.527 0 1.018.099 1.473.295.455.197.855.47 1.2.819.35.345.621.745.812 1.2.197.455.295.944.295 1.466s-.098 1.013-.295 1.473c-.191.46-.462.865-.812 1.215a3.85 3.85 0 0 1-1.2.812 3.683 3.683 0 0 1-1.473.294c-.46 0-.862-.1-1.207-.302a2.913 2.913 0 0 1-.862-.797v4.491zm2.048-9.277c-.364 0-.69.096-.978.288a1.94 1.94 0 0 0-.675.754 2.255 2.255 0 0 0-.244 1.049c0 .383.081.735.244 1.056.163.317.388.57.675.762.288.187.614.28.978.28.369 0 .706-.093 1.013-.28.306-.187.551-.438.733-.754a2.12 2.12 0 0 0 .273-1.064 2.087 2.087 0 0 0-1.006-1.803 1.85 1.85 0 0 0-1.013-.288zM27.582 275.66c-.68 0-1.32-.134-1.919-.402a5.055 5.055 0 0 1-1.58-1.129 5.303 5.303 0 0 1-1.459-3.686 5.323 5.323 0 0 1 1.459-3.686 4.952 4.952 0 0 1 1.58-1.121 4.57 4.57 0 0 1 1.92-.41c.684 0 1.326.137 1.925.41a4.953 4.953 0 0 1 1.58 1.121 5.22 5.22 0 0 1 1.064 1.667 5.25 5.25 0 0 1 .388 2.019c0 .719-.13 1.394-.388 2.027a5.24 5.24 0 0 1-1.063 1.659 5.056 5.056 0 0 1-1.581 1.129 4.66 4.66 0 0 1-1.926.402zm0-1.753c.44 0 .855-.091 1.243-.273a3.271 3.271 0 0 0 1.02-.748c.298-.321.527-.69.69-1.106.168-.417.252-.863.252-1.337s-.084-.92-.252-1.336a3.469 3.469 0 0 0-.697-1.107 3.267 3.267 0 0 0-1.02-.747 2.844 2.844 0 0 0-1.236-.273c-.44 0-.855.091-1.243.273-.388.182-.73.433-1.028.754a3.56 3.56 0 0 0-.69 1.1 3.634 3.634 0 0 0-.244 1.336c0 .479.084.927.252 1.344.168.417.397.786.69 1.107a3.38 3.38 0 0 0 1.02.747 2.96 2.96 0 0 0 1.243.266zm8.422-7.128v1.509h1.962v1.753h-1.962v5.432h-1.753v-5.432h-.783v-1.753h.783v-1.509c0-.412.1-.788.302-1.129.206-.345.481-.618.826-.819a2.187 2.187 0 0 1 1.143-.309c.301 0 .6.063.898.187.297.125.56.316.79.575l-1.265 1.236a.4.4 0 0 0-.186-.18.478.478 0 0 0-.237-.064.516.516 0 0 0-.367.15.47.47 0 0 0-.15.353zm6.661 8.694-.007-7.185h1.753l.007.639c.245-.259.537-.462.877-.611.34-.153.707-.23 1.1-.23.263 0 .526.039.79.115l-.69 1.768a1.496 1.496 0 0 0-1.322.101c-.23.134-.414.318-.553.553-.135.23-.202.486-.202.769v4.081h-1.753zm10.407-7.185h1.753v7.185h-1.753l-.079-.891a2.353 2.353 0 0 1-.783.783c-.321.197-.702.295-1.143.295-.531 0-1.03-.101-1.494-.302a3.931 3.931 0 0 1-1.229-.833 3.995 3.995 0 0 1-.826-1.229 3.801 3.801 0 0 1-.295-1.495c0-.512.093-.994.28-1.444a3.725 3.725 0 0 1 1.976-1.983 3.592 3.592 0 0 1 1.437-.288c.475 0 .899.106 1.272.316.379.211.7.48.963.805l-.079-.919zm-2.048 5.683c.374 0 .704-.093.992-.28.287-.187.512-.438.675-.754.163-.321.245-.673.245-1.057 0-.388-.082-.74-.245-1.056a1.913 1.913 0 0 0-.682-.762 1.772 1.772 0 0 0-.985-.28c-.369 0-.706.096-1.013.288a2.102 2.102 0 0 0-.726.754 2.12 2.12 0 0 0-.266 1.056 2.11 2.11 0 0 0 .999 1.811c.307.187.642.28 1.006.28zm5.233 1.502v-7.185h1.754v.639c.244-.259.536-.462.876-.611.34-.153.707-.23 1.1-.23.498 0 .955.118 1.372.352.422.235.757.549 1.006.942.254-.393.59-.707 1.006-.942a2.757 2.757 0 0 1 1.372-.352c.527 0 1.004.13 1.43.388.431.254.774.597 1.028 1.028.259.426.388.903.388 1.43v4.541h-1.753v-4.074c0-.278-.07-.532-.209-.762a1.53 1.53 0 0 0-.546-.56 1.383 1.383 0 0 0-.761-.216c-.283 0-.54.07-.77.209a1.567 1.567 0 0 0-.545.546c-.14.23-.209.491-.209.783v4.074h-1.753v-4.074a1.492 1.492 0 0 0-.747-1.329 1.458 1.458 0 0 0-.77-.209c-.277 0-.531.072-.761.216-.23.139-.414.325-.553.56-.134.23-.202.484-.202.762v4.074h-1.753zm14.525 3.593h-1.753v-10.778h1.753v.912a2.82 2.82 0 0 1 .862-.79c.345-.206.747-.309 1.207-.309.527 0 1.018.098 1.473.294.456.197.856.47 1.2.819.35.345.62.745.812 1.2.197.456.295.944.295 1.466s-.098 1.014-.295 1.473c-.191.46-.462.865-.812 1.215a3.83 3.83 0 0 1-1.2.812 3.684 3.684 0 0 1-1.473.294c-.46 0-.862-.1-1.207-.301a2.911 2.911 0 0 1-.862-.798v4.491zm2.048-9.277c-.364 0-.69.096-.977.288a1.944 1.944 0 0 0-.676.754 2.256 2.256 0 0 0-.244 1.049c0 .384.081.736.244 1.057.163.316.388.57.675.761.288.187.614.281.978.281.369 0 .706-.094 1.013-.281a2.09 2.09 0 0 0 1.006-1.818 2.09 2.09 0 0 0-1.006-1.803 1.848 1.848 0 0 0-1.013-.288zM320.3 225.174v-10.06h6.309v1.753h-4.556v2.041h3.614v1.753h-3.614v2.759h4.556v1.754H320.3zm7.192 0 2.63-3.608-2.608-3.585h2.163l1.523 2.091 1.531-2.091h2.163l-2.609 3.585 2.63 3.608h-2.163l-1.552-2.127-1.545 2.127h-2.163zm12.574-2.163 1.581.855c-.33.45-.745.812-1.243 1.085a3.338 3.338 0 0 1-1.631.409c-.661 0-1.265-.17-1.811-.51a3.83 3.83 0 0 1-1.301-1.365 3.84 3.84 0 0 1-.481-1.904c0-.527.093-1.018.28-1.473.187-.46.443-.863.769-1.207.331-.35.714-.623 1.15-.82.436-.196.9-.294 1.394-.294.589 0 1.133.136 1.631.409a3.7 3.7 0 0 1 1.243 1.1l-1.581.848a1.753 1.753 0 0 0-.596-.446 1.633 1.633 0 0 0-.697-.158c-.345 0-.656.096-.934.287a1.989 1.989 0 0 0-.661.748 2.108 2.108 0 0 0-.245 1.006c0 .359.082.694.245 1.006.162.306.383.553.661.74.278.187.589.28.934.28.249 0 .486-.053.711-.158.225-.11.419-.256.582-.438zm9.229-2.379v4.542h-1.754v-4.082a1.518 1.518 0 0 0-.769-1.322 1.456 1.456 0 0 0-.768-.208 1.537 1.537 0 0 0-1.33.761c-.134.23-.201.487-.201.769v4.082h-1.753l-.007-10.779h1.753l.007 4.232c.244-.258.537-.462.877-.61a2.63 2.63 0 0 1 1.099-.23c.522 0 .999.129 1.43.388.431.254.774.596 1.028 1.027.258.427.388.903.388 1.43zm6.709-2.644h1.753v7.186h-1.753l-.079-.891a2.364 2.364 0 0 1-.783.783c-.321.196-.702.294-1.143.294-.532 0-1.03-.1-1.495-.301a3.935 3.935 0 0 1-1.228-.834 3.994 3.994 0 0 1-.827-1.229 3.803 3.803 0 0 1-.294-1.494c0-.513.093-.994.28-1.445a3.742 3.742 0 0 1 1.976-1.983 3.612 3.612 0 0 1 1.437-.287c.474 0 .898.105 1.272.316.378.211.699.479.963.805l-.079-.92zm-2.048 5.684c.374 0 .704-.094.992-.28a1.95 1.95 0 0 0 .675-.755c.163-.321.244-.673.244-1.056 0-.388-.081-.74-.244-1.057a1.913 1.913 0 0 0-.683-.761 1.762 1.762 0 0 0-.984-.28c-.369 0-.707.095-1.013.287a2.109 2.109 0 0 0-.726.754 2.13 2.13 0 0 0-.266 1.057 2.112 2.112 0 0 0 .999 1.811c.307.186.642.28 1.006.28zm11.815-3.04v4.542h-1.753v-4.082c0-.282-.07-.539-.209-.769a1.516 1.516 0 0 0-.56-.553 1.457 1.457 0 0 0-.769-.208 1.535 1.535 0 0 0-1.329.761c-.134.23-.202.487-.202.769v4.082h-1.753l-.007-7.186h1.753l.007.639c.245-.258.537-.462.877-.61.34-.154.707-.23 1.099-.23.523 0 .999.129 1.43.388a2.85 2.85 0 0 1 1.028 1.027c.259.427.388.903.388 1.43zm6.623-2.644h1.753v7.322a3.1 3.1 0 0 1-.316 1.408 3.307 3.307 0 0 1-.862 1.093 3.928 3.928 0 0 1-1.25.704c-.47.168-.963.251-1.481.251-.503 0-.986-.103-1.451-.309a4.056 4.056 0 0 1-1.236-.847 3.683 3.683 0 0 1-.812-1.215l1.602-.726c.096.264.24.494.431.69.197.201.422.357.676.467.254.115.517.173.79.173.278 0 .544-.039.798-.115.259-.077.491-.189.697-.338.206-.144.366-.321.481-.532.12-.206.18-.44.18-.704v-1.013a2.672 2.672 0 0 1-.848.769c-.34.196-.733.294-1.178.294a3.596 3.596 0 0 1-1.452-.294 3.86 3.86 0 0 1-1.193-.812 3.97 3.97 0 0 1-.804-1.207 3.733 3.733 0 0 1-.288-1.466c0-.522.096-1.011.288-1.466a3.88 3.88 0 0 1 .804-1.2 3.78 3.78 0 0 1 1.193-.819 3.58 3.58 0 0 1 1.452-.295c.445 0 .838.098 1.178.295.34.191.623.445.848.761v-.869zm-2.005 5.684c.369 0 .695-.094.977-.28a2 2 0 0 0 .676-.762c.163-.321.244-.671.244-1.049 0-.383-.084-.733-.251-1.049a1.993 1.993 0 0 0-.676-.762 1.683 1.683 0 0 0-.97-.287c-.359 0-.687.095-.984.287a2.08 2.08 0 0 0-.712.754 2.13 2.13 0 0 0-.265 1.057c0 .388.088.74.265 1.056.178.316.415.568.712.755.297.186.625.28.984.28zm8.48 1.688c-.661 0-1.265-.17-1.811-.51a3.807 3.807 0 0 1-1.782-3.276c0-.523.094-1.011.281-1.466.186-.46.443-.863.768-1.207.331-.35.714-.623 1.15-.82a3.362 3.362 0 0 1 1.394-.294c.561 0 1.073.12 1.538.359.469.235.867.558 1.193.97a4 4 0 0 1 .812 3.061h-5.253c.067.268.177.51.331.726.153.211.347.381.582.51.234.125.5.189.797.194a1.55 1.55 0 0 0 .834-.215c.254-.154.464-.36.632-.618l1.789.416a3.838 3.838 0 0 1-1.308 1.567 3.335 3.335 0 0 1-1.947.603zm-1.767-4.498h3.535a1.823 1.823 0 0 0-.338-.776 1.893 1.893 0 0 0-.625-.56 1.624 1.624 0 0 0-.805-.209c-.287 0-.553.07-.797.209a1.908 1.908 0 0 0-.626.553c-.167.23-.282.491-.344.783z" fill="#077453"/><path fill-rule="evenodd" clip-rule="evenodd" d="M347.134 179.121a5.688 5.688 0 0 1 8.045 0l.847-.847a6.887 6.887 0 0 0-9.739 0l.847.847zm-.002 19.003a5.688 5.688 0 0 0 8.045 0l.847.847a6.887 6.887 0 0 1-9.739 0l.847-.847zm18.513-15.476a7.186 7.186 0 1 0-7.985 11.95 7.186 7.186 0 0 0 7.985-11.95zm-2.102 3.157-1.891-2.825-1.89 2.818-1.891 2.825 3.781 1.912 3.781-1.905-1.89-2.825zm-5.462 3.585 3.571 1.906 3.571-1.906-3.571 4.876-3.571-4.876zm-17.358 6.418a7.185 7.185 0 1 0 0-14.37 7.185 7.185 0 0 0 0 14.37zm.862-6.564v-.001c-.05.003-.304.019-.872.019a19.5 19.5 0 0 1-.886-.019v.001c-1.746-.077-3.049-.381-3.049-.745 0-.363 1.303-.667 3.049-.745v1.187c.114.008.441.028.893.028.542 0 .814-.023.865-.027v-1.187c1.742.078 3.042.382 3.042.744 0 .364-1.3.667-3.042.745zm0-1.613v-1.062h2.431v-1.621h-6.62v1.621h2.431v1.062c-1.976.091-3.462.482-3.462.951s1.486.86 3.462.951v3.405h1.758v-3.406c1.973-.09 3.455-.481 3.455-.95 0-.468-1.482-.859-3.455-.951zM237.119 24.55a2.994 2.994 0 0 0-2.994 2.994v2.395h32.335v-2.395a2.994 2.994 0 0 0-2.994-2.994h-26.347zm1.498 3.593a.898.898 0 1 0 0-1.796.898.898 0 0 0 0 1.796zm6.287-.898a.898.898 0 1 1-1.796 0 .898.898 0 0 1 1.796 0zm-3.594.898a.899.899 0 1 0 0-1.798.899.899 0 0 0 0 1.798zm22.158 22.755h-26.347a1.796 1.796 0 0 1-1.796-1.797V32.335h29.94v16.766c0 .993-.805 1.797-1.797 1.797zm-26.347 1.197a2.994 2.994 0 0 1-2.994-2.994V31.137h32.335v17.964a2.994 2.994 0 0 1-2.994 2.995h-26.347zm11.533-6.794h-1.307l4.587-8.774h1.307l-4.587 8.773zm-10.035-3.07V41.23l7.683-3.267v1.278l-5.827 2.49 5.827 2.37v1.279l-7.683-3.149zm15.67 1.87v1.279l7.683-3.149V41.23l-7.683-3.267v1.278l5.828 2.49-5.828 2.37zM183.838 329.342a2.994 2.994 0 0 1 2.994-2.994h26.347a2.994 2.994 0 0 1 2.994 2.994v2.396h-32.335v-2.396zm5.39-.299a.898.898 0 1 1-1.796 0 .898.898 0 0 1 1.796 0zm4.491.898a.898.898 0 1 0 0-1.796.898.898 0 0 0 0 1.796zm-1.798-.898a.898.898 0 1 1-1.796 0 .898.898 0 0 1 1.796 0zm21.256 23.652H186.83a1.796 1.796 0 0 1-1.796-1.796v-16.766h29.94v16.766c0 .992-.805 1.796-1.797 1.796zm-26.347 1.198a2.993 2.993 0 0 1-2.994-2.994v-17.964h32.335v17.964a2.993 2.993 0 0 1-2.994 2.994H186.83zm.598-13.773h7.185v-1.796h-7.185v1.796zm25.15 0H196.41v-1.796h16.168v1.796zm-8.981 2.395H187.43v1.797h16.167v-1.797zm8.983 0h-7.185v1.797h7.185v-1.797zm-.002 5.988H196.41v-1.796h16.168v1.796zm-25.15 0h7.185v-1.796h-7.185v1.796zM95.632 78.522a5.689 5.689 0 0 1 8.045 0l.847-.847a6.887 6.887 0 0 0-9.74 0l.848.847zm0 19.004a5.689 5.689 0 0 0 8.045 0l.847.847a6.887 6.887 0 0 1-9.74 0l.848-.847zm21.737-9.502a7.185 7.185 0 1 1-14.371 0 7.185 7.185 0 0 1 14.371 0zm-5.401-2.838c1.04.358 1.802.896 1.652 1.895-.108.732-.514 1.086-1.052 1.21.739.385 1.115.976.757 1.999-.445 1.271-1.502 1.378-2.907 1.112l-.341 1.367-.824-.205.337-1.348a37.31 37.31 0 0 1-.657-.17l-.338 1.353-.823-.205.341-1.369a64.72 64.72 0 0 1-.587-.152l-1.073-.267.409-.943s.608.16.599.149c.234.058.337-.094.378-.195l.539-2.161.087.021a.716.716 0 0 0-.086-.027l.385-1.543c.01-.175-.051-.396-.384-.48.013-.008-.599-.148-.599-.148l.219-.88 1.137.283-.001.005c.159.04.323.077.49.115l.036.009.338-1.354.824.206-.332 1.327.014.003c.217.05.435.099.647.152l.329-1.319.823.206-.337 1.354zm-2.607 4.909c.673.177 2.143.566 2.376-.373.239-.96-1.185-1.28-1.881-1.436-.078-.018-.147-.033-.203-.047l-.453 1.814.161.042zm.635-2.651c.561.15 1.783.476 1.996-.378.217-.873-.971-1.136-1.551-1.264a6.23 6.23 0 0 1-.17-.039l-.41 1.645.135.036zm-13.59.58a7.186 7.186 0 1 1-14.37 0 7.186 7.186 0 0 1 14.37 0zm-9.313 3.614c-.456-.43-.737-1.05-.843-1.858h1.186c.061.43.215.764.46 1.002.23.193.48.32.752.382v-2.596c-1.405-.254-2.108-1.053-2.108-2.397 0-.36.057-.698.171-1.015a2.19 2.19 0 0 1 .514-.816c.369-.37.843-.593 1.423-.672v-.764h1.16v.764c.728.105 1.299.413 1.712.922.368.474.588 1.054.658 1.739l-.026.013h-1.146c-.044-.342-.136-.623-.277-.843a1.382 1.382 0 0 0-.922-.645V87.5c.562.097 1.04.264 1.436.501.632.404.949 1.028.949 1.87 0 .334-.066.655-.198.962a2.307 2.307 0 0 1-.54.79c-.44.431-.988.69-1.647.778v.738h-1.16v-.764c-.64-.106-1.159-.352-1.554-.738zm.778-4.756c.193.246.452.404.777.474v-2.49c-.352.07-.62.22-.804.449a1.17 1.17 0 0 0-.263.75c0 .3.096.571.29.817zm2.95 2.266c-.158-.184-.496-.33-1.014-.435v2.49c.369-.079.668-.25.896-.514.237-.263.356-.548.356-.856 0-.246-.08-.474-.237-.685zM45.331 229.42a5.69 5.69 0 0 1 8.045 0l.847-.846a6.885 6.885 0 0 0-9.739 0l.847.846zm0 19.004a5.688 5.688 0 0 0 8.045 0l.847.847a6.887 6.887 0 0 1-9.739 0l.847-.847zm-2.446-15.476a7.182 7.182 0 0 0-9.073.893 7.188 7.188 0 0 0 2.33 11.72 7.187 7.187 0 0 0 6.743-12.613zm-5.696 3.427 1.704-2.539v-.001l.157.235 1.547 2.305 1.704 2.547-.005-.002v.001l.005.002-.002.001.003.004-3.409 1.718-2.986-1.51-.423-.213.001-.001 1.704-2.547zm1.745 4.935-.04.021-3.218-1.717.001.002-.004-.002 1.524 2.079 1.696 2.318v.004l.001-.002.001.002v-.004l3.224-4.397-.01.005.003-.005-3.178 1.696zm20.943 4.798a7.186 7.186 0 1 0 0-14.371 7.186 7.186 0 0 0 0 14.371zm-4.952-7.504h1.253a4.292 4.292 0 0 0 .005.713h-.632l-.01.022-.595 1.274-.025.054h1.61c.715 1.626 2.343 2.674 4.154 2.674.913 0 1.792-.264 2.543-.765l.017-.011V240.882l-.066.076a3.109 3.109 0 0 1-4.907-.291h3.25l.01-.022.594-1.273.026-.055h-4.404a3.185 3.185 0 0 1-.017-.713h4.753l.01-.022.594-1.273.026-.055H58.175a3.13 3.13 0 0 1 2.664-1.502c.94 0 1.821.42 2.417 1.153l.038.047.026-.055.516-1.106.011-.025-.02-.019a4.551 4.551 0 0 0-3.142-1.243c-.92 0-1.805.269-2.56.777a4.44 4.44 0 0 0-1.625 1.973h-1.006l-.01.022-.593 1.274-.026.054h.06z" fill="#077453"/></svg>