<svg width="668" height="668" fill="none" xmlns="http://www.w3.org/2000/svg"><rect x="84" y="248" width="164" height="164" rx="32" transform="rotate(-90 84 248)" fill="#BFFFC8"/><rect x="168" y="332" width="80" height="80" rx="8" transform="rotate(-90 168 332)" fill="#819EB0" fill-opacity=".8"/><path fill-rule="evenodd" clip-rule="evenodd" d="M199.111 332c0-17.182-13.929-31.111-31.111-31.111v-17.778c27.001 0 48.889 21.888 48.889 48.889h-17.778z" fill="#BFFFC8"/><rect y="500" width="164" height="164" rx="32" transform="rotate(-90 0 500)" fill="#BFFFC8"/><rect x="164" y="252" width="80" height="80" rx="8" transform="rotate(90 164 252)" fill="#819EB0" fill-opacity=".8"/><path fill-rule="evenodd" clip-rule="evenodd" d="M132.889 252c0 17.182 13.929 31.111 31.111 31.111v17.778c-27.001 0-48.889-21.888-48.889-48.889h17.778z" fill="#BFFFC8"/><rect width="80" height="80" rx="8" transform="matrix(0 1 1 0 168 420)" fill="#819EB0" fill-opacity=".8"/><path fill-rule="evenodd" clip-rule="evenodd" d="M199.111 420c0 17.182-13.929 31.111-31.111 31.111v17.778c27.001 0 48.889-21.888 48.889-48.889h-17.778z" fill="#BFFFC8"/><rect x="420" y="248" width="80" height="80" rx="8" transform="rotate(-90 420 248)" fill="#819EB0" fill-opacity=".8"/><path fill-rule="evenodd" clip-rule="evenodd" d="M451.111 248c0-17.182-13.929-31.111-31.111-31.111v-17.778c27.001 0 48.889 21.888 48.889 48.889h-17.778z" fill="#BFFFC8"/><rect x="332" y="500" width="80" height="80" rx="8" transform="rotate(180 332 500)" fill="#819EB0" fill-opacity=".8"/><path fill-rule="evenodd" clip-rule="evenodd" d="M332 468.889c-17.182 0-31.111 13.929-31.111 31.111h-17.778c0-27.001 21.888-48.889 48.889-48.889v17.778z" fill="#BFFFC8"/><rect x="252" y="668" width="164" height="164" rx="32" transform="rotate(-90 252 668)" fill="#BFFFC8"/><rect x="336" y="164" width="164" height="164" rx="32" transform="rotate(-90 336 164)" fill="#BFFFC8"/><rect x="252" y="248" width="80" height="80" rx="8" transform="rotate(-90 252 248)" fill="#819EB0" fill-opacity=".8"/><rect x="420" y="252" width="80" height="80" rx="8" fill="#819EB0" fill-opacity=".8"/><path fill-rule="evenodd" clip-rule="evenodd" d="M420 283.111c17.182 0 31.111-13.929 31.111-31.111h17.778c0 27.001-21.888 48.889-48.889 48.889v-17.778z" fill="#BFFFC8"/><rect x="332" y="164" width="80" height="80" rx="8" transform="rotate(180 332 164)" fill="#819EB0" fill-opacity=".8"/><rect x="416" y="168" width="80" height="80" rx="8" transform="rotate(90 416 168)" fill="#819EB0" fill-opacity=".8"/><path fill-rule="evenodd" clip-rule="evenodd" d="M384.889 168c0 17.182 13.929 31.111 31.111 31.111v17.778c-27.001 0-48.889-21.888-48.889-48.889h17.778z" fill="#BFFFC8"/><rect x="336" y="420" width="80" height="80" rx="8" fill="#819EB0" fill-opacity=".8"/><path d="M367.111 420c0 17.182-13.929 31.111-31.111 31.111v17.778c16.535 0 31.152-8.209 40-20.773 8.848 12.564 23.465 20.773 40 20.773v-17.778c-17.182 0-31.111-13.929-31.111-31.111h-17.778z" fill="#BFFFC8"/><rect x="248" y="336" width="80" height="80" rx="8" transform="rotate(90 248 336)" fill="#819EB0" fill-opacity=".8"/><path d="M248 367.111c-17.182 0-31.111-13.929-31.111-31.111h-17.778c0 16.535 8.209 31.152 20.773 40-12.564 8.848-20.773 23.465-20.773 40h17.778c0-17.182 13.929-31.111 31.111-31.111v-17.778z" fill="#BFFFC8"/><rect width="80" height="80" rx="8" transform="matrix(0 -1 -1 0 500 416)" fill="#819EB0" fill-opacity=".8"/><path fill-rule="evenodd" clip-rule="evenodd" d="M468.889 416c0-17.182 13.929-31.111 31.111-31.111v-17.778c-27.001 0-48.889 21.888-48.889 48.889h17.778z" fill="#BFFFC8"/><rect width="80" height="80" rx="8" transform="matrix(0 1 1 0 420 420)" fill="#819EB0" fill-opacity=".8"/><path fill-rule="evenodd" clip-rule="evenodd" d="M451.111 420c0 17.182-13.929 31.111-31.111 31.111v17.778c27.001 0 48.889-21.888 48.889-48.889h-17.778z" fill="#BFFFC8"/><rect x="504" y="500" width="80" height="80" rx="8" transform="rotate(-90 504 500)" fill="#819EB0" fill-opacity=".8"/><rect x="420" y="584" width="80" height="80" rx="8" transform="rotate(-90 420 584)" fill="#819EB0" fill-opacity=".8"/><rect x="504" y="248" width="80" height="80" rx="8" transform="rotate(-90 504 248)" fill="#819EB0" fill-opacity=".8"/><rect x="504" y="416" width="164" height="164" rx="32" transform="rotate(-90 504 416)" fill="#BFFFC8"/><rect x="252" y="252" width="164" height="164" rx="32" fill="#BFFFC8"/><rect x="264" y="264" width="140" height="140" rx="25" fill="#077453"/><rect opacity=".4" x="272" y="272" width="124" height="124" rx="20" stroke="#BFFFC8" stroke-width="2" stroke-dasharray="2 4"/><path d="M323.193 610.2h3.372l6.108 16.8h-3.108l-1.08-2.976h-7.2l-1.08 2.976h-3.108l6.096-16.8zm-.84 10.896h5.052l-2.532-6.924-2.52 6.924zM334.686 627v-16.8h6c.912 0 1.736.228 2.472.684a5.076 5.076 0 0 1 2.412 4.368c0 .944-.224 1.8-.672 2.568a5.106 5.106 0 0 1-1.776 1.824 4.636 4.636 0 0 1-2.436.672h-3.072V627h-2.928zm2.928-9.612h2.76c.416 0 .796-.104 1.14-.312.344-.208.616-.488.816-.84.208-.352.312-.744.312-1.176 0-.44-.104-.836-.312-1.188a2.283 2.283 0 0 0-.816-.84 2.161 2.161 0 0 0-1.14-.312h-2.76v4.668zm10.51 9.612v-16.8h2.928V627h-2.928zM384.373 123l-4.296-16.8h3.024l2.928 11.484 2.928-11.484h2.676l2.928 11.484 2.916-11.484h3.024l-4.272 16.8h-3.324l-2.616-10.176-2.58 10.176h-3.336zm17.547-12h2.928v12h-2.928v-12zm1.488-1.548c-.432 0-.796-.14-1.092-.42a1.445 1.445 0 0 1-.444-1.08c0-.424.148-.78.444-1.068a1.491 1.491 0 0 1 1.08-.432c.424 0 .78.144 1.068.432.296.288.444.644.444 1.068 0 .432-.144.792-.432 1.08-.288.28-.644.42-1.068.42zM416.524 105h2.928v18h-2.928v-1.5a4.56 4.56 0 0 1-1.452 1.308c-.584.336-1.26.504-2.028.504a6.111 6.111 0 0 1-2.448-.492 6.53 6.53 0 0 1-2.016-1.356 6.53 6.53 0 0 1-1.356-2.016 6.111 6.111 0 0 1-.492-2.448c0-.872.164-1.688.492-2.448a6.427 6.427 0 0 1 3.372-3.372 6.111 6.111 0 0 1 2.448-.492c.768 0 1.444.168 2.028.504a4.38 4.38 0 0 1 1.452 1.308V105zm-3.444 15.492c.624 0 1.176-.156 1.656-.468.48-.312.856-.732 1.128-1.26a3.841 3.841 0 0 0 .408-1.764c0-.648-.136-1.236-.408-1.764a3.192 3.192 0 0 0-1.14-1.272 2.95 2.95 0 0 0-1.644-.468c-.616 0-1.18.16-1.692.48a3.522 3.522 0 0 0-1.212 1.26 3.545 3.545 0 0 0-.444 1.764 3.522 3.522 0 0 0 1.668 3.024 3.168 3.168 0 0 0 1.68.468zM431.051 111h2.928v12.228c0 .864-.176 1.648-.528 2.352a5.52 5.52 0 0 1-1.44 1.824 6.533 6.533 0 0 1-2.088 1.176c-.784.28-1.608.42-2.472.42-.84 0-1.648-.172-2.424-.516a6.78 6.78 0 0 1-2.064-1.416 6.144 6.144 0 0 1-1.356-2.028l2.676-1.212c.16.44.4.824.72 1.152.328.336.704.596 1.128.78.424.192.864.288 1.32.288.464 0 .908-.064 1.332-.192.432-.128.82-.316 1.164-.564.344-.24.612-.536.804-.888.2-.344.3-.736.3-1.176v-1.692a4.447 4.447 0 0 1-1.416 1.284c-.568.328-1.224.492-1.968.492a5.996 5.996 0 0 1-2.424-.492 6.423 6.423 0 0 1-1.992-1.356 6.637 6.637 0 0 1-1.344-2.016 6.243 6.243 0 0 1-.48-2.448c0-.872.16-1.688.48-2.448a6.487 6.487 0 0 1 1.344-2.004 6.324 6.324 0 0 1 1.992-1.368 5.996 5.996 0 0 1 2.424-.492c.744 0 1.4.164 1.968.492a4.32 4.32 0 0 1 1.416 1.272V111zm-3.348 9.492c.616 0 1.16-.156 1.632-.468.48-.32.856-.744 1.128-1.272.272-.536.408-1.12.408-1.752 0-.64-.14-1.224-.42-1.752a3.336 3.336 0 0 0-1.128-1.272 2.819 2.819 0 0 0-1.62-.48c-.6 0-1.148.16-1.644.48a3.458 3.458 0 0 0-1.188 1.26 3.545 3.545 0 0 0-.444 1.764c0 .648.148 1.236.444 1.764.296.528.692.948 1.188 1.26a3.026 3.026 0 0 0 1.644.468zm14.162 2.82a5.607 5.607 0 0 1-3.024-.852 6.359 6.359 0 0 1-2.172-2.292c-.536-.96-.804-2.02-.804-3.18 0-.872.156-1.688.468-2.448.312-.768.74-1.44 1.284-2.016a6.022 6.022 0 0 1 1.92-1.368 5.602 5.602 0 0 1 2.328-.492c.936 0 1.792.2 2.568.6a5.838 5.838 0 0 1 1.992 1.62c.544.688.94 1.472 1.188 2.352.248.88.304 1.8.168 2.76h-8.772c.112.448.296.852.552 1.212.256.352.58.636.972.852a2.9 2.9 0 0 0 1.332.324c.512.008.976-.112 1.392-.36a3.25 3.25 0 0 0 1.056-1.032l2.988.696a6.414 6.414 0 0 1-2.184 2.616 5.57 5.57 0 0 1-3.252 1.008zm-2.952-7.512h5.904a3.045 3.045 0 0 0-.564-1.296 3.161 3.161 0 0 0-1.044-.936 2.715 2.715 0 0 0-1.344-.348c-.48 0-.924.116-1.332.348a3.193 3.193 0 0 0-1.044.924c-.28.384-.472.82-.576 1.308zm17.252-1.872h-2.328V123h-2.928v-9.072h-1.776V111h1.776v-3.768h2.928V111h2.328v2.928z" fill="#077453"/><path d="M288.076 326.471h4.651v19.058h-4.651v-19.058zm2.364-2.459c-.687 0-1.265-.222-1.735-.667-.47-.457-.705-1.029-.705-1.715 0-.674.235-1.239.705-1.697a2.37 2.37 0 0 1 1.715-.686c.674 0 1.239.229 1.697.686.47.458.705 1.023.705 1.697 0 .686-.229 1.258-.686 1.715-.458.445-1.023.667-1.696.667zM314.003 333.484v12.045h-4.65v-10.825a3.86 3.86 0 0 0-.553-2.039 4.016 4.016 0 0 0-1.486-1.468 3.873 3.873 0 0 0-2.04-.553c-.749 0-1.435.185-2.058.553a4.067 4.067 0 0 0-1.468 1.468 3.978 3.978 0 0 0-.533 2.039v10.825h-4.651l-.019-19.058h4.651l.019 1.696a7.028 7.028 0 0 1 2.325-1.62 7.006 7.006 0 0 1 2.916-.61c1.385 0 2.649.343 3.793 1.029a7.575 7.575 0 0 1 2.725 2.726c.686 1.13 1.029 2.395 1.029 3.792zM326.309 346.063c-1.842 0-3.525-.451-5.05-1.353a10.25 10.25 0 0 1-3.621-3.64c-.902-1.525-1.353-3.215-1.353-5.07 0-1.385.26-2.681.781-3.888a10.21 10.21 0 0 1 5.355-5.356 9.721 9.721 0 0 1 3.888-.781c1.22 0 2.287.273 3.202.82a7.211 7.211 0 0 1 2.287 2.096v-2.42h4.651V354h-4.651v-10.853a7.44 7.44 0 0 1-2.287 2.116c-.915.533-1.982.8-3.202.8zm.058-15.609c-.979 0-1.875.254-2.688.762a5.607 5.607 0 0 0-1.925 2.001c-.47.839-.705 1.767-.705 2.783 0 1.029.235 1.969.705 2.821a5.607 5.607 0 0 0 1.925 2.001 5.07 5.07 0 0 0 2.688.743c.991 0 1.861-.248 2.611-.743a5.302 5.302 0 0 0 1.791-2.02c.432-.852.648-1.786.648-2.802s-.216-1.944-.648-2.783a5.16 5.16 0 0 0-1.791-2.001c-.763-.508-1.633-.762-2.611-.762zM339.67 338.478v-12.007h4.65v10.787c0 .75.185 1.436.553 2.058a4.28 4.28 0 0 0 1.468 1.468 4.034 4.034 0 0 0 2.039.533c.762 0 1.448-.177 2.058-.533a4.28 4.28 0 0 0 1.468-1.468 3.967 3.967 0 0 0 .552-2.058v-10.787h4.651l.019 19.058h-4.65l-.02-1.734a7.475 7.475 0 0 1-2.344 1.639 7.159 7.159 0 0 1-2.897.591c-1.385 0-2.649-.337-3.792-1.01a7.933 7.933 0 0 1-2.745-2.726c-.673-1.143-1.01-2.414-1.01-3.811zM375.053 318h4.651v27.529h-4.651v-2.382a7.233 7.233 0 0 1-2.306 2.077c-.927.534-2.001.801-3.221.801a9.721 9.721 0 0 1-3.888-.781 10.36 10.36 0 0 1-3.201-2.154 10.376 10.376 0 0 1-2.154-3.202c-.521-1.207-.781-2.503-.781-3.888 0-1.385.26-2.681.781-3.888a10.21 10.21 0 0 1 5.355-5.356 9.721 9.721 0 0 1 3.888-.781c1.22 0 2.294.267 3.221.801a6.942 6.942 0 0 1 2.306 2.077V318zm-5.469 23.546c.991 0 1.867-.248 2.63-.743a5.16 5.16 0 0 0 1.791-2.001c.432-.852.648-1.786.648-2.802 0-1.029-.216-1.963-.648-2.802a5.072 5.072 0 0 0-1.81-2.02c-.763-.495-1.633-.743-2.611-.743-.979 0-1.875.254-2.688.762a5.607 5.607 0 0 0-1.925 2.001c-.47.839-.705 1.773-.705 2.802 0 1.029.242 1.963.724 2.802a5.607 5.607 0 0 0 1.925 2.001 5.04 5.04 0 0 0 2.669.743z" fill="#BFFFC8"/><path d="M124.627 207.312a7.747 7.747 0 0 1-3.204-.672 8.439 8.439 0 0 1-2.64-1.884 8.85 8.85 0 0 1-2.436-6.156c0-1.2.216-2.324.648-3.372a8.885 8.885 0 0 1 1.788-2.784c.76-.8 1.64-1.424 2.64-1.872 1-.456 2.068-.684 3.204-.684a7.66 7.66 0 0 1 3.216.684c1 .448 1.88 1.072 2.64 1.872.76.8 1.352 1.728 1.776 2.784a8.76 8.76 0 0 1 .648 3.372 8.85 8.85 0 0 1-.648 3.384 8.748 8.748 0 0 1-1.776 2.772c-.76.8-1.64 1.428-2.64 1.884-1 .448-2.072.672-3.216.672zm0-2.928c.736 0 1.428-.152 2.076-.456a5.454 5.454 0 0 0 1.704-1.248 5.805 5.805 0 0 0 1.152-1.848c.28-.696.42-1.44.42-2.232 0-.792-.14-1.536-.42-2.232a5.8 5.8 0 0 0-1.164-1.848 5.454 5.454 0 0 0-1.704-1.248 4.75 4.75 0 0 0-2.064-.456c-.736 0-1.428.152-2.076.456a5.506 5.506 0 0 0-1.716 1.26 5.948 5.948 0 0 0-1.152 1.836 6.077 6.077 0 0 0-.408 2.232c0 .8.14 1.548.42 2.244.28.696.664 1.312 1.152 1.848a5.644 5.644 0 0 0 1.704 1.248c.648.296 1.34.444 2.076.444zm21.567-4.968V207h-2.928v-6.816c0-.472-.116-.9-.348-1.284a2.53 2.53 0 0 0-.936-.924 2.435 2.435 0 0 0-1.284-.348c-.472 0-.904.116-1.296.348a2.558 2.558 0 0 0-.924.924 2.501 2.501 0 0 0-.336 1.284V207h-2.928l-.012-12h2.928l.012 1.068a4.422 4.422 0 0 1 1.464-1.02 4.416 4.416 0 0 1 1.836-.384c.872 0 1.668.216 2.388.648.72.424 1.292.996 1.716 1.716.432.712.648 1.508.648 2.388zm2.391-1.08h7.68v2.928h-7.68v-2.928zM159.167 207l-.012-12h2.928l.012 1.068a4.422 4.422 0 0 1 1.464-1.02 4.416 4.416 0 0 1 1.836-.384c.44 0 .88.064 1.32.192l-1.152 2.952a2.498 2.498 0 0 0-2.208.168 2.558 2.558 0 0 0-.924.924 2.501 2.501 0 0 0-.336 1.284V207h-2.928zm17.38-12h2.928v12h-2.928l-.132-1.488a3.933 3.933 0 0 1-1.308 1.308c-.536.328-1.172.492-1.908.492-.888 0-1.72-.168-2.496-.504a6.562 6.562 0 0 1-2.052-1.392 6.666 6.666 0 0 1-1.38-2.052 6.344 6.344 0 0 1-.492-2.496c0-.856.156-1.66.468-2.412a6.249 6.249 0 0 1 3.3-3.312 6.009 6.009 0 0 1 2.4-.48c.792 0 1.5.176 2.124.528.632.352 1.168.8 1.608 1.344l-.132-1.536zm-3.42 9.492c.624 0 1.176-.156 1.656-.468.48-.312.856-.732 1.128-1.26a3.841 3.841 0 0 0 .408-1.764c0-.648-.136-1.236-.408-1.764a3.192 3.192 0 0 0-1.14-1.272 2.95 2.95 0 0 0-1.644-.468c-.616 0-1.18.16-1.692.48a3.522 3.522 0 0 0-1.212 1.26 3.545 3.545 0 0 0-.444 1.764 3.522 3.522 0 0 0 1.668 3.024 3.168 3.168 0 0 0 1.68.468zm8.739 2.508v-12h2.928v1.068a4.422 4.422 0 0 1 1.464-1.02 4.416 4.416 0 0 1 1.836-.384 4.59 4.59 0 0 1 2.292.588 4.602 4.602 0 0 1 1.68 1.572 4.731 4.731 0 0 1 1.68-1.572 4.59 4.59 0 0 1 2.292-.588c.88 0 1.676.216 2.388.648.72.424 1.292.996 1.716 1.716.432.712.648 1.508.648 2.388V207h-2.928v-6.804c0-.464-.116-.888-.348-1.272a2.559 2.559 0 0 0-.912-.936c-.376-.24-.8-.36-1.272-.36s-.9.116-1.284.348a2.62 2.62 0 0 0-.912.912 2.48 2.48 0 0 0-.348 1.308V207h-2.928v-6.804c0-.488-.112-.924-.336-1.308a2.493 2.493 0 0 0-.912-.912 2.435 2.435 0 0 0-1.284-.348c-.464 0-.888.12-1.272.36a2.655 2.655 0 0 0-.924.936 2.479 2.479 0 0 0-.336 1.272V207h-2.928zm24.256 6h-2.928v-18h2.928v1.524a4.723 4.723 0 0 1 1.44-1.32c.576-.344 1.248-.516 2.016-.516.88 0 1.7.164 2.46.492.76.328 1.428.784 2.004 1.368a6.126 6.126 0 0 1 1.356 2.004c.328.76.492 1.576.492 2.448 0 .872-.164 1.692-.492 2.46a6.226 6.226 0 0 1-1.356 2.028 6.384 6.384 0 0 1-2.004 1.356c-.76.328-1.58.492-2.46.492-.768 0-1.44-.168-2.016-.504a4.866 4.866 0 0 1-1.44-1.332v7.5zm3.42-15.492c-.608 0-1.152.16-1.632.48-.48.312-.856.732-1.128 1.26a3.769 3.769 0 0 0-.408 1.752c0 .64.136 1.228.408 1.764.272.528.648.952 1.128 1.272.48.312 1.024.468 1.632.468a3.19 3.19 0 0 0 1.692-.468 3.488 3.488 0 0 0 1.68-3.036 3.488 3.488 0 0 0-1.68-3.012 3.09 3.09 0 0 0-1.692-.48zM38.588 459.312a7.747 7.747 0 0 1-3.204-.672 8.439 8.439 0 0 1-2.64-1.884 8.85 8.85 0 0 1-2.436-6.156c0-1.2.216-2.324.648-3.372a8.885 8.885 0 0 1 1.788-2.784c.76-.8 1.64-1.424 2.64-1.872 1-.456 2.068-.684 3.204-.684a7.66 7.66 0 0 1 3.216.684c1 .448 1.88 1.072 2.64 1.872.76.8 1.352 1.728 1.776 2.784a8.76 8.76 0 0 1 .648 3.372 8.85 8.85 0 0 1-.648 3.384 8.748 8.748 0 0 1-1.776 2.772c-.76.8-1.64 1.428-2.64 1.884-1 .448-2.072.672-3.216.672zm0-2.928c.736 0 1.428-.152 2.076-.456a5.454 5.454 0 0 0 1.704-1.248 5.805 5.805 0 0 0 1.152-1.848c.28-.696.42-1.44.42-2.232 0-.792-.14-1.536-.42-2.232a5.8 5.8 0 0 0-1.164-1.848 5.454 5.454 0 0 0-1.704-1.248 4.75 4.75 0 0 0-2.064-.456c-.736 0-1.428.152-2.076.456a5.506 5.506 0 0 0-1.716 1.26 5.948 5.948 0 0 0-1.152 1.836 6.077 6.077 0 0 0-.408 2.232c0 .8.14 1.548.42 2.244.28.696.664 1.312 1.152 1.848a5.644 5.644 0 0 0 1.704 1.248c.648.296 1.34.444 2.076.444zm14.064-11.904V447h3.276v2.928h-3.276V459h-2.928v-9.072h-1.308V447h1.308v-2.52c0-.688.168-1.316.504-1.884a3.833 3.833 0 0 1 1.38-1.368 3.651 3.651 0 0 1 1.908-.516 3.85 3.85 0 0 1 1.5.312 3.64 3.64 0 0 1 1.32.96l-2.112 2.064a.667.667 0 0 0-.312-.3.798.798 0 0 0-.396-.108.86.86 0 0 0-.612.252.78.78 0 0 0-.252.588zm8.86 0V447h3.276v2.928h-3.276V459h-2.928v-9.072h-1.308V447h1.308v-2.52c0-.688.168-1.316.504-1.884a3.833 3.833 0 0 1 1.38-1.368 3.651 3.651 0 0 1 1.908-.516 3.85 3.85 0 0 1 1.5.312 3.64 3.64 0 0 1 1.32.96l-2.112 2.064a.667.667 0 0 0-.312-.3.798.798 0 0 0-.396-.108.86.86 0 0 0-.612.252.78.78 0 0 0-.252.588zm5.112 5.856h7.68v2.928h-7.68v-2.928zM77.206 459l-.012-12h2.928l.012 1.068a4.422 4.422 0 0 1 1.464-1.02 4.416 4.416 0 0 1 1.836-.384c.44 0 .88.064 1.32.192l-1.152 2.952a2.498 2.498 0 0 0-2.208.168 2.558 2.558 0 0 0-.924.924 2.501 2.501 0 0 0-.336 1.284V459h-2.928zm17.38-12h2.928v12h-2.928l-.132-1.488a3.933 3.933 0 0 1-1.308 1.308c-.536.328-1.172.492-1.908.492-.888 0-1.72-.168-2.496-.504a6.562 6.562 0 0 1-2.052-1.392 6.666 6.666 0 0 1-1.38-2.052 6.344 6.344 0 0 1-.492-2.496c0-.856.156-1.66.468-2.412a6.249 6.249 0 0 1 3.3-3.312 6.009 6.009 0 0 1 2.4-.48c.792 0 1.5.176 2.124.528.632.352 1.168.8 1.608 1.344L94.586 447zm-3.42 9.492c.624 0 1.176-.156 1.656-.468.48-.312.856-.732 1.128-1.26a3.841 3.841 0 0 0 .408-1.764c0-.648-.136-1.236-.408-1.764a3.192 3.192 0 0 0-1.14-1.272 2.95 2.95 0 0 0-1.644-.468c-.616 0-1.18.16-1.692.48a3.522 3.522 0 0 0-1.212 1.26 3.545 3.545 0 0 0-.444 1.764 3.522 3.522 0 0 0 1.668 3.024 3.168 3.168 0 0 0 1.68.468zM99.905 459v-12h2.928v1.068a4.422 4.422 0 0 1 1.464-1.02 4.416 4.416 0 0 1 1.836-.384 4.59 4.59 0 0 1 2.292.588 4.602 4.602 0 0 1 1.68 1.572 4.731 4.731 0 0 1 1.68-1.572 4.59 4.59 0 0 1 2.292-.588c.88 0 1.676.216 2.388.648.72.424 1.292.996 1.716 1.716.432.712.648 1.508.648 2.388V459h-2.928v-6.804c0-.464-.116-.888-.348-1.272a2.559 2.559 0 0 0-.912-.936c-.376-.24-.8-.36-1.272-.36s-.9.116-1.284.348a2.62 2.62 0 0 0-.912.912 2.48 2.48 0 0 0-.348 1.308V459h-2.928v-6.804c0-.488-.112-.924-.336-1.308a2.493 2.493 0 0 0-.912-.912 2.435 2.435 0 0 0-1.284-.348c-.464 0-.888.12-1.272.36a2.655 2.655 0 0 0-.924.936 2.479 2.479 0 0 0-.336 1.272V459h-2.928zm24.256 6h-2.928v-18h2.928v1.524a4.723 4.723 0 0 1 1.44-1.32c.576-.344 1.248-.516 2.016-.516.88 0 1.7.164 2.46.492.76.328 1.428.784 2.004 1.368a6.126 6.126 0 0 1 1.356 2.004c.328.76.492 1.576.492 2.448 0 .872-.164 1.692-.492 2.46a6.226 6.226 0 0 1-1.356 2.028 6.384 6.384 0 0 1-2.004 1.356c-.76.328-1.58.492-2.46.492-.768 0-1.44-.168-2.016-.504a4.866 4.866 0 0 1-1.44-1.332v7.5zm3.42-15.492c-.608 0-1.152.16-1.632.48-.48.312-.856.732-1.128 1.26a3.769 3.769 0 0 0-.408 1.752c0 .64.136 1.228.408 1.764.272.528.648.952 1.128 1.272.48.312 1.024.468 1.632.468a3.19 3.19 0 0 0 1.692-.468 3.488 3.488 0 0 0 1.68-3.036 3.488 3.488 0 0 0-1.68-3.012 3.09 3.09 0 0 0-1.692-.48zM534.46 375v-16.8h10.536v2.928h-7.608v3.408h6.036v2.928h-6.036v4.608h7.608V375H534.46zm12.012 0 4.392-6.024-4.356-5.988h3.612l2.544 3.492 2.556-3.492h3.612l-4.356 5.988 4.392 6.024h-3.612l-2.592-3.552-2.58 3.552h-3.612zm20.998-3.612 2.64 1.428a6.293 6.293 0 0 1-2.076 1.812 5.575 5.575 0 0 1-2.724.684 5.607 5.607 0 0 1-3.024-.852 6.388 6.388 0 0 1-2.172-2.28c-.536-.96-.804-2.02-.804-3.18 0-.88.156-1.7.468-2.46.312-.768.74-1.44 1.284-2.016a6.022 6.022 0 0 1 1.92-1.368 5.602 5.602 0 0 1 2.328-.492c.984 0 1.892.228 2.724.684a6.186 6.186 0 0 1 2.076 1.836l-2.64 1.416a2.934 2.934 0 0 0-.996-.744 2.717 2.717 0 0 0-1.164-.264c-.576 0-1.096.16-1.56.48a3.338 3.338 0 0 0-1.104 1.248 3.525 3.525 0 0 0-.408 1.68c0 .6.136 1.16.408 1.68.272.512.64.924 1.104 1.236.464.312.984.468 1.56.468a2.77 2.77 0 0 0 1.188-.264c.376-.184.7-.428.972-.732zm15.411-3.972V375h-2.928v-6.816c0-.472-.116-.9-.348-1.284a2.53 2.53 0 0 0-.936-.924 2.435 2.435 0 0 0-1.284-.348c-.472 0-.904.116-1.296.348a2.558 2.558 0 0 0-.924.924 2.501 2.501 0 0 0-.336 1.284V375h-2.928l-.012-18h2.928l.012 7.068a4.422 4.422 0 0 1 1.464-1.02 4.416 4.416 0 0 1 1.836-.384c.872 0 1.668.216 2.388.648.72.424 1.292.996 1.716 1.716.432.712.648 1.508.648 2.388zM594.086 363h2.928v12h-2.928l-.132-1.488a3.933 3.933 0 0 1-1.308 1.308c-.536.328-1.172.492-1.908.492-.888 0-1.72-.168-2.496-.504a6.562 6.562 0 0 1-2.052-1.392 6.666 6.666 0 0 1-1.38-2.052 6.344 6.344 0 0 1-.492-2.496c0-.856.156-1.66.468-2.412a6.249 6.249 0 0 1 3.3-3.312 6.009 6.009 0 0 1 2.4-.48c.792 0 1.5.176 2.124.528.632.352 1.168.8 1.608 1.344l-.132-1.536zm-3.42 9.492c.624 0 1.176-.156 1.656-.468.48-.312.856-.732 1.128-1.26a3.841 3.841 0 0 0 .408-1.764c0-.648-.136-1.236-.408-1.764a3.192 3.192 0 0 0-1.14-1.272 2.95 2.95 0 0 0-1.644-.468c-.616 0-1.18.16-1.692.48a3.522 3.522 0 0 0-1.212 1.26 3.545 3.545 0 0 0-.444 1.764 3.522 3.522 0 0 0 1.668 3.024 3.168 3.168 0 0 0 1.68.468zm19.731-5.076V375h-2.928v-6.816c0-.472-.116-.9-.348-1.284a2.53 2.53 0 0 0-.936-.924 2.435 2.435 0 0 0-1.284-.348c-.472 0-.904.116-1.296.348a2.558 2.558 0 0 0-.924.924 2.501 2.501 0 0 0-.336 1.284V375h-2.928l-.012-12h2.928l.012 1.068a4.422 4.422 0 0 1 1.464-1.02 4.416 4.416 0 0 1 1.836-.384c.872 0 1.668.216 2.388.648.72.424 1.292.996 1.716 1.716.432.712.648 1.508.648 2.388zm11.06-4.416h2.928v12.228c0 .864-.176 1.648-.528 2.352a5.52 5.52 0 0 1-1.44 1.824 6.533 6.533 0 0 1-2.088 1.176c-.784.28-1.608.42-2.472.42-.84 0-1.648-.172-2.424-.516a6.78 6.78 0 0 1-2.064-1.416 6.144 6.144 0 0 1-1.356-2.028l2.676-1.212c.16.44.4.824.72 1.152.328.336.704.596 1.128.78.424.192.864.288 1.32.288.464 0 .908-.064 1.332-.192.432-.128.82-.316 1.164-.564.344-.24.612-.536.804-.888.2-.344.3-.736.3-1.176v-1.692a4.447 4.447 0 0 1-1.416 1.284c-.568.328-1.224.492-1.968.492a5.996 5.996 0 0 1-2.424-.492 6.423 6.423 0 0 1-1.992-1.356 6.637 6.637 0 0 1-1.344-2.016 6.243 6.243 0 0 1-.48-2.448c0-.872.16-1.688.48-2.448a6.487 6.487 0 0 1 1.344-2.004 6.324 6.324 0 0 1 1.992-1.368 5.996 5.996 0 0 1 2.424-.492c.744 0 1.4.164 1.968.492a4.32 4.32 0 0 1 1.416 1.272V363zm-3.348 9.492c.616 0 1.16-.156 1.632-.468.48-.32.856-.744 1.128-1.272.272-.536.408-1.12.408-1.752 0-.64-.14-1.224-.42-1.752a3.336 3.336 0 0 0-1.128-1.272 2.819 2.819 0 0 0-1.62-.48c-.6 0-1.148.16-1.644.48a3.458 3.458 0 0 0-1.188 1.26 3.545 3.545 0 0 0-.444 1.764c0 .648.148 1.236.444 1.764.296.528.692.948 1.188 1.26a3.026 3.026 0 0 0 1.644.468zm14.162 2.82a5.607 5.607 0 0 1-3.024-.852 6.359 6.359 0 0 1-2.172-2.292c-.536-.96-.804-2.02-.804-3.18 0-.872.156-1.688.468-2.448.312-.768.74-1.44 1.284-2.016a6.022 6.022 0 0 1 1.92-1.368 5.602 5.602 0 0 1 2.328-.492c.936 0 1.792.2 2.568.6a5.838 5.838 0 0 1 1.992 1.62c.544.688.94 1.472 1.188 2.352.248.88.304 1.8.168 2.76h-8.772c.112.448.296.852.552 1.212.256.352.58.636.972.852a2.9 2.9 0 0 0 1.332.324c.512.008.976-.112 1.392-.36a3.25 3.25 0 0 0 1.056-1.032l2.988.696a6.414 6.414 0 0 1-2.184 2.616 5.57 5.57 0 0 1-3.252 1.008zm-2.952-7.512h5.904a3.045 3.045 0 0 0-.564-1.296 3.161 3.161 0 0 0-1.044-.936 2.715 2.715 0 0 0-1.344-.348c-.48 0-.924.116-1.332.348a3.193 3.193 0 0 0-1.044.924c-.28.384-.472.82-.576 1.308z" fill="#077453"/><path fill-rule="evenodd" clip-rule="evenodd" d="M579.708 299.132a9.5 9.5 0 0 1 13.435 0l1.415-1.415c-4.492-4.491-11.773-4.491-16.264 0l1.414 1.415zm-.002 31.736a9.5 9.5 0 0 0 13.435 0l1.415 1.414c-4.491 4.491-11.773 4.491-16.264 0l1.414-1.414zm30.914-25.846a12.005 12.005 0 0 0-15.152 1.493 11.996 11.996 0 0 0-1.493 15.152 12.001 12.001 0 1 0 16.645-16.645zm-3.511 5.272-3.157-4.717-3.157 4.705-3.157 4.718 6.314 3.193 6.315-3.181-3.158-4.718zm-9.121 5.988 5.964 3.182 5.964-3.182-5.964 8.141-5.964-8.141zM569 327c6.627 0 12-5.373 12-12s-5.373-12-12-12-12 5.373-12 12 5.373 12 12 12zm1.441-10.963v-.002c-.082.006-.508.032-1.456.032-.758 0-1.291-.023-1.479-.032v.002c-2.916-.128-5.092-.636-5.092-1.243 0-.607 2.176-1.115 5.092-1.245v1.983c.191.013.737.046 1.491.046.906 0 1.359-.038 1.444-.045v-1.983c2.91.13 5.081.638 5.081 1.244 0 .607-2.171 1.114-5.081 1.243zm0-2.693v-1.774h4.061v-2.706h-11.056v2.706h4.06v1.773c-3.3.152-5.781.806-5.781 1.589 0 .783 2.481 1.436 5.781 1.588v5.687h2.935v-5.688c3.295-.152 5.771-.805 5.771-1.587 0-.782-2.476-1.436-5.771-1.588zM396 41a5 5 0 0 0-5 5v4h54v-4a5 5 0 0 0-5-5h-44zm2.5 6a1.5 1.5 0 1 0 0-3 1.5 1.5 0 0 0 0 3zm10.5-1.5a1.5 1.5 0 1 1-3 0 1.5 1.5 0 0 1 3 0zm-6 1.5a1.5 1.5 0 1 0 0-3 1.5 1.5 0 0 0 0 3zm37 38h-44a3 3 0 0 1-3-3V54h50v28a3 3 0 0 1-3 3zm-44 2a5 5 0 0 1-5-5V52h54v30a5 5 0 0 1-5 5h-44zm19.258-11.348h-2.182L420.736 61h2.182l-7.66 14.652zM398.5 70.526v-1.672l12.831-5.456v2.134l-9.732 4.158 9.732 3.96v2.134L398.5 70.526zm26.169 3.124v2.134l12.831-5.258v-1.672l-12.831-5.456v2.134l9.732 4.158-9.732 3.96zM307 550a5 5 0 0 1 5-5h44a5 5 0 0 1 5 5v4h-54v-4zm9-.5a1.5 1.5 0 1 1-3.001-.001 1.5 1.5 0 0 1 3.001.001zm7.5 1.5a1.5 1.5 0 1 0-.001-3.001A1.5 1.5 0 0 0 323.5 551zm-3-1.5a1.5 1.5 0 1 1-3.001-.001 1.5 1.5 0 0 1 3.001.001zM356 589h-44a3 3 0 0 1-3-3v-28h50v28a3 3 0 0 1-3 3zm-44 2a5 5 0 0 1-5-5v-30h54v30a5 5 0 0 1-5 5h-44zm43-23h-27v-3h27v3zm-15 4h-27v3h27v-3zm15 0h-12v3h12v-3zm-42-7v3h12v-3h-12zm42 17h-27v-3h27v3zm-42-3v3h12v-3h-12zM159.706 131.132a9.5 9.5 0 0 1 13.435 0l1.415-1.415c-4.491-4.491-11.773-4.491-16.264 0l1.414 1.415zm0 31.736a9.5 9.5 0 0 0 13.435 0l1.415 1.415c-4.491 4.491-11.773 4.491-16.264 0l1.414-1.415zM196 147c0 6.627-5.373 12-12 12s-12-5.373-12-12 5.373-12 12-12 12 5.373 12 12zm-9.021-4.74c1.738.599 3.009 1.496 2.759 3.165-.181 1.222-.857 1.814-1.757 2.021 1.235.643 1.863 1.629 1.264 3.338-.743 2.123-2.507 2.302-4.854 1.858l-.57 2.282-1.375-.342.562-2.252c-.357-.09-.722-.183-1.097-.285l-.564 2.262-1.375-.343.569-2.286-.409-.106v-.001h-.001l-.57-.147-1.791-.446.683-1.575s1.014.269 1 .249c.39.096.563-.158.631-.327l.9-3.608.146.035a1.465 1.465 0 0 0-.144-.045l.642-2.576c.017-.293-.084-.662-.641-.801.021-.014-1-.248-1-.248l.366-1.47 1.898.473-.001.008c.266.066.54.129.819.193l.06.014.564-2.261 1.375.343-.553 2.216.023.006c.363.082.726.165 1.08.254l.549-2.202 1.376.343-.564 2.261zm-4.353 8.198c1.123.297 3.578.945 3.967-.623.4-1.602-1.978-2.137-3.14-2.398h-.001c-.13-.029-.244-.055-.338-.078l-.757 3.029c.077.019.167.043.267.07h.002zm1.06-4.427c.937.25 2.978.795 3.333-.631.364-1.457-1.621-1.896-2.59-2.111h-.001c-.109-.024-.205-.045-.283-.065l-.685 2.747.226.06zM161 147c0 6.627-5.373 12-12 12s-12-5.373-12-12 5.373-12 12-12 12 5.373 12 12zm-15.553 6.035c-.763-.718-1.232-1.752-1.408-3.102h1.98c.103.719.359 1.276.77 1.672.381.323.799.536 1.254.638v-4.334c-2.347-.425-3.52-1.76-3.52-4.004 0-.601.095-1.166.286-1.694.191-.528.477-.982.858-1.364.616-.616 1.408-.99 2.376-1.122v-1.276h1.936v1.276c1.217.176 2.171.69 2.86 1.54.616.792.983 1.76 1.1 2.904l-.044.022h-1.914c-.073-.572-.227-1.041-.462-1.408-.352-.572-.865-.931-1.54-1.078v4.422c.939.162 1.738.44 2.398.836 1.056.675 1.584 1.716 1.584 3.124 0 .558-.11 1.093-.33 1.606a3.84 3.84 0 0 1-.902 1.32c-.733.719-1.65 1.152-2.75 1.298v1.232h-1.936v-1.276c-1.071-.176-1.936-.586-2.596-1.232zm1.298-7.942c.323.411.755.675 1.298.792v-4.158c-.587.118-1.034.367-1.342.748-.293.367-.44.785-.44 1.254 0 .499.161.954.484 1.364zm4.928 3.784c-.264-.308-.829-.55-1.694-.726v4.158c.616-.132 1.115-.418 1.496-.858.396-.44.594-.916.594-1.43 0-.41-.132-.792-.396-1.144zM75.706 383.132a9.5 9.5 0 0 1 13.435 0l1.415-1.415c-4.492-4.491-11.773-4.491-16.264 0l1.414 1.415zm0 31.736a9.5 9.5 0 0 0 13.435 0l1.415 1.415c-4.492 4.491-11.773 4.491-16.264 0l1.414-1.415zm-4.086-25.846a12.004 12.004 0 0 0-15.152 1.493 11.998 11.998 0 0 0 10.826 20.254 12.001 12.001 0 0 0 4.326-21.747zm-6.666 1.482.001.001v-.001l2.846 4.241 2.846 4.254-.01-.004v.002l.01.003-.005.003.005.007-5.693 2.867-4.835-2.445-.857-.432h.002l-.002-.001 2.846-4.254 2.846-4.241zm-5.377 9.65.005.002-.002-.002 5.375 2.868 5.376-2.868-.008.011.02-.011-5.386 7.348v.002l-.001-.001v.001-.002l-3.6-4.921-1.779-2.427zM100 411c6.627 0 12-5.373 12-12s-5.373-12-12-12-12 5.373-12 12 5.373 12 12 12zm-8.27-12.531h2.093a7.119 7.119 0 0 0 .009 1.191h-1.056l-.017.036-.993 2.127-.042.091h2.688c1.195 2.714 3.914 4.466 6.939 4.466a7.637 7.637 0 0 0 4.247-1.278l.028-.019v-2.81l-.112.127a5.193 5.193 0 0 1-8.194-.486h5.428l.017-.037.992-2.127.042-.09h-7.353a5.338 5.338 0 0 1-.029-1.191H104.355l.017-.037.991-2.127.043-.09H97.158a5.227 5.227 0 0 1 4.448-2.51c1.571 0 3.042.702 4.037 1.925l.064.079.044-.092.861-1.847.019-.042-.033-.032a7.606 7.606 0 0 0-5.247-2.075 7.626 7.626 0 0 0-4.276 1.298 7.416 7.416 0 0 0-2.715 3.296h-1.678l-.017.036-.992 2.127-.042.091h.1z" fill="#077453"/></svg>