<svg width="101" height="25" fill="none" xmlns="http://www.w3.org/2000/svg"><path fill-rule="evenodd" clip-rule="evenodd" d="m36.131 18.397.04-.145v-.003l.001-.003c.09-.328.173-.635.258-.941l.445-1.6c.742-2.67 1.484-5.338 2.22-8.006.052-.188.14-.233.324-.233 2.925.004 5.85.004 8.776.003 2.242 0 4.484-.003 6.727-.006l2.244-.002c.223 0 .364-.108.424-.322l.464-1.68.004-.015.46-1.664c.011-.04.02-.082.03-.132l.017-.08H40.25l.044-.18v-.003c.031-.127.06-.245.092-.36l.265-.958v-.003c.17-.613.34-1.226.507-1.84C41.2.06 41.272 0 41.45 0c6.64.005 13.279.005 19.92.002.512 0 .944.142 1.226.597.236.38.217.796.105 1.202a1937.88 1937.88 0 0 1-2.053 7.427c-.285 1.024-1.366 1.804-2.408 1.8-4.241-.012-8.482-.01-12.722-.008H45.508a9534.989 9534.989 0 0 1-3.497 0c-.11 0-.163-.002-.194.024-.03.023-.041.069-.063.157a2115.327 2115.327 0 0 0-1.207 4.362l-.705 2.546a5.302 5.302 0 0 0-.017.063l-.008.028c-.027.103-.04.153-.073.177-.03.021-.076.02-.166.02l-.107-.002H36.133l-.002.002zM88.045.391l.102-.376h-.002l-.06-.004c-.059-.003-.107-.006-.155-.006H67.972c-.135 0-.275 0-.405.03-.99.237-1.652.848-1.927 1.823-.7 2.478-1.382 4.962-2.063 7.446-.275 1.001.373 1.74 1.326 1.723.987-.017 1.974-.013 2.961-.01h.001c.417.002.835.004 1.252.004 3.983.001 7.967.004 11.952.008h.389l-.02.086c-.018.074-.031.128-.047.182l-.893 3.228c-.005.018-.01.034-.013.05l-.014.054v.001l-.001.001c-.025.096-.038.148-.071.175-.038.031-.102.03-.238.03H67c-1.58 0-3.158 0-4.737-.003-.159 0-.241.035-.286.203-.164.61-.334 1.217-.503 1.825l-.245.88c-.04.145-.076.29-.115.444l-.053.209h20.102c.927 0 1.636-.426 2.11-1.193.203-.326.312-.72.417-1.098l.015-.054c.457-1.63.908-3.262 1.358-4.894v-.003l.529-1.913c.084-.304.11-.61.008-.916-.19-.566-.64-.856-1.327-.856H67.984c-.053 0-.107-.005-.168-.01a5.413 5.413 0 0 0-.092-.01l.03-.119c.013-.052.024-.1.038-.146l.338-1.215v-.001c.198-.707.395-1.414.59-2.122l.015-.05c.035-.131.051-.19.09-.215.03-.021.076-.02.16-.018l.11.002H72.07c4.956 0 9.91 0 14.866.005.188 0 .253-.058.298-.232.137-.518.281-1.034.426-1.55l.002-.005.001-.005.175-.624.204-.751V.398l.003-.007zM14.67.058 14.65.023v.003a.466.466 0 0 1-.026.004L14.6.034c-1.59 5.745-3.181 11.49-4.78 17.26l-.012.046-.293 1.06h1.034c.796-.001 1.592-.002 2.388.005.173.002.23-.063.272-.217.876-3.184 1.758-6.366 2.639-9.548l.001-.006a.779.779 0 0 1 .042-.105l.038-.088 3.505 5.987 2.336 3.99 4.549-4.154.044-.04.03-.028.017-.016.018-.016.043-.04.021-.019.008-.007 4.896-4.47a.615.615 0 0 1 .036.025l.015.012-2.4 8.724.042.004a.766.766 0 0 0 .075.006h.742c.866-.001 1.732-.002 2.598.005.158.001.194-.08.228-.201l2.166-7.834.001-.002v-.003l.002-.003v-.002l.001-.003v-.002l.002-.003v-.005l.002-.002v-.003l.001-.003v-.002l.001-.003.001-.002v-.003l.002-.002v-.003l.001-.003v-.002l.001-.001v-.003l.001-.001v-.002l1.381-4.981.006-.022 1.086-3.916c.08-.288.158-.576.24-.879l.126-.466L22.463 12.96 14.673.062 14.67.058zm80.876.095 4.757 9.285-10 9.283 1.19-4.21-4.537 4.21L92.207.153l2.153 4.205L95.547.153zM10.923.037l-.082.302-.217.795L9.31 5.882 7.996 10.63l-.375 1.353c-.575 2.08-1.151 4.161-1.728 6.24l-.001.004c-.026.092-.048.173-.184.173-.75-.004-1.5-.004-2.251-.004h-.001l-1.126-.001c-.017 0-.033-.004-.056-.009h-.002a2.137 2.137 0 0 0-.04-.009c.006-.026.01-.053.015-.079.011-.063.022-.124.039-.183C3.55 13.543 4.818 8.971 6.085 4.4v-.003l.825-2.977.123-.443c.073-.263.146-.525.217-.789.026-.097.049-.174.185-.173.75.004 1.501.004 2.252.005h1.126c.015 0 .03.003.053.007.015.003.034.007.059.01h-.002zm-.568 24.96v.001l-.001.002.001-.002zm0 0-.443-2.186-.31.625a406.178 406.178 0 0 0-.41.824c-.067.13-.134.26-.19.395-.062.154-.148.228-.318.2-.054-.008-.109-.006-.175-.003l-.116.002c.427-.845.847-1.68 1.275-2.53v-.001l.005-.008.512-1.017c.079.416.154.82.228 1.22l.255 1.359c.624-.85 1.236-1.681 1.85-2.513a.3.3 0 0 0 .02.004h.002a.206.206 0 0 1 .018.004v.007l-.16 3.466h-.51l.104-1.842.009-.157-.867 1.133-.007.01-.005.006-.767 1.003zm-7.515-.142.79-1.566.003-.006.001-.002.006-.012.96-1.903h.046v.002l.47 2.51.244-.331 1.603-2.18.042.014v.006l-.16 3.456h-.51l.093-1.641.02-.355c-.539.704-1.077 1.407-1.645 2.152l-.444-2.191-.19.387-.002.002-.002.004v.001l-.306.619-.108.216v.002c-.1.199-.2.398-.29.6-.07.162-.163.25-.35.217-.048-.008-.099-.006-.16-.004-.034.001-.07.003-.111.003zm48.449-1.395.321-.652h.002c.06.303.121.602.182.902l.002.007.259 1.28 1.04-1.36.004-.005.603-.789-.072 1.258v.001l-.018.308-.025.43h.51l.147-3.182.013-.289-.01-.003-.008-.003-.004-.001a.443.443 0 0 1-.015-.006l-1.853 2.521-.265-1.417-.217-1.16-.756 1.498-.004.008-1.021 2.024c.464.078.472.075.658-.302l.527-1.068zM18.04 24.85l.212-.76.001-.005.277-.995.104-.37v-.001c.1-.355.2-.709.288-1.066.042-.172.117-.224.291-.214.2.012.4.015.6.018.227.003.453.007.678.023.641.045.996.406 1.005 1.05.012.812-.448 1.817-1.427 2.18-.231.085-.49.12-.738.133-.294.015-.59.012-.897.01-.129-.002-.26-.003-.392-.003h-.002zm.995-.488c.23-.005.448-.01.662-.046.2-.034.413-.133.571-.26.45-.366.64-.866.633-1.439-.003-.314-.181-.568-.466-.616-.24-.04-.485-.053-.728-.066-.1-.005-.201-.01-.301-.017a1783.508 1783.508 0 0 1-.681 2.453h.001c.105-.005.208-.007.309-.01zm41.503-1.23.164-.588h.002l1.864 2.448.08-.289c.305-1.1.601-2.17.902-3.25h-.508a1124.538 1124.538 0 0 0-.644 2.309l-1.012-1.335-.849-1.12-.66 2.378-.325 1.17c.045 0 .088-.002.128-.003.082-.002.155-.003.228.004.123.013.171-.042.197-.154.036-.154.08-.307.123-.46l.017-.06.013-.05.019-.066.26-.934zm20.043.18.67 1.406.064.135c-.057 0-.112 0-.165.002-.135.002-.258.003-.382-.008-.05-.005-.111-.076-.137-.131a86.29 86.29 0 0 1-.444-.945l-.001-.002-.131-.281a2.243 2.243 0 0 0-.068-.13l-.047-.084-.057.191-.001.004-.001.004a25.963 25.963 0 0 0-.143.486l-.02.068c-.06.212-.122.424-.171.638-.034.146-.092.212-.246.193-.062-.009-.126-.006-.2-.004l-.125.002.37-1.333.58-2.095c.134.006.27.01.404.015.297.009.594.018.887.053.315.039.49.348.436.692-.095.613-.42 1.018-1.074 1.123h.002zm-.515-.383c.081-.012.158-.021.231-.03.15-.018.286-.034.416-.072.248-.073.424-.482.334-.708-.058-.144-.455-.27-.646-.2a.158.158 0 0 0-.082.095c-.058.199-.113.4-.174.623l-.08.292h.001zm-2.573-.158v-.002.002zm-1.35 0h1.35l-.14.488h-.331c-.29.002-.576.003-.862-.003-.118-.002-.172.037-.2.15a29.8 29.8 0 0 1-.182.673v.002l-.078.28h1.319a.863.863 0 0 0 .003.033c.002.018.004.03.002.042-.055.279-.225.419-.51.419h-1.503l.255-.918.002-.006.119-.428V23.5c.173-.621.345-1.242.512-1.865.037-.136.087-.198.246-.194.41.008.822.007 1.243.005h.469l-.07.26-.055.199-.334.001c-.268.002-.536.004-.805-.004-.166-.005-.242.045-.275.212a5.51 5.51 0 0 1-.12.464l-.055.193zm-40.896 1.588-.132.484h-1.903c.317-1.14.63-2.262.942-3.388h1.9c-.012.04-.02.08-.03.118-.02.087-.04.17-.074.244-.021.044-.107.081-.165.083-.343.008-.686.01-1.028 0-.132-.003-.197.035-.228.168-.035.156-.078.311-.124.475l-.062.222h1.341l-.032.132c-.026.107-.05.205-.086.296-.014.037-.103.06-.158.061-.35.005-.7.007-1.047 0-.113-.002-.172.026-.202.147-.052.213-.112.424-.173.643-.03.102-.059.206-.088.314h1.348l.002.001zm58.402.212-.078.284h.372c.487 0 .962 0 1.436-.004.04 0 .1-.039.113-.074.033-.095.057-.193.085-.301v-.002l.021-.082.007-.028h-1.344l.062-.228c.075-.276.146-.538.226-.798.011-.039.097-.077.148-.077.192-.006.385-.005.578-.004h.217c.29 0 .47-.142.542-.427.002-.007 0-.014-.005-.026l-.005-.013-.004-.01-.002-.009h-1.314l.071-.256v-.003h.001v-.002c.046-.162.09-.315.125-.47.028-.11.08-.143.188-.141.356.006.71.006 1.066 0 .054-.002.136-.03.152-.07.036-.083.057-.173.08-.27l.029-.115-.508.001h-.002c-.413.002-.816.003-1.22-.004-.137-.003-.188.045-.221.172-.127.468-.257.936-.388 1.405l-.003.01-.192.691c-.078.28-.155.561-.233.85zm-76.9-1.802-.112.397-.026.093h-.324c-.285.002-.567.003-.848-.003-.13-.003-.194.029-.226.168a12.79 12.79 0 0 1-.184.68v.002l-.075.258h1.348a10.6 10.6 0 0 0-.036.132c-.029.11-.054.207-.087.302-.01.029-.071.055-.108.055-.594.003-1.19.003-1.806.003l.115-.415.828-2.984h1.895c-.01.037-.018.075-.027.112a1.652 1.652 0 0 1-.078.271c-.015.037-.106.062-.16.062-.35.005-.7.008-1.05 0-.117-.002-.172.037-.2.152-.038.16-.082.32-.13.488l-.062.227h1.352zm41.058 1.595h-1.343v-.002l.088-.311v-.001c.063-.219.123-.425.172-.634.031-.126.086-.162.21-.16.286.006.571.005.859.004h.001l.327-.001.068-.244v-.003l.001-.002.067-.237H56.91l.06-.218c.049-.175.094-.338.132-.503.028-.117.086-.152.203-.15.347.006.697.004 1.046 0 .056 0 .146-.025.16-.062.035-.085.056-.176.077-.27l.027-.115H56.72l-.656 2.362v.002l-.288 1.037c.618 0 1.218 0 1.817-.003.035 0 .092-.034.101-.065.033-.097.057-.196.084-.305l.018-.072.012-.047zm34.651-2.11c-.514-.462-1.071-.501-1.64-.22-.619.305-.95.832-.984 1.516-.031.61.485.989 1.158.87a2.6 2.6 0 0 0 .5-.148c.102-.04.2-.095.304-.152.053-.03.108-.06.167-.09a14.9 14.9 0 0 0-.041.15 5.826 5.826 0 0 1-.106.364.26.26 0 0 1-.117.139c-.532.282-1.094.351-1.668.163-.57-.186-.872-.765-.77-1.423.184-1.196 1.309-2.13 2.51-2.049.188.013.374.09.557.165.063.026.125.052.187.075.106.038.132.123.082.236-.035.08-.062.166-.09.257l-.047.146-.002.001zm-47.398-.941v-.004h.002l-.002.004zm-2.635 3.541a9880.32 9880.32 0 0 1 2.635-3.541l.66 3.53h-.575l-.036-.202c-.031-.17-.063-.342-.082-.515-.015-.128-.072-.16-.188-.158-.14.002-.28.001-.42 0-.209 0-.418-.002-.627.006a.361.361 0 0 0-.233.126 5.723 5.723 0 0 0-.422.58c-.087.136-.19.195-.35.176a1.473 1.473 0 0 0-.223-.004l-.14.002zm2.384-2.1.112.76h-.935c.207-.295.405-.574.605-.856l.169-.239.05.334zm-18.304.006.006-.01 1.071-1.439.277 1.47v.008h.001v.004l.386 2.046h-.578a16.665 16.665 0 0 0-.035-.197c-.03-.166-.06-.333-.078-.5-.015-.135-.072-.174-.198-.172-.148.002-.295.002-.443.001-.201 0-.402 0-.604.007a.336.336 0 0 0-.218.116 5.607 5.607 0 0 0-.422.578c-.096.15-.212.207-.384.186-.063-.008-.126-.006-.203-.004l-.133.002-.004-.001 1.559-2.095zm.42.165.355-.504.071.471.094.616h-.93l.41-.583zm46.282-.785v.001h-.002.002zm.236-.104-.236.104c-.262-.389-.773-.38-.99.001-.111.196-.092.374.09.518.115.093.244.168.373.243l.042.024.026.016.031.018c.536.315.634.657.354 1.217-.297.597-.97.898-1.697.72a.6.6 0 0 1-.477-.547c-.012-.117.011-.198.139-.233.078-.022.154-.055.236-.09l.102-.043c.037.273.176.43.448.453.303.026.549-.068.709-.336.142-.238.104-.439-.131-.606-.113-.08-.233-.15-.354-.22l-.141-.084c-.581-.35-.51-.835-.212-1.275.315-.466.967-.671 1.501-.493.09.029.18.079.251.14.232.203.209.352-.063.473zm-32.841-.586c.124 0 .246-.002.366-.003.268-.004.526-.008.784.008.557.034.777.36.635.9-.17.642-.588.946-1.337.973-.306.011-.5.165-.58.462l-.08.283c-.058.204-.116.407-.167.613-.032.126-.082.19-.223.173a1.6 1.6 0 0 0-.23-.005l-.115.002c.32-1.147.631-2.272.945-3.404l.002-.002zm.376 1.425c.158-.015.302-.028.443-.06.25-.054.435-.328.407-.585-.008-.075-.056-.194-.11-.207a4.41 4.41 0 0 0-.55-.088l-.092-.01c-.02-.003-.058.031-.065.056-.073.252-.144.503-.224.788l-.036.13h.001c.078-.01.153-.017.224-.024h.001zm44.091.237 1.18-1.667v-.001l-.132.002c-.076.003-.14.005-.202-.004-.175-.023-.28.047-.377.193-.183.277-.374.548-.564.82a63.406 63.406 0 0 0-.59.85l-.288.419-.178-1.268c-.046-.334-.092-.666-.14-.998h-.572l.275 1.814.002.009c.085.563.17 1.13.259 1.708l1.327-1.877zm-37.747-1.668h.042l.049-.002c.119-.002.23-.003.338.008.05.005.115.07.134.122.118.33.23.66.346 1.003v.003l.001.001.086.253.162-.178.003-.003.318-.35c.053-.058.109-.114.164-.17.122-.125.244-.25.341-.391.202-.298.471-.338.814-.275l-.076.085c-.113.125-.22.245-.328.363l-.364.397c-.264.287-.527.574-.785.865a.82.82 0 0 0-.162.298c-.118.396-.227.794-.329 1.194-.035.14-.093.212-.249.191-.073-.01-.148-.008-.231-.006-.039.002-.079.003-.122.003.04-.142.078-.281.115-.42.084-.309.167-.612.256-.913a.677.677 0 0 0-.013-.449 55.65 55.65 0 0 1-.39-1.126c-.055-.167-.112-.334-.17-.503h.05zm17.782.43.006.04h-.001.877l-.816 2.942c.036 0 .07 0 .103-.002.071-.002.137-.004.2.006.204.032.272-.059.322-.25.127-.485.261-.969.396-1.452v-.001c.1-.356.199-.711.295-1.067.039-.148.105-.196.254-.188.161.009.323.007.489.005l.095-.001h.121c.03-.113.06-.218.09-.326l.036-.134h-1.967c-.274 0-.442.134-.503.402 0 .005 0 .009.003.025zm-32.64-.314c-.024.096-.044.182-.078.262-.018.04-.094.076-.145.08-.201.01-.402.012-.6 0-.137-.009-.19.042-.226.171-.102.378-.206.756-.311 1.133-.13.468-.26.935-.384 1.404-.049.185-.117.285-.322.25-.06-.01-.12-.008-.192-.006l-.111.002.814-2.942h-.898l.032-.126a2.69 2.69 0 0 1 .08-.283c.01-.03.08-.056.123-.056.735-.004 1.47-.004 2.245-.004l-.028.115zm-9.543 2.945-.094.34v.001h.55l.944-3.4c-.047 0-.09.002-.131.003-.09.002-.17.003-.248-.005-.138-.017-.188.04-.222.17-.178.66-.362 1.32-.546 1.98l-.133.479-.12.431v.001zM2.08 21.445a255.947 255.947 0 0 1-.533 1.925c-.123.438-.246.875-.364 1.315-.034.128-.08.189-.218.175-.08-.01-.16-.008-.247-.006l-.122.002.014-.072c.009-.05.017-.096.03-.14l.256-.921c.191-.686.383-1.372.567-2.06.049-.179.126-.244.303-.218.062.01.127.007.199.005.036-.002.073-.003.113-.003l.002-.002zm85.511.539-.796 2.87v.002c.043 0 .084-.002.122-.003.076-.002.145-.004.213.004.163.02.236-.038.28-.203.142-.537.292-1.071.441-1.606l.224-.802a67.934 67.934 0 0 0 .21-.783c-.358-.046-.58.097-.666.428l-.014.047a.971.971 0 0 0-.014.046z" fill="#819EB0" fill-opacity=".8"/></svg>