<svg width="32" height="32" fill="none" xmlns="http://www.w3.org/2000/svg"><rect opacity=".2" width="32" height="32" rx="8" fill="#819EB0"/><path d="M22 9H9.997C9.447 9 9 9.453 9 10.01v11.98c0 .557.447 1.01.997 1.01H22c.55 0 1-.453 1-1.01V10.01C23 9.452 22.55 9 22 9zm-8.769 12h-2.075v-6.681h2.078V21h-.003zm-1.037-7.594a1.204 1.204 0 1 1 0-2.407 1.204 1.204 0 0 1 0 2.407zM21.009 21h-2.075v-3.25c0-.775-.015-1.772-1.078-1.772-1.081 0-1.247.844-1.247 1.716V21h-2.075v-6.681h1.991v.912h.028c.278-.525.956-1.078 1.966-1.078 2.1 0 2.49 1.384 2.49 3.184V21z" fill="#fff"/></svg>