<svg width="25" height="25" fill="none" xmlns="http://www.w3.org/2000/svg"><g fill="#BFFFC8"><path d="M12.335 6.084a2.807 2.807 0 1 0 0-5.614 2.807 2.807 0 0 0 0 5.614zM12.335 24.47a1.684 1.684 0 1 0 0-3.368 1.684 1.684 0 0 0 0 3.368zM5.437 8.66a2.527 2.527 0 1 0 0-5.054 2.527 2.527 0 0 0 0 5.054zM19.232 21.331a1.404 1.404 0 1 0 0-2.807 1.404 1.404 0 0 0 0 2.807zM2.58 15.277a2.245 2.245 0 1 0 0-4.49 2.245 2.245 0 0 0 0 4.49zM22.089 14.153a1.122 1.122 0 1 0 0-2.244 1.122 1.122 0 0 0 0 2.244zM4.047 18.54a1.963 1.963 0 0 0 0 2.778 1.963 1.963 0 0 0 2.778 0 1.963 1.963 0 0 0 0-2.778 1.955 1.955 0 0 0-2.778 0zM19.23 6.975a.842.842 0 1 0 0-1.684.842.842 0 0 0 0 1.684z"/></g></svg>