<svg width="156" height="50" fill="none" xmlns="http://www.w3.org/2000/svg"><g fill="#517185"><path d="M63.927 21.886h5.152v18.666h-5.152V21.886zm2.613-2.147c-.746 0-1.375-.249-1.885-.747-.51-.497-.765-1.113-.765-1.847 0-.735.255-1.35.765-1.848s1.132-.747 1.867-.747c.734 0 1.35.249 1.847.747.51.497.766 1.113.766 1.848 0 .734-.25 1.35-.747 1.848-.485.497-1.101.746-1.848.746zM90.145 28.68v11.872h-5.151V30.099a3.3 3.3 0 0 0-.486-1.774 3.45 3.45 0 0 0-1.269-1.269 3.365 3.365 0 0 0-1.755-.466c-.647 0-1.238.155-1.773.466a3.45 3.45 0 0 0-1.27 1.27 3.4 3.4 0 0 0-.466 1.773v10.453h-5.151l-.02-18.666h5.153l.018 1.381a6.774 6.774 0 0 1 2.184-1.4 7.166 7.166 0 0 1 2.67-.504c1.356 0 2.582.33 3.677.99a7.513 7.513 0 0 1 2.65 2.65c.66 1.095.99 2.32.99 3.677zM102.21 41.074c-1.804 0-3.453-.441-4.946-1.325a10.036 10.036 0 0 1-3.546-3.565c-.884-1.493-1.326-3.148-1.326-4.965 0-1.357.255-2.626.766-3.808a9.998 9.998 0 0 1 5.245-5.245 9.505 9.505 0 0 1 3.807-.766c1.083 0 2.041.237 2.875.71a7.045 7.045 0 0 1 2.128 1.792v-2.016h5.152V50h-5.152V38.573a7.42 7.42 0 0 1-2.128 1.792c-.834.473-1.792.71-2.875.71zm.075-14.727c-.859 0-1.636.224-2.333.672a4.747 4.747 0 0 0-1.661 1.773 4.887 4.887 0 0 0-.616 2.427c0 .908.205 1.73.616 2.464.41.734.964 1.319 1.66 1.754a4.311 4.311 0 0 0 2.334.654c.846 0 1.605-.218 2.277-.654a4.546 4.546 0 0 0 1.606-1.754 5.155 5.155 0 0 0 .597-2.464c0-.896-.199-1.711-.597-2.446a4.546 4.546 0 0 0-1.606-1.754 4.012 4.012 0 0 0-2.277-.672zM115.405 33.72V21.886h5.152V32.3a3.5 3.5 0 0 0 .466 1.792c.324.523.753.94 1.288 1.25a3.43 3.43 0 0 0 1.755.467c.647 0 1.238-.155 1.773-.466a3.495 3.495 0 0 0 1.269-1.25 3.491 3.491 0 0 0 .467-1.793V21.886h5.152l.019 18.666h-5.152l-.019-1.419a6.723 6.723 0 0 1-2.202 1.4 7.028 7.028 0 0 1-2.651.504c-1.344 0-2.57-.33-3.677-.99a7.562 7.562 0 0 1-2.651-2.631c-.659-1.108-.989-2.34-.989-3.696zM149.849 12.553h5.152v27.999h-5.152v-1.979a6.868 6.868 0 0 1-2.128 1.773c-.846.46-1.81.69-2.893.69a9.507 9.507 0 0 1-3.808-.764 10.167 10.167 0 0 1-3.136-2.11 10.169 10.169 0 0 1-2.109-3.136 9.51 9.51 0 0 1-.765-3.807 9.51 9.51 0 0 1 .765-3.808 10.007 10.007 0 0 1 5.245-5.245 9.507 9.507 0 0 1 3.808-.766c1.083 0 2.047.23 2.893.691a6.544 6.544 0 0 1 2.128 1.773V12.553zm-4.946 23.537c.846 0 1.611-.217 2.296-.653a4.701 4.701 0 0 0 1.624-1.754 5.155 5.155 0 0 0 .597-2.464c0-.909-.199-1.73-.597-2.464A4.7 4.7 0 0 0 147.199 27a4.189 4.189 0 0 0-2.296-.653c-.859 0-1.637.218-2.333.653a4.75 4.75 0 0 0-1.662 1.773 4.93 4.93 0 0 0-.616 2.446c0 .896.206 1.717.616 2.464a4.939 4.939 0 0 0 1.68 1.754 4.282 4.282 0 0 0 2.315.654z"/></g><path fill-rule="evenodd" clip-rule="evenodd" d="M28 .178A25.256 25.256 0 0 0 25 0C12.905 0 2.816 8.589.5 20H22a6 6 0 0 0 6-6V.178zM25 50c1.015 0 2.016-.06 3-.178V28a6 6 0 0 0-6-6H.178A25.256 25.256 0 0 0 0 25c0 13.807 11.193 25 25 25zm25-25c0 12.095-8.589 22.184-20 24.5V28a6 6 0 0 1 6-6h13.822c.117.984.178 1.985.178 3zM30 14a6 6 0 0 0 6 6h13.5C47.51 10.204 39.796 2.488 30 .5V14z" fill="#077453"/></svg>