<svg width="32" height="33" fill="none" xmlns="http://www.w3.org/2000/svg"><mask id="a" style="mask-type:alpha" maskUnits="userSpaceOnUse" x="0" y="0" width="32" height="33"><circle cx="16" cy="16.5" fill="#D9D9D9" r="16"/></mask><g mask="url(#a)"><circle cx="16" cy="16.5" fill="#fff" r="16"/><g fill="#077453"><path d="M-.639 32.5h18.56V18.42a3.84 3.84 0 0 0-3.84-3.84H-.639V32.5zM19.201 32.5h18.56V14.58h-14.72a3.84 3.84 0 0 0-3.84 3.84V32.5zM-.639 13.3h14.72a3.84 3.84 0 0 0 3.84-3.84V-4.62H-.639V13.3zM19.201 9.46a3.84 3.84 0 0 0 3.84 3.84h14.72V-4.62h-18.56V9.46z"/></g></g></svg>