<svg width="100" height="32" fill="none" xmlns="http://www.w3.org/2000/svg"><mask id="a" style="mask-type:alpha" maskUnits="userSpaceOnUse" x="0" y="0" width="32" height="32"><circle cx="16" cy="16" fill="#D9D9D9" r="16"/></mask><g mask="url(#a)"><circle cx="16" cy="16" fill="#fff" r="16"/><g fill="#077453"><path d="M-.639 32h18.56V17.92a3.84 3.84 0 0 0-3.84-3.84H-.639V32zM19.201 32h18.56V14.08h-14.72a3.84 3.84 0 0 0-3.84 3.84V32zM-.639 12.8h14.72a3.84 3.84 0 0 0 3.84-3.84V-5.12H-.639V12.8zM19.201 8.96a3.84 3.84 0 0 0 3.84 3.84h14.72V-5.12h-18.56V8.96z"/></g></g><g fill="#517185"><path d="M41.268 14.007h3.297v11.946h-3.297V14.007zm1.672-1.374c-.477 0-.88-.16-1.206-.478a1.586 1.586 0 0 1-.49-1.183c0-.47.163-.864.49-1.182a1.647 1.647 0 0 1 1.194-.478c.47 0 .865.16 1.183.478.327.318.49.713.49 1.182 0 .47-.16.865-.478 1.183-.31.319-.705.478-1.182.478zM58.048 18.355v7.598H54.75v-6.69c0-.422-.104-.8-.31-1.135-.2-.342-.47-.613-.813-.812a2.153 2.153 0 0 0-1.123-.299 2.217 2.217 0 0 0-1.947 1.111c-.2.335-.299.713-.299 1.135v6.69h-3.297l-.012-11.946h3.297l.012.884c.398-.383.864-.681 1.398-.896a4.588 4.588 0 0 1 1.708-.323c.868 0 1.652.211 2.353.633a4.808 4.808 0 0 1 1.697 1.697c.422.7.633 1.485.633 2.353zM65.77 26.287c-1.155 0-2.21-.282-3.166-.848a6.423 6.423 0 0 1-2.27-2.282c-.566-.955-.848-2.014-.848-3.177 0-.868.163-1.68.49-2.437a6.4 6.4 0 0 1 3.357-3.357 6.083 6.083 0 0 1 2.436-.49c.693 0 1.306.152 1.84.454a4.51 4.51 0 0 1 1.362 1.147v-1.29h3.297V32h-3.297v-7.313a4.75 4.75 0 0 1-1.362 1.146c-.533.303-1.147.454-1.84.454zm.047-9.425c-.55 0-1.047.143-1.493.43-.446.279-.8.657-1.063 1.135-.263.47-.395.987-.395 1.553 0 .581.132 1.107.395 1.577s.617.844 1.063 1.123a2.76 2.76 0 0 0 1.493.418c.542 0 1.028-.14 1.458-.418a2.91 2.91 0 0 0 1.027-1.123 3.298 3.298 0 0 0 .382-1.577c0-.574-.127-1.095-.382-1.565a2.909 2.909 0 0 0-1.027-1.123 2.568 2.568 0 0 0-1.458-.43zM74.214 21.58v-7.573h3.297v6.666c0 .422.1.804.299 1.147.207.334.482.6.824.8.343.2.717.299 1.123.299.414 0 .792-.1 1.135-.299.342-.2.613-.466.812-.8.2-.343.299-.725.299-1.147v-6.666H85.3l.012 11.946h-3.297l-.012-.908a4.304 4.304 0 0 1-1.41.896 4.496 4.496 0 0 1-1.696.323c-.86 0-1.645-.212-2.354-.634a4.84 4.84 0 0 1-1.696-1.684 4.535 4.535 0 0 1-.633-2.365zM96.258 8.034h3.297v17.919h-3.297v-1.266c-.366.462-.82.84-1.362 1.134-.541.295-1.158.442-1.851.442-.868 0-1.68-.163-2.437-.49a6.5 6.5 0 0 1-2.007-1.35 6.498 6.498 0 0 1-1.35-2.006 6.084 6.084 0 0 1-.49-2.437c0-.868.163-1.68.49-2.437a6.4 6.4 0 0 1 3.357-3.357 6.082 6.082 0 0 1 2.437-.49c.693 0 1.31.148 1.851.442a4.19 4.19 0 0 1 1.362 1.135v-7.24zm-3.165 15.064a2.68 2.68 0 0 0 1.469-.418 3.003 3.003 0 0 0 1.04-1.123 3.298 3.298 0 0 0 .382-1.577c0-.582-.128-1.107-.383-1.577a3.003 3.003 0 0 0-1.04-1.123 2.68 2.68 0 0 0-1.468-.418c-.55 0-1.048.14-1.494.418-.446.279-.8.657-1.063 1.135a3.15 3.15 0 0 0-.394 1.565c0 .573.131 1.099.394 1.577.27.47.63.844 1.075 1.123.446.278.94.418 1.482.418z"/></g></svg>