<svg width="42" height="32" fill="none" xmlns="http://www.w3.org/2000/svg"><path d="M8.097 31.93v-2.125c0-.814-.496-1.345-1.345-1.345-.425 0-.885.142-1.204.602-.247-.39-.601-.602-1.132-.602-.354 0-.708.106-.991.496v-.425H2.68v3.398h.744v-1.876c0-.602.318-.885.814-.885.495 0 .743.319.743.885v1.876h.743v-1.876c0-.602.354-.885.814-.885.496 0 .744.319.744.885v1.876h.814zm11.008-3.399h-1.203v-1.027h-.743v1.027h-.673v.672h.673v1.558c0 .779.318 1.239 1.168 1.239.318 0 .672-.106.92-.248l-.212-.637c-.213.142-.46.177-.637.177-.354 0-.496-.212-.496-.566v-1.523h1.203v-.672zm6.301-.07a.998.998 0 0 0-.885.495v-.425h-.743v3.398h.743v-1.911c0-.567.248-.885.708-.885.142 0 .319.035.46.07l.213-.707c-.142-.036-.354-.036-.496-.036zm-9.522.353c-.354-.248-.85-.354-1.38-.354-.85 0-1.416.425-1.416 1.098 0 .566.425.884 1.168.99l.354.036c.39.07.602.177.602.354 0 .248-.283.425-.779.425-.495 0-.885-.177-1.133-.354l-.354.566c.39.283.92.425 1.452.425.99 0 1.557-.46 1.557-1.097 0-.602-.46-.92-1.168-1.027l-.354-.035c-.319-.036-.566-.107-.566-.319 0-.248.247-.39.637-.39.425 0 .85.178 1.062.284l.318-.602zm19.752-.354a.998.998 0 0 0-.885.496v-.425h-.743v3.398h.743v-1.911c0-.567.248-.885.708-.885.142 0 .319.035.46.07l.213-.707c-.142-.036-.354-.036-.496-.036zm-9.487 1.77c0 1.027.709 1.77 1.806 1.77.495 0 .85-.106 1.203-.39l-.354-.601c-.283.212-.566.318-.885.318-.601 0-1.026-.424-1.026-1.097 0-.637.425-1.062 1.026-1.097.319 0 .602.106.885.318l.354-.601c-.354-.284-.708-.39-1.203-.39-1.097 0-1.805.743-1.805 1.77zm6.868 0v-1.699h-.744v.425c-.248-.319-.602-.496-1.062-.496-.955 0-1.699.743-1.699 1.77 0 1.027.744 1.77 1.7 1.77.495 0 .849-.177 1.061-.496v.425h.744V30.23zm-2.726 0c0-.602.39-1.097 1.026-1.097.602 0 1.027.46 1.027 1.097 0 .602-.425 1.097-1.027 1.097-.637-.035-1.026-.495-1.026-1.097zm-8.885-1.77c-.99 0-1.699.708-1.699 1.77S20.415 32 21.442 32c.495 0 .99-.142 1.38-.46l-.354-.531a1.692 1.692 0 0 1-.99.354c-.461 0-.921-.212-1.027-.814h2.513v-.284c.035-1.097-.602-1.805-1.558-1.805zm0 .637c.46 0 .779.284.85.814h-1.77c.07-.46.39-.814.92-.814zm18.442 1.133v-3.044h-.743v1.77c-.248-.319-.602-.496-1.062-.496-.956 0-1.7.743-1.7 1.77 0 1.027.744 1.77 1.7 1.77.496 0 .85-.177 1.062-.496v.425h.743V30.23zm-2.725 0c0-.602.389-1.097 1.026-1.097.602 0 1.027.46 1.027 1.097 0 .602-.425 1.097-1.027 1.097-.637-.035-1.026-.495-1.026-1.097zm-24.85 0v-1.699h-.742v.425c-.248-.319-.602-.496-1.062-.496-.956 0-1.7.743-1.7 1.77 0 1.027.744 1.77 1.7 1.77.495 0 .85-.177 1.062-.496v.425h.743V30.23zm-2.76 0c0-.602.39-1.097 1.026-1.097.602 0 1.027.46 1.027 1.097 0 .602-.425 1.097-1.027 1.097-.637-.035-1.026-.495-1.026-1.097zm10.584-7.115c.106.07.212.177.318.248a12.7 12.7 0 0 1-7.044 2.124c-7.044 0-12.743-5.7-12.743-12.744S6.328 0 13.371 0c2.62 0 5.027.779 7.044 2.124-.106.07-.212.177-.318.248a13.684 13.684 0 0 0-4.708 10.371c0 4 1.699 7.753 4.708 10.372zM29.087 0c-2.619 0-5.026.779-7.043 2.124.106.07.212.177.318.248a13.684 13.684 0 0 1 4.708 10.371c0 3.965-1.735 7.753-4.708 10.372-.106.07-.212.177-.318.248a12.7 12.7 0 0 0 7.043 2.124c7.045 0 12.744-5.7 12.744-12.744C41.83 5.735 36.13 0 29.087 0zM21.23 2.761c-.177.142-.318.248-.495.39a12.694 12.694 0 0 0-4.39 9.628c0 3.823 1.7 7.292 4.39 9.628.141.142.318.283.495.39.177-.142.319-.248.496-.39a12.694 12.694 0 0 0 4.39-9.628 12.75 12.75 0 0 0-4.39-9.629c-.177-.141-.319-.283-.496-.389z" fill="#819EB0" fill-opacity=".8"/></svg>