<svg width="64" height="64" fill="none" xmlns="http://www.w3.org/2000/svg"><rect width="64" height="64" rx="16" fill="#BFFFC8"/><rect x="16.5" y="20.5" width="31" height="23" rx="1.5" fill="#077453" stroke="#BFFFC8"/><path d="M17.645 45c-1.843 0-2.705-2.28-1.323-3.5l13.693-12.082a3 3 0 0 1 3.97 0L47.679 41.5c1.381 1.22.519 3.5-1.324 3.5h-28.71z" fill="#077453" stroke="#BFFFC8" stroke-width="2"/><path d="M17.645 19c-1.843 0-2.705 2.28-1.323 3.5l13.693 12.082a3 3 0 0 0 3.97 0L47.679 22.5c1.381-1.22.519-3.5-1.324-3.5h-28.71z" fill="#077453" stroke="#BFFFC8" stroke-width="2"/></svg>