<svg width="48" height="50" fill="none" xmlns="http://www.w3.org/2000/svg"><rect y=".992" width="48" height="48.002" rx="16" fill="#BFFFC8"/><path d="M21.333 28.861c-1.566 0-3.042-.282-4.339-.779-1.307 1.023-2.911 1.646-4.615 1.825a.344.344 0 0 1-.371-.25c-.041-.166.087-.267.213-.388.626-.602 1.385-1.075 1.681-3.096C12.71 25.029 12 23.6 12 22.052c0-3.761 4.179-6.81 9.333-6.81 5.155 0 9.334 3.049 9.334 6.81 0 3.764-4.18 6.81-9.334 6.81zm14.461 4.466c-.58-.547-1.285-.977-1.56-2.814 2.867-2.69 2.173-6.54-1.57-8.628.001.055.003.11.003.167 0 5.104-5.4 9.016-11.844 8.8 1.588 1.29 3.916 2.104 6.51 2.104 1.455 0 2.826-.256 4.03-.708 1.214.93 2.703 1.497 4.285 1.659a.32.32 0 0 0 .345-.228c.038-.15-.081-.242-.199-.352z" fill="#077453"/></svg>