<svg width="46" height="48" fill="none" xmlns="http://www.w3.org/2000/svg"><path d="M44.199 22.565a13.898 13.898 0 0 0-5.83-18.78l-4.463-2.352-1.098-.577a7.438 7.438 0 0 0-6.57-.176L11.232 7.09a2.858 2.858 0 0 0 1.665 5.435l7.915-1.529-5.37 10.203-7.535 14.32a2.379 2.379 0 1 0 4.21 2.216l7.537-14.325 2.08 1.094-2.704 5.142a2.378 2.378 0 1 0 4.21 2.213l2.703-5.14 2.08 1.093L26.19 31.3a2.38 2.38 0 1 0 4.211 2.216l1.835-3.487 2.082 1.103-.915 1.744a2.377 2.377 0 1 0 4.21 2.21l.915-1.744 5.67-10.78.002.004zM3.933 35.408a6.264 6.264 0 0 0 4.42 10.691 6.27 6.27 0 0 0 5.904-8.365l1.105-2.089a8.17 8.17 0 0 1-7 12.355 8.163 8.163 0 0 1-.588-16.306l-1.111 2.113a6.228 6.228 0 0 0-2.73 1.6z" fill="#BFFFC8"/></svg>