<svg width="80" height="28" fill="none" xmlns="http://www.w3.org/2000/svg"><path fill-rule="evenodd" clip-rule="evenodd" d="m52.961 1.944.933.933a.593.593 0 0 0 .838 0l.932-.933a.592.592 0 0 0 0-.838l-.931-.932a.593.593 0 0 0-.84 0l-.932.932a.592.592 0 0 0 0 .838zm-3.377 2.79a.5.5 0 0 1 .5-.5h2.057a2.695 2.695 0 0 1 2.695 2.696v11.995a.5.5 0 1 1-1 0V6.93c0-.937-.759-1.696-1.695-1.696h-2.057a.5.5 0 0 1-.5-.5zm-10.896.504a4.85 4.85 0 0 0-4.85 4.85v16.058a.5.5 0 1 1-1 0V10.088a5.85 5.85 0 0 1 5.85-5.85l4.742.007a5.842 5.842 0 0 1 5.83 5.842v3.418a5.85 5.85 0 0 1-5.85 5.85h-6.699a.5.5 0 0 1 0-1h6.7a4.85 4.85 0 0 0 4.85-4.85v-3.418a4.842 4.842 0 0 0-4.833-4.842l-4.74-.007zm19.096-.513a.5.5 0 0 1 .5-.5h2.04c1.181 0 2.315.47 3.15 1.305l4.77 4.77a1.082 1.082 0 0 0 1.531 0l4.754-4.753a4.456 4.456 0 0 1 3.15-1.305h1.659a.5.5 0 0 1 0 1H77.68c-.917 0-1.796.364-2.444 1.012l-4.753 4.753a2.082 2.082 0 0 1-2.945 0l-4.771-4.77a3.456 3.456 0 0 0-2.444-1.012h-2.04a.5.5 0 0 1-.5-.5zm10.46 8.52a1.082 1.082 0 0 1 1.531 0l4.754 4.753a4.456 4.456 0 0 0 3.15 1.305h1.659a.5.5 0 1 0 0-1H77.68a3.456 3.456 0 0 1-2.444-1.012l-4.753-4.753a2.082 2.082 0 0 0-2.945 0l-4.771 4.77a3.456 3.456 0 0 1-2.444 1.012h-2.04a.5.5 0 1 0 0 1h2.04a4.453 4.453 0 0 0 3.151-1.305l4.77-4.77zm-47.067 8.624a3.81 3.81 0 0 1-2.71-1.122l-3.914-3.914a.744.744 0 0 0-1.028 0l-3.928 3.928a3.81 3.81 0 0 1-2.71 1.122h-.771l4.956 4.956a3.964 3.964 0 0 0 5.606 0l4.97-4.97h-.471zM9.599 9.149a3.81 3.81 0 0 0-2.71-1.122h-.771l4.956-4.956a3.964 3.964 0 0 1 5.605 0l4.97 4.97h-.47a3.81 3.81 0 0 0-2.71 1.123l-3.914 3.913a.728.728 0 0 1-1.028 0L9.599 9.15zm16.162 3.003L22.757 9.15a.572.572 0 0 1-.213.043h-1.366a2.7 2.7 0 0 0-1.896.785l-3.914 3.914a1.875 1.875 0 0 1-2.656 0L8.784 9.963a2.699 2.699 0 0 0-1.896-.786h-1.68a.57.57 0 0 1-.2-.04L1.99 12.152a3.964 3.964 0 0 0 0 5.606l3.016 3.015a.57.57 0 0 1 .202-.04h1.68a2.7 2.7 0 0 0 1.895-.786l3.928-3.927c.71-.71 1.947-.71 2.656 0l3.914 3.913a2.7 2.7 0 0 0 1.896.785h1.366c.075 0 .147.017.213.043l3.004-3.003a3.964 3.964 0 0 0 0-5.606zm10.919 12.74c.255-.058.513-.112.734-.112.37 0 .561.182.561.589 0 .432-.233.597-.723.597a1.7 1.7 0 0 1-.572-.095v-.979zm-.166-.23v1.935h.166v-.569c.199.059.39.09.589.09.193 0 .409-.037.569-.127.23-.131.314-.37.314-.622 0-.241-.053-.463-.222-.6-.145-.118-.32-.146-.502-.146-.224 0-.538.07-.765.123l-.014-.084h-.135zm2.867.112c-.49 0-.71.155-.71.587 0 .417.216.605.71.605.488 0 .707-.151.707-.583 0-.418-.216-.609-.707-.609zm.63 1.192c-.162.118-.38.152-.63.152-.255 0-.474-.037-.634-.152-.18-.126-.252-.333-.252-.594 0-.258.073-.468.252-.598.16-.114.379-.151.634-.151.252 0 .468.037.63.151.183.13.253.34.253.595 0 .26-.073.471-.252.597zm1.78-1.062.548 1.174h.148l.584-1.416h-.177l-.474 1.19h-.011l-.541-1.19h-.152l-.527 1.19h-.011l-.485-1.19h-.183l.584 1.416h.148l.538-1.174h.012zm2.336-.132c-.454 0-.608.201-.637.493h1.274c-.014-.322-.18-.493-.637-.493zm-.005 1.346c-.273 0-.45-.04-.59-.157-.165-.143-.221-.35-.221-.59 0-.226.076-.467.264-.605.157-.11.35-.143.552-.143.182 0 .393.02.566.138.205.137.245.378.245.653h-1.453c.005.291.1.55.65.55.261 0 .505-.042.732-.082v.149a4.318 4.318 0 0 1-.745.087zm1.29-1.456v1.416h.166v-1.186c.311-.081.446-.112.667-.112h.04v-.157h-.02c-.225 0-.36.035-.582.092l-.122.032-.014-.085h-.134zm1.836.11c-.454 0-.608.201-.636.493h1.273c-.014-.322-.18-.493-.637-.493zm-.005 1.346c-.273 0-.45-.04-.59-.157-.165-.143-.22-.35-.22-.59 0-.226.075-.467.263-.605.157-.11.35-.143.552-.143.183 0 .393.02.567.138.204.137.244.378.244.653h-1.453c.006.291.101.55.65.55.261 0 .505-.042.732-.082v.149a4.318 4.318 0 0 1-.745.087zm2.054-1.344c.194 0 .396.03.572.095v.982c-.255.056-.513.109-.735.109-.37 0-.56-.18-.56-.589 0-.431.233-.597.723-.597zm.59 1.22.013.084h.135v-2.014h-.166v.648a2.144 2.144 0 0 0-.586-.09 1.18 1.18 0 0 0-.572.13c-.23.128-.314.367-.314.62 0 .24.053.462.221.6.146.12.32.145.502.145.225 0 .539-.07.766-.123zm2.574-1.214c-.221 0-.48.053-.734.112v.976c.18.067.378.098.572.098.49 0 .723-.166.723-.598 0-.406-.19-.588-.56-.588zm.424 1.21c-.16.09-.376.127-.57.127-.21 0-.42-.036-.633-.106l-.009.067h-.112v-2.014h.166v.676c.227-.05.532-.117.748-.117.183 0 .356.027.502.145.169.138.222.36.222.6 0 .253-.084.491-.314.623zm.534.478v.154c.07.009.14.014.205.014.288 0 .445-.095.591-.384l.797-1.59h-.188l-.603 1.223h-.011l-.634-1.223h-.19l.74 1.416-.054.113c-.115.232-.238.291-.443.291-.053 0-.129-.005-.21-.014zm3.875-1.198h-.55v.496h.552c.379 0 .522-.042.522-.25 0-.221-.196-.246-.524-.246zm-.101-.805h-.449v.504h.452c.373 0 .521-.044.521-.255 0-.224-.188-.25-.524-.25zm.852 1.478c-.202.129-.446.134-.892.134h-.838v-1.92h.819c.384 0 .62.005.816.123.14.084.196.213.196.381 0 .202-.084.337-.303.426v.011c.247.057.407.183.407.455 0 .185-.067.305-.205.39zm1.37-.481c.176 0 .344.008.51.022v.275c-.188.042-.41.084-.595.084-.221 0-.306-.067-.306-.19 0-.133.102-.191.39-.191zm.583.532.01.084h.312v-.838c0-.21-.03-.37-.193-.485-.157-.112-.413-.132-.66-.132a7.58 7.58 0 0 0-.608.028v.286c.18-.017.367-.025.522-.025.398 0 .544.073.544.294v.026a8.18 8.18 0 0 0-.514-.02c-.182 0-.381.006-.53.076a.399.399 0 0 0-.238.384c0 .143.05.266.157.342.115.084.278.104.43.104.246 0 .526-.065.768-.124zm2.173.084v-.782c0-.258-.132-.35-.367-.35-.174 0-.393.044-.578.09v1.042h-.395v-1.416h.322l.014.09c.25-.064.527-.129.757-.129.174 0 .35.025.485.146.113.1.155.24.155.443v.866h-.393zm.982-.109c.145.124.345.149.527.149.227 0 .468-.045.69-.09v-.292a3.28 3.28 0 0 1-.595.073c-.308 0-.44-.131-.44-.437 0-.325.176-.443.552-.443.138 0 .309.011.452.025v-.303a5.303 5.303 0 0 0-.5-.028c-.227 0-.445.025-.622.14-.216.137-.289.382-.289.606 0 .238.05.46.225.6zm2.385-1.049c-.376 0-.541.118-.541.44 0 .323.163.46.541.46.373 0 .536-.115.536-.437 0-.323-.16-.463-.536-.463zm.679 1.05c-.174.117-.401.148-.679.148-.283 0-.51-.034-.681-.149-.197-.129-.267-.342-.267-.597 0-.256.07-.471.267-.6.17-.115.398-.149.681-.149.28 0 .505.034.679.149.196.129.264.344.264.597 0 .255-.07.471-.264.6zm1.855-.052c.194.16.452.199.69.199.317 0 .628-.062.925-.121v-.342c-.297.062-.591.115-.855.115-.404 0-.62-.202-.62-.654 0-.442.233-.65.78-.65.196 0 .448.014.653.03v-.344a8.195 8.195 0 0 0-.67-.034c-.292 0-.58.031-.813.182-.3.197-.39.533-.39.816 0 .317.07.612.3.803zm2.778-1.043c-.329 0-.455.118-.48.334h.954c-.012-.23-.146-.334-.474-.334zm-.06 1.243c-.232 0-.442-.028-.6-.157-.168-.14-.227-.35-.227-.592 0-.216.07-.457.267-.597.174-.124.395-.149.62-.149.202 0 .44.022.614.143.227.16.247.407.25.698h-1.347c.009.216.124.357.522.357.247 0 .521-.037.754-.073v.277c-.272.045-.57.093-.852.093zm2.686-.822v.782h.392v-.866c0-.202-.042-.342-.154-.443-.135-.12-.311-.146-.485-.146-.23 0-.508.065-.757.129l-.014-.09h-.323v1.416h.396v-1.043c.185-.045.403-.09.577-.09.236 0 .368.093.368.35zm1.517.821c-.19 0-.365-.053-.46-.202-.07-.1-.104-.238-.104-.429v-.53h-.286v-.294h.286l.042-.43h.35v.43h.559v.294h-.558v.454c0 .11.008.202.039.27.042.095.135.131.258.131.092 0 .205-.014.283-.027v.283c-.129.025-.278.05-.41.05zm.771-1.455v1.416h.395v-1.045a2.203 2.203 0 0 1 .693-.071v-.336a.344.344 0 0 0-.025-.002l-.025-.001c-.24 0-.43.053-.68.123l-.021.006-.014-.09h-.323zm2.526.822a5.93 5.93 0 0 0-.51-.022c-.29 0-.39.058-.39.19 0 .124.084.191.305.191.186 0 .407-.042.595-.084v-.275zm.084.594-.011-.084c-.241.06-.522.124-.769.124-.151 0-.314-.02-.429-.104a.404.404 0 0 1-.157-.342c0-.16.07-.309.239-.384.148-.07.347-.076.53-.076.148 0 .347.008.513.02v-.026c0-.221-.146-.294-.544-.294a5.78 5.78 0 0 0-.522.025v-.286c.2-.017.424-.028.609-.028.247 0 .502.02.659.132.162.115.193.275.193.485v.838h-.311zm1.217-2.014h-.395v2.014h.395v-2.014z" fill="#819EB0" fill-opacity=".8"/></svg>