<svg width="80" height="22" fill="none" xmlns="http://www.w3.org/2000/svg"><path fill-rule="evenodd" clip-rule="evenodd" d="M12.696 7.119h5.346c0-.49 0-.857.415-.979 0-2.838-1.235-4.672-3.571-5.284A33.103 33.103 0 0 0 9.993.49c-1.492 0-2.715 0-3.938.123a5.823 5.823 0 0 0-3.56 1.113A3.462 3.462 0 0 0 1.15 3.559a15.385 15.385 0 0 0-.367 3.315 7.56 7.56 0 0 0 .734 4.06 4.734 4.734 0 0 0 3.559 2.08c.612.123 1.847.245 3.56.367 1.125.135 2.348.257 3.571.38a1.639 1.639 0 0 1 .979 1.712c.012.334-.03.669-.123.99a1.32 1.32 0 0 1-.99.979c-.648.102-1.303.143-1.958.122H8.146a2.446 2.446 0 0 1-1.345-.244 1.823 1.823 0 0 1-.869-1.847v-.49H.55a9.859 9.859 0 0 0 .367 3.805 4.294 4.294 0 0 0 2.924 2.703 28.06 28.06 0 0 0 6.384.489c1.355.04 2.71-.041 4.05-.245a4.953 4.953 0 0 0 4.06-2.825 9.846 9.846 0 0 0 .49-3.804c.02-.7-.021-1.4-.123-2.092a4.267 4.267 0 0 0-1.223-2.446 7.057 7.057 0 0 0-4.049-1.48 42.345 42.345 0 0 0-4.428-.367l-1.1-.122A3.89 3.89 0 0 1 6.8 8.232a1.615 1.615 0 0 1-.624-1.603 2.227 2.227 0 0 1 .746-1.712 5.358 5.358 0 0 1 2.825-.367c1.48 0 2.325.245 2.704.734.2.59.284 1.213.244 1.835zM41.746.122v21.674l5.945.062v-5.651h4.453a38.48 38.48 0 0 0 2.815-.101c.185-.013.312-.022.377-.022a4.893 4.893 0 0 0 4.293-3.314 15.54 15.54 0 0 0 .502-4.783 14.91 14.91 0 0 0-.502-4.06A5.025 5.025 0 0 0 55.996.488 16.415 16.415 0 0 0 52.56.122H41.747zm9.566 10.996h-3.62l.121-6.262h4.722a1.725 1.725 0 0 1 1.48 1.1c.202.678.285 1.386.245 2.092a8.06 8.06 0 0 1-.123 1.713 1.774 1.774 0 0 1-.746 1.113c-.683.149-1.38.23-2.08.244zm13.577 6.874h7.694l1.15 3.743h5.895L72.998 0h-8.72L57.77 21.662h6.018l1.1-3.67zm3.767-13.638 2.703 9.468h-5.394l2.691-9.468zM39.046 7.12H27.192l-.257-.122.135-.122a8.011 8.011 0 0 1 1.834-2.202A7.926 7.926 0 0 1 39.76 5.802l-.043.094h.123a7.494 7.494 0 0 0-.08-.094l1.141-2.523a8.4 8.4 0 0 1 .04.036v-.122l-.04.086a11.082 11.082 0 0 0-13.587-1.065 11.56 11.56 0 0 0-3.938 4.783h-2.337L19.63 9.945h-.18l.122.122.058-.122h3.012v2.067H21.04l-1.41 2.947h-.18l.122.123.058-.123h3.746c.213.573.505 1.112.868 1.603a11.008 11.008 0 0 0 15.229 3.07v-3.416l.122-.131-.122-.123v.254c-.443.466-.94.878-1.48 1.226a7.708 7.708 0 0 1-10.679-2.213l-.122-.123h8.097l1.422-2.947h.18l-.122-.123-.058.123H26.2v-.123c-.1-.358-.142-.73-.122-1.1v-.869h11.534l1.433-2.948zm0 0h.182l-.122-.122-.06.122z" fill="#819EB0" fill-opacity=".8"/></svg>