<svg width="48" height="49" fill="none" xmlns="http://www.w3.org/2000/svg"><rect width="48" height="48.002" rx="16" fill="#BFFFC8"/><path d="m11.9 16.02 2.83-2.828a4 4 0 0 1 5.656 0l14.142 14.142a4 4 0 0 1 0 5.657L31.7 35.82 11.9 16.02z" fill="#077453"/><path d="m11.9 16.02 2.83-2.828a4 4 0 0 1 5.656 0l14.142 14.142a4 4 0 0 1 0 5.657L31.7 35.82 11.9 16.02z" fill="#077453"/><path fill="#BFFFC8" d="m16.143 20.263 1.414-1.414.707.707-1.414 1.414zM14.02 18.142l1.414-1.414.708.707-1.415 1.414zM28.869 32.991l1.414-1.414.707.707-1.414 1.414zM26.748 30.87l1.414-1.414.707.707-1.414 1.414zM18.971 23.092l5.657-5.657 5.657 5.657-5.657 5.657z"/><path d="m19.264 34.112-5.802 1.345a1 1 0 0 1-1.2-1.2l1.345-5.802 15.971-15.97a2 2 0 0 1 2.828 0l2.829 2.828a2 2 0 0 1 0 2.828L19.264 34.112z" fill="#077453"/><path fill="#BFFFC8" d="m33.113 20.264-5.656-5.657.707-.707 5.657 5.657zM18.264 22.384l5.657-5.657.707.707-5.657 5.657zM24.627 28.748l5.657-5.657.707.707-5.657 5.657z"/></svg>