<svg width="32" height="32" fill="none" xmlns="http://www.w3.org/2000/svg"><rect opacity=".2" width="32" height="32" rx="8" fill="#819EB0"/><path fill-rule="evenodd" clip-rule="evenodd" d="M9.328 8c-.737 0-1.334.597-1.334 1.334v13.331c0 .737.597 1.334 1.334 1.334H22.66c.737 0 1.334-.597 1.334-1.334V9.334c0-.737-.597-1.334-1.334-1.334H9.328zm9.1 10.166-2.434.616 3.45 2.517-1.016-3.133zm-1.117-3.434h4.284l-3.45 2.5-2.134 1.534-3.466 2.5 1.316-4.034-3.466-2.5h4.283l1.316-4.033 1.317 4.033z" fill="#fff"/></svg>