<svg width="72" height="25" fill="none" xmlns="http://www.w3.org/2000/svg"><path fill-rule="evenodd" clip-rule="evenodd" d="M55.43 18.522h-3.688L56.871 0h3.688l-5.13 18.522zm-24.517 4.664c0-.026.008-.098.023-.217.012-.099.02-.18.027-.245-.032.077-.07.154-.113.23a2.717 2.717 0 0 1-.15.237l-1.295 1.804-.422-1.841a2.148 2.148 0 0 1-.06-.43 2.943 2.943 0 0 1-.173.467l-.753 1.667h-.493l1.624-3.529.463 2.137c.006.034.016.09.028.169l.042.291a4.86 4.86 0 0 1 .237-.37l.063-.092 1.462-2.135-.046 3.53h-.499l.035-1.673zm-7.616.343h.92l-.154-.773a3.311 3.311 0 0 1-.032-.384 3.833 3.833 0 0 1-.21.384l-.524.773zm1.165 1.33-.166-.873H22.99l-.592.872h-.563l2.44-3.52.754 3.52h-.566zm-19.575-3.52-.842 3.52h.493l.564-2.354a1.945 1.945 0 0 0 .227.38l1.635 2.106.842-3.517H7.31l-.562 2.347a3.33 3.33 0 0 0-.26-.411l-1.6-2.07zm-2.95.133h-.53L.903 23.58c-.11.46-.08.802.09 1.029.169.227.48.34.935.34.453 0 .82-.114 1.1-.341.28-.227.475-.57.584-1.028l.505-2.107H3.58l-.492 2.056c-.073.305-.197.535-.371.688-.174.153-.397.23-.67.23s-.46-.077-.56-.23c-.102-.153-.116-.383-.043-.688l.493-2.056zm5.825 3.386.81-3.386h.536l-.81 3.386h-.536zm2.119-3.386-.81 3.386h.536l.38-1.591h1.306l.115-.483h-1.305l.202-.845h1.305l.112-.466H9.881zm1.623 3.386.81-3.386h.537l-.81 3.386h-.537zm2.117-3.386-.81 3.386h1.841l.118-.492h-1.305l.262-1.094h1.305l.115-.484h-1.305l.204-.849h1.305l.111-.466h-1.841zm2.302 2.89h.45c.249 0 .439-.016.57-.05.133-.034.254-.091.365-.171.151-.11.277-.246.379-.408.1-.163.177-.352.23-.568.05-.216.065-.405.041-.568a.757.757 0 0 0-.182-.408.616.616 0 0 0-.294-.171c-.122-.034-.321-.051-.598-.051h-.388l-.573 2.396zm-.655.498.81-3.386h.723c.47 0 .796.024.976.073a1 1 0 0 1 .445.244c.155.15.254.342.296.576.043.234.028.502-.044.802a2.47 2.47 0 0 1-.34.8 2.029 2.029 0 0 1-.57.574 1.753 1.753 0 0 1-.551.244c-.196.049-.489.073-.878.073h-.867zm5.956-1.972h-.138l.226-.944h.138c.284 0 .47.037.558.111.088.074.11.201.068.382-.04.168-.118.285-.233.351-.116.066-.322.1-.62.1zm-.643 1.97.363-1.52h.309c.24 0 .42-.012.54-.039.12-.026.23-.07.329-.132.122-.077.228-.183.32-.319.09-.135.155-.283.194-.444.038-.16.044-.307.017-.44a.573.573 0 0 0-.167-.318.619.619 0 0 0-.265-.133 2.378 2.378 0 0 0-.52-.04h-.812l-.811 3.385h.503zm5.587-1.55-.371 1.55h.532l.37-1.55 1.576-1.835h-.536l-.982 1.135a2.652 2.652 0 0 0-.208.284 2.782 2.782 0 0 0-.072-.27l-.417-1.15h-.564l.672 1.837zm6.45-1.835-.812 3.385h1.842l.118-.492h-1.305l.262-1.094h1.305l.116-.484h-1.305l.203-.849h1.305l.112-.466h-1.842zm1.646 3.387.842-3.52 1.601 2.07a3.706 3.706 0 0 1 .26.411l.562-2.347h.496l-.842 3.517-1.635-2.107a1.892 1.892 0 0 1-.227-.379l-.564 2.355h-.493zm4.775-.002.699-2.919h.872l.112-.466h-2.286l-.112.466h.877l-.698 2.92h.536zm1.254-.678.477-.203c.005.15.051.266.14.346.09.079.218.119.387.119a.638.638 0 0 0 .64-.502c.048-.2-.07-.377-.354-.532a2.28 2.28 0 0 0-.092-.051c-.32-.182-.523-.347-.609-.494-.085-.147-.103-.327-.052-.54.066-.276.21-.5.434-.67.224-.172.484-.257.78-.257.243 0 .436.048.576.144.14.097.221.235.241.416l-.472.221a.508.508 0 0 0-.162-.233.418.418 0 0 0-.254-.074.607.607 0 0 0-.371.115.53.53 0 0 0-.202.31c-.048.204.092.393.423.57l.06.032c.29.154.477.305.563.452.087.147.104.331.051.551-.077.321-.236.576-.478.765-.242.189-.531.283-.866.283-.281 0-.495-.066-.643-.199-.148-.132-.22-.322-.217-.569zm4.775-2.707-.81 3.385h.536l.81-3.386h-.536zm.496 3.387.843-3.52 1.601 2.07a3.773 3.773 0 0 1 .26.411l.562-2.347h.496l-.842 3.517-1.635-2.107a1.893 1.893 0 0 1-.228-.379l-.563 2.355h-.494zm4.776-.002.698-2.919h.873l.111-.466h-2.285l-.112.466h.877l-.699 2.92h.537zm1.281 0 .81-3.386h1.842l-.112.467h-1.305l-.203.85h1.305l-.116.483h-1.305l-.262 1.094h1.306l-.118.492H51.62zm3.556-1.943h-.097l.232-.97h.097c.27 0 .447.037.528.114.082.076.1.207.056.394-.041.173-.117.293-.226.36-.11.069-.306.102-.59.102zm-.596 1.943.362-1.515h.061l.735 1.515h.607l-.768-1.54c.257-.03.468-.123.632-.276.165-.154.28-.366.344-.638.037-.154.043-.296.02-.425a.589.589 0 0 0-.162-.317.594.594 0 0 0-.275-.145 2.13 2.13 0 0 0-.5-.044h-.748l-.811 3.385h.503zm2.083 0 .81-3.386h1.842l-.112.467H57.9l-.202.845h1.305l-.116.483h-1.305l-.38 1.591h-.537zm4.196-1.33h-.92l.523-.772a3.782 3.782 0 0 0 .211-.384 3.923 3.923 0 0 0 .032.384l.154.773zm.08.458.165.872h.566l-.754-3.52-2.44 3.52h.563l.592-.872h1.307zm4.22-1.69a1.185 1.185 0 0 0-.918-.398c-.36 0-.683.119-.966.356a1.68 1.68 0 0 0-.56.923c-.087.365-.05.666.114.904.163.237.413.356.748.356.195 0 .39-.035.583-.106.194-.071.389-.178.585-.322l-.149.622a2.06 2.06 0 0 1-.528.238 2.058 2.058 0 0 1-.57.079c-.253 0-.477-.042-.67-.127a1.156 1.156 0 0 1-.475-.375 1.245 1.245 0 0 1-.234-.572 1.814 1.814 0 0 1 .038-.702c.06-.248.159-.481.297-.7.139-.218.31-.41.513-.574.204-.167.422-.293.654-.378a2.07 2.07 0 0 1 .719-.129c.194 0 .371.03.533.087.162.058.312.145.45.263l-.163.555zm.863-.823-.81 3.385h1.841l.118-.492h-1.305l.262-1.094h1.305l.116-.484h-1.305l.203-.849h1.305l.112-.466h-1.842zM52.33.055c.535 0 .93.178 1.185.53.253.353.305.8.155 1.338l-2.054 7.419c-.145.52-.446.957-.903 1.31-.459.354-.947.531-1.465.531H32.658L30.604 18.6h-3.69l3.061-11.05h3.688l-.001.007H48.42l1.073-3.876H34.736v.002h-3.69L32.051.055h20.278zM24.765 17.367a1.694 1.694 0 0 1-1.633 1.241H4.106c-.519 0-.904-.177-1.157-.53-.254-.353-.308-.79-.163-1.31L7.428.055h3.691L6.973 14.982h14.765L25.884.056h3.69l-4.81 17.311zM63.653.035l2.11 4.199 1.164-4.2 4.669 9.286-9.815 9.282 1.165-4.203-4.446 4.203L63.653.035z" fill="#819EB0" fill-opacity=".8"/></svg>