<svg width="75" height="24" fill="none" xmlns="http://www.w3.org/2000/svg"><path fill="#1E1E1E" d="M0 0h75v24H0z"/><g clip-path="url(#a)"><path fill="#fff" d="M-260-887h1920v13222H-260z"/><path fill="#fff" d="M-260-791h1920v916H-260z"/><g clip-path="url(#b)"><path fill="#fff" d="M0-4h74.502v32H0z"/><path fill-rule="evenodd" clip-rule="evenodd" d="M41.926 1.89C45.522-.471 50.222-.401 54.2.906c-.183 1.719-.47 3.423-.768 5.121-2.114-1.015-4.58-1.466-6.879-.876-1.084.257-2.154 1.604-1.253 2.615.877.898 1.993 1.468 3.11 2.038 1.242.633 2.485 1.268 3.403 2.355 2.02 1.976 1.946 5.304.57 7.617-1.457 2.442-4.26 3.72-6.989 4.086-3.085.322-6.3.13-9.192-1.064.146-.827.282-1.656.417-2.485.148-.91.296-1.82.46-2.726 2.5 1.293 5.403 1.942 8.191 1.323.946-.317 1.922-1.095 1.838-2.204-.272-1.15-1.353-1.728-2.337-2.253a26.45 26.45 0 0 1-.432-.234c-2.085-1.025-4.328-2.283-5.264-4.536-1.164-2.848.376-6.182 2.852-7.791zM0 .757C.761.364 1.606.391 2.44.417c.262.009.522.017.78.012C4.32.46 5.42.45 6.522.44 7.885.43 9.248.42 10.609.48c1.109-.005 2.06.916 2.213 1.99.442 2.14.862 4.284 1.283 6.43.315 1.608.63 3.217.955 4.824l.002.005c.122.552.22 1.113.32 1.673.054.305.107.61.165.912 1.636-4.462 3.29-8.921 4.944-13.38V2.93L21.417.44c2.134.024 4.264.014 6.394 0a897.624 897.624 0 0 0-4.107 10.041c-1.79 4.427-3.58 8.854-5.462 13.242-1.58-.05-3.162-.044-4.743-.038l-1.497.003c-.981-3.583-1.927-7.176-2.872-10.769-.831-3.157-1.662-6.313-2.517-9.463C4.685 2.298 2.549 1.595.424.895L0 .756zM36.22.43a406.16 406.16 0 0 1-6.017 0c-.502 3.222-1.028 6.441-1.555 9.66-.741 4.531-1.483 9.062-2.154 13.603 2 .005 3.996.005 5.992 0 .715-4.61 1.463-9.214 2.211-13.818.511-3.148 1.023-6.296 1.524-9.445zm25.43 2.385C62.05 1.744 62.844.58 64.097.516c1.148-.08 2.3-.069 3.452-.056.696.007 1.39.014 2.085.001 1.06 4.985 2.1 9.972 3.138 14.958.576 2.763 1.151 5.524 1.73 8.285-.926.003-1.852.004-2.778.005l-2.779.005a162.69 162.69 0 0 1-.748-3.506h-1.542c-2.055.001-4.107.002-6.16-.01a148.74 148.74 0 0 1-1.277 3.511c-2.1 0-4.2 0-6.3.005 1.315-3.155 2.635-6.309 3.955-9.462l.002-.004c1.595-3.81 3.19-7.62 4.775-11.434zm.594 12.598c.421-1.083.814-2.178 1.206-3.272.65-1.815 1.301-3.63 2.082-5.39.274 2.148.74 4.265 1.205 6.38v.003c.168.761.336 1.522.494 2.284-1.664 0-3.323 0-4.987-.005z" fill="#819EB0" fill-opacity=".8"/></g></g><defs><clipPath id="a"><path fill="#fff" transform="translate(-260 -887)" d="M0 0h1920v13222H0z"/></clipPath><clipPath id="b"><path fill="#fff" transform="translate(0 -4)" d="M0 0h74.502v32H0z"/></clipPath></defs></svg>