<svg width="64" height="65" viewBox="0 0 64 65" fill="none" xmlns="http://www.w3.org/2000/svg">
<g id="Group 1853">
<rect id="Rectangle 844" y="0.106934" width="64" height="63.997" rx="16" fill="#FF7D60"/>
<path id="Vector" d="M41.59 30.0761C41.1981 29.565 40.7211 29.122 40.2781 28.6791C39.1366 27.6569 37.8418 26.9243 36.7514 25.851C34.2129 23.3636 33.6507 19.2578 35.2692 16.106C33.6507 16.4978 32.2366 17.3837 31.0269 18.3548C26.6143 21.8984 24.8765 28.1509 26.955 33.5175C27.0232 33.6879 27.0913 33.8582 27.0913 34.0797C27.0913 34.4545 26.8358 34.7952 26.495 34.9315C26.1032 35.1019 25.6943 34.9997 25.3706 34.7271C25.2683 34.6419 25.2002 34.5567 25.132 34.4375C23.2068 32.0012 22.9002 28.5087 24.195 25.7147C21.3498 28.0317 19.7994 31.9501 20.0209 35.6471C20.1231 36.4989 20.2253 37.3508 20.515 38.2026C20.7535 39.2248 21.2135 40.247 21.7246 41.15C23.5646 44.0973 26.7506 46.2099 30.1751 46.6358C33.821 47.0958 37.7226 46.4313 40.5167 43.9099C43.6345 41.0818 44.7248 36.55 43.1233 32.6657L42.9019 32.2227C42.5441 31.439 41.59 30.0761 41.59 30.0761ZM36.2062 40.8092C35.7292 41.2181 34.9455 41.6611 34.3321 41.8314C32.424 42.5129 30.5158 41.5588 29.3914 40.4344C31.4188 39.9574 32.6284 38.4581 32.9862 36.9419C33.2758 35.5789 32.7306 34.4545 32.5092 33.1427C32.3047 31.882 32.3388 30.8087 32.7988 29.6331C33.1225 30.2805 33.4632 30.9279 33.8721 31.439C35.184 33.1427 37.2455 33.8923 37.6885 36.2093C37.7566 36.4478 37.7907 36.6863 37.7907 36.9419C37.8418 38.3389 37.2285 39.8722 36.2062 40.8092Z" fill="#6D1400"/>
</g>
</svg>
