<svg width="64" height="65" viewBox="0 0 64 65" fill="none" xmlns="http://www.w3.org/2000/svg">
<g id="Group 1694">
<rect id="Rectangle 806" y="0.109375" width="64" height="64" rx="16" fill="#FFC451"/>
<path id="Vector" d="M28.0893 38.752C25.7916 38.752 23.6265 38.3387 21.725 37.6092C19.8076 39.1095 17.4552 40.0237 14.9561 40.2858C14.938 40.2877 14.9199 40.2886 14.9017 40.2886C14.6734 40.2886 14.4671 40.136 14.4118 39.9182C14.3519 39.6762 14.5394 39.5272 14.725 39.3496C15.6427 38.4671 16.7552 37.7734 17.1904 34.8089C15.4402 33.1313 14.4004 31.0373 14.4004 28.7642C14.4004 23.2475 20.5296 18.7764 28.0893 18.7764C35.6489 18.7764 41.7782 23.2474 41.7782 28.7642C41.7781 34.2848 35.6489 38.752 28.0893 38.752ZM49.2989 45.3019C48.4468 44.4997 47.4137 43.869 47.0097 41.1741C51.2146 37.228 50.1979 31.5831 44.7074 28.5194C44.7093 28.6009 44.7114 28.6824 44.7114 28.7642C44.7114 36.2503 36.7925 41.989 27.3405 41.6729C29.6701 43.5651 33.0842 44.7587 36.8892 44.7587C39.0228 44.7587 41.0332 44.383 42.7989 43.7198C44.5793 45.0837 46.7637 45.9148 49.0844 46.153C49.3157 46.1771 49.5343 46.0324 49.5897 45.8189C49.6454 45.5988 49.4713 45.4634 49.2989 45.3019Z" fill="#916002"/>
</g>
</svg>
