<svg width="64" height="65" viewBox="0 0 64 65" fill="none" xmlns="http://www.w3.org/2000/svg">
<g id="Icons 64x64">
<rect id="Rectangle 805" y="0.109375" width="64" height="64" rx="16" fill="#D7BCFE"/>
<path id="Vector" fill-rule="evenodd" clip-rule="evenodd" d="M30.4002 18.7093C29.5165 18.7093 28.8002 19.4256 28.8002 20.3093V25.1093H36.9055C38.3239 25.1092 39.546 25.1091 40.5247 25.2407C41.5735 25.3817 42.5789 25.6997 43.3943 26.5152C44.2098 27.3306 44.5277 28.336 44.6688 29.3848C44.8004 30.3635 44.8004 31.5856 44.8002 33.004V39.6145C44.8004 41.0329 44.8004 42.255 44.6688 43.2338C44.5277 44.2826 44.2098 45.288 43.3943 46.1033C42.5789 46.9189 41.5735 47.2368 40.5247 47.3779C39.546 47.5094 38.3239 47.5094 36.9055 47.5093H27.0948C25.6765 47.5094 24.4544 47.5094 23.4758 47.3779C22.4269 47.2368 21.4216 46.9189 20.6061 46.1033C19.7906 45.288 19.4726 44.2826 19.3316 43.2338C19.2001 42.255 19.2001 41.0329 19.2002 39.6145V33.004C19.2001 31.5856 19.2001 30.3635 19.3316 29.3848C19.4726 28.336 19.7906 27.3306 20.6061 26.5152C21.4216 25.6997 22.4269 25.3817 23.4758 25.2407C24.0915 25.1579 24.8035 25.1273 25.6002 25.1159V20.3093C25.6002 17.6583 27.7493 15.5093 30.4002 15.5093H33.7002C36.2959 15.5093 38.4002 17.6135 38.4002 20.2093V20.3093C38.4002 21.1929 37.6839 21.9093 36.8002 21.9093C35.9165 21.9093 35.2002 21.1929 35.2002 20.3093V20.2093C35.2002 19.3808 34.5287 18.7093 33.7002 18.7093H30.4002ZM32.0002 33.1093C30.2328 33.1093 28.8002 34.5419 28.8002 36.3093C28.8002 38.0766 30.2328 39.5093 32.0002 39.5093C33.7676 39.5093 35.2002 38.0766 35.2002 36.3093C35.2002 34.5419 33.7676 33.1093 32.0002 33.1093Z" fill="#6308EB"/>
</g>
</svg>
