<svg width="64" height="65" viewBox="0 0 64 65" fill="none" xmlns="http://www.w3.org/2000/svg">
<g id="Icons 64x64">
<rect id="Rectangle 805" y="0.109375" width="64" height="64" rx="16" fill="#8DCAF8"/>
<g id="Subtract">
<mask id="path-2-outside-1_685_9568" maskUnits="userSpaceOnUse" x="16" y="16.1094" width="31" height="32" fill="black">
<rect fill="white" x="16" y="16.1094" width="31" height="32"/>
<path fill-rule="evenodd" clip-rule="evenodd" d="M20.5 18.1094C20.2239 18.1094 20 18.3332 20 18.6094V23.1094H23V18.6094C23 18.3332 22.7761 18.1094 22.5 18.1094H20.5ZM23 25.1094H24C24.5523 25.1094 25 25.5571 25 26.1094V29.1094C25 29.6617 24.5523 30.1094 24 30.1094H23H20H19C18.4477 30.1094 18 29.6617 18 29.1094V26.1094C18 25.5571 18.4477 25.1094 19 25.1094H20H23ZM20 32.1094V45.6094C20 45.8855 20.2239 46.1094 20.5 46.1094H22.5C22.7761 46.1094 23 45.8855 23 45.6094V32.1094H20ZM30.5 18.1094C30.2239 18.1094 30 18.3332 30 18.6094V32.1094H33V18.6094C33 18.3332 32.7761 18.1094 32.5 18.1094H30.5ZM34 34.1094H33H30H29C28.4477 34.1094 28 34.5571 28 35.1094V38.1094C28 38.6617 28.4477 39.1094 29 39.1094H30H33H34C34.5523 39.1094 35 38.6617 35 38.1094V35.1094C35 34.5571 34.5523 34.1094 34 34.1094ZM30 45.6094V41.1094H33V45.6094C33 45.8855 32.7761 46.1094 32.5 46.1094H30.5C30.2239 46.1094 30 45.8855 30 45.6094ZM40 18.6094C40 18.3332 40.2239 18.1094 40.5 18.1094H42.5C42.7761 18.1094 43 18.3332 43 18.6094V23.1094H40V18.6094ZM43 25.1094H44C44.5523 25.1094 45 25.5571 45 26.1094V29.1094C45 29.6617 44.5523 30.1094 44 30.1094H43H40H39C38.4477 30.1094 38 29.6617 38 29.1094V26.1094C38 25.5571 38.4477 25.1094 39 25.1094H40H43ZM40 32.1094V45.6094C40 45.8855 40.2239 46.1094 40.5 46.1094H42.5C42.7761 46.1094 43 45.8855 43 45.6094V32.1094H40Z"/>
</mask>
<path fill-rule="evenodd" clip-rule="evenodd" d="M20.5 18.1094C20.2239 18.1094 20 18.3332 20 18.6094V23.1094H23V18.6094C23 18.3332 22.7761 18.1094 22.5 18.1094H20.5ZM23 25.1094H24C24.5523 25.1094 25 25.5571 25 26.1094V29.1094C25 29.6617 24.5523 30.1094 24 30.1094H23H20H19C18.4477 30.1094 18 29.6617 18 29.1094V26.1094C18 25.5571 18.4477 25.1094 19 25.1094H20H23ZM20 32.1094V45.6094C20 45.8855 20.2239 46.1094 20.5 46.1094H22.5C22.7761 46.1094 23 45.8855 23 45.6094V32.1094H20ZM30.5 18.1094C30.2239 18.1094 30 18.3332 30 18.6094V32.1094H33V18.6094C33 18.3332 32.7761 18.1094 32.5 18.1094H30.5ZM34 34.1094H33H30H29C28.4477 34.1094 28 34.5571 28 35.1094V38.1094C28 38.6617 28.4477 39.1094 29 39.1094H30H33H34C34.5523 39.1094 35 38.6617 35 38.1094V35.1094C35 34.5571 34.5523 34.1094 34 34.1094ZM30 45.6094V41.1094H33V45.6094C33 45.8855 32.7761 46.1094 32.5 46.1094H30.5C30.2239 46.1094 30 45.8855 30 45.6094ZM40 18.6094C40 18.3332 40.2239 18.1094 40.5 18.1094H42.5C42.7761 18.1094 43 18.3332 43 18.6094V23.1094H40V18.6094ZM43 25.1094H44C44.5523 25.1094 45 25.5571 45 26.1094V29.1094C45 29.6617 44.5523 30.1094 44 30.1094H43H40H39C38.4477 30.1094 38 29.6617 38 29.1094V26.1094C38 25.5571 38.4477 25.1094 39 25.1094H40H43ZM40 32.1094V45.6094C40 45.8855 40.2239 46.1094 40.5 46.1094H42.5C42.7761 46.1094 43 45.8855 43 45.6094V32.1094H40Z" fill="#0061A8"/>
<path d="M20 23.1094H18V25.1094H20V23.1094ZM23 23.1094V25.1094H25V23.1094H23ZM20 32.1094V30.1094H18V32.1094H20ZM23 32.1094H25V30.1094H23V32.1094ZM30 32.1094H28V34.1094H30V32.1094ZM33 32.1094V34.1094H35V32.1094H33ZM30 41.1094V39.1094H28V41.1094H30ZM33 41.1094H35V39.1094H33V41.1094ZM43 23.1094V25.1094H45V23.1094H43ZM40 23.1094H38V25.1094H40V23.1094ZM40 32.1094V30.1094H38V32.1094H40ZM43 32.1094H45V30.1094H43V32.1094ZM22 18.6094C22 19.4378 21.3284 20.1094 20.5 20.1094V16.1094C19.1193 16.1094 18 17.2287 18 18.6094H22ZM22 23.1094V18.6094H18V23.1094H22ZM23 21.1094H20V25.1094H23V21.1094ZM21 18.6094V23.1094H25V18.6094H21ZM22.5 20.1094C21.6716 20.1094 21 19.4378 21 18.6094H25C25 17.2287 23.8807 16.1094 22.5 16.1094V20.1094ZM20.5 20.1094H22.5V16.1094H20.5V20.1094ZM24 23.1094H23V27.1094H24V23.1094ZM27 26.1094C27 24.4525 25.6569 23.1094 24 23.1094V27.1094C23.4477 27.1094 23 26.6617 23 26.1094H27ZM27 29.1094V26.1094H23V29.1094H27ZM24 32.1094C25.6569 32.1094 27 30.7662 27 29.1094H23C23 28.5571 23.4477 28.1094 24 28.1094V32.1094ZM23 32.1094H24V28.1094H23V32.1094ZM20 32.1094H23V28.1094H20V32.1094ZM19 32.1094H20V28.1094H19V32.1094ZM16 29.1094C16 30.7662 17.3431 32.1094 19 32.1094V28.1094C19.5523 28.1094 20 28.5571 20 29.1094H16ZM16 26.1094V29.1094H20V26.1094H16ZM19 23.1094C17.3431 23.1094 16 24.4525 16 26.1094H20C20 26.6617 19.5523 27.1094 19 27.1094V23.1094ZM20 23.1094H19V27.1094H20V23.1094ZM23 23.1094H20V27.1094H23V23.1094ZM22 45.6094V32.1094H18V45.6094H22ZM20.5 44.1094C21.3284 44.1094 22 44.7809 22 45.6094H18C18 46.9901 19.1193 48.1094 20.5 48.1094V44.1094ZM22.5 44.1094H20.5V48.1094H22.5V44.1094ZM21 45.6094C21 44.7809 21.6716 44.1094 22.5 44.1094V48.1094C23.8807 48.1094 25 46.9901 25 45.6094H21ZM21 32.1094V45.6094H25V32.1094H21ZM20 34.1094H23V30.1094H20V34.1094ZM32 18.6094C32 19.4378 31.3284 20.1094 30.5 20.1094V16.1094C29.1193 16.1094 28 17.2287 28 18.6094H32ZM32 32.1094V18.6094H28V32.1094H32ZM33 30.1094H30V34.1094H33V30.1094ZM31 18.6094V32.1094H35V18.6094H31ZM32.5 20.1094C31.6716 20.1094 31 19.4378 31 18.6094H35C35 17.2287 33.8807 16.1094 32.5 16.1094V20.1094ZM30.5 20.1094H32.5V16.1094H30.5V20.1094ZM33 36.1094H34V32.1094H33V36.1094ZM30 36.1094H33V32.1094H30V36.1094ZM29 36.1094H30V32.1094H29V36.1094ZM30 35.1094C30 35.6617 29.5523 36.1094 29 36.1094V32.1094C27.3431 32.1094 26 33.4525 26 35.1094H30ZM30 38.1094V35.1094H26V38.1094H30ZM29 37.1094C29.5523 37.1094 30 37.5571 30 38.1094H26C26 39.7662 27.3431 41.1094 29 41.1094V37.1094ZM30 37.1094H29V41.1094H30V37.1094ZM33 37.1094H30V41.1094H33V37.1094ZM34 37.1094H33V41.1094H34V37.1094ZM33 38.1094C33 37.5571 33.4477 37.1094 34 37.1094V41.1094C35.6569 41.1094 37 39.7662 37 38.1094H33ZM33 35.1094V38.1094H37V35.1094H33ZM34 36.1094C33.4477 36.1094 33 35.6617 33 35.1094H37C37 33.4525 35.6569 32.1094 34 32.1094V36.1094ZM28 41.1094V45.6094H32V41.1094H28ZM33 39.1094H30V43.1094H33V39.1094ZM35 45.6094V41.1094H31V45.6094H35ZM32.5 48.1094C33.8807 48.1094 35 46.9901 35 45.6094H31C31 44.7809 31.6716 44.1094 32.5 44.1094V48.1094ZM30.5 48.1094H32.5V44.1094H30.5V48.1094ZM28 45.6094C28 46.9901 29.1193 48.1094 30.5 48.1094V44.1094C31.3284 44.1094 32 44.7809 32 45.6094H28ZM40.5 16.1094C39.1193 16.1094 38 17.2287 38 18.6094H42C42 19.4378 41.3284 20.1094 40.5 20.1094V16.1094ZM42.5 16.1094H40.5V20.1094H42.5V16.1094ZM45 18.6094C45 17.2287 43.8807 16.1094 42.5 16.1094V20.1094C41.6716 20.1094 41 19.4378 41 18.6094H45ZM45 23.1094V18.6094H41V23.1094H45ZM40 25.1094H43V21.1094H40V25.1094ZM38 18.6094V23.1094H42V18.6094H38ZM44 23.1094H43V27.1094H44V23.1094ZM47 26.1094C47 24.4525 45.6569 23.1094 44 23.1094V27.1094C43.4477 27.1094 43 26.6617 43 26.1094H47ZM47 29.1094V26.1094H43V29.1094H47ZM44 32.1094C45.6569 32.1094 47 30.7662 47 29.1094H43C43 28.5571 43.4477 28.1094 44 28.1094V32.1094ZM43 32.1094H44V28.1094H43V32.1094ZM40 32.1094H43V28.1094H40V32.1094ZM39 32.1094H40V28.1094H39V32.1094ZM36 29.1094C36 30.7662 37.3431 32.1094 39 32.1094V28.1094C39.5523 28.1094 40 28.5571 40 29.1094H36ZM36 26.1094V29.1094H40V26.1094H36ZM39 23.1094C37.3431 23.1094 36 24.4525 36 26.1094H40C40 26.6617 39.5523 27.1094 39 27.1094V23.1094ZM40 23.1094H39V27.1094H40V23.1094ZM43 23.1094H40V27.1094H43V23.1094ZM38 32.1094V45.6094H42V32.1094H38ZM38 45.6094C38 46.9901 39.1193 48.1094 40.5 48.1094V44.1094C41.3284 44.1094 42 44.7809 42 45.6094H38ZM40.5 48.1094H42.5V44.1094H40.5V48.1094ZM42.5 48.1094C43.8807 48.1094 45 46.9901 45 45.6094H41C41 44.7809 41.6716 44.1094 42.5 44.1094V48.1094ZM45 45.6094V32.1094H41V45.6094H45ZM43 30.1094H40V34.1094H43V30.1094Z" fill="#8DCAF8" mask="url(#path-2-outside-1_685_9568)"/>
</g>
</g>
</svg>
