<svg width="64" height="65" viewBox="0 0 64 65" fill="none" xmlns="http://www.w3.org/2000/svg">
<g id="Icons 64x64">
<rect id="Rectangle 805" y="0.109375" width="64" height="64" rx="16" fill="#FFAD61"/>
<path id="Vector" d="M21.0208 28.1094C21.0328 28.1094 21.0421 28.0992 21.0411 28.0873C21.0139 27.765 21 27.4393 21 27.1094C21.0005 21.0344 25.7465 16.1094 31.6005 16.1094C37.4545 16.1094 42.2005 21.0344 42.2005 27.1094C42.2005 27.4388 42.1866 27.7648 42.1594 28.087C42.1584 28.099 42.1679 28.1094 42.1799 28.1094C42.1913 28.1094 42.2005 28.1178 42.2005 28.1292C42.1811 33.1515 34.822 43.6928 32.3786 47.0551C31.9894 47.5907 31.2111 47.5911 30.8213 47.0559C28.3768 43.6989 21.0195 33.1778 21.0005 28.1289C21.0005 28.1177 21.0096 28.1094 21.0208 28.1094ZM31.6005 30.1094C33.875 30.1734 35.772 28.3839 35.8405 26.1094C35.772 23.8349 33.875 22.0454 31.6005 22.1094C29.326 22.0454 27.429 23.8349 27.3605 26.1094C27.429 28.3839 29.326 30.1734 31.6005 30.1094Z" fill="#8F3300"/>
</g>
</svg>
