<svg width="48" height="49" viewBox="0 0 48 49" fill="none" xmlns="http://www.w3.org/2000/svg">
<rect y="0.990967" width="48" height="48.0022" rx="16" fill="#BFFFC8"/>
<path d="M21.3333 28.86C19.7667 28.86 18.2905 28.5782 16.994 28.0808C15.6867 29.1037 14.0828 29.727 12.3789 29.9056C12.3666 29.9069 12.3542 29.9076 12.3418 29.9076C12.1861 29.9076 12.0455 29.8035 12.0077 29.655C11.9669 29.49 12.0947 29.3884 12.2213 29.2673C12.847 28.6657 13.6056 28.1928 13.9022 26.1716C12.709 25.0278 12 23.6002 12 22.0505C12 18.2893 16.179 15.241 21.3333 15.241C26.4876 15.241 30.6667 18.2892 30.6667 22.0505C30.6666 25.8143 26.4876 28.86 21.3333 28.86ZM35.7944 33.3255C35.2134 32.7786 34.5091 32.3486 34.2336 30.5112C37.1006 27.8209 36.4074 23.9723 32.6639 21.8836C32.6652 21.9392 32.6666 21.9947 32.6666 22.0505C32.6666 27.1543 27.2673 31.0669 20.8228 30.8514C22.4112 32.1414 24.739 32.9552 27.3333 32.9552C28.788 32.9552 30.1587 32.699 31.3626 32.2469C32.5765 33.1767 34.0659 33.7434 35.6482 33.9058C35.8059 33.9222 35.9549 33.8236 35.9927 33.678C36.0307 33.5279 35.912 33.4356 35.7944 33.3255Z" fill="#077453"/>
</svg>
