<svg width="33" height="33" viewBox="0 0 33 33" fill="none" xmlns="http://www.w3.org/2000/svg">
<ellipse cx="16.4999" cy="16.6667" rx="15.9999" ry="16" fill="#BFFFC8"/>
<path d="M18.6416 9.52058C20.8389 9.52058 22.8006 10.533 24.0897 12.1185L25.2383 9.65584C23.4421 7.95817 20.9973 6.91138 18.3008 6.91138C14.1022 6.91138 10.5107 9.44705 9.0369 13.0366H6.79715L5.47461 15.8715H8.35583C8.33415 16.1345 8.32001 16.3975 8.32001 16.6662C8.32001 16.9909 8.33698 17.3124 8.36903 17.6296H6.92111L5.59904 20.4655H9.10571C10.6215 23.964 14.1682 26.42 18.3008 26.42C20.3836 26.42 22.3161 25.796 23.9162 24.7299V21.2544C22.6276 22.7216 20.7428 23.6487 18.6416 23.6487C16.1855 23.6487 14.025 22.3823 12.767 20.4655H20.1093L21.4319 17.6296H11.6867C11.6363 17.2883 11.6094 16.9395 11.6094 16.5842C11.6094 16.3438 11.6217 16.1063 11.6452 15.8715H22.2515L23.5736 13.0366H12.562C13.7799 10.935 16.046 9.52058 18.6416 9.52058Z" fill="#077453"/>
<path d="M18.6402 9.60749C20.7343 9.60749 22.696 10.5435 24.0223 12.1743L24.1081 12.2798L24.1661 12.1568L25.3142 9.69421L25.3397 9.63812L25.2958 9.5957C23.4077 7.81131 20.9229 6.82861 18.2994 6.82861C16.2506 6.82861 14.2795 7.42718 12.5983 8.55975C10.9566 9.66546 9.69726 11.2034 8.95728 13.0061L9.03552 12.9534H6.79577H6.7411L6.71847 13.0024L5.3964 15.8378L5.33984 15.9589H5.47323H8.35445L8.26961 15.8666C8.24557 16.1611 8.23379 16.4227 8.23379 16.6683C8.23379 16.9864 8.25029 17.314 8.28281 17.6401L8.36765 17.5468H6.91973H6.866L6.84338 17.5958L5.52036 20.4312L5.46427 20.5524H5.59766H9.10433L9.02609 20.501C10.6069 24.1494 14.247 26.507 18.2994 26.507C20.3309 26.507 22.2883 25.9183 23.962 24.8032L23.9992 24.7782V24.732V21.2565V21.0307L23.8507 21.2004C22.5305 22.7034 20.6316 23.565 18.6402 23.565C16.2977 23.565 14.1282 22.3891 12.8363 20.4204L12.7656 20.5524H20.1079H20.1626L20.1852 20.5038L21.5078 17.6674L21.5643 17.5468H21.4305H11.6853L11.7697 17.6194C11.7193 17.2758 11.6933 16.9289 11.6933 16.5862C11.6933 16.3529 11.7051 16.1163 11.7287 15.8821L11.6438 15.9589H22.2501H22.3048L22.3274 15.9099L23.6495 13.0745L23.7065 12.9534H23.5722H12.5606L12.6341 13.0811C13.8756 10.9385 16.1775 9.60749 18.6402 9.60749ZM12.5606 13.1235H23.5722L23.4949 13.0024L22.1733 15.8378L22.2501 15.7888H11.6438H11.567L11.5585 15.8656C11.535 16.105 11.5232 16.3478 11.5232 16.5862C11.5232 16.9369 11.5496 17.2932 11.601 17.6444L11.6123 17.7169H11.6853H21.4305L21.3536 17.5958L20.0316 20.4312L20.1079 20.3822H12.7656H12.6077L12.6944 20.5132C14.0174 22.5314 16.2407 23.7347 18.6402 23.7347C20.6801 23.7347 22.6262 22.8524 23.9789 21.3126L23.8295 21.2565V24.732L23.8672 24.6618C22.2218 25.7576 20.2969 26.3368 18.2994 26.3368C14.3144 26.3368 10.7361 24.0194 9.18257 20.4331L9.15995 20.3822H9.10433H5.59766L5.67543 20.5038L6.99703 17.6674L6.91973 17.7169H8.36765H8.46144L8.45249 17.6231C8.42044 17.3026 8.40347 16.9807 8.40347 16.6683C8.40347 16.4279 8.41525 16.1701 8.43929 15.8807L8.44683 15.7888H8.35445H5.47323L5.55006 15.9099L6.8726 13.0745L6.79577 13.1235H9.03552H9.09255L9.11376 13.0707C9.84196 11.299 11.0797 9.788 12.6935 8.70068C14.346 7.5879 16.285 6.99923 18.2994 6.99923C20.8795 6.99923 23.3219 7.96495 25.1785 9.71966L25.1596 9.62163L24.0119 12.0847L24.1547 12.0668C22.795 10.396 20.7857 9.43734 18.6402 9.43734C16.1163 9.43734 13.7592 10.8009 12.4866 12.9958L12.4126 13.1235H12.5606Z" fill="#077453"/>
</svg>
