<svg width="33" height="33" viewBox="0 0 33 33" fill="none" xmlns="http://www.w3.org/2000/svg">
<g clip-path="url(#clip0_1934_21737)">
<path fill-rule="evenodd" clip-rule="evenodd" d="M16.5 0.666748C19.6645 0.666748 22.7579 1.60513 25.3891 3.36323C28.0203 5.12134 30.0711 7.62019 31.2821 10.5438C32.4931 13.4674 32.8099 16.6845 32.1926 19.7882C31.5752 22.8919 30.0513 25.7428 27.8137 27.9805C25.5761 30.2181 22.7251 31.7419 19.6214 32.3593C16.5177 32.9767 13.3007 32.6598 10.3771 31.4488C7.45345 30.2378 4.95459 28.1871 3.19649 25.5559C1.43838 22.9247 0.5 19.8312 0.5 16.6667C0.5 12.4233 2.18571 8.35362 5.18629 5.35304C8.18687 2.35246 12.2565 0.666748 16.5 0.666748V0.666748Z" fill="#BFFFC8"/>
<path fill-rule="evenodd" clip-rule="evenodd" d="M16.498 5.34058L20.2929 11.0103L24.0879 16.6814L16.498 20.505L8.9082 16.667L12.7031 10.9959L16.498 5.34058ZM16.498 22.0325L9.32913 18.2077L16.498 27.9934L23.6669 18.2077L16.498 22.0325Z" fill="#077453"/>
</g>
<defs>
<clipPath id="clip0_1934_21737">
<rect width="32" height="32" fill="white" transform="translate(0.5 0.666748)"/>
</clipPath>
</defs>
</svg>
