<svg width="33" height="33" viewBox="0 0 33 33" fill="none" xmlns="http://www.w3.org/2000/svg">
<ellipse cx="16.4999" cy="16.6667" rx="15.9999" ry="16" fill="#BFFFC8"/>
<path d="M11.7621 24.7139C10.7452 23.7556 10.1194 22.377 9.88477 20.5779H12.5247C12.6616 21.5361 13.0038 22.2792 13.5514 22.8072C14.0598 23.2374 14.6172 23.521 15.2234 23.6579V17.8792C12.0945 17.3121 10.5301 15.5325 10.5301 12.5405C10.5301 11.7388 10.6572 10.9859 10.9114 10.2819C11.1656 9.57787 11.547 8.97165 12.0554 8.4632C12.8767 7.64187 13.9327 7.1432 15.2234 6.9672V5.26587H17.8047V6.9672C19.4278 7.20187 20.6989 7.88631 21.618 9.02053C22.4393 10.0765 22.9282 11.3672 23.0846 12.8925L23.026 12.9219H20.474C20.3762 12.1592 20.1709 11.5334 19.858 11.0445C19.3887 10.2819 18.7042 9.80276 17.8047 9.6072V15.5032C19.0562 15.7183 20.122 16.0899 21.002 16.6179C22.41 17.5174 23.114 18.9059 23.114 20.7832C23.114 21.5263 22.9673 22.2401 22.674 22.9245C22.4002 23.5894 21.9993 24.1761 21.4713 24.6845C20.4936 25.6428 19.2713 26.2196 17.8047 26.4152V28.0579H15.2234V26.3565C13.7958 26.1219 12.6421 25.5743 11.7621 24.7139ZM13.4927 14.1245C13.923 14.6721 14.4998 15.0241 15.2234 15.1805V9.63654C14.4412 9.79298 13.8447 10.1254 13.4341 10.6339C13.043 11.1228 12.8474 11.6801 12.8474 12.3059C12.8474 12.9708 13.0625 13.577 13.4927 14.1245ZM20.0633 19.1699C19.7113 18.7592 18.9585 18.4365 17.8047 18.2019V23.7459C18.626 23.5699 19.2909 23.1885 19.7993 22.6019C20.3273 22.0152 20.5913 21.3796 20.5913 20.6952C20.5913 20.1476 20.4153 19.6392 20.0633 19.1699Z" fill="#077453"/>
</svg>
