<svg width="33" height="33" viewBox="0 0 33 33" fill="none" xmlns="http://www.w3.org/2000/svg">
<g clip-path="url(#clip0_1934_21736)">
<path d="M32.5 16.6667C32.5 19.8313 31.5616 22.9247 29.8035 25.5559C28.0454 28.1871 25.5466 30.2378 22.6229 31.4488C19.6993 32.6598 16.4823 32.9767 13.3786 32.3593C10.2749 31.742 7.42394 30.2181 5.1863 27.9805C2.94866 25.7428 1.42481 22.8919 0.807443 19.7882C0.190079 16.6845 0.506932 13.4674 1.71793 10.5438C2.92894 7.6202 4.9797 5.12134 7.61088 3.36323C10.2421 1.60513 13.3355 0.666748 16.5 0.666748C20.7435 0.666748 24.8131 2.35246 27.8137 5.35304C30.8143 8.35362 32.5 12.4233 32.5 16.6667Z" fill="#BFFFC8"/>
<path fill-rule="evenodd" clip-rule="evenodd" d="M11.871 7.97283L15.5481 8.95756L16.3699 5.89429L18.2084 6.3932L17.4186 9.32992L18.9183 9.73283L19.7095 6.76411L21.5801 7.26447L20.7743 10.2492C20.7743 10.2492 23.8288 10.9256 24.5473 13.4099C25.2659 15.8943 22.9677 17.199 22.2579 17.2485C22.2579 17.2485 24.9343 18.7161 24.015 21.6034C23.0957 24.4907 20.2739 25.007 17.3052 24.3452L16.4993 27.4405L14.6288 26.9401L15.4506 23.8928L13.967 23.4885L13.1452 26.5576L11.2892 26.0587L12.1124 23.0041L8.33789 21.9859L9.28916 19.8739C9.28916 19.8739 10.3539 20.1648 10.7568 20.2608C11.1597 20.3568 11.4186 19.9379 11.5321 19.519C11.6455 19.1001 13.3546 12.1576 13.5161 11.5859C13.6775 11.0143 13.6121 10.5677 12.9343 10.3917C12.2564 10.2157 11.3343 9.94083 11.3343 9.94083L11.871 7.97283ZM15.5801 17.167L14.5619 21.215C14.5619 21.215 19.6106 23.0376 20.2564 20.4732C20.9023 17.9088 15.5801 17.167 15.5801 17.167ZM16.0484 15.247L17.0477 11.5379C17.0477 11.5379 21.3706 12.3117 20.8383 14.3757C20.3059 16.4397 17.7575 15.6485 16.0484 15.247Z" fill="#077453"/>
</g>
<defs>
<clipPath id="clip0_1934_21736">
<rect width="32" height="32" fill="white" transform="translate(0.5 0.666748)"/>
</clipPath>
</defs>
</svg>
