<svg width="33" height="33" viewBox="0 0 33 33" fill="none" xmlns="http://www.w3.org/2000/svg">
<g clip-path="url(#clip0_1934_21738)">
<path d="M16.5 32.6667C25.3366 32.6667 32.5 25.5033 32.5 16.6667C32.5 7.83019 25.3366 0.666748 16.5 0.666748C7.66344 0.666748 0.5 7.83019 0.5 16.6667C0.5 25.5033 7.66344 32.6667 16.5 32.6667Z" fill="#BFFFC8"/>
<path fill-rule="evenodd" clip-rule="evenodd" d="M18.4208 18.0491V18.0471C18.3108 18.0551 17.7438 18.0891 16.4788 18.0891C15.4688 18.0891 14.7578 18.0591 14.5078 18.0471V18.0501C10.6198 17.8791 7.71783 17.2021 7.71783 16.3921C7.71783 15.5831 10.6198 14.9061 14.5078 14.7321V17.3761C14.7618 17.3941 15.4898 17.4371 16.4958 17.4371C17.7028 17.4371 18.3078 17.3871 18.4208 17.3771V14.7341C22.3008 14.9071 25.1958 15.5841 25.1958 16.3921C25.1958 17.2021 22.3008 17.8771 18.4208 18.0491ZM18.4208 14.4591V12.0931H23.8348V8.48511H9.09383V12.0931H14.5078V14.4581C10.1078 14.6601 6.79883 15.5321 6.79883 16.5761C6.79883 17.6201 10.1078 18.4911 14.5078 18.6941V26.2761H18.4208V18.6921C22.8138 18.4901 26.1148 17.6191 26.1148 16.5761C26.1148 15.5331 22.8138 14.6621 18.4208 14.4591Z" fill="#077453"/>
</g>
<defs>
<clipPath id="clip0_1934_21738">
<rect width="32" height="32" fill="white" transform="translate(0.5 0.666748)"/>
</clipPath>
</defs>
</svg>
