<svg width="64" height="65" viewBox="0 0 64 65" fill="none" xmlns="http://www.w3.org/2000/svg">
<rect y="0.00585938" width="64" height="64" rx="16" fill="#BFFFC8"/>
<path fill-rule="evenodd" clip-rule="evenodd" d="M31.0685 19.07C30.75 18.5237 29.8214 18.1923 28.8783 18.7314C27.9386 19.2684 27.7734 20.2151 28.0864 20.7519L31.8456 27.1981C32.156 27.7307 31.9761 28.4142 31.4435 28.7248C30.911 29.0353 30.2274 28.8553 29.9169 28.3228L24.9048 19.7278C24.5862 19.1814 23.6577 18.8501 22.7146 19.3891C21.7749 19.9262 21.6097 20.8728 21.9227 21.4096L27.5613 31.0791C27.8719 31.6116 27.6919 32.2951 27.1594 32.6057C26.6268 32.9162 25.9433 32.7362 25.6328 32.2037L23.1267 27.9062C22.8081 27.3598 21.8796 27.0285 20.9365 27.5675C19.9968 28.1045 19.8316 29.0512 20.1446 29.588L25.7832 39.2575C28.1779 43.364 34.0872 44.6965 39.0985 41.8326C44.1064 38.9705 45.8864 33.253 43.4973 29.156L39.7382 22.7098C39.4197 22.1634 38.4912 21.8321 37.5481 22.3711C36.6085 22.9082 36.4431 23.8548 36.7561 24.3916L39.2622 28.6891C39.4122 28.9464 39.4532 29.2529 39.3762 29.5404C39.2991 29.828 39.1104 30.073 38.8519 30.2206C36.5561 31.5326 35.8525 34.0696 36.8576 35.7932C37.1682 36.3257 36.9881 37.0091 36.4556 37.3198C35.9231 37.6304 35.2396 37.4503 34.929 36.9178C33.5706 34.5882 34.1195 31.7832 35.8741 29.8006C36.3647 29.2463 36.5325 28.4401 36.1597 27.8007L31.0685 19.07Z" fill="#077453"/>
<path fill-rule="evenodd" clip-rule="evenodd" d="M20.9809 40.7263C21.5135 40.4159 22.1969 40.5958 22.5075 41.1283C23.7382 43.2388 25.6196 44.8346 27.9398 45.8702C28.5027 46.1215 28.7554 46.7816 28.5042 47.3446C28.2529 47.9075 27.5928 48.1602 27.0299 47.909C24.3337 46.7057 22.0717 44.8128 20.5789 42.2529C20.2684 41.7204 20.4483 41.0369 20.9809 40.7263Z" fill="#077453"/>
<path fill-rule="evenodd" clip-rule="evenodd" d="M42.5504 19.9827C41.0413 18.4415 38.8892 17.873 36.7824 18.4725C36.1894 18.6412 35.5719 18.2973 35.4033 17.7044C35.2345 17.1114 35.5785 16.4939 36.1714 16.3252C39.0562 15.5044 42.0573 16.288 44.1456 18.4207C44.5769 18.8612 44.5695 19.568 44.1289 19.9993C43.6885 20.4306 42.9817 20.4232 42.5504 19.9827Z" fill="#077453"/>
</svg>
