<svg width="64" height="64" viewBox="0 0 64 64" fill="none" xmlns="http://www.w3.org/2000/svg">
<g id="Group 1693">
<g id="Group 1560">
<rect id="Rectangle 806" width="64" height="64" rx="16" fill="#BFFFC8"/>
<g id="Group">
<g id="Group_2">
<path id="Vector" d="M32.0016 22.4951C19.9289 22.4951 13.6016 31.3874 13.6016 32.7994C13.6016 34.2076 19.9289 43.1036 32.0016 43.1036C44.0705 43.1036 50.4016 34.2076 50.4016 32.7994C50.4016 31.3874 44.0705 22.4951 32.0016 22.4951ZM32.0016 40.7228C27.4842 40.7228 23.823 37.1742 23.823 32.7994C23.823 28.4208 27.4842 24.8722 32.0016 24.8722C36.5189 24.8722 40.1802 28.4208 40.1802 32.7994C40.1802 37.1779 36.5189 40.7228 32.0016 40.7228ZM32.0016 32.7994C31.2543 31.977 33.222 28.8376 32.0016 28.8376C29.741 28.8376 27.9123 30.6139 27.9123 32.7994C27.9123 34.9849 29.741 36.7611 32.0016 36.7611C34.2584 36.7611 36.0909 34.9849 36.0909 32.7994C36.0909 31.793 32.6399 33.4978 32.0016 32.7994Z" fill="#077453"/>
</g>
</g>
</g>
</g>
</svg>
