<svg width="64" height="64" viewBox="0 0 64 64" fill="none" xmlns="http://www.w3.org/2000/svg">
<g id="Group 1693">
<rect id="Rectangle 806" width="64" height="64" rx="16" fill="#BFFFC8"/>
<path id="Vector" d="M38.8075 27.9746H47.0749C47.417 29.259 47.6004 30.6082 47.6004 32.0004C47.6004 33.3926 47.417 34.7418 47.0749 36.0262H38.8075C39.1317 33.3183 39.1182 30.5696 38.8075 27.9746ZM27.5477 38.0391C28.2194 41.4157 29.6344 45.1166 31.9588 47.5999C31.9727 47.6 31.9865 47.6004 32.0004 47.6004C32.0143 47.6004 32.0281 47.5999 32.042 47.5999C34.3702 45.1125 35.7827 41.4093 36.4531 38.0391H27.5477ZM38.5011 25.9617H46.3882C44.3799 21.1825 40.0601 17.6147 34.8279 16.6567C36.73 19.3691 37.8989 22.7163 38.5011 25.9617ZM36.7807 27.9746H27.2201C26.8843 30.6111 26.8839 33.3866 27.2201 36.0262H36.7808C37.1166 33.3896 37.117 30.6142 36.7807 27.9746ZM25.4997 38.0391H17.6126C19.6209 42.8182 23.9407 46.386 29.1729 47.3441C27.2703 44.6307 26.1017 41.2833 25.4997 38.0391ZM38.5011 38.0391C37.8988 41.2852 36.7296 44.6322 34.8279 47.3441C40.0601 46.386 44.3799 42.8182 46.3882 38.0391H38.5011ZM36.4531 25.9617C35.7814 22.585 34.3663 18.8842 32.042 16.4009C32.0281 16.4009 32.0143 16.4004 32.0004 16.4004C31.9865 16.4004 31.9727 16.4009 31.9588 16.4009C29.6307 18.8883 28.2182 22.5915 27.5477 25.9617H36.4531ZM16.9259 27.9746C16.5838 29.259 16.4004 30.6082 16.4004 32.0004C16.4004 33.3926 16.5838 34.7418 16.9259 36.0262H25.1933C24.8827 33.4312 24.8691 30.6825 25.1933 27.9746H16.9259ZM25.4997 25.9617C26.102 22.7157 27.2712 19.3688 29.1729 16.6567C23.9407 17.6147 19.6209 21.1825 17.6126 25.9617H25.4997Z" fill="#077453"/>
</g>
</svg>
