<svg width="64" height="64" viewBox="0 0 64 64" fill="none" xmlns="http://www.w3.org/2000/svg">
<g id="Group 1693">
<g id="Group 1563">
<rect id="Rectangle 807" width="64" height="64" rx="16" fill="#BFFFC8"/>
<path id="Vector" d="M22.9758 30.1002H18.2258C17.4388 30.1002 16.8008 30.7382 16.8008 31.5253V45.7757C16.8008 46.5627 17.4388 47.2007 18.2258 47.2007H22.9758C23.7628 47.2007 24.4008 46.5627 24.4008 45.7757V31.5253C24.4008 30.7382 23.7628 30.1002 22.9758 30.1002ZM20.6008 44.8257C19.8138 44.8257 19.1758 44.1877 19.1758 43.4006C19.1758 42.6136 19.8138 41.9756 20.6008 41.9756C21.3878 41.9756 22.0258 42.6136 22.0258 43.4006C22.0258 44.1877 21.3878 44.8257 20.6008 44.8257ZM39.6008 21.6362C39.6008 24.1547 38.0588 25.5674 37.625 27.2501H43.6648C45.6477 27.2501 47.1915 28.8976 47.2007 30.6998C47.2057 31.7649 46.7527 32.9115 46.0465 33.621L46.04 33.6275C46.624 35.0132 46.5291 36.9548 45.4874 38.3461C46.0028 39.8837 45.4833 41.7724 44.5147 42.7849C44.7699 43.8299 44.6479 44.7191 44.1496 45.435C42.9378 47.1762 39.9342 47.2007 37.3944 47.2007L37.2254 47.2007C34.3584 47.1997 32.012 46.1558 30.1266 45.3169C29.1791 44.8954 27.9403 44.3736 27.0004 44.3563C26.6121 44.3492 26.3008 44.0323 26.3008 43.6439V30.951C26.3008 30.761 26.3769 30.5786 26.512 30.445C28.8641 28.1208 29.8755 25.66 31.8034 23.7288C32.6824 22.8482 33.002 21.5179 33.3111 20.2314C33.5751 19.1329 34.1274 16.7998 35.3258 16.7998C36.7508 16.7998 39.6008 17.2748 39.6008 21.6362Z" fill="#077453"/>
</g>
</g>
</svg>
