<svg width="64" height="64" viewBox="0 0 64 64" fill="none" xmlns="http://www.w3.org/2000/svg">
<g id="Group 1693">
<g id="Group 1694">
<rect id="Rectangle 806" width="64" height="64" rx="16" fill="#BFFFC8"/>
<path id="Vector" d="M28.0893 38.6427C25.7916 38.6427 23.6265 38.2294 21.725 37.4998C19.8076 39.0001 17.4552 39.9143 14.9561 40.1764C14.938 40.1783 14.9199 40.1793 14.9017 40.1793C14.6734 40.1793 14.4671 40.0266 14.4118 39.8089C14.3519 39.5668 14.5394 39.4178 14.725 39.2402C15.6427 38.3578 16.7552 37.664 17.1904 34.6996C15.4402 33.0219 14.4004 30.9279 14.4004 28.6549C14.4004 23.1381 20.5296 18.667 28.0893 18.667C35.6489 18.667 41.7782 23.1381 41.7782 28.6549C41.7781 34.1755 35.6489 38.6427 28.0893 38.6427ZM49.2989 45.1926C48.4468 44.3903 47.4137 43.7597 47.0097 41.0647C51.2146 37.1187 50.1979 31.4737 44.7074 28.41C44.7093 28.4916 44.7114 28.573 44.7114 28.6549C44.7114 36.141 36.7925 41.8797 27.3405 41.5636C29.6701 43.4557 33.0842 44.6494 36.8892 44.6494C39.0228 44.6494 41.0332 44.2736 42.7989 43.6104C44.5793 44.9743 46.7637 45.8054 49.0844 46.0436C49.3157 46.0678 49.5343 45.923 49.5897 45.7095C49.6454 45.4894 49.4713 45.354 49.2989 45.1926Z" fill="#077453"/>
</g>
</g>
</svg>
