<svg width="64" height="64" viewBox="0 0 64 64" fill="none" xmlns="http://www.w3.org/2000/svg">
<g id="Group 1693">
<g id="Group 1559">
<rect id="Rectangle 805" width="64" height="64" rx="16" fill="#BFFFC8"/>
<path id="Vector" d="M32.3198 18.2803V31.1831H45.2227C45.6137 31.1831 45.9197 30.8544 45.9027 30.4634C45.54 23.5275 39.9811 17.9629 33.0395 17.6003C32.6485 17.5833 32.3198 17.8893 32.3198 18.2803ZM47.3193 33.903C47.7103 33.903 48.0163 34.2317 47.9993 34.6227C47.8407 37.6373 46.6847 40.6066 44.5314 42.9979C44.2707 43.2869 43.8174 43.3039 43.5397 43.0262L34.4165 33.903H47.3193ZM38.7231 42.1196C38.9951 42.3916 38.9894 42.8449 38.7004 43.0999C36.2865 45.2759 33.0905 46.5962 29.5885 46.5962C22.0973 46.5905 15.9887 40.4649 16 32.9681C16.0113 25.7092 21.712 19.7876 28.8802 19.4136C29.2712 19.3909 29.5999 19.7026 29.5999 20.0936V32.9964L38.7231 42.1196Z" fill="#077453"/>
</g>
</g>
</svg>
