<svg width="64" height="64" viewBox="0 0 64 64" fill="none" xmlns="http://www.w3.org/2000/svg">
<g id="Group 1503">
<g id="Group 1561">
<rect id="Rectangle 637" width="64" height="64" rx="16" fill="#BFFFC8"/>
</g>
<path id="Vector" fill-rule="evenodd" clip-rule="evenodd" d="M31.0685 19.0637C30.75 18.5173 29.8214 18.186 28.8783 18.725C27.9386 19.2621 27.7734 20.2087 28.0864 20.7455L31.8456 27.1918C32.156 27.7244 31.9761 28.4078 31.4435 28.7184C30.911 29.0289 30.2274 28.849 29.9169 28.3164L24.9048 19.7214C24.5862 19.1751 23.6577 18.8438 22.7146 19.3828C21.7749 19.9198 21.6097 20.8665 21.9227 21.4033L27.5613 31.0727C27.8719 31.6053 27.6919 32.2887 27.1594 32.5993C26.6268 32.9098 25.9433 32.7299 25.6328 32.1973L23.1267 27.8998C22.8081 27.3535 21.8796 27.0221 20.9365 27.5611C19.9968 28.0982 19.8316 29.0448 20.1446 29.5817L25.7832 39.2511C28.1779 43.3576 34.0872 44.6902 39.0985 41.8263C44.1064 38.9642 45.8864 33.2466 43.4973 29.1496L39.7382 22.7034C39.4197 22.1571 38.4912 21.8258 37.5481 22.3648C36.6085 22.9018 36.4431 23.8485 36.7561 24.3853L39.2622 28.6828C39.4122 28.94 39.4532 29.2465 39.3762 29.5341C39.2991 29.8216 39.1104 30.0666 38.8519 30.2142C36.5561 31.5262 35.8525 34.0633 36.8576 35.7868C37.1682 36.3193 36.9881 37.0028 36.4556 37.3134C35.9231 37.624 35.2396 37.444 34.929 36.9114C33.5706 34.5818 34.1195 31.7769 35.8741 29.7942C36.3647 29.24 36.5325 28.4337 36.1597 27.7944L31.0685 19.0637Z" fill="#077453"/>
<g id="Group">
<path id="Vector_2" fill-rule="evenodd" clip-rule="evenodd" d="M20.9799 40.7202C21.5125 40.4098 22.196 40.5897 22.5065 41.1222C23.7372 43.2327 25.6186 44.8285 27.9388 45.8641C28.5018 46.1154 28.7545 46.7755 28.5032 47.3385C28.2519 47.9014 27.5919 48.1541 27.0289 47.9029C24.3327 46.6996 22.0707 44.8067 20.5779 42.2468C20.2674 41.7143 20.4474 41.0308 20.9799 40.7202Z" fill="#077453"/>
<path id="Vector_3" fill-rule="evenodd" clip-rule="evenodd" d="M42.5494 19.9768C41.0404 18.4356 38.8882 17.8672 36.7814 18.4667C36.1885 18.6354 35.5709 18.2915 35.4023 17.6985C35.2335 17.1055 35.5775 16.4881 36.1704 16.3193C39.0552 15.4985 42.0563 16.2822 44.1446 18.4149C44.576 18.8554 44.5685 19.5621 44.128 19.9934C43.6876 20.4247 42.9807 20.4173 42.5494 19.9768Z" fill="#077453"/>
</g>
</g>
</svg>
