<svg width="64" height="65" fill="none" xmlns="http://www.w3.org/2000/svg"><rect opacity=".2" y=".003" width="64" height="64" rx="16" fill="#077453"/><path d="M23.189 28.243c.32 0 .6.12.84.36s.36.52.36.84v4.92c0 .32-.12.6-.36.84s-.52.36-.84.36c-.334 0-.62-.12-.86-.36-.227-.24-.34-.52-.34-.84v-4.92c0-.32.113-.6.34-.84.24-.24.526-.36.86-.36zm-5.96-2.04v11.28l4.16 4.16h3.64l4.12-4.08v-11.36l-4.24-4.2h-3.44l-4.24 4.2zm-2-1.32 4.96-4.92c.2-.24.48-.36.84-.36h4.36c.32 0 .6.12.84.36l4.92 4.92c.24.2.36.48.36.84v12.32c0 .373-.12.653-.36.84l-4.8 4.8c-.24.24-.52.36-.84.36h-4.56c-.373 0-.654-.12-.84-.36l-4.88-4.88c-.24-.24-.36-.52-.36-.84v-12.24c0-.373.12-.653.36-.84zm33.45 9.12h2.36v2.24h-2.36v8.76h-2.4v-8.76H35.6c-.32 0-.6-.12-.84-.36s-.36-.52-.36-.84v-4.48c0-.32.12-.6.36-.84l9.6-9.76c.187-.24.467-.36.84-.36h3.48v14.4zm-2.4 0v-12h-.56l-9.039 9.16v2.84h9.6z" fill="#077453"/></svg>