<svg width="64" height="65" viewBox="0 0 64 65" fill="none" xmlns="http://www.w3.org/2000/svg">
<rect y="0.111328" width="64" height="64" rx="16" fill="#8DCAF8"/>
<rect x="16.5" y="20.6113" width="31" height="23" rx="1.5" fill="#0061A8" stroke="#8DCAF8"/>
<path d="M17.6448 45.1113C15.8021 45.1113 14.9398 42.8308 16.3215 41.6117L30.0151 29.5291C31.1492 28.5284 32.8508 28.5284 33.9849 29.5291L47.6785 41.6117C49.0602 42.8308 48.1979 45.1113 46.3552 45.1113H17.6448Z" fill="#0061A8" stroke="#8DCAF8" stroke-width="2"/>
<path d="M17.6448 19.1113C15.8021 19.1113 14.9398 21.3919 16.3215 22.611L30.0151 34.6936C31.1492 35.6942 32.8508 35.6942 33.9849 34.6936L47.6785 22.611C49.0602 21.3919 48.1979 19.1113 46.3552 19.1113H17.6448Z" fill="#0061A8" stroke="#8DCAF8" stroke-width="2"/>
</svg>
