<svg width="64" height="65" viewBox="0 0 64 65" fill="none" xmlns="http://www.w3.org/2000/svg">
<rect y="0.111328" width="64" height="64" rx="16" fill="#FFC451"/>
<path d="M23.0417 30.103C25.4508 34.8302 29.2959 38.6725 34.025 41.078L37.6917 37.403C38.15 36.9447 38.8083 36.8113 39.3833 36.9947C41.25 37.6113 43.2583 37.9447 45.3333 37.9447C46.2583 37.9447 47 38.6863 47 39.6113V45.4447C47 46.3697 46.2583 47.1113 45.3333 47.1113C29.6833 47.1113 17 34.428 17 18.778C17 18.336 17.1756 17.912 17.4882 17.5995C17.8007 17.2869 18.2246 17.1113 18.6667 17.1113H24.5C25.425 17.1113 26.1667 17.853 26.1667 18.778C26.1667 20.853 26.5 22.8613 27.1167 24.728C27.3 25.303 27.1667 25.9613 26.7083 26.4197L23.0417 30.103Z" fill="#916002"/>
</svg>
