<svg width="64" height="65" viewBox="0 0 64 65" fill="none" xmlns="http://www.w3.org/2000/svg">
<rect y="0.111328" width="64" height="64" rx="16" fill="#D7BCFE"/>
<path fill-rule="evenodd" clip-rule="evenodd" d="M16 22.1113C16 21.0068 16.8954 20.1113 18 20.1113H46C47.1046 20.1113 48 21.0068 48 22.1113V42.1113C48 43.2159 47.1046 44.1113 46 44.1113H18C16.8954 44.1113 16 43.2159 16 42.1113V22.1113ZM32 32.1113C32 31.559 32.4477 31.1113 33 31.1113H43C43.5523 31.1113 44 31.559 44 32.1113C44 32.6636 43.5523 33.1113 43 33.1113H33C32.4477 33.1113 32 32.6636 32 32.1113ZM33 27.1113C32.4477 27.1113 32 27.559 32 28.1113C32 28.6636 32.4477 29.1113 33 29.1113H43C43.5523 29.1113 44 28.6636 44 28.1113C44 27.559 43.5523 27.1113 43 27.1113H33ZM32 36.1113C32 35.559 32.4477 35.1113 33 35.1113H37C37.5523 35.1113 38 35.559 38 36.1113C38 36.6636 37.5523 37.1113 37 37.1113H33C32.4477 37.1113 32 36.6636 32 36.1113ZM24 27.1113C22.3431 27.1113 21 28.4545 21 30.1113C21 31.1024 21.4805 31.9812 22.2213 32.5274C20.9797 33.1448 20.1045 34.3885 20.0086 35.8456C19.9606 36.5752 20.5548 37.1113 21.1999 37.1113H26.7999C27.4449 37.1113 28.0392 36.5752 27.9911 35.8456C27.8952 34.3886 27.0201 33.1449 25.7785 32.5275C26.5194 31.9813 27 31.1024 27 30.1113C27 28.4545 25.6569 27.1113 24 27.1113Z" fill="#6308EB"/>
</svg>
