<svg width="481" height="693" viewBox="0 0 481 693" fill="none" xmlns="http://www.w3.org/2000/svg">
<path d="M247 382V388.942C247 399.988 238.046 408.942 227 408.942H70C58.9543 408.942 50 417.896 50 428.942V525" stroke="#077453" stroke-opacity="0.4" stroke-width="2" stroke-dasharray="2 4"/>
<path d="M247 439V439.986C247 451.032 238.046 459.986 227 459.986H192C180.954 459.986 172 468.94 172 479.986V497" stroke="#077453" stroke-opacity="0.4" stroke-width="2" stroke-dasharray="2 4"/>
<path d="M247 570V583.167C247 594.212 255.954 603.167 267 603.167H315C326.046 603.167 335 612.121 335 623.167V628.5" stroke="#077453" stroke-opacity="0.4" stroke-width="2" stroke-dasharray="2 4"/>
<path d="M247 469V471.525C247 482.571 255.954 491.525 267 491.525H295C306.046 491.525 315 500.479 315 511.525V514" stroke="#077453" stroke-opacity="0.4" stroke-width="2" stroke-dasharray="2 4"/>
<path d="M183 597.5V594.725C183 583.679 191.954 574.725 203 574.725H227C238.046 574.725 247 565.77 247 554.725V552" stroke="#077453" stroke-opacity="0.4" stroke-width="2" stroke-dasharray="2 4"/>
<path d="M432 525V456.8C432 445.754 423.046 436.8 412 436.8H267C255.954 436.8 247 427.846 247 416.8V406" stroke="#077453" stroke-opacity="0.4" stroke-width="2" stroke-dasharray="2 4"/>
<path d="M247 374L247 567" stroke="#077453" stroke-opacity="0.4" stroke-width="2" stroke-dasharray="2 4"/>
<rect x="268" y="629" width="120" height="64" rx="16" fill="#BFFFC8"/>
<path d="M361.044 650.013C360.95 650.359 360.862 650.686 360.772 651.014C360.594 651.655 360.411 652.292 360.241 652.936C360.202 653.088 360.145 653.14 359.979 653.14C354.745 653.134 349.513 653.135 344.278 653.135C344.002 653.135 344.031 653.09 343.95 653.383C343.679 654.363 343.404 655.342 343.132 656.321C343.112 656.39 343.097 656.461 343.072 656.554C343.162 656.561 343.232 656.571 343.302 656.571C348.08 656.571 352.857 656.571 357.636 656.571C358.241 656.571 358.637 656.826 358.803 657.324C358.893 657.593 358.87 657.863 358.796 658.13C358.244 660.128 357.696 662.128 357.136 664.123C357.039 664.471 356.942 664.837 356.756 665.137C356.339 665.812 355.715 666.186 354.899 666.186C349.067 666.186 343.236 666.186 337.404 666.186C337.349 666.186 337.292 666.186 337.209 666.186C337.262 665.981 337.307 665.796 337.357 665.613C337.576 664.82 337.801 664.026 338.015 663.232C338.055 663.084 338.127 663.053 338.267 663.053C340.004 663.057 341.741 663.055 343.478 663.055C346.97 663.055 350.461 663.055 353.951 663.055C354.283 663.055 354.231 663.078 354.314 662.782C354.576 661.835 354.838 660.888 355.1 659.941C355.118 659.877 355.133 659.812 355.158 659.705C355.031 659.705 354.928 659.705 354.822 659.705C351.314 659.702 347.805 659.699 344.298 659.698C343.062 659.698 341.827 659.682 340.591 659.704C339.752 659.718 339.181 659.069 339.423 658.187C340.023 656.002 340.622 653.816 341.239 651.635C341.481 650.777 342.063 650.239 342.934 650.031C343.054 650.003 343.184 650.004 343.307 650.004C349.157 650.004 355.004 650.004 360.854 650.004C360.909 650.004 360.965 650.009 361.043 650.013H361.044Z" fill="#077453"/>
<path d="M296.365 650.02C298.652 653.806 300.938 657.592 303.241 661.405C307.725 657.619 312.191 653.846 316.695 650.041C316.58 650.466 316.479 650.846 316.373 651.225C315.648 653.84 314.922 656.456 314.197 659.073C313.557 661.388 312.916 663.703 312.277 666.018C312.247 666.125 312.215 666.196 312.076 666.195C311.096 666.188 310.117 666.191 309.137 666.191C309.114 666.191 309.093 666.188 309.033 666.182C309.739 663.616 310.443 661.061 311.146 658.505C311.13 658.493 311.116 658.482 311.101 658.472C308.283 661.045 305.465 663.619 302.63 666.208C300.914 663.278 299.213 660.37 297.49 657.428C297.456 657.511 297.433 657.552 297.42 657.598C296.644 660.4 295.868 663.202 295.096 666.006C295.059 666.141 295.01 666.198 294.857 666.196C293.923 666.188 292.989 666.192 292.055 666.192H291.846C293.342 660.787 294.832 655.408 296.321 650.03C296.335 650.027 296.351 650.026 296.365 650.023V650.02Z" fill="#077453"/>
<path d="M315.27 666.189C315.362 665.849 315.446 665.539 315.533 665.228C316.316 662.41 317.101 659.593 317.878 656.775C317.924 656.61 318 656.57 318.163 656.57C320.737 656.574 323.312 656.574 325.886 656.573C328.517 656.573 331.148 656.568 333.78 656.565C333.976 656.565 334.101 656.471 334.153 656.282C334.425 655.297 334.698 654.311 334.97 653.326C334.984 653.273 334.994 653.218 335.011 653.14H318.893C318.937 652.962 318.972 652.811 319.013 652.661C319.239 651.84 319.47 651.019 319.692 650.198C319.73 650.053 319.793 650 319.95 650C325.793 650.004 331.635 650.004 337.479 650.001C337.93 650.001 338.31 650.127 338.558 650.527C338.766 650.861 338.749 651.227 338.651 651.585C338.054 653.765 337.449 655.943 336.844 658.12C336.593 659.022 335.642 659.708 334.725 659.705C329.998 659.691 325.271 659.698 320.545 659.699C320.213 659.699 320.274 659.661 320.192 659.96C319.637 661.952 319.088 663.944 318.536 665.936C318.455 666.228 318.499 666.186 318.21 666.188C317.304 666.188 316.399 666.188 315.493 666.188C315.428 666.188 315.361 666.188 315.271 666.188L315.27 666.189Z" fill="#077453"/>
<path d="M367.559 650.135L371.744 658.305L362.945 666.474L367.559 650.135Z" fill="#077453"/>
<path d="M364.62 650.135L368.803 658.305L360 666.474L364.62 650.135Z" fill="#077453"/>
<path d="M293.087 650.033C292.996 650.367 292.91 650.683 292.824 650.998C292.053 653.783 291.282 656.57 290.511 659.355C289.895 661.582 289.278 663.81 288.66 666.037C288.637 666.12 288.619 666.192 288.498 666.192C287.507 666.186 286.516 666.189 285.525 666.188C285.504 666.188 285.482 666.181 285.439 666.172C285.455 666.091 285.465 666.014 285.486 665.942C286.842 661.043 288.199 656.147 289.556 651.249C289.656 650.887 289.757 650.527 289.855 650.165C289.878 650.08 289.898 650.011 290.017 650.013C291.008 650.019 291.999 650.016 292.99 650.017C293.012 650.017 293.034 650.024 293.088 650.033H293.087Z" fill="#077453"/>
<path d="M292.587 671.999C292.453 671.336 292.327 670.717 292.196 670.073C292.006 670.459 291.823 670.825 291.642 671.191C291.56 671.359 291.467 671.524 291.396 671.697C291.341 671.832 291.265 671.897 291.116 671.873C291.043 671.862 290.969 671.872 290.859 671.872C291.385 670.831 291.899 669.81 292.437 668.742C292.584 669.524 292.719 670.254 292.861 671.012C293.411 670.264 293.949 669.532 294.489 668.801C294.5 668.803 294.513 668.805 294.524 668.808C294.477 669.823 294.43 670.838 294.383 671.863H293.935C293.969 671.271 294.002 670.687 294.035 670.105C293.56 670.724 293.086 671.345 292.585 672L292.587 671.999Z" fill="#077453"/>
<path d="M285.975 671.872C286.501 670.828 287.013 669.814 287.524 668.802H287.564C287.7 669.532 287.837 670.263 287.978 671.012C288.525 670.269 289.064 669.535 289.603 668.802L289.64 668.815C289.593 669.827 289.546 670.84 289.499 671.862H289.05C289.084 671.271 289.117 670.686 289.15 670.105C288.676 670.724 288.202 671.344 287.702 671.999C287.568 671.338 287.443 670.719 287.312 670.071C287.158 670.382 287.014 670.672 286.872 670.962C286.753 671.201 286.628 671.439 286.521 671.682C286.459 671.825 286.378 671.902 286.214 671.873C286.148 671.862 286.079 671.872 285.975 671.872Z" fill="#077453"/>
<path d="M328.892 670.071C328.637 670.588 328.392 671.086 328.146 671.584C327.982 671.916 327.975 671.919 327.566 671.851C328.083 670.827 328.596 669.81 329.134 668.744C329.281 669.527 329.417 670.26 329.558 671.012C330.109 670.263 330.649 669.528 331.189 668.793C331.2 668.798 331.21 668.801 331.221 668.805C331.174 669.819 331.127 670.831 331.081 671.859H330.632C330.666 671.267 330.699 670.682 330.733 670.102C330.26 670.72 329.786 671.341 329.284 671.997C329.15 671.334 329.023 670.711 328.893 670.071H328.892Z" fill="#077453"/>
<path d="M299.354 671.868C299.502 671.335 299.644 670.827 299.785 670.318C299.902 669.897 300.024 669.478 300.13 669.054C300.167 668.903 300.232 668.858 300.386 668.866C300.76 668.887 301.136 668.876 301.511 668.902C302.075 668.942 302.386 669.259 302.395 669.826C302.405 670.541 302 671.425 301.139 671.744C300.935 671.819 300.708 671.851 300.49 671.862C300.122 671.88 299.752 671.868 299.355 671.868H299.354ZM299.957 671.446C300.261 671.432 300.541 671.443 300.812 671.398C300.988 671.368 301.175 671.281 301.314 671.168C301.71 670.847 301.878 670.407 301.871 669.903C301.868 669.626 301.711 669.403 301.461 669.36C301.162 669.31 300.856 669.309 300.555 669.288C300.352 670.022 300.158 670.717 299.956 671.446H299.957Z" fill="#077453"/>
<path d="M336.895 669.839C336.771 670.283 336.645 670.73 336.521 671.178C336.469 671.365 336.414 671.55 336.37 671.738C336.347 671.836 336.304 671.885 336.196 671.873C336.101 671.863 336.004 671.872 335.883 671.872C336.172 670.831 336.455 669.81 336.75 668.749C337.304 669.48 337.836 670.185 338.387 670.911C338.577 670.23 338.766 669.557 338.954 668.879H339.401C339.114 669.913 338.83 670.935 338.537 671.993C337.98 671.262 337.445 670.559 336.897 669.839H336.895Z" fill="#077453"/>
<path d="M354.387 670.513C354.602 670.966 354.811 671.405 355.034 671.87C354.854 671.87 354.703 671.879 354.552 671.865C354.508 671.86 354.454 671.798 354.431 671.749C354.259 671.391 354.092 671.029 353.924 670.669C353.902 670.62 353.874 670.575 353.823 670.481C353.765 670.677 353.721 670.821 353.679 670.966C353.61 671.213 353.534 671.457 353.477 671.705C353.447 671.833 353.396 671.892 353.261 671.875C353.178 671.863 353.091 671.873 352.975 671.873C353.254 670.865 353.528 669.877 353.81 668.856C354.191 668.875 354.572 668.872 354.947 668.916C355.224 668.95 355.378 669.222 355.331 669.525C355.247 670.065 354.961 670.421 354.386 670.513H354.387ZM353.934 670.177C354.151 670.145 354.333 670.138 354.504 670.088C354.722 670.024 354.877 669.663 354.797 669.464C354.746 669.337 354.397 669.226 354.229 669.289C354.198 669.3 354.166 669.339 354.156 669.372C354.084 669.621 354.017 669.873 353.933 670.177H353.934Z" fill="#077453"/>
<path d="M351.671 670.037C351.624 670.203 351.587 670.331 351.547 670.468C351.191 670.468 350.845 670.472 350.497 670.465C350.393 670.464 350.346 670.498 350.322 670.598C350.252 670.872 350.174 671.143 350.093 671.438H351.253C351.256 671.472 351.26 671.487 351.258 671.503C351.209 671.749 351.06 671.872 350.809 671.872H349.486C349.565 671.589 349.639 671.324 349.713 671.059C349.899 670.385 350.087 669.713 350.268 669.038C350.301 668.919 350.345 668.865 350.484 668.868C350.979 668.878 351.474 668.872 351.991 668.872C351.954 669.01 351.92 669.134 351.881 669.276C351.548 669.276 351.213 669.283 350.879 669.273C350.732 669.269 350.665 669.313 350.637 669.46C350.6 669.648 350.54 669.831 350.483 670.038H351.671V670.037Z" fill="#077453"/>
<path d="M314.494 671.436C314.449 671.603 314.413 671.732 314.378 671.862H312.703C312.982 670.86 313.257 669.871 313.532 668.88H315.203C315.172 668.996 315.156 669.104 315.112 669.199C315.094 669.238 315.018 669.271 314.967 669.272C314.665 669.279 314.363 669.28 314.063 669.272C313.946 669.269 313.889 669.303 313.862 669.42C313.818 669.618 313.758 669.813 313.698 670.034H314.879C314.842 670.176 314.819 670.299 314.775 670.41C314.762 670.442 314.684 670.462 314.635 670.464C314.328 670.468 314.02 670.469 313.714 670.464C313.614 670.462 313.563 670.486 313.536 670.593C313.469 670.868 313.388 671.139 313.307 671.435H314.493L314.494 671.436Z" fill="#077453"/>
<path d="M365.818 671.872C365.912 671.527 366.001 671.2 366.092 670.874C366.263 670.256 366.438 669.638 366.604 669.02C366.634 668.909 366.678 668.866 366.799 668.869C367.299 668.877 367.799 668.872 368.322 668.872C368.289 668.997 368.269 669.11 368.226 669.211C368.212 669.245 368.139 669.27 368.092 669.272C367.779 669.278 367.467 669.278 367.154 669.272C367.059 669.27 367.013 669.299 366.989 669.396C366.94 669.604 366.878 669.807 366.815 670.039H367.971C367.98 670.069 367.988 670.081 367.985 670.091C367.923 670.341 367.764 670.466 367.508 670.466C367.275 670.466 367.041 670.462 366.809 670.469C366.764 670.469 366.688 670.503 366.678 670.538C366.589 670.828 366.512 671.123 366.425 671.44H367.608C367.573 671.577 367.547 671.692 367.508 671.803C367.497 671.835 367.444 671.869 367.409 671.869C366.886 671.873 366.364 671.872 365.818 671.872Z" fill="#077453"/>
<path d="M298.215 670.036C298.168 670.2 298.132 670.33 298.094 670.468C297.745 670.468 297.403 670.472 297.063 670.465C296.948 670.462 296.892 670.491 296.864 670.613C296.801 670.884 296.718 671.148 296.636 671.44H297.822C297.782 671.586 297.754 671.707 297.714 671.822C297.705 671.848 297.651 671.87 297.618 671.87C297.096 671.873 296.572 671.873 296.029 671.873C296.308 670.868 296.583 669.878 296.859 668.882H298.527C298.497 668.998 298.478 669.114 298.434 669.219C298.421 669.252 298.342 669.273 298.293 669.273C297.986 669.278 297.678 669.28 297.371 669.273C297.267 669.272 297.218 669.306 297.194 669.407C297.146 669.611 297.086 669.811 297.025 670.036H298.212H298.215Z" fill="#077453"/>
<path d="M333.165 671.44H334.347C334.311 671.58 334.286 671.698 334.247 671.814C334.239 671.841 334.189 671.87 334.158 671.87C333.631 671.873 333.103 671.873 332.559 671.873C332.839 670.864 333.114 669.876 333.39 668.88H335.057C335.028 668.999 335.009 669.114 334.966 669.219C334.954 669.252 334.874 669.273 334.825 669.273C334.518 669.278 334.21 669.279 333.904 669.273C333.802 669.272 333.75 669.303 333.726 669.406C333.679 669.609 333.619 669.81 333.557 670.041H334.743C334.699 670.197 334.663 670.327 334.623 670.468C334.271 670.468 333.926 670.472 333.58 670.465C333.47 670.464 333.421 670.495 333.394 670.606C333.33 670.875 333.248 671.141 333.165 671.439V671.44Z" fill="#077453"/>
<path d="M364.841 669.584C364.388 669.176 363.898 669.142 363.397 669.39C362.853 669.658 362.561 670.122 362.531 670.724C362.504 671.261 362.958 671.594 363.551 671.489C363.7 671.462 363.848 671.416 363.99 671.359C364.126 671.305 364.251 671.225 364.405 671.146C364.359 671.309 364.324 671.456 364.275 671.598C364.26 671.647 364.217 671.698 364.173 671.721C363.704 671.969 363.21 672.03 362.705 671.865C362.204 671.701 361.937 671.191 362.027 670.612C362.189 669.559 363.179 668.738 364.235 668.809C364.458 668.825 364.675 668.94 364.89 669.02C364.984 669.054 365.007 669.128 364.963 669.228C364.916 669.336 364.886 669.453 364.842 669.582L364.841 669.584Z" fill="#077453"/>
<path d="M323.127 668.752C323.325 669.812 323.515 670.831 323.709 671.862H323.202C323.167 671.654 323.122 671.443 323.098 671.231C323.085 671.119 323.036 671.09 322.933 671.092C322.625 671.096 322.318 671.086 322.012 671.097C321.941 671.1 321.854 671.151 321.807 671.208C321.673 671.371 321.548 671.54 321.435 671.718C321.358 671.838 321.268 671.89 321.128 671.873C321.035 671.862 320.94 671.872 320.809 671.872C321.589 670.822 322.346 669.804 323.129 668.752H323.127ZM323.006 670.691C322.957 670.367 322.912 670.056 322.863 669.729C322.635 670.051 322.416 670.36 322.183 670.691H323.006Z" fill="#077453"/>
<path d="M305.428 671.872C306.207 670.825 306.961 669.81 307.747 668.754C307.947 669.812 308.136 670.827 308.331 671.858H307.823C307.788 671.655 307.746 671.45 307.723 671.244C307.71 671.126 307.66 671.092 307.549 671.093C307.242 671.099 306.936 671.089 306.628 671.1C306.561 671.103 306.479 671.15 306.436 671.203C306.302 671.365 306.175 671.534 306.064 671.711C305.98 671.843 305.878 671.893 305.727 671.875C305.643 671.865 305.557 671.873 305.431 671.873L305.428 671.872ZM307.482 669.729C307.249 670.061 307.034 670.365 306.807 670.687H307.626C307.578 670.364 307.531 670.059 307.481 669.729H307.482Z" fill="#077453"/>
<path d="M347.899 669.484C347.669 669.141 347.219 669.148 347.028 669.484C346.93 669.656 346.947 669.813 347.106 669.94C347.234 670.042 347.381 670.121 347.522 670.205C347.993 670.482 348.08 670.783 347.834 671.275C347.572 671.801 346.98 672.065 346.34 671.909C346.087 671.846 345.943 671.661 345.92 671.428C345.91 671.325 345.93 671.254 346.043 671.223C346.14 671.196 346.232 671.15 346.34 671.106C346.373 671.346 346.495 671.485 346.735 671.504C347.001 671.527 347.217 671.445 347.358 671.208C347.484 670.999 347.449 670.822 347.243 670.676C347.105 670.578 346.954 670.496 346.807 670.408C346.296 670.101 346.359 669.673 346.621 669.286C346.898 668.876 347.472 668.695 347.942 668.852C348.02 668.877 348.1 668.922 348.163 668.976C348.366 669.154 348.346 669.285 348.107 669.391C348.04 669.421 347.973 669.451 347.897 669.484H347.899Z" fill="#077453"/>
<path d="M319.206 668.876C319.559 668.876 319.889 668.86 320.218 668.88C320.708 668.91 320.902 669.196 320.777 669.672C320.627 670.237 320.26 670.505 319.6 670.529C319.331 670.539 319.16 670.674 319.089 670.935C319.017 671.198 318.938 671.459 318.873 671.724C318.844 671.835 318.8 671.89 318.676 671.876C318.582 671.865 318.486 671.873 318.373 671.873C318.654 670.864 318.928 669.874 319.205 668.878L319.206 668.876ZM319.338 670.15C319.561 670.125 319.747 670.118 319.926 670.078C320.147 670.029 320.31 669.789 320.285 669.562C320.278 669.497 320.235 669.392 320.188 669.38C320.005 669.335 319.813 669.316 319.623 669.293C319.606 669.292 319.572 669.322 319.566 669.343C319.492 669.598 319.421 669.853 319.337 670.152L319.338 670.15Z" fill="#077453"/>
<path d="M359.374 668.872C358.634 669.918 357.916 670.934 357.169 671.99C357.008 670.931 356.854 669.914 356.697 668.883H357.201C357.294 669.541 357.385 670.202 357.48 670.877C357.658 670.619 357.829 670.368 358.002 670.119C358.251 669.759 358.508 669.404 358.749 669.038C358.834 668.91 358.927 668.849 359.081 668.869C359.165 668.88 359.25 668.87 359.374 668.87V668.872Z" fill="#077453"/>
<path d="M325.074 668.87C325.228 668.87 325.365 668.862 325.497 668.876C325.541 668.88 325.598 668.937 325.615 668.983C325.745 669.344 325.866 669.709 325.995 670.092C326.142 669.931 326.282 669.777 326.421 669.625C326.571 669.461 326.742 669.312 326.865 669.131C327.043 668.869 327.28 668.833 327.582 668.889C327.458 669.027 327.342 669.156 327.226 669.283C326.888 669.653 326.546 670.019 326.215 670.394C326.151 670.466 326.101 670.562 326.072 670.656C325.968 671.005 325.873 671.355 325.783 671.707C325.752 671.83 325.701 671.893 325.564 671.875C325.47 671.862 325.372 671.872 325.254 671.872C325.365 671.47 325.466 671.083 325.58 670.699C325.621 670.56 325.617 670.441 325.568 670.304C325.399 669.836 325.244 669.362 325.076 668.87H325.074Z" fill="#077453"/>
<path d="M340.774 669.283C340.767 669.238 340.766 669.232 340.766 669.226C340.82 668.99 340.967 668.872 341.208 668.872C341.778 668.872 342.346 668.872 342.94 668.872C342.901 669.011 342.866 669.138 342.829 669.276C342.617 669.276 342.412 669.285 342.208 669.273C342.077 669.266 342.019 669.309 341.984 669.439C341.785 670.179 341.57 670.915 341.376 671.657C341.332 671.825 341.273 671.905 341.093 671.876C341.012 671.863 340.927 671.873 340.827 671.873C341.067 671.005 341.302 670.158 341.544 669.285H340.773L340.774 669.283Z" fill="#077453"/>
<path d="M312.069 668.872C312.037 668.999 312.018 669.105 311.977 669.204C311.961 669.239 311.894 669.271 311.849 669.273C311.672 669.282 311.496 669.285 311.321 669.273C311.201 669.266 311.154 669.31 311.123 669.424C310.922 670.169 310.708 670.911 310.51 671.657C310.468 671.819 310.408 671.907 310.227 671.876C310.15 671.863 310.069 671.873 309.961 671.873C310.2 671.006 310.435 670.158 310.677 669.285H309.887C309.922 669.148 309.945 669.034 309.985 668.925C309.995 668.897 310.056 668.875 310.093 668.875C310.741 668.872 311.389 668.872 312.071 668.872H312.069Z" fill="#077453"/>
<path d="M303.566 671.863C303.632 671.628 303.692 671.406 303.754 671.184C303.955 670.462 304.157 669.742 304.352 669.02C304.382 668.906 304.426 668.856 304.547 668.87C304.649 668.882 304.751 668.873 304.881 668.873C304.602 669.877 304.327 670.868 304.051 671.865H303.566V671.863Z" fill="#077453"/>
<path d="M285.306 668.872C285.206 669.238 285.111 669.587 285.014 669.935C284.849 670.531 284.678 671.124 284.517 671.722C284.487 671.835 284.447 671.889 284.325 671.876C284.224 671.865 284.121 671.873 284 671.873C284.014 671.802 284.023 671.742 284.038 671.687C284.281 670.812 284.528 669.94 284.763 669.064C284.806 668.906 284.874 668.849 285.029 668.872C285.112 668.883 285.199 668.873 285.304 668.873L285.306 668.872Z" fill="#077453"/>
<path d="M359.855 671.872C360.095 671.009 360.325 670.177 360.556 669.346C360.563 669.319 360.573 669.292 360.58 669.265C360.656 668.973 360.852 668.848 361.167 668.887C361.104 669.118 361.044 669.347 360.982 669.577C360.787 670.283 360.584 670.988 360.397 671.695C360.358 671.841 360.294 671.892 360.15 671.875C360.061 671.863 359.969 671.873 359.855 671.873V671.872Z" fill="#077453"/>
<rect x="270" y="514" width="89" height="64" rx="16" fill="#BFFFC8"/>
<path d="M301.469 561.929V559.805C301.469 558.991 300.973 558.46 300.124 558.46C299.699 558.46 299.239 558.602 298.92 559.062C298.672 558.673 298.318 558.46 297.788 558.46C297.434 558.46 297.08 558.566 296.796 558.956V558.531H296.053V561.929H296.796V560.053C296.796 559.451 297.115 559.168 297.611 559.168C298.106 559.168 298.354 559.487 298.354 560.053V561.929H299.097V560.053C299.097 559.451 299.451 559.168 299.911 559.168C300.407 559.168 300.655 559.487 300.655 560.053V561.929H301.469ZM312.477 558.531H311.274V557.504H310.531V558.531H309.858V559.204H310.531V560.761C310.531 561.54 310.849 562 311.699 562C312.017 562 312.371 561.894 312.619 561.752L312.407 561.115C312.194 561.257 311.946 561.292 311.769 561.292C311.415 561.292 311.274 561.08 311.274 560.726V559.204H312.477V558.531ZM318.778 558.46C318.353 558.46 318.07 558.673 317.893 558.956V558.531H317.15V561.929H317.893V560.018C317.893 559.451 318.141 559.133 318.601 559.133C318.743 559.133 318.92 559.168 319.061 559.204L319.274 558.496C319.132 558.46 318.92 558.46 318.778 558.46ZM309.256 558.814C308.902 558.566 308.407 558.46 307.876 558.46C307.026 558.46 306.46 558.885 306.46 559.558C306.46 560.124 306.885 560.443 307.628 560.549L307.982 560.584C308.371 560.655 308.584 560.761 308.584 560.938C308.584 561.186 308.3 561.363 307.805 561.363C307.309 561.363 306.92 561.186 306.672 561.009L306.318 561.575C306.708 561.858 307.239 562 307.77 562C308.761 562 309.327 561.54 309.327 560.903C309.327 560.301 308.867 559.982 308.159 559.876L307.805 559.841C307.486 559.805 307.239 559.735 307.239 559.522C307.239 559.274 307.486 559.133 307.876 559.133C308.3 559.133 308.725 559.31 308.938 559.416L309.256 558.814ZM329.008 558.46C328.583 558.46 328.3 558.673 328.123 558.956V558.531H327.38V561.929H328.123V560.018C328.123 559.451 328.371 559.133 328.831 559.133C328.972 559.133 329.149 559.168 329.291 559.204L329.503 558.496C329.362 558.46 329.149 558.46 329.008 558.46ZM319.521 560.23C319.521 561.257 320.229 562 321.327 562C321.822 562 322.176 561.894 322.53 561.611L322.176 561.009C321.893 561.221 321.61 561.327 321.291 561.327C320.69 561.327 320.265 560.903 320.265 560.23C320.265 559.593 320.69 559.168 321.291 559.133C321.61 559.133 321.893 559.239 322.176 559.451L322.53 558.85C322.176 558.566 321.822 558.46 321.327 558.46C320.229 558.46 319.521 559.204 319.521 560.23ZM326.388 560.23V558.531H325.645V558.956C325.397 558.637 325.043 558.46 324.583 558.46C323.627 558.46 322.884 559.204 322.884 560.23C322.884 561.257 323.627 562 324.583 562C325.079 562 325.433 561.823 325.645 561.504V561.929H326.388V560.23ZM323.663 560.23C323.663 559.628 324.052 559.133 324.689 559.133C325.291 559.133 325.716 559.593 325.716 560.23C325.716 560.832 325.291 561.327 324.689 561.327C324.052 561.292 323.663 560.832 323.663 560.23ZM314.778 558.46C313.787 558.46 313.079 559.168 313.079 560.23C313.079 561.292 313.787 562 314.814 562C315.309 562 315.805 561.858 316.194 561.54L315.84 561.009C315.557 561.221 315.203 561.363 314.849 561.363C314.389 561.363 313.929 561.151 313.822 560.549H316.336C316.336 560.443 316.336 560.372 316.336 560.266C316.371 559.168 315.734 558.46 314.778 558.46ZM314.778 559.097C315.238 559.097 315.557 559.381 315.628 559.912H313.858C313.929 559.451 314.247 559.097 314.778 559.097ZM333.22 560.23V557.186H332.477V558.956C332.229 558.637 331.875 558.46 331.415 558.46C330.459 558.46 329.716 559.204 329.716 560.23C329.716 561.257 330.459 562 331.415 562C331.91 562 332.264 561.823 332.477 561.504V561.929H333.22V560.23ZM330.495 560.23C330.495 559.628 330.884 559.133 331.521 559.133C332.123 559.133 332.548 559.593 332.548 560.23C332.548 560.832 332.123 561.327 331.521 561.327C330.884 561.292 330.495 560.832 330.495 560.23ZM305.646 560.23V558.531H304.902V558.956C304.655 558.637 304.301 558.46 303.84 558.46C302.885 558.46 302.141 559.204 302.141 560.23C302.141 561.257 302.885 562 303.84 562C304.336 562 304.69 561.823 304.902 561.504V561.929H305.646V560.23ZM302.885 560.23C302.885 559.628 303.274 559.133 303.911 559.133C304.513 559.133 304.938 559.593 304.938 560.23C304.938 560.832 304.513 561.327 303.911 561.327C303.274 561.292 302.885 560.832 302.885 560.23ZM313.468 553.115C313.575 553.186 313.681 553.292 313.787 553.363C311.769 554.708 309.327 555.487 306.743 555.487C299.699 555.487 294 549.788 294 542.743C294 535.699 299.699 530 306.743 530C309.362 530 311.769 530.779 313.787 532.124C313.681 532.195 313.575 532.301 313.468 532.372C310.46 534.991 308.761 538.743 308.761 542.743C308.761 546.743 310.46 550.496 313.468 553.115ZM322.459 530C319.84 530 317.433 530.779 315.415 532.124C315.522 532.195 315.628 532.301 315.734 532.372C318.743 534.991 320.442 538.743 320.442 542.743C320.442 546.708 318.707 550.496 315.734 553.115C315.628 553.186 315.522 553.292 315.415 553.363C317.433 554.708 319.875 555.487 322.459 555.487C329.503 555.487 335.202 549.788 335.202 542.743C335.202 535.735 329.503 530 322.459 530ZM314.601 532.761C314.424 532.903 314.283 533.009 314.106 533.151C311.415 535.487 309.716 538.92 309.716 542.779C309.716 546.602 311.415 550.071 314.106 552.407C314.247 552.549 314.424 552.69 314.601 552.797C314.778 552.655 314.92 552.549 315.097 552.407C317.787 550.071 319.486 546.637 319.486 542.779C319.486 538.956 317.787 535.487 315.097 533.151C314.92 533.009 314.778 532.867 314.601 532.761Z" fill="#077453"/>
<rect y="525" width="96" height="64" rx="16" fill="#BFFFC8"/>
<g clip-path="url(#clip0_926_35799)">
<mask id="mask0_926_35799" style="mask-type:luminance" maskUnits="userSpaceOnUse" x="16" y="547" width="64" height="21">
<path d="M47.6886 547.363L43.4121 567.036H38.2401L42.518 547.363H47.6886ZM69.4462 560.066L72.1686 552.679L73.7357 560.066H69.4462ZM75.2169 567.036H80L75.8249 547.363H71.411C70.4181 547.363 69.581 547.931 69.2095 548.806L61.4498 567.036H66.8788L67.9576 564.097H74.592L75.2169 567.036ZM61.7185 560.613C61.7416 555.421 54.4231 555.134 54.4735 552.815C54.4895 552.109 55.1721 551.359 56.667 551.167C57.4068 551.072 59.4504 550.998 61.7653 552.047L62.6741 547.876C61.4287 547.431 59.8284 547.003 57.8356 547.003C52.7244 547.003 49.1262 549.678 49.0975 553.506C49.0634 556.34 51.6652 557.919 53.6255 558.861C55.6394 559.825 56.315 560.443 56.3076 561.305C56.2924 562.626 54.7004 563.208 53.2121 563.231C50.6121 563.271 49.1031 562.539 47.9007 561.988L46.9644 566.299C48.1716 566.845 50.4021 567.321 52.7153 567.344C58.1484 567.344 61.7016 564.704 61.7185 560.613ZM40.299 547.363L31.92 567.036H26.4537L22.3303 551.336C22.0799 550.369 21.8628 550.014 21.1017 549.608C19.8587 548.943 17.8059 548.32 16 547.934L16.1219 547.363H24.922C26.0429 547.363 27.0521 548.097 27.3067 549.369L29.4845 560.753L34.8669 547.363H40.299Z" fill="white"/>
</mask>
<g mask="url(#mask0_926_35799)">
<path d="M47.6886 547.363L43.4121 567.036H38.2401L42.518 547.363H47.6886ZM69.4462 560.066L72.1686 552.679L73.7357 560.066H69.4462ZM75.2169 567.036H80L75.8249 547.363H71.411C70.4181 547.363 69.581 547.931 69.2095 548.806L61.4498 567.036H66.8788L67.9576 564.097H74.592L75.2169 567.036ZM61.7185 560.613C61.7416 555.421 54.4231 555.134 54.4735 552.815C54.4895 552.109 55.1721 551.359 56.667 551.167C57.4068 551.072 59.4504 550.998 61.7653 552.047L62.6741 547.876C61.4287 547.431 59.8284 547.003 57.8356 547.003C52.7244 547.003 49.1262 549.678 49.0975 553.506C49.0634 556.34 51.6652 557.919 53.6255 558.861C55.6394 559.825 56.315 560.443 56.3076 561.305C56.2924 562.626 54.7004 563.208 53.2121 563.231C50.6121 563.271 49.1031 562.539 47.9007 561.988L46.9644 566.299C48.1716 566.845 50.4021 567.321 52.7153 567.344C58.1484 567.344 61.7016 564.704 61.7185 560.613ZM40.299 547.363L31.92 567.036H26.4537L22.3303 551.336C22.0799 550.369 21.8628 550.014 21.1017 549.608C19.8587 548.943 17.8059 548.32 16 547.934L16.1219 547.363H24.922C26.0429 547.363 27.0521 548.097 27.3067 549.369L29.4845 560.753L34.8669 547.363H40.299Z" fill="#077453"/>
</g>
</g>
<rect x="124" y="486" width="95" height="64" rx="16" fill="#BFFFC8"/>
<path d="M140.51 525.902H140.985L140.544 527.712C140.478 527.98 140.491 528.182 140.581 528.317C140.671 528.452 140.839 528.519 141.085 528.519C141.328 528.519 141.528 528.452 141.685 528.317C141.841 528.182 141.952 527.98 142.017 527.712L142.458 525.902H142.94L142.487 527.756C142.389 528.159 142.214 528.461 141.963 528.661C141.713 528.861 141.384 528.961 140.977 528.961C140.57 528.961 140.291 528.861 140.138 528.662C139.986 528.462 139.96 528.161 140.058 527.756L140.51 525.902Z" fill="#077453"/>
<path d="M142.877 528.883L143.632 525.786L145.068 527.607C145.106 527.658 145.145 527.713 145.183 527.772C145.221 527.83 145.26 527.896 145.301 527.969L145.804 525.904H146.249L145.494 528.999L144.029 527.145C143.989 527.095 143.953 527.042 143.919 526.986C143.884 526.931 143.853 526.872 143.825 526.811L143.319 528.883H142.877Z" fill="#077453"/>
<path d="M146.209 528.88L146.936 525.901H147.416L146.69 528.88H146.209Z" fill="#077453"/>
<path d="M147.385 528.881L148.111 525.901H149.762L149.662 526.312H148.492L148.311 527.055H149.481L149.377 527.48H148.207L147.866 528.881H147.385Z" fill="#077453"/>
<path d="M149.562 528.88L150.289 525.901H150.77L150.043 528.88H149.562Z" fill="#077453"/>
<path d="M150.73 528.881L151.457 525.901H153.108L153.008 526.312H151.838L151.655 527.059H152.826L152.722 527.484H151.552L151.317 528.447H152.487L152.381 528.881H150.73Z" fill="#077453"/>
<path d="M153.523 528.443H153.927C154.15 528.443 154.32 528.428 154.438 528.398C154.557 528.368 154.666 528.318 154.765 528.248C154.9 528.151 155.013 528.032 155.104 527.888C155.195 527.745 155.264 527.579 155.31 527.389C155.356 527.199 155.369 527.032 155.348 526.889C155.327 526.746 155.272 526.626 155.184 526.53C155.118 526.46 155.03 526.409 154.921 526.379C154.811 526.35 154.633 526.335 154.385 526.335H154.211H154.037L153.523 528.443ZM152.936 528.881L153.662 525.901H154.311C154.732 525.901 155.024 525.922 155.185 525.965C155.347 526.008 155.48 526.08 155.585 526.18C155.724 526.312 155.812 526.48 155.85 526.686C155.888 526.893 155.875 527.128 155.81 527.393C155.746 527.657 155.644 527.892 155.506 528.096C155.368 528.3 155.197 528.469 154.994 528.602C154.84 528.702 154.675 528.774 154.5 528.816C154.324 528.859 154.062 528.881 153.713 528.881H153.584H152.936Z" fill="#077453"/>
<path d="M158.156 527.147H158.279C158.546 527.147 158.731 527.117 158.834 527.059C158.937 527.001 159.007 526.898 159.043 526.75C159.081 526.591 159.061 526.479 158.982 526.414C158.903 526.349 158.736 526.316 158.482 526.316H158.358L158.156 527.147ZM158.029 527.543L157.703 528.88H157.252L157.979 525.901H158.706C158.922 525.901 159.078 525.913 159.174 525.937C159.269 525.96 159.348 525.999 159.411 526.054C159.487 526.123 159.536 526.216 159.56 526.333C159.584 526.451 159.579 526.58 159.545 526.721C159.51 526.862 159.452 526.992 159.371 527.112C159.289 527.231 159.193 527.325 159.084 527.393C158.995 527.447 158.897 527.486 158.79 527.509C158.682 527.532 158.521 527.543 158.306 527.543H158.211H158.029Z" fill="#077453"/>
<path d="M160.142 527.711H160.966L160.829 527.031C160.822 526.987 160.816 526.938 160.811 526.881C160.806 526.825 160.802 526.762 160.8 526.693C160.768 526.758 160.736 526.819 160.704 526.875C160.672 526.931 160.641 526.983 160.611 527.031L160.142 527.711ZM161.186 528.881L161.038 528.113H159.866L159.335 528.881H158.83L161.018 525.783L161.694 528.881H161.186Z" fill="#077453"/>
<path d="M162.379 528.88L162.711 527.517L162.109 525.901H162.615L162.988 526.913C162.997 526.938 163.007 526.972 163.019 527.014C163.031 527.056 163.043 527.102 163.054 527.151C163.084 527.103 163.115 527.058 163.146 527.016C163.177 526.974 163.208 526.936 163.24 526.9L164.12 525.901H164.601L163.188 527.517L162.856 528.88H162.379Z" fill="#077453"/>
<path d="M166.967 527.41C166.967 527.387 166.974 527.323 166.987 527.219C166.998 527.132 167.006 527.06 167.011 527.003C166.983 527.071 166.949 527.139 166.91 527.206C166.871 527.274 166.827 527.343 166.776 527.414L165.615 529.002L165.236 527.382C165.22 527.315 165.207 527.251 165.199 527.188C165.191 527.126 165.185 527.064 165.182 527.003C165.166 527.065 165.145 527.131 165.12 527.199C165.094 527.268 165.063 527.34 165.028 527.414L164.352 528.881H163.91L165.367 525.776L165.781 527.656C165.787 527.686 165.796 527.736 165.807 527.805C165.817 527.874 165.83 527.96 165.844 528.061C165.893 527.976 165.964 527.867 166.057 527.736C166.082 527.7 166.1 527.673 166.113 527.654L167.424 525.776L167.382 528.881H166.935L166.967 527.41Z" fill="#077453"/>
<path d="M167.768 528.88L168.494 525.901H170.145L170.045 526.312H168.875L168.693 527.059H169.863L169.759 527.484H168.589L168.354 528.447H169.524L169.418 528.88H167.768Z" fill="#077453"/>
<path d="M169.971 528.883L170.726 525.786L172.161 527.607C172.2 527.658 172.239 527.713 172.277 527.772C172.315 527.83 172.354 527.896 172.394 527.969L172.898 525.904H173.343L172.588 528.999L171.122 527.145C171.083 527.095 171.047 527.042 171.012 526.986C170.978 526.931 170.947 526.872 170.918 526.811L170.413 528.883H169.971Z" fill="#077453"/>
<path d="M174.882 526.312L174.256 528.881H173.775L174.401 526.312H173.615L173.716 525.901H175.765L175.665 526.312H174.882Z" fill="#077453"/>
<path d="M175.377 528.285L175.805 528.106C175.809 528.239 175.851 528.341 175.931 528.411C176.011 528.481 176.126 528.515 176.277 528.515C176.42 528.515 176.543 528.475 176.647 528.395C176.751 528.315 176.819 528.208 176.852 528.074C176.894 527.899 176.788 527.743 176.533 527.606C176.498 527.585 176.47 527.57 176.451 527.561C176.164 527.401 175.982 527.256 175.905 527.126C175.829 526.997 175.813 526.838 175.858 526.651C175.918 526.408 176.048 526.212 176.248 526.061C176.448 525.91 176.681 525.835 176.947 525.835C177.165 525.835 177.337 525.877 177.463 525.962C177.59 526.047 177.662 526.169 177.679 526.328L177.256 526.523C177.219 526.429 177.171 526.361 177.111 526.317C177.051 526.274 176.975 526.252 176.883 526.252C176.754 526.252 176.643 526.286 176.55 526.354C176.458 526.422 176.398 526.513 176.37 526.627C176.326 526.806 176.452 526.973 176.749 527.127C176.772 527.139 176.789 527.149 176.802 527.156C177.062 527.291 177.23 527.424 177.308 527.554C177.385 527.684 177.4 527.845 177.353 528.039C177.284 528.322 177.141 528.546 176.924 528.712C176.707 528.878 176.448 528.961 176.148 528.961C175.896 528.961 175.704 528.903 175.571 528.786C175.439 528.669 175.374 528.503 175.377 528.285Z" fill="#077453"/>
<path d="M178.924 528.881L179.65 525.901H180.131L179.405 528.881H178.924Z" fill="#077453"/>
<path d="M180.105 528.883L180.861 525.786L182.296 527.607C182.335 527.659 182.373 527.714 182.412 527.772C182.45 527.83 182.489 527.896 182.529 527.969L183.033 525.904H183.477L182.723 528.999L181.257 527.145C181.218 527.095 181.181 527.042 181.147 526.986C181.113 526.931 181.082 526.872 181.053 526.811L180.548 528.883H180.105Z" fill="#077453"/>
<path d="M185.007 526.312L184.381 528.881H183.9L184.526 526.312H183.74L183.841 525.901H185.89L185.79 526.312H185.007Z" fill="#077453"/>
<path d="M185.527 528.88L186.254 525.901H187.905L187.805 526.312H186.635L186.452 527.059H187.623L187.519 527.484H186.349L186.114 528.447H187.284L187.178 528.88H185.527Z" fill="#077453"/>
<path d="M188.628 527.171H188.715C188.97 527.171 189.146 527.141 189.244 527.081C189.342 527.022 189.41 526.916 189.447 526.764C189.487 526.6 189.471 526.484 189.397 526.417C189.324 526.35 189.166 526.316 188.924 526.316H188.837L188.628 527.171ZM188.506 527.547L188.181 528.88H187.73L188.457 525.901H189.128C189.325 525.901 189.474 525.914 189.576 525.94C189.678 525.966 189.761 526.008 189.823 526.068C189.897 526.14 189.945 526.233 189.967 526.347C189.989 526.461 189.983 526.586 189.951 526.721C189.892 526.96 189.79 527.147 189.642 527.282C189.495 527.417 189.306 527.498 189.075 527.525L189.764 528.88H189.22L188.561 527.547H188.506Z" fill="#077453"/>
<path d="M190.051 528.88L190.777 525.901H192.428L192.328 526.312H191.158L190.977 527.055H192.147L192.043 527.48H190.873L190.532 528.88H190.051Z" fill="#077453"/>
<path d="M192.988 527.71H193.812L193.675 527.031C193.668 526.987 193.662 526.937 193.657 526.881C193.652 526.825 193.648 526.762 193.646 526.693C193.614 526.758 193.582 526.819 193.55 526.875C193.518 526.931 193.487 526.983 193.456 527.031L192.988 527.71ZM194.032 528.88L193.884 528.113H192.711L192.181 528.88H191.676L193.864 525.783L194.539 528.88H194.032Z" fill="#077453"/>
<path d="M197.667 526.627C197.559 526.51 197.437 526.423 197.299 526.364C197.162 526.306 197.01 526.277 196.843 526.277C196.519 526.277 196.231 526.381 195.977 526.59C195.723 526.799 195.556 527.07 195.475 527.402C195.397 527.724 195.431 527.989 195.577 528.198C195.723 528.407 195.947 528.511 196.247 528.511C196.423 528.511 196.597 528.48 196.77 528.418C196.944 528.355 197.119 528.261 197.295 528.135L197.161 528.682C197.009 528.776 196.851 528.846 196.688 528.892C196.524 528.938 196.354 528.961 196.176 528.961C195.95 528.961 195.75 528.924 195.576 528.849C195.402 528.774 195.26 528.665 195.15 528.519C195.041 528.377 194.97 528.209 194.94 528.016C194.91 527.822 194.921 527.616 194.975 527.398C195.028 527.18 195.117 526.974 195.241 526.782C195.365 526.59 195.519 526.422 195.701 526.277C195.884 526.13 196.079 526.019 196.287 525.944C196.495 525.869 196.71 525.831 196.931 525.831C197.105 525.831 197.265 525.857 197.41 525.908C197.555 525.958 197.689 526.035 197.812 526.139L197.667 526.627Z" fill="#077453"/>
<path d="M197.709 528.881L198.436 525.901H200.087L199.986 526.312H198.816L198.634 527.059H199.804L199.701 527.484H198.53L198.296 528.447H199.466L199.36 528.881H197.709Z" fill="#077453"/>
<path d="M188.943 523.307H185.637L190.235 507.007H193.541L188.943 523.307Z" fill="#077453"/>
<path d="M187.224 507.52C186.995 507.21 186.642 507.054 186.161 507.054H167.982L167.082 510.246H170.389V510.244H183.62L182.657 513.656H169.427L169.428 513.649H166.121L163.377 523.374H166.685L168.527 516.846H183.399C183.864 516.846 184.301 516.691 184.712 516.38C185.122 516.068 185.392 515.685 185.522 515.226L187.363 508.698C187.498 508.224 187.451 507.831 187.224 507.52Z" fill="#077453"/>
<path d="M161.457 522.288C161.274 522.934 160.676 523.38 159.993 523.38H142.936C142.471 523.38 142.125 523.225 141.898 522.914C141.671 522.603 141.623 522.218 141.752 521.76L145.914 507.054H149.224L145.506 520.189H158.743L162.46 507.054H165.769L161.457 522.288Z" fill="#077453"/>
<path d="M199.256 507.038L203.442 515.209L194.643 523.377L199.256 507.038Z" fill="#077453"/>
<path d="M196.317 507.038L200.5 515.209L191.697 523.377L196.317 507.038Z" fill="#077453"/>
<rect x="382" y="525" width="99" height="64" rx="16" fill="#BFFFC8"/>
<path d="M413.294 554.742H408.787C408.787 554.002 408.7 553.506 408.527 553.253C408.259 552.88 407.519 552.692 406.307 552.692C405.131 552.692 404.351 552.8 403.97 553.016C403.59 553.232 403.399 553.702 403.399 554.426C403.399 555.081 403.568 555.513 403.906 555.72C404.148 555.867 404.468 555.953 404.867 555.978L405.776 556.043C407.724 556.172 408.94 556.263 409.425 556.315C410.966 556.47 412.082 556.88 412.775 557.543C413.32 558.061 413.646 558.739 413.749 559.574C413.81 560.074 413.84 560.64 413.84 561.269C413.84 562.718 413.702 563.779 413.425 564.452C412.923 565.686 411.796 566.465 410.042 566.793C409.307 566.931 408.183 567 406.671 567C404.147 567 402.389 566.85 401.395 566.548C400.177 566.178 399.373 565.429 398.984 564.3C398.767 563.672 398.66 562.626 398.66 561.161H403.167C403.167 561.324 403.167 561.449 403.167 561.535C403.167 562.317 403.392 562.819 403.84 563.043C404.151 563.198 404.526 563.279 404.967 563.289H406.624C407.469 563.289 408.009 563.245 408.242 563.158C408.656 562.995 408.928 562.733 409.058 562.37C409.127 562.147 409.161 561.858 409.161 561.504C409.161 560.711 408.872 560.229 408.294 560.056C408.078 559.988 407.073 559.893 405.28 559.772C403.839 559.669 402.839 559.57 402.278 559.474C400.803 559.198 399.82 558.631 399.329 557.769C398.898 557.037 398.682 555.929 398.682 554.447C398.682 553.319 398.799 552.414 399.032 551.733C399.265 551.052 399.641 550.535 400.159 550.182C400.919 549.639 401.891 549.32 403.074 549.225C404.059 549.139 405.151 549.095 406.353 549.095C408.244 549.095 409.592 549.204 410.396 549.42C412.357 549.947 413.337 551.423 413.337 553.848C413.337 554.047 413.323 554.344 413.294 554.742Z" fill="#077453"/>
<path d="M433.107 567V549H440.168H441.276H442.133C443.371 549 444.315 549.101 444.964 549.303C446.449 549.768 447.444 550.721 447.955 552.159C448.218 552.915 448.35 554.052 448.35 555.571C448.35 557.397 448.204 558.709 447.915 559.508C447.336 561.087 446.144 561.998 444.345 562.233C444.133 562.269 443.233 562.3 441.644 562.326L440.84 562.352H437.952V567H433.107ZM437.952 558.177H440.971C441.929 558.143 442.511 558.069 442.721 557.954C443.007 557.796 443.2 557.481 443.295 557.008C443.356 556.694 443.387 556.226 443.387 555.604C443.387 554.843 443.326 554.279 443.204 553.91C443.03 553.394 442.613 553.08 441.952 552.965C441.821 552.948 441.508 552.939 441.012 552.939H437.952V558.177Z" fill="#077453"/>
<path d="M458.699 563.889H452.222L451.352 567H446.34L451.748 549H459.055L464.53 567H459.623L458.699 563.889ZM457.737 560.382L455.467 552.58L453.265 560.382H457.737Z" fill="#077453"/>
<path d="M426.43 551.531C428.427 551.531 430.211 552.451 431.383 553.893L432.427 551.654C430.794 550.11 428.571 549.158 426.12 549.158C422.303 549.158 419.038 551.464 417.698 554.728H415.661L414.459 557.305H417.078C417.059 557.544 417.046 557.783 417.046 558.028C417.046 558.323 417.061 558.615 417.09 558.903H415.774L414.572 561.482H417.76C419.138 564.663 422.363 566.896 426.12 566.896C428.014 566.896 429.77 566.328 431.225 565.359V562.199C430.054 563.533 428.34 564.376 426.43 564.376C424.197 564.376 422.233 563.225 421.089 561.482H427.764L428.967 558.903H420.107C420.061 558.593 420.036 558.276 420.036 557.953C420.036 557.734 420.048 557.518 420.069 557.305H429.712L430.914 554.728H420.902C422.01 552.817 424.07 551.531 426.43 551.531Z" fill="#077453"/>
<path d="M426.43 551.61C428.334 551.61 430.117 552.461 431.323 553.944L431.401 554.04L431.454 553.928L432.498 551.689L432.521 551.638L432.481 551.599C430.764 549.977 428.505 549.083 426.12 549.083C424.257 549.083 422.465 549.627 420.937 550.657C419.444 551.663 418.299 553.061 417.627 554.7L417.698 554.652H415.662H415.612L415.591 554.696L414.389 557.274L414.338 557.385H414.459H417.079L417.001 557.301C416.98 557.568 416.969 557.806 416.969 558.03C416.969 558.319 416.984 558.617 417.013 558.913L417.091 558.828H415.774H415.725L415.705 558.873L414.502 561.451L414.451 561.561H414.572H417.76L417.689 561.514C419.126 564.831 422.436 566.975 426.12 566.975C427.967 566.975 429.747 566.44 431.268 565.426L431.302 565.403V565.361V562.201V561.996L431.167 562.15C429.967 563.517 428.24 564.3 426.43 564.3C424.3 564.3 422.328 563.231 421.153 561.441L421.089 561.561H427.764H427.814L427.835 561.517L429.037 558.938L429.088 558.828H428.967H420.107L420.184 558.894C420.138 558.582 420.114 558.266 420.114 557.955C420.114 557.743 420.125 557.528 420.146 557.315L420.069 557.385H429.712H429.762L429.782 557.34L430.984 554.762L431.036 554.652H430.914H420.903L420.969 554.768C422.098 552.82 424.191 551.61 426.43 551.61ZM420.903 554.807H430.914L430.844 554.696L429.642 557.274L429.712 557.23H420.069H419.999L419.992 557.3C419.97 557.517 419.959 557.738 419.959 557.955C419.959 558.274 419.983 558.598 420.03 558.917L420.04 558.983H420.107H428.967L428.897 558.873L427.695 561.451L427.764 561.406H421.089H420.945L421.024 561.525C422.227 563.36 424.248 564.454 426.43 564.454C428.285 564.454 430.054 563.652 431.284 562.252L431.148 562.201V565.361L431.182 565.297C429.686 566.294 427.936 566.82 426.12 566.82C422.497 566.82 419.244 564.713 417.832 561.453L417.811 561.406H417.76H414.572L414.643 561.517L415.845 558.938L415.774 558.983H417.091H417.176L417.168 558.898C417.139 558.606 417.123 558.314 417.123 558.03C417.123 557.811 417.134 557.577 417.156 557.313L417.163 557.23H417.079H414.459L414.529 557.34L415.731 554.762L415.662 554.807H417.698H417.75L417.769 554.759C418.431 553.148 419.556 551.774 421.023 550.785C422.526 549.774 424.289 549.238 426.12 549.238C428.466 549.238 430.686 550.116 432.374 551.712L432.357 551.623L431.314 553.862L431.443 553.846C430.207 552.327 428.381 551.455 426.43 551.455C424.135 551.455 421.992 552.695 420.835 554.69L420.768 554.807H420.903Z" fill="#077453"/>
<rect x="135" y="598" width="96" height="64" rx="16" fill="#BFFFC8"/>
<g clip-path="url(#clip1_926_35799)">
<path d="M177.334 640.178V627.171C177.334 624.777 179.274 622.837 181.668 622.837L185.508 622.843C187.894 622.847 189.827 624.783 189.827 627.17V629.939C189.827 632.332 187.886 634.272 185.493 634.272H180.066" stroke="#077453" stroke-width="0.801165" stroke-miterlimit="10" stroke-linecap="round" stroke-linejoin="round"/>
<path d="M190.902 622.834H192.568C193.551 622.834 194.347 623.63 194.347 624.612V634.329" stroke="#077453" stroke-width="0.801165" stroke-miterlimit="10" stroke-linecap="round" stroke-linejoin="round"/>
<path d="M193.984 621.33L193.229 620.575C193.041 620.387 193.041 620.083 193.229 619.896L193.984 619.141C194.171 618.953 194.476 618.953 194.663 619.141L195.418 619.896C195.606 620.083 195.606 620.387 195.418 620.575L194.663 621.33C194.475 621.518 194.172 621.518 193.984 621.33Z" fill="#077453"/>
<path d="M197.537 622.826H199.189C200.039 622.826 200.854 623.164 201.455 623.765L205.32 627.629C205.82 628.13 206.632 628.13 207.132 627.629L210.983 623.779C211.584 623.178 212.399 622.84 213.249 622.84H214.592" stroke="#077453" stroke-width="0.801165" stroke-miterlimit="10" stroke-linecap="round" stroke-linejoin="round"/>
<path d="M197.537 634.247H199.189C200.039 634.247 200.854 633.909 201.455 633.308L205.32 629.444C205.82 628.943 206.632 628.943 207.132 629.444L210.983 633.294C211.584 633.895 212.399 634.233 213.249 634.233H214.592" stroke="#077453" stroke-width="0.801165" stroke-miterlimit="10" stroke-linecap="round" stroke-linejoin="round"/>
<path d="M167.479 636.715C166.65 636.715 165.87 636.392 165.284 635.806L162.114 632.636C161.891 632.413 161.504 632.413 161.281 632.636L158.099 635.818C157.513 636.404 156.733 636.726 155.904 636.726H155.279L159.294 640.741C160.548 641.995 162.581 641.995 163.835 640.741L167.861 636.715H167.479Z" fill="#077453"/>
<path d="M155.904 625.501C156.733 625.501 157.513 625.824 158.099 626.41L161.281 629.592C161.51 629.821 161.884 629.822 162.114 629.592L165.284 626.422C165.87 625.836 166.65 625.513 167.479 625.513H167.861L163.835 621.486C162.581 620.232 160.548 620.232 159.294 621.486L155.279 625.501L155.904 625.501Z" fill="#077453"/>
<path d="M171.195 628.843L168.761 626.41C168.708 626.432 168.65 626.445 168.589 626.445H167.482C166.91 626.445 166.351 626.677 165.946 627.081L162.777 630.251C162.48 630.548 162.09 630.696 161.701 630.696C161.311 630.696 160.921 630.548 160.625 630.252L157.443 627.07C157.039 626.665 156.479 626.433 155.907 626.433H154.547C154.489 626.433 154.434 626.42 154.383 626.4L151.94 628.843C150.687 630.097 150.687 632.13 151.94 633.384L154.383 635.827C154.434 635.807 154.489 635.794 154.547 635.794H155.907C156.479 635.794 157.039 635.562 157.443 635.157L160.624 631.976C161.2 631.401 162.202 631.401 162.777 631.976L165.946 635.146C166.351 635.55 166.91 635.782 167.482 635.782H168.589C168.65 635.782 168.708 635.796 168.761 635.817L171.195 633.384C172.448 632.13 172.448 630.097 171.195 628.843Z" fill="#077453"/>
<path d="M180.636 639.073C180.456 639.073 180.247 639.116 180.04 639.163V639.956C180.184 640.008 180.347 640.034 180.504 640.034C180.901 640.034 181.09 639.899 181.09 639.549C181.09 639.22 180.935 639.073 180.636 639.073ZM179.906 640.545V638.977H180.015L180.027 639.045C180.211 639.002 180.465 638.945 180.647 638.945C180.795 638.945 180.935 638.968 181.053 639.063C181.19 639.175 181.233 639.354 181.233 639.549C181.233 639.754 181.165 639.947 180.979 640.054C180.849 640.127 180.674 640.156 180.517 640.156C180.356 640.156 180.202 640.131 180.04 640.083V640.545H179.906Z" fill="#077453"/>
<path d="M182.228 639.068C181.83 639.068 181.653 639.193 181.653 639.543C181.653 639.881 181.828 640.034 182.228 640.034C182.623 640.034 182.8 639.911 182.8 639.561C182.8 639.222 182.625 639.068 182.228 639.068ZM182.739 640.034C182.607 640.129 182.43 640.156 182.228 640.156C182.021 640.156 181.844 640.127 181.714 640.034C181.569 639.931 181.51 639.763 181.51 639.552C181.51 639.343 181.569 639.173 181.714 639.068C181.844 638.975 182.021 638.945 182.228 638.945C182.432 638.945 182.607 638.975 182.739 639.068C182.887 639.173 182.943 639.343 182.943 639.549C182.943 639.761 182.884 639.931 182.739 640.034Z" fill="#077453"/>
<path d="M184.624 640.124L184.181 639.172H184.172L183.736 640.124H183.615L183.143 638.977H183.29L183.683 639.94H183.692L184.119 638.977H184.242L184.681 639.94H184.69L185.074 638.977H185.217L184.744 640.124H184.624Z" fill="#077453"/>
<path d="M186.073 639.066C185.705 639.066 185.58 639.229 185.557 639.466H186.589C186.578 639.204 186.443 639.066 186.073 639.066ZM186.069 640.156C185.848 640.156 185.705 640.124 185.592 640.029C185.458 639.913 185.412 639.745 185.412 639.552C185.412 639.368 185.474 639.173 185.626 639.061C185.753 638.973 185.91 638.945 186.073 638.945C186.221 638.945 186.391 638.961 186.532 639.057C186.698 639.168 186.73 639.363 186.73 639.586H185.553C185.557 639.822 185.635 640.031 186.08 640.031C186.291 640.031 186.489 639.997 186.673 639.965V640.086C186.482 640.12 186.271 640.156 186.069 640.156Z" fill="#077453"/>
<path d="M187.113 640.124V638.977H187.222L187.234 639.045C187.477 638.984 187.59 638.945 187.804 638.945H187.82V639.073H187.788C187.609 639.073 187.5 639.097 187.247 639.163V640.124H187.113Z" fill="#077453"/>
<path d="M188.603 639.066C188.235 639.066 188.11 639.229 188.087 639.466H189.118C189.107 639.204 188.973 639.066 188.603 639.066ZM188.598 640.156C188.378 640.156 188.235 640.124 188.121 640.029C187.987 639.913 187.941 639.745 187.941 639.552C187.941 639.368 188.003 639.173 188.155 639.061C188.282 638.973 188.439 638.945 188.603 638.945C188.75 638.945 188.921 638.961 189.061 639.057C189.227 639.168 189.259 639.363 189.259 639.586H188.082C188.087 639.822 188.164 640.031 188.609 640.031C188.821 640.031 189.018 639.997 189.202 639.965V640.086C189.011 640.12 188.8 640.156 188.598 640.156Z" fill="#077453"/>
<path d="M190.726 639.146C190.583 639.094 190.419 639.069 190.262 639.069C189.865 639.069 189.676 639.203 189.676 639.553C189.676 639.884 189.831 640.03 190.131 640.03C190.31 640.03 190.519 639.986 190.726 639.941V639.146ZM190.751 640.125L190.74 640.057C190.556 640.1 190.301 640.157 190.119 640.157C189.972 640.157 189.831 640.137 189.713 640.039C189.576 639.927 189.533 639.748 189.533 639.553C189.533 639.348 189.601 639.155 189.788 639.051C189.917 638.976 190.092 638.946 190.251 638.946C190.41 638.946 190.565 638.973 190.726 639.019V638.494H190.86V640.125H190.751Z" fill="#077453"/>
<path d="M192.823 639.073C192.644 639.073 192.435 639.117 192.228 639.164V639.955C192.373 640.009 192.535 640.034 192.691 640.034C193.089 640.034 193.277 639.9 193.277 639.55C193.277 639.221 193.123 639.073 192.823 639.073ZM193.166 640.055C193.037 640.127 192.862 640.157 192.705 640.157C192.535 640.157 192.364 640.127 192.192 640.071L192.185 640.125H192.094V638.494H192.228V639.041C192.412 639.001 192.659 638.946 192.834 638.946C192.982 638.946 193.123 638.969 193.241 639.064C193.377 639.176 193.421 639.355 193.421 639.55C193.421 639.755 193.352 639.948 193.166 640.055Z" fill="#077453"/>
<path d="M193.599 640.565V640.44C193.665 640.446 193.727 640.451 193.77 640.451C193.936 640.451 194.036 640.403 194.129 640.215L194.172 640.124L193.572 638.977H193.727L194.24 639.967H194.249L194.738 638.977H194.89L194.245 640.265C194.127 640.499 193.999 640.576 193.765 640.576C193.713 640.576 193.656 640.572 193.599 640.565Z" fill="#077453"/>
<path d="M196.738 639.47H196.293V639.872H196.74C197.047 639.872 197.163 639.838 197.163 639.67C197.163 639.491 197.004 639.47 196.738 639.47ZM196.656 638.818H196.293V639.227H196.659C196.961 639.227 197.081 639.191 197.081 639.02C197.081 638.839 196.929 638.818 196.656 638.818ZM197.347 640.016C197.183 640.12 196.986 640.124 196.625 640.124H195.945V638.568H196.609C196.92 638.568 197.111 638.573 197.27 638.668C197.383 638.737 197.429 638.841 197.429 638.977C197.429 639.141 197.361 639.25 197.183 639.323V639.332C197.383 639.377 197.513 639.479 197.513 639.7C197.513 639.85 197.458 639.947 197.347 640.016Z" fill="#077453"/>
<path d="M198.872 639.643C198.738 639.631 198.602 639.625 198.459 639.625C198.225 639.625 198.143 639.672 198.143 639.779C198.143 639.879 198.211 639.934 198.391 639.934C198.54 639.934 198.72 639.9 198.872 639.865V639.643ZM198.94 640.124L198.931 640.056C198.736 640.104 198.509 640.156 198.309 640.156C198.186 640.156 198.054 640.14 197.961 640.072C197.875 640.011 197.834 639.911 197.834 639.795C197.834 639.665 197.891 639.545 198.027 639.484C198.147 639.427 198.309 639.422 198.457 639.422C198.577 639.422 198.738 639.429 198.872 639.438V639.418C198.872 639.238 198.754 639.179 198.431 639.179C198.306 639.179 198.154 639.186 198.009 639.2V638.968C198.17 638.955 198.352 638.945 198.502 638.945C198.702 638.945 198.909 638.961 199.036 639.052C199.167 639.145 199.193 639.275 199.193 639.445V640.124L198.94 640.124Z" fill="#077453"/>
<path d="M200.689 640.124V639.49C200.689 639.282 200.583 639.207 200.392 639.207C200.251 639.207 200.074 639.243 199.924 639.279V640.124H199.604V638.977H199.865L199.876 639.05C200.078 638.998 200.303 638.945 200.49 638.945C200.63 638.945 200.773 638.966 200.882 639.063C200.973 639.145 201.007 639.259 201.007 639.422V640.124H200.689Z" fill="#077453"/>
<path d="M201.914 640.156C201.766 640.156 201.604 640.136 201.486 640.036C201.346 639.922 201.305 639.743 201.305 639.549C201.305 639.368 201.364 639.17 201.539 639.059C201.682 638.966 201.859 638.945 202.043 638.945C202.175 638.945 202.304 638.954 202.447 638.968V639.213C202.331 639.202 202.193 639.193 202.082 639.193C201.777 639.193 201.634 639.288 201.634 639.552C201.634 639.8 201.741 639.906 201.991 639.906C202.136 639.906 202.307 639.879 202.472 639.847V640.083C202.293 640.12 202.097 640.156 201.914 640.156Z" fill="#077453"/>
<path d="M203.418 639.186C203.114 639.186 202.98 639.281 202.98 639.543C202.98 639.804 203.112 639.915 203.418 639.915C203.72 639.915 203.852 639.822 203.852 639.561C203.852 639.3 203.723 639.186 203.418 639.186ZM203.968 640.036C203.827 640.131 203.643 640.156 203.418 640.156C203.189 640.156 203.005 640.129 202.866 640.036C202.707 639.931 202.65 639.759 202.65 639.552C202.65 639.345 202.707 639.17 202.866 639.066C203.005 638.973 203.189 638.945 203.418 638.945C203.646 638.945 203.827 638.973 203.968 639.066C204.127 639.17 204.182 639.345 204.182 639.549C204.182 639.756 204.125 639.931 203.968 640.036Z" fill="#077453"/>
<path d="M206.032 640.157C205.839 640.157 205.63 640.125 205.473 639.995C205.287 639.841 205.23 639.602 205.23 639.346C205.23 639.116 205.303 638.844 205.546 638.685C205.735 638.562 205.969 638.537 206.205 638.537C206.378 638.537 206.555 638.548 206.748 638.564V638.844C206.582 638.83 206.378 638.819 206.219 638.819C205.776 638.819 205.587 638.987 205.587 639.346C205.587 639.712 205.762 639.875 206.089 639.875C206.303 639.875 206.541 639.832 206.782 639.782V640.059C206.541 640.107 206.289 640.157 206.032 640.157Z" fill="#077453"/>
<path d="M207.722 639.15C207.456 639.15 207.354 639.245 207.333 639.42H208.106C208.097 639.234 207.988 639.15 207.722 639.15ZM207.674 640.156C207.486 640.156 207.315 640.134 207.188 640.029C207.052 639.915 207.004 639.745 207.004 639.549C207.004 639.375 207.061 639.179 207.22 639.066C207.361 638.966 207.54 638.945 207.722 638.945C207.885 638.945 208.079 638.963 208.219 639.061C208.403 639.191 208.419 639.391 208.421 639.627H207.331C207.338 639.802 207.431 639.915 207.754 639.915C207.953 639.915 208.176 639.886 208.365 639.856V640.081C208.144 640.118 207.904 640.156 207.674 640.156Z" fill="#077453"/>
<path d="M209.848 640.124V639.49C209.848 639.282 209.741 639.207 209.55 639.207C209.409 639.207 209.232 639.243 209.082 639.279V640.124H208.762V638.977H209.023L209.034 639.05C209.236 638.998 209.461 638.945 209.648 638.945C209.788 638.945 209.932 638.966 210.041 639.063C210.131 639.145 210.166 639.259 210.166 639.422V640.124H209.848Z" fill="#077453"/>
<path d="M211.077 640.158C210.923 640.158 210.782 640.115 210.705 639.995C210.648 639.913 210.62 639.802 210.62 639.647V639.218H210.389V638.979H210.62L210.655 638.632H210.938V638.979H211.39V639.218H210.938V639.586C210.938 639.675 210.945 639.75 210.97 639.804C211.004 639.881 211.079 639.911 211.179 639.911C211.254 639.911 211.345 639.899 211.409 639.888V640.118C211.304 640.138 211.184 640.158 211.077 640.158Z" fill="#077453"/>
<path d="M211.699 640.124V638.977H211.961L211.972 639.05C212.183 638.991 212.34 638.945 212.54 638.945C212.549 638.945 212.563 638.945 212.581 638.947V639.22C212.544 639.218 212.501 639.218 212.469 639.218C212.313 639.218 212.195 639.236 212.02 639.277V640.124L211.699 640.124Z" fill="#077453"/>
<path d="M213.749 639.643C213.615 639.631 213.479 639.625 213.336 639.625C213.102 639.625 213.02 639.672 213.02 639.779C213.02 639.879 213.088 639.934 213.267 639.934C213.418 639.934 213.597 639.9 213.749 639.865V639.643ZM213.817 640.124L213.808 640.056C213.613 640.104 213.386 640.156 213.186 640.156C213.063 640.156 212.931 640.14 212.838 640.072C212.752 640.011 212.711 639.911 212.711 639.795C212.711 639.665 212.768 639.545 212.904 639.484C213.025 639.427 213.186 639.422 213.333 639.422C213.454 639.422 213.615 639.429 213.749 639.438V639.418C213.749 639.238 213.631 639.179 213.308 639.179C213.184 639.179 213.031 639.186 212.886 639.2V638.968C213.047 638.955 213.229 638.945 213.379 638.945C213.579 638.945 213.786 638.961 213.913 639.052C214.044 639.145 214.07 639.275 214.07 639.445V640.124L213.817 640.124Z" fill="#077453"/>
<path d="M214.479 638.494H214.799V640.125H214.479V638.494Z" fill="#077453"/>
</g>
<path d="M247 194V185.781C247 174.735 238.046 165.781 227 165.781H86C74.9543 165.781 66 156.827 66 145.781V81" stroke="#077453" stroke-opacity="0.4" stroke-width="2" stroke-dasharray="2 4"/>
<path d="M429 80V115.106C429 126.152 420.046 135.106 409 135.106H265.894C255.459 135.106 247 143.565 247 154V154" stroke="#077453" stroke-opacity="0.4" stroke-width="2" stroke-dasharray="2 4"/>
<rect width="131" height="80" rx="16" fill="#BFFFC8"/>
<path d="M55.4622 32.2H58.8343L64.9423 49H61.8343L60.7543 46.024H53.5543L52.4743 49H49.3663L55.4622 32.2ZM54.6223 43.096H59.6743L57.1423 36.172L54.6223 43.096ZM69.9532 34.48V37H73.2292V39.928H69.9532V49H67.0252V39.928H65.7172V37H67.0252V34.48C67.0252 33.792 67.1932 33.164 67.5292 32.596C67.8732 32.02 68.3332 31.564 68.9092 31.228C69.4852 30.884 70.1212 30.712 70.8172 30.712C71.3212 30.712 71.8212 30.816 72.3172 31.024C72.8132 31.232 73.2532 31.552 73.6372 31.984L71.5252 34.048C71.4532 33.912 71.3492 33.812 71.2132 33.748C71.0852 33.676 70.9532 33.64 70.8172 33.64C70.5852 33.64 70.3812 33.724 70.2052 33.892C70.0372 34.052 69.9532 34.248 69.9532 34.48ZM75.4286 49L75.4166 37H78.3446L78.3566 38.068C78.7646 37.636 79.2526 37.296 79.8206 37.048C80.3886 36.792 81.0006 36.664 81.6566 36.664C82.0966 36.664 82.5366 36.728 82.9766 36.856L81.8246 39.808C81.5206 39.688 81.2166 39.628 80.9126 39.628C80.4406 39.628 80.0086 39.744 79.6166 39.976C79.2326 40.2 78.9246 40.508 78.6926 40.9C78.4686 41.284 78.3566 41.712 78.3566 42.184V49H75.4286ZM84.2759 37H87.2039V49H84.2759V37ZM85.7639 35.452C85.3319 35.452 84.9679 35.312 84.6719 35.032C84.3759 34.744 84.2279 34.384 84.2279 33.952C84.2279 33.528 84.3759 33.172 84.6719 32.884C84.9679 32.596 85.3279 32.452 85.7519 32.452C86.1759 32.452 86.5319 32.596 86.8199 32.884C87.1159 33.172 87.2639 33.528 87.2639 33.952C87.2639 34.384 87.1199 34.744 86.8319 35.032C86.5439 35.312 86.1879 35.452 85.7639 35.452ZM97.2472 45.388L99.8872 46.816C99.3352 47.568 98.6432 48.172 97.8112 48.628C96.9792 49.084 96.0712 49.312 95.0872 49.312C93.9832 49.312 92.9752 49.028 92.0632 48.46C91.1592 47.892 90.4352 47.132 89.8912 46.18C89.3552 45.22 89.0872 44.16 89.0872 43C89.0872 42.12 89.2432 41.3 89.5552 40.54C89.8672 39.772 90.2952 39.1 90.8392 38.524C91.3912 37.94 92.0312 37.484 92.7592 37.156C93.4872 36.828 94.2632 36.664 95.0872 36.664C96.0712 36.664 96.9792 36.892 97.8112 37.348C98.6432 37.804 99.3352 38.416 99.8872 39.184L97.2472 40.6C96.9672 40.28 96.6352 40.032 96.2512 39.856C95.8752 39.68 95.4872 39.592 95.0872 39.592C94.5112 39.592 93.9912 39.752 93.5272 40.072C93.0632 40.384 92.6952 40.8 92.4232 41.32C92.1512 41.832 92.0152 42.392 92.0152 43C92.0152 43.6 92.1512 44.16 92.4232 44.68C92.6952 45.192 93.0632 45.604 93.5272 45.916C93.9912 46.228 94.5112 46.384 95.0872 46.384C95.5032 46.384 95.8992 46.296 96.2752 46.12C96.6512 45.936 96.9752 45.692 97.2472 45.388ZM110.715 37H113.643V49H110.715L110.583 47.512C110.255 48.048 109.819 48.484 109.275 48.82C108.739 49.148 108.103 49.312 107.367 49.312C106.479 49.312 105.647 49.144 104.871 48.808C104.095 48.472 103.411 48.008 102.819 47.416C102.235 46.824 101.775 46.14 101.439 45.364C101.111 44.588 100.947 43.756 100.947 42.868C100.947 42.012 101.103 41.208 101.415 40.456C101.735 39.704 102.179 39.044 102.747 38.476C103.315 37.908 103.971 37.464 104.715 37.144C105.459 36.824 106.259 36.664 107.115 36.664C107.907 36.664 108.615 36.84 109.239 37.192C109.871 37.544 110.407 37.992 110.847 38.536L110.715 37ZM107.295 46.492C107.919 46.492 108.471 46.336 108.951 46.024C109.431 45.712 109.807 45.292 110.079 44.764C110.351 44.228 110.487 43.64 110.487 43C110.487 42.352 110.351 41.764 110.079 41.236C109.807 40.7 109.427 40.276 108.939 39.964C108.459 39.652 107.911 39.496 107.295 39.496C106.679 39.496 106.115 39.656 105.603 39.976C105.099 40.288 104.695 40.708 104.391 41.236C104.095 41.764 103.947 42.352 103.947 43C103.947 43.648 104.099 44.236 104.403 44.764C104.707 45.292 105.111 45.712 105.615 46.024C106.127 46.336 106.687 46.492 107.295 46.492Z" fill="#077453"/>
<rect x="370" width="111" height="80" rx="16" fill="#BFFFC8"/>
<rect x="176" y="20" width="143" height="80" rx="16" fill="#BFFFC8"/>
<path d="M225.448 69V52.2H228.376V66.072H235.372V69H225.448ZM243.087 52.2H246.459L252.567 69H249.459L248.379 66.024H241.179L240.099 69H236.991L243.087 52.2ZM242.247 63.096H247.299L244.767 56.172L242.247 63.096ZM265.379 52.2V55.128H260.243V69H257.315V55.128H252.179V52.2H265.379ZM271.095 52.2H274.467L280.575 69H277.467L276.387 66.024H269.187L268.107 69H264.999L271.095 52.2ZM270.255 63.096H275.307L272.775 56.172L270.255 63.096ZM282.003 69L285.267 52.2H287.691L291.783 62.964L295.875 52.2H298.299L301.563 69H298.575L296.559 58.608L292.779 68.616H290.775L286.995 58.608L284.991 69H282.003Z" fill="#077453"/>
<path d="M247 210V100" stroke="#077453" stroke-opacity="0.4" stroke-width="2" stroke-dasharray="2 4"/>
<rect x="165" y="210" width="164" height="164" rx="32" fill="#077453"/>
<rect opacity="0.4" x="173" y="218" width="148" height="148" rx="27" stroke="#BFFFC8" stroke-width="2" stroke-dasharray="2 4"/>
<circle cx="227.5" cy="254.5" r="1.5" fill="#BFFFC8"/>
<circle cx="236.5" cy="254.5" r="1.5" fill="#BFFFC8"/>
<circle cx="232" cy="254.5" r="1.5" fill="#BFFFC8"/>
<path d="M221 291C221 293.209 222.791 295 225 295H269C271.209 295 273 293.209 273 291V262H221V291Z" stroke="#BFFFC8" stroke-width="2"/>
<path d="M220 255C220 252.239 222.239 250 225 250H269C271.761 250 274 252.239 274 255V259H220V255Z" fill="#BFFFC8"/>
<circle cx="227.5" cy="254.5" r="1.5" fill="#077453"/>
<circle cx="236.5" cy="254.5" r="1.5" fill="#077453"/>
<circle cx="232" cy="254.5" r="1.5" fill="#077453"/>
<path d="M226.88 279.874V278.202L239.816 272.746V274.88L230.004 279.038L239.816 282.998V285.132L226.88 279.874ZM243.775 285H241.575L249.297 270.348H251.497L243.775 285ZM253.263 285.132V282.998L263.075 279.038L253.263 274.88V272.746L266.199 278.202V279.874L253.263 285.132Z" fill="#BFFFC8"/>
<path d="M231.408 318.6H235.904L244.048 341H239.904L238.464 337.032H228.864L227.424 341H223.28L231.408 318.6ZM230.288 333.128H237.024L233.648 323.896L230.288 333.128ZM246.733 341V318.6H254.733C255.949 318.6 257.047 318.904 258.029 319.512C259.021 320.12 259.805 320.936 260.381 321.96C260.957 322.984 261.245 324.109 261.245 325.336C261.245 326.595 260.946 327.736 260.349 328.76C259.762 329.773 258.973 330.584 257.981 331.192C256.989 331.789 255.906 332.088 254.733 332.088H250.637V341H246.733ZM250.637 328.184H254.317C254.871 328.184 255.378 328.045 255.837 327.768C256.295 327.491 256.658 327.117 256.925 326.648C257.202 326.179 257.341 325.656 257.341 325.08C257.341 324.493 257.202 323.965 256.925 323.496C256.658 323.027 256.295 322.653 255.837 322.376C255.378 322.099 254.871 321.96 254.317 321.96H250.637V328.184ZM264.65 341V318.6H268.554V341H264.65Z" fill="#BFFFC8"/>
<path d="M425.306 32.2H428.678L434.786 49H431.678L430.598 46.024H423.398L422.318 49H419.21L425.306 32.2ZM424.466 43.096H429.518L426.986 36.172L424.466 43.096ZM439.683 49.216C439.059 49.176 438.455 49.052 437.871 48.844C437.295 48.628 436.783 48.336 436.335 47.968C435.887 47.6 435.543 47.16 435.303 46.648L437.775 45.592C437.871 45.752 438.027 45.924 438.243 46.108C438.459 46.284 438.715 46.432 439.011 46.552C439.315 46.672 439.647 46.732 440.007 46.732C440.311 46.732 440.599 46.692 440.871 46.612C441.151 46.524 441.375 46.392 441.543 46.216C441.719 46.04 441.807 45.812 441.807 45.532C441.807 45.236 441.703 45.008 441.495 44.848C441.295 44.68 441.039 44.556 440.727 44.476C440.423 44.388 440.127 44.308 439.839 44.236C439.079 44.084 438.371 43.848 437.715 43.528C437.067 43.208 436.543 42.796 436.143 42.292C435.751 41.78 435.555 41.164 435.555 40.444C435.555 39.652 435.763 38.968 436.179 38.392C436.603 37.816 437.151 37.372 437.823 37.06C438.503 36.748 439.235 36.592 440.019 36.592C440.971 36.592 441.843 36.792 442.635 37.192C443.435 37.584 444.067 38.14 444.531 38.86L442.215 40.228C442.103 40.036 441.947 39.86 441.747 39.7C441.547 39.532 441.319 39.396 441.063 39.292C440.807 39.18 440.539 39.116 440.259 39.1C439.899 39.084 439.571 39.116 439.275 39.196C438.979 39.276 438.739 39.412 438.555 39.604C438.379 39.796 438.291 40.052 438.291 40.372C438.291 40.676 438.411 40.904 438.651 41.056C438.891 41.2 439.179 41.312 439.515 41.392C439.859 41.472 440.187 41.56 440.499 41.656C441.203 41.888 441.863 42.172 442.479 42.508C443.103 42.844 443.603 43.256 443.979 43.744C444.355 44.232 444.535 44.816 444.519 45.496C444.519 46.272 444.287 46.952 443.823 47.536C443.359 48.112 442.759 48.552 442.023 48.856C441.295 49.16 440.515 49.28 439.683 49.216ZM446.292 37H449.22V49H446.292V37ZM447.78 35.452C447.348 35.452 446.984 35.312 446.688 35.032C446.392 34.744 446.244 34.384 446.244 33.952C446.244 33.528 446.392 33.172 446.688 32.884C446.984 32.596 447.344 32.452 447.768 32.452C448.192 32.452 448.548 32.596 448.836 32.884C449.132 33.172 449.28 33.528 449.28 33.952C449.28 34.384 449.136 34.744 448.848 35.032C448.56 35.312 448.204 35.452 447.78 35.452ZM460.871 37H463.799V49H460.871L460.739 47.512C460.411 48.048 459.975 48.484 459.431 48.82C458.895 49.148 458.259 49.312 457.523 49.312C456.635 49.312 455.803 49.144 455.027 48.808C454.251 48.472 453.567 48.008 452.975 47.416C452.391 46.824 451.931 46.14 451.595 45.364C451.267 44.588 451.103 43.756 451.103 42.868C451.103 42.012 451.259 41.208 451.571 40.456C451.891 39.704 452.335 39.044 452.903 38.476C453.471 37.908 454.127 37.464 454.871 37.144C455.615 36.824 456.415 36.664 457.271 36.664C458.063 36.664 458.771 36.84 459.395 37.192C460.027 37.544 460.563 37.992 461.003 38.536L460.871 37ZM457.451 46.492C458.075 46.492 458.627 46.336 459.107 46.024C459.587 45.712 459.963 45.292 460.235 44.764C460.507 44.228 460.643 43.64 460.643 43C460.643 42.352 460.507 41.764 460.235 41.236C459.963 40.7 459.583 40.276 459.095 39.964C458.615 39.652 458.067 39.496 457.451 39.496C456.835 39.496 456.271 39.656 455.759 39.976C455.255 40.288 454.851 40.708 454.547 41.236C454.251 41.764 454.103 42.352 454.103 43C454.103 43.648 454.255 44.236 454.559 44.764C454.863 45.292 455.267 45.712 455.771 46.024C456.283 46.336 456.843 46.492 457.451 46.492Z" fill="#077453"/>
<circle cx="398" cy="41" r="11.5" stroke="#077453"/>
<mask id="mask1_926_35799" style="mask-type:alpha" maskUnits="userSpaceOnUse" x="386" y="29" width="24" height="24">
<circle cx="398" cy="41" r="12" fill="#077453"/>
</mask>
<g mask="url(#mask1_926_35799)">
<circle cx="398" cy="24.2949" r="11.5" stroke="#077453"/>
<path d="M398 52.625C394.272 52.625 391.25 47.4203 391.25 41C391.25 34.5797 394.272 29.375 398 29.375" stroke="#077453"/>
<path d="M398 52.625C401.728 52.625 404.75 47.4203 404.75 41C404.75 34.5797 401.728 29.375 398 29.375" stroke="#077453"/>
<path d="M398 29C398 48.2 398 53 398 53" stroke="#077453"/>
<path d="M386 41C405.2 41 410 41 410 41" stroke="#077453"/>
<circle cx="398" cy="57.7051" r="11.5" stroke="#077453"/>
</g>
<circle cx="204" cy="60" r="11.5" stroke="#077453"/>
<mask id="mask2_926_35799" style="mask-type:alpha" maskUnits="userSpaceOnUse" x="192" y="48" width="24" height="24">
<circle cx="204" cy="60" r="12" fill="#077453"/>
</mask>
<g mask="url(#mask2_926_35799)">
<circle cx="204" cy="43.2949" r="11.5" stroke="#077453"/>
<path d="M204 71.625C200.272 71.625 197.25 66.4203 197.25 60C197.25 53.5797 200.272 48.375 204 48.375" stroke="#077453"/>
<path d="M204 71.625C207.728 71.625 210.75 66.4203 210.75 60C210.75 53.5797 207.728 48.375 204 48.375" stroke="#077453"/>
<path d="M204 48C204 67.2 204 72 204 72" stroke="#077453"/>
<path d="M192 60C211.2 60 216 60 216 60" stroke="#077453"/>
<circle cx="204" cy="76.7051" r="11.5" stroke="#077453"/>
</g>
<circle cx="28" cy="40" r="11.5" stroke="#077453"/>
<mask id="mask3_926_35799" style="mask-type:alpha" maskUnits="userSpaceOnUse" x="16" y="28" width="24" height="24">
<circle cx="28" cy="40" r="12" fill="#077453"/>
</mask>
<g mask="url(#mask3_926_35799)">
<circle cx="28" cy="23.2949" r="11.5" stroke="#077453"/>
<path d="M28 51.625C24.2721 51.625 21.25 46.4203 21.25 40C21.25 33.5797 24.2721 28.375 28 28.375" stroke="#077453"/>
<path d="M28 51.625C31.7279 51.625 34.75 46.4203 34.75 40C34.75 33.5797 31.7279 28.375 28 28.375" stroke="#077453"/>
<path d="M28 28C28 47.2 28 52 28 52" stroke="#077453"/>
<path d="M16 40C35.2 40 40 40 40 40" stroke="#077453"/>
<circle cx="28" cy="56.7051" r="11.5" stroke="#077453"/>
</g>
<defs>
<clipPath id="clip0_926_35799">
<rect width="64" height="20.3411" fill="white" transform="translate(16 547)"/>
</clipPath>
<clipPath id="clip1_926_35799">
<rect width="64" height="22.6816" fill="white" transform="translate(151 619)"/>
</clipPath>
</defs>
</svg>
