<svg width="48" height="49" viewBox="0 0 48 49" fill="none" xmlns="http://www.w3.org/2000/svg">
<rect opacity="0.6" y="0.00219727" width="48" height="48" rx="16" fill="#BFFFC8"/>
<path fill-rule="evenodd" clip-rule="evenodd" d="M24 18.0022C24 16.4109 24.6321 14.8848 25.7574 13.7596C26.8826 12.6343 28.4087 12.0022 30 12.0022C31.5913 12.0022 33.1174 12.6343 34.2426 13.7596C35.3679 14.8848 36 16.4109 36 18.0022C36 19.5935 35.3679 21.1196 34.2426 22.2448C33.1174 23.3701 31.5913 24.0022 30 24.0022C28.4087 24.0022 26.8826 23.3701 25.7574 22.2448C24.6321 21.1196 24 19.5935 24 18.0022ZM30.375 14.8147C30.375 14.6655 30.3157 14.5224 30.2102 14.4169C30.1048 14.3115 29.9617 14.2522 29.8125 14.2522C29.6633 14.2522 29.5202 14.3115 29.4148 14.4169C29.3093 14.5224 29.25 14.6655 29.25 14.8147V18.0022C29.25 18.2152 29.37 18.4102 29.5612 18.5047L31.4362 19.4422C31.5026 19.4796 31.576 19.5031 31.6517 19.5114C31.7275 19.5196 31.8041 19.5123 31.877 19.49C31.9499 19.4677 32.0175 19.4308 32.0756 19.3816C32.1338 19.3324 32.1814 19.2719 32.2155 19.2037C32.2496 19.1355 32.2694 19.0611 32.2739 18.9851C32.2784 18.909 32.2673 18.8328 32.2414 18.7611C32.2156 18.6894 32.1754 18.6238 32.1234 18.5681C32.0713 18.5124 32.0085 18.4679 31.9388 18.4372L30.375 17.6534V14.8147Z" fill="#077453"/>
<path fill-rule="evenodd" clip-rule="evenodd" d="M13.6802 24.1944C13.6802 21.3944 15.9502 19.1245 18.7503 19.1245C21.5503 19.1245 23.8204 21.3944 23.8204 24.1944C23.8204 25.8694 23.0081 27.3546 21.7561 28.2777C23.8543 29.3211 25.3333 31.4229 25.4954 33.8852C25.5766 35.1183 24.5723 36.0243 23.4821 36.0243H14.0179C12.9277 36.0243 11.9234 35.1183 12.0046 33.8852C12.1667 31.4227 13.6459 29.3209 15.7443 28.2776C14.4923 27.3544 13.6802 25.8693 13.6802 24.1944Z" fill="#077453"/>
</svg>
