<svg width="48" height="48" viewBox="0 0 48 48" fill="none" xmlns="http://www.w3.org/2000/svg">
<rect opacity="0.6" width="48" height="48" rx="16" fill="#BFFFC8"/>
<path fill-rule="evenodd" clip-rule="evenodd" d="M23.7817 11.1269C23.925 11.0911 24.075 11.0911 24.2183 11.1269L33.8183 13.5269C34.2189 13.6271 34.5 13.9871 34.5 14.4V24C34.5 28.0018 31.8464 31.2303 29.3927 33.3774C28.1469 34.4674 26.9053 35.3205 25.977 35.9007C25.5119 36.1914 25.123 36.4151 24.8484 36.5671C24.711 36.6432 24.602 36.7014 24.5262 36.7412L24.482 36.7643L24.4378 36.7871L24.4133 36.7996L24.4061 36.8032L24.4031 36.8047L24 36L23.5969 36.8047L23.5939 36.8032L23.5867 36.7996L23.5622 36.7871L23.5195 36.7651L23.4738 36.7412C23.398 36.7014 23.289 36.6432 23.1516 36.5671C22.877 36.4151 22.4881 36.1914 22.023 35.9007C21.0947 35.3205 19.8531 34.4674 18.6073 33.3774C16.1536 31.2303 13.5 28.0018 13.5 24V14.4C13.5 13.9871 13.7811 13.6271 14.1817 13.5269L23.7817 11.1269ZM23.5969 36.8047C23.5972 36.8049 23.5975 36.805 24 36C24.4025 36.805 24.4028 36.8049 24.4031 36.8047C24.1497 36.9314 23.8503 36.9314 23.5969 36.8047ZM30.4025 22.15C30.4025 25.6847 27.5372 28.55 24.0025 28.55C20.4679 28.55 17.6025 25.6847 17.6025 22.15C17.6025 18.6154 20.4679 15.75 24.0025 15.75C27.5372 15.75 30.4025 18.6154 30.4025 22.15ZM20.9511 21.9754C20.6734 22.2531 20.6734 22.7034 20.9511 22.9811L22.6272 24.6572C22.7916 24.8216 23.0164 24.8887 23.2302 24.8584C23.3776 24.8377 23.5198 24.7706 23.6332 24.6572L26.9854 21.3049C27.2631 21.0272 27.2631 20.577 26.9854 20.2993C26.7077 20.0216 26.2575 20.0216 25.9797 20.2993L23.2978 22.9813C23.2052 23.0738 23.0551 23.0738 22.9626 22.9813L21.9567 21.9754C21.679 21.6977 21.2288 21.6977 20.9511 21.9754Z" fill="#077453"/>
</svg>
