<svg width="48" height="49" viewBox="0 0 48 49" fill="none" xmlns="http://www.w3.org/2000/svg">
<rect opacity="0.6" width="48" height="48.0022" rx="16" transform="matrix(1 0 0 -1 0 48.0044)" fill="#BFFFC8"/>
<path fill-rule="evenodd" clip-rule="evenodd" d="M28.1484 27.5022C32.4286 27.5022 35.8984 24.0324 35.8984 19.7522C35.8984 15.472 32.4286 12.0022 28.1484 12.0022C23.8682 12.0022 20.3984 15.472 20.3984 19.7522C20.3984 24.0324 23.8682 27.5022 28.1484 27.5022ZM24.9451 21.6466C25.0588 22.518 25.3619 23.1858 25.8545 23.6499C26.2807 24.0667 26.8396 24.3319 27.531 24.4456V25.2697H28.7814V24.474C29.4918 24.3793 30.0838 24.0999 30.5574 23.6357C30.8132 23.3894 31.0074 23.1053 31.14 22.7832C31.282 22.4517 31.3531 22.106 31.3531 21.746C31.3531 20.8367 31.0121 20.1642 30.3301 19.7284C29.9038 19.4727 29.3876 19.2927 28.7814 19.1885V16.3326C29.2171 16.4274 29.5486 16.6594 29.776 17.0288C29.9275 17.2657 30.027 17.5688 30.0743 17.9382H31.3105L31.3389 17.924C31.2631 17.1851 31.0263 16.56 30.6285 16.0485C30.1833 15.4991 29.5676 15.1676 28.7814 15.0539V14.2298H27.531V15.0539C26.9059 15.1391 26.3944 15.3807 25.9965 15.7785C25.7503 16.0248 25.5656 16.3184 25.4424 16.6594C25.3193 17.0004 25.2577 17.3651 25.2577 17.7535C25.2577 19.2027 26.0155 20.0647 27.531 20.3394V23.1384C27.2374 23.0721 26.9674 22.9348 26.7212 22.7264C26.4559 22.4706 26.2902 22.1107 26.2239 21.6466H24.9451ZM27.531 19.0322C27.1806 18.9564 26.9011 18.7859 26.6928 18.5207C26.4844 18.2555 26.3802 17.9619 26.3802 17.6398C26.3802 17.3367 26.4749 17.0667 26.6643 16.8299C26.8633 16.5837 27.1522 16.4226 27.531 16.3468V19.0322ZM28.7814 20.4957C29.3402 20.6094 29.7049 20.7656 29.8754 20.9646C30.0459 21.1919 30.1312 21.4382 30.1312 21.7034C30.1312 22.0349 30.0033 22.3428 29.7475 22.6269C29.5013 22.9111 29.1792 23.0958 28.7814 23.1811V20.4957Z" fill="#077453"/>
<path d="M26.8175 32.9745C27.7515 31.5767 28.25 29.9333 28.25 28.2522C28.25 25.9979 27.3545 23.8358 25.7604 22.2418C24.1664 20.6477 22.0043 19.7522 19.75 19.7522C18.0689 19.7522 16.4255 20.2507 15.0277 21.1847C13.6298 22.1187 12.5404 23.4462 11.897 24.9994C11.2537 26.5526 11.0854 28.2616 11.4133 29.9105C11.7413 31.5593 12.5508 33.0739 13.7396 34.2626C14.9283 35.4514 16.4429 36.2609 18.0917 36.5889C19.7406 36.9168 21.4496 36.7485 23.0028 36.1052C24.556 35.4618 25.8835 34.3724 26.8175 32.9745Z" fill="#077453" stroke="#D9FFDE" stroke-width="1.5"/>
<path fill-rule="evenodd" clip-rule="evenodd" d="M17.5082 24.0411L19.2893 24.5181L19.6874 23.0343L20.5779 23.276L20.1954 24.6984L20.9217 24.8936L21.305 23.4556L22.2111 23.698L21.8207 25.1437C21.8207 25.1437 23.3003 25.4713 23.6483 26.6747C23.9964 27.8781 22.8832 28.51 22.5394 28.534C22.5394 28.534 23.8357 29.2449 23.3905 30.6434C22.9452 32.0419 21.5784 32.292 20.1404 31.9715L19.7501 33.4707L18.844 33.2284L19.2421 31.7523L18.5235 31.5565L18.1254 33.0431L17.2264 32.8014L17.6252 31.3219L15.7969 30.8287L16.2576 29.8057C16.2576 29.8057 16.7734 29.9466 16.9685 29.9931C17.1637 30.0396 17.2891 29.8367 17.3441 29.6338C17.399 29.4309 18.2269 26.0681 18.3051 25.7912C18.3833 25.5143 18.3516 25.298 18.0232 25.2128C17.6949 25.1275 17.2482 24.9943 17.2482 24.9943L17.5082 24.0411ZM19.3048 28.4945L18.8116 30.4553C18.8116 30.4553 21.2571 31.3381 21.5699 30.096C21.8827 28.8538 19.3048 28.4945 19.3048 28.4945ZM19.5317 27.5645L20.0157 25.7679C20.0157 25.7679 22.1096 26.1428 21.8517 27.1425C21.5939 28.1423 20.3595 27.759 19.5317 27.5645Z" fill="#BFFFC8"/>
</svg>
