<svg width="16" height="17" viewBox="0 0 16 17" fill="none" xmlns="http://www.w3.org/2000/svg">
<path fill-rule="evenodd" clip-rule="evenodd" d="M0 8.11133C0 5.9896 0.842855 3.95476 2.34315 2.45447C3.84344 0.954183 5.87827 0.111328 8 0.111328C10.1217 0.111328 12.1566 0.954183 13.6569 2.45447C15.1571 3.95476 16 5.9896 16 8.11133C16 10.2331 15.1571 12.2679 13.6569 13.7682C12.1566 15.2685 10.1217 16.1113 8 16.1113C5.87827 16.1113 3.84344 15.2685 2.34315 13.7682C0.842855 12.2679 0 10.2331 0 8.11133ZM8.5 3.86133C8.5 3.66242 8.42098 3.47165 8.28033 3.331C8.13968 3.19035 7.94891 3.11133 7.75 3.11133C7.55109 3.11133 7.36032 3.19035 7.21967 3.331C7.07902 3.47165 7 3.66242 7 3.86133V8.11133C7 8.39533 7.16 8.65533 7.415 8.78133L9.915 10.0313C10.0035 10.0812 10.1013 10.1126 10.2023 10.1235C10.3033 10.1345 10.4055 10.1248 10.5027 10.0951C10.5998 10.0653 10.6899 10.0162 10.7675 9.95053C10.8451 9.88491 10.9085 9.80421 10.954 9.71332C10.9994 9.62244 11.0259 9.52326 11.0319 9.42182C11.0378 9.32038 11.0231 9.21879 10.9886 9.12322C10.9541 9.02764 10.9005 8.94008 10.8311 8.86583C10.7618 8.79159 10.678 8.73222 10.585 8.69133L8.5 7.64633V3.86133Z" fill="#517185"/>
</svg>
