<svg width="680" height="680" viewBox="0 0 680 680" fill="none" xmlns="http://www.w3.org/2000/svg">
<rect x="85.5098" y="252.455" width="166.946" height="166.946" rx="32.5748" transform="rotate(-90 85.5098 252.455)" fill="#BFFFC8"/>
<rect x="171.018" y="337.964" width="81.4371" height="81.4371" rx="8.14371" transform="rotate(-90 171.018 337.964)" fill="#819EB0" fill-opacity="0.8"/>
<path fill-rule="evenodd" clip-rule="evenodd" d="M202.688 337.964C202.688 320.473 188.508 306.294 171.018 306.294L171.018 288.197C198.503 288.197 220.785 310.478 220.785 337.964L202.688 337.964Z" fill="#BFFFC8"/>
<rect y="508.982" width="166.946" height="166.946" rx="32.5748" transform="rotate(-90 0 508.982)" fill="#BFFFC8"/>
<rect x="166.945" y="256.527" width="81.4371" height="81.4371" rx="8.14371" transform="rotate(90 166.945 256.527)" fill="#819EB0" fill-opacity="0.8"/>
<path fill-rule="evenodd" clip-rule="evenodd" d="M135.275 256.527C135.275 274.018 149.454 288.197 166.945 288.197L166.945 306.294C139.46 306.294 117.178 284.012 117.178 256.527L135.275 256.527Z" fill="#BFFFC8"/>
<rect width="81.4371" height="81.4371" rx="8.14371" transform="matrix(1.19249e-08 1 1 -1.19249e-08 171.018 427.545)" fill="#819EB0" fill-opacity="0.8"/>
<path fill-rule="evenodd" clip-rule="evenodd" d="M202.688 427.545C202.688 445.036 188.508 459.215 171.018 459.215L171.018 477.312C198.503 477.312 220.785 455.031 220.785 427.545L202.688 427.545Z" fill="#BFFFC8"/>
<rect x="427.545" y="252.455" width="81.4371" height="81.4371" rx="8.14371" transform="rotate(-90 427.545 252.455)" fill="#819EB0" fill-opacity="0.8"/>
<path fill-rule="evenodd" clip-rule="evenodd" d="M459.215 252.455C459.215 234.964 445.036 220.785 427.545 220.785L427.545 202.688C455.031 202.688 477.312 224.969 477.312 252.455L459.215 252.455Z" fill="#BFFFC8"/>
<rect x="337.965" y="508.982" width="81.4371" height="81.4371" rx="8.14371" transform="rotate(180 337.965 508.982)" fill="#819EB0" fill-opacity="0.8"/>
<path fill-rule="evenodd" clip-rule="evenodd" d="M337.965 477.312C320.474 477.312 306.295 491.491 306.295 508.982L288.198 508.982C288.198 481.496 310.479 459.215 337.965 459.215L337.965 477.312Z" fill="#BFFFC8"/>
<rect x="256.527" y="680" width="166.946" height="166.946" rx="32.5748" transform="rotate(-90 256.527 680)" fill="#BFFFC8"/>
<rect x="342.035" y="166.946" width="166.946" height="166.946" rx="32.5748" transform="rotate(-90 342.035 166.946)" fill="#BFFFC8"/>
<rect x="256.527" y="252.455" width="81.4371" height="81.4371" rx="8.14371" transform="rotate(-90 256.527 252.455)" fill="#819EB0" fill-opacity="0.8"/>
<rect x="427.545" y="256.527" width="81.4371" height="81.4371" rx="8.14371" fill="#819EB0" fill-opacity="0.8"/>
<path fill-rule="evenodd" clip-rule="evenodd" d="M427.545 288.197C445.036 288.197 459.215 274.018 459.215 256.527H477.312C477.312 284.012 455.031 306.294 427.545 306.294L427.545 288.197Z" fill="#BFFFC8"/>
<rect x="337.965" y="166.946" width="81.4371" height="81.4371" rx="8.14371" transform="rotate(180 337.965 166.946)" fill="#819EB0" fill-opacity="0.8"/>
<rect x="423.473" y="171.018" width="81.4371" height="81.4371" rx="8.14371" transform="rotate(90 423.473 171.018)" fill="#819EB0" fill-opacity="0.8"/>
<path fill-rule="evenodd" clip-rule="evenodd" d="M391.803 171.018C391.803 188.509 405.982 202.688 423.473 202.688L423.473 220.785C395.987 220.785 373.706 198.504 373.706 171.018L391.803 171.018Z" fill="#BFFFC8"/>
<rect x="342.035" y="427.545" width="81.4371" height="81.4371" rx="8.14371" fill="#819EB0" fill-opacity="0.8"/>
<path d="M373.705 427.545C373.705 445.036 359.526 459.215 342.035 459.215L342.035 477.312C358.867 477.312 373.747 468.956 382.754 456.166C391.76 468.956 406.641 477.312 423.472 477.312L423.472 459.215C405.981 459.215 391.802 445.036 391.802 427.545H373.705Z" fill="#BFFFC8"/>
<rect x="252.455" y="342.036" width="81.4371" height="81.4371" rx="8.14371" transform="rotate(90 252.455 342.036)" fill="#819EB0" fill-opacity="0.8"/>
<path d="M252.455 373.706C234.964 373.706 220.785 359.527 220.785 342.036L202.688 342.036C202.688 358.868 211.044 373.748 223.834 382.754C211.044 391.761 202.688 406.641 202.688 423.473L220.785 423.473C220.785 405.982 234.964 391.803 252.455 391.803L252.455 373.706Z" fill="#BFFFC8"/>
<rect width="81.4371" height="81.4371" rx="8.14371" transform="matrix(-4.37114e-08 -1 -1 4.37114e-08 508.982 423.473)" fill="#819EB0" fill-opacity="0.8"/>
<path fill-rule="evenodd" clip-rule="evenodd" d="M477.312 423.473C477.312 405.982 491.492 391.803 508.982 391.803L508.982 373.706C481.497 373.706 459.215 395.988 459.215 423.473L477.312 423.473Z" fill="#BFFFC8"/>
<rect width="81.4371" height="81.4371" rx="8.14371" transform="matrix(1.19249e-08 1 1 -1.19249e-08 427.545 427.545)" fill="#819EB0" fill-opacity="0.8"/>
<path fill-rule="evenodd" clip-rule="evenodd" d="M459.215 427.545C459.215 445.036 445.036 459.215 427.545 459.215L427.545 477.312C455.031 477.312 477.312 455.031 477.312 427.545L459.215 427.545Z" fill="#BFFFC8"/>
<rect x="513.055" y="508.982" width="81.4371" height="81.4371" rx="8.14371" transform="rotate(-90 513.055 508.982)" fill="#819EB0" fill-opacity="0.8"/>
<rect x="427.545" y="594.491" width="81.4371" height="81.4371" rx="8.14371" transform="rotate(-90 427.545 594.491)" fill="#819EB0" fill-opacity="0.8"/>
<rect x="513.055" y="252.455" width="81.4371" height="81.4371" rx="8.14371" transform="rotate(-90 513.055 252.455)" fill="#819EB0" fill-opacity="0.8"/>
<rect x="513.055" y="423.473" width="166.946" height="166.946" rx="32.5748" transform="rotate(-90 513.055 423.473)" fill="#BFFFC8"/>
<rect x="256.527" y="256.527" width="166.946" height="166.946" rx="32.5748" fill="#BFFFC8"/>
<rect x="268.742" y="268.742" width="142.515" height="142.515" rx="25.4491" fill="#077453"/>
<rect opacity="0.4" x="276.887" y="276.886" width="126.228" height="126.228" rx="20.3593" stroke="#BFFFC8" stroke-width="2.03593" stroke-dasharray="2.04 4.07"/>
<path d="M329.165 621.82H332.598L338.816 638.922H335.652L334.552 635.893H327.223L326.124 638.922H322.96L329.165 621.82ZM328.31 632.912H333.453L330.876 625.864L328.31 632.912ZM340.865 638.922V621.82H346.973C347.901 621.82 348.74 622.052 349.489 622.517C350.247 622.981 350.845 623.604 351.285 624.386C351.725 625.167 351.945 626.027 351.945 626.963C351.945 627.924 351.717 628.795 351.261 629.577C350.813 630.351 350.21 630.97 349.453 631.434C348.695 631.89 347.869 632.118 346.973 632.118H343.846V638.922H340.865ZM343.846 629.137H346.655C347.079 629.137 347.466 629.032 347.816 628.82C348.166 628.608 348.443 628.323 348.647 627.965C348.858 627.606 348.964 627.207 348.964 626.768C348.964 626.32 348.858 625.917 348.647 625.558C348.443 625.2 348.166 624.915 347.816 624.703C347.466 624.491 347.079 624.386 346.655 624.386H343.846V629.137ZM354.545 638.922V621.82H357.525V638.922H354.545Z" fill="#077453"/>
<path d="M391.578 125.868L387.205 108.766H390.283L393.264 120.457L396.244 108.766H398.968L401.949 120.457L404.917 108.766H407.996L403.647 125.868H400.263L397.6 115.509L394.974 125.868H391.578ZM409.44 113.653H412.421V125.868H409.44V113.653ZM410.955 112.077C410.515 112.077 410.145 111.934 409.843 111.649C409.542 111.356 409.391 110.99 409.391 110.55C409.391 110.118 409.542 109.756 409.843 109.463C410.145 109.169 410.511 109.023 410.943 109.023C411.374 109.023 411.737 109.169 412.03 109.463C412.331 109.756 412.482 110.118 412.482 110.55C412.482 110.99 412.335 111.356 412.042 111.649C411.749 111.934 411.387 112.077 410.955 112.077ZM424.306 107.545H427.286V125.868H424.306V124.341C423.915 124.887 423.422 125.331 422.828 125.673C422.233 126.015 421.545 126.186 420.763 126.186C419.876 126.186 419.045 126.019 418.271 125.685C417.498 125.351 416.814 124.891 416.219 124.305C415.633 123.71 415.173 123.026 414.839 122.252C414.505 121.479 414.338 120.648 414.338 119.76C414.338 118.873 414.505 118.042 414.839 117.268C415.173 116.495 415.633 115.815 416.219 115.228C416.814 114.634 417.498 114.17 418.271 113.836C419.045 113.502 419.876 113.335 420.763 113.335C421.545 113.335 422.233 113.506 422.828 113.848C423.422 114.182 423.915 114.626 424.306 115.18V107.545ZM420.8 123.315C421.435 123.315 421.997 123.156 422.486 122.839C422.974 122.521 423.357 122.094 423.634 121.556C423.911 121.01 424.049 120.412 424.049 119.76C424.049 119.101 423.911 118.502 423.634 117.965C423.357 117.419 422.97 116.987 422.473 116.67C421.985 116.352 421.427 116.193 420.8 116.193C420.173 116.193 419.599 116.356 419.078 116.682C418.564 117 418.153 117.427 417.844 117.965C417.542 118.502 417.392 119.101 417.392 119.76C417.392 120.42 417.547 121.019 417.856 121.556C418.165 122.094 418.577 122.521 419.09 122.839C419.611 123.156 420.181 123.315 420.8 123.315ZM439.094 113.653H442.075V126.1C442.075 126.98 441.896 127.778 441.537 128.495C441.179 129.219 440.69 129.838 440.071 130.351C439.452 130.872 438.744 131.272 437.946 131.548C437.148 131.833 436.309 131.976 435.429 131.976C434.574 131.976 433.752 131.801 432.962 131.451C432.172 131.1 431.472 130.62 430.861 130.009C430.258 129.407 429.798 128.718 429.48 127.945L432.204 126.711C432.367 127.159 432.612 127.55 432.937 127.884C433.271 128.226 433.654 128.49 434.086 128.678C434.517 128.873 434.965 128.971 435.429 128.971C435.902 128.971 436.354 128.906 436.785 128.775C437.225 128.645 437.62 128.454 437.97 128.201C438.32 127.957 438.593 127.656 438.789 127.297C438.992 126.947 439.094 126.548 439.094 126.1V124.378C438.711 124.915 438.231 125.351 437.653 125.685C437.074 126.019 436.407 126.186 435.649 126.186C434.77 126.186 433.947 126.019 433.182 125.685C432.416 125.351 431.74 124.891 431.154 124.305C430.576 123.71 430.12 123.026 429.786 122.252C429.46 121.479 429.297 120.648 429.297 119.76C429.297 118.873 429.46 118.042 429.786 117.268C430.12 116.495 430.576 115.815 431.154 115.228C431.74 114.634 432.416 114.17 433.182 113.836C433.947 113.502 434.77 113.335 435.649 113.335C436.407 113.335 437.074 113.502 437.653 113.836C438.231 114.162 438.711 114.593 439.094 115.131V113.653ZM435.686 123.315C436.313 123.315 436.867 123.156 437.347 122.839C437.836 122.513 438.219 122.081 438.496 121.544C438.772 120.998 438.911 120.404 438.911 119.76C438.911 119.109 438.768 118.514 438.483 117.977C438.206 117.439 437.824 117.008 437.335 116.682C436.855 116.356 436.305 116.193 435.686 116.193C435.075 116.193 434.517 116.356 434.012 116.682C433.507 117 433.104 117.427 432.803 117.965C432.502 118.502 432.351 119.101 432.351 119.76C432.351 120.42 432.502 121.019 432.803 121.556C433.104 122.094 433.507 122.521 434.012 122.839C434.517 123.156 435.075 123.315 435.686 123.315ZM450.102 126.186C448.978 126.186 447.952 125.897 447.024 125.318C446.103 124.74 445.366 123.963 444.812 122.985C444.267 122.008 443.994 120.929 443.994 119.748C443.994 118.86 444.153 118.03 444.47 117.256C444.788 116.474 445.224 115.79 445.778 115.204C446.339 114.609 446.991 114.145 447.732 113.811C448.473 113.478 449.263 113.311 450.102 113.311C451.055 113.311 451.926 113.514 452.716 113.921C453.514 114.32 454.19 114.87 454.744 115.57C455.298 116.271 455.701 117.069 455.953 117.965C456.206 118.86 456.263 119.797 456.124 120.774H447.195C447.309 121.23 447.496 121.642 447.756 122.008C448.017 122.366 448.347 122.655 448.746 122.875C449.145 123.087 449.597 123.197 450.102 123.205C450.623 123.213 451.095 123.091 451.519 122.839C451.95 122.578 452.309 122.228 452.594 121.788L455.635 122.497C455.139 123.58 454.398 124.467 453.412 125.16C452.427 125.844 451.323 126.186 450.102 126.186ZM447.097 118.539H453.107C453.017 118.05 452.826 117.61 452.533 117.22C452.248 116.82 451.893 116.503 451.47 116.267C451.046 116.031 450.59 115.912 450.102 115.912C449.613 115.912 449.161 116.031 448.746 116.267C448.331 116.495 447.976 116.808 447.683 117.207C447.398 117.598 447.203 118.042 447.097 118.539ZM464.659 116.633H462.289V125.868H459.309V116.633H457.501V113.653H459.309V109.817H462.289V113.653H464.659V116.633Z" fill="#077453"/>
<path d="M293.251 332.335H297.985V351.736H293.251V332.335ZM295.657 329.832C294.959 329.832 294.37 329.606 293.892 329.153C293.413 328.688 293.174 328.106 293.174 327.407C293.174 326.722 293.413 326.146 293.892 325.681C294.37 325.215 294.952 324.982 295.638 324.982C296.323 324.982 296.899 325.215 297.364 325.681C297.843 326.146 298.082 326.722 298.082 327.407C298.082 328.106 297.849 328.688 297.384 329.153C296.918 329.606 296.343 329.832 295.657 329.832Z" fill="#BFFFC8"/>
<path d="M319.644 339.475V351.736H314.91V340.716C314.91 339.953 314.723 339.261 314.348 338.641C313.973 338.007 313.468 337.509 312.834 337.147C312.214 336.772 311.522 336.584 310.758 336.584C309.995 336.584 309.297 336.772 308.663 337.147C308.042 337.509 307.544 338.007 307.169 338.641C306.807 339.261 306.626 339.953 306.626 340.716V351.736H301.892L301.873 332.335H306.607L306.626 334.062C307.286 333.363 308.075 332.814 308.993 332.413C309.911 331.999 310.901 331.792 311.961 331.792C313.371 331.792 314.658 332.141 315.822 332.84C316.986 333.525 317.911 334.45 318.596 335.614C319.295 336.765 319.644 338.052 319.644 339.475Z" fill="#BFFFC8"/>
<path d="M332.171 352.28C330.296 352.28 328.582 351.82 327.03 350.902C325.491 349.984 324.262 348.749 323.344 347.196C322.426 345.644 321.966 343.924 321.966 342.036C321.966 340.626 322.232 339.307 322.762 338.078C323.292 336.849 324.023 335.769 324.954 334.838C325.898 333.894 326.985 333.156 328.214 332.626C329.442 332.096 330.762 331.831 332.171 331.831C333.413 331.831 334.5 332.109 335.431 332.665C336.362 333.208 337.138 333.92 337.759 334.799V332.335H342.493V360.359H337.759V349.311C337.138 350.191 336.362 350.909 335.431 351.465C334.5 352.008 333.413 352.28 332.171 352.28ZM332.23 336.39C331.234 336.39 330.322 336.649 329.494 337.166C328.679 337.67 328.026 338.35 327.535 339.203C327.056 340.057 326.817 341.001 326.817 342.036C326.817 343.083 327.056 344.041 327.535 344.907C328.026 345.761 328.679 346.44 329.494 346.944C330.322 347.449 331.234 347.701 332.23 347.701C333.238 347.701 334.124 347.449 334.888 346.944C335.664 346.427 336.271 345.741 336.711 344.888C337.151 344.021 337.371 343.07 337.371 342.036C337.371 341.001 337.151 340.057 336.711 339.203C336.271 338.35 335.664 337.67 334.888 337.166C334.111 336.649 333.226 336.39 332.23 336.39Z" fill="#BFFFC8"/>
<path d="M345.772 344.558V332.335H350.506V343.316C350.506 344.079 350.694 344.778 351.069 345.412C351.444 346.032 351.942 346.53 352.562 346.905C353.196 347.268 353.888 347.449 354.638 347.449C355.414 347.449 356.113 347.268 356.734 346.905C357.355 346.53 357.852 346.032 358.228 345.412C358.603 344.778 358.79 344.079 358.79 343.316V332.335H363.524L363.543 351.736H358.81L358.79 349.971C358.118 350.669 357.322 351.225 356.404 351.639C355.486 352.04 354.503 352.241 353.455 352.241C352.045 352.241 350.758 351.898 349.594 351.213C348.43 350.514 347.499 349.589 346.8 348.438C346.115 347.274 345.772 345.981 345.772 344.558Z" fill="#BFFFC8"/>
<path d="M381.791 323.712H386.525V351.736H381.791V349.311C381.17 350.178 380.388 350.883 379.444 351.426C378.499 351.969 377.406 352.241 376.165 352.241C374.755 352.241 373.436 351.976 372.207 351.445C370.978 350.915 369.892 350.184 368.948 349.253C368.016 348.309 367.286 347.222 366.755 345.994C366.225 344.765 365.96 343.446 365.96 342.036C365.96 340.626 366.225 339.307 366.755 338.078C367.286 336.849 368.016 335.769 368.948 334.838C369.892 333.894 370.978 333.156 372.207 332.626C373.436 332.096 374.755 331.831 376.165 331.831C377.406 331.831 378.499 332.102 379.444 332.646C380.388 333.176 381.17 333.881 381.791 334.76V323.712ZM376.223 347.682C377.232 347.682 378.124 347.429 378.9 346.925C379.676 346.42 380.284 345.741 380.724 344.888C381.164 344.021 381.384 343.07 381.384 342.036C381.384 340.988 381.164 340.037 380.724 339.184C380.284 338.317 379.67 337.632 378.881 337.127C378.105 336.623 377.219 336.371 376.223 336.371C375.227 336.371 374.315 336.629 373.487 337.147C372.673 337.651 372.019 338.33 371.528 339.184C371.049 340.037 370.81 340.988 370.81 342.036C370.81 343.083 371.056 344.034 371.547 344.888C372.039 345.741 372.692 346.42 373.507 346.925C374.335 347.429 375.24 347.682 376.223 347.682Z" fill="#BFFFC8"/>
<path d="M126.95 211.695C125.793 211.695 124.706 211.467 123.688 211.011C122.67 210.547 121.775 209.907 121.001 209.093C120.227 208.279 119.621 207.338 119.181 206.271C118.741 205.196 118.521 204.048 118.521 202.826C118.521 201.605 118.741 200.461 119.181 199.394C119.621 198.319 120.227 197.374 121.001 196.56C121.775 195.745 122.67 195.11 123.688 194.654C124.706 194.19 125.793 193.958 126.95 193.958C128.114 193.958 129.206 194.19 130.224 194.654C131.242 195.11 132.137 195.745 132.911 196.56C133.685 197.374 134.287 198.319 134.719 199.394C135.159 200.461 135.379 201.605 135.379 202.826C135.379 204.048 135.159 205.196 134.719 206.271C134.287 207.338 133.685 208.279 132.911 209.093C132.137 209.907 131.242 210.547 130.224 211.011C129.206 211.467 128.114 211.695 126.95 211.695ZM126.95 208.714C127.699 208.714 128.404 208.559 129.063 208.25C129.723 207.941 130.301 207.517 130.798 206.98C131.303 206.434 131.694 205.807 131.97 205.098C132.256 204.39 132.398 203.633 132.398 202.826C132.398 202.02 132.256 201.263 131.97 200.554C131.685 199.838 131.29 199.21 130.786 198.673C130.289 198.136 129.711 197.712 129.051 197.403C128.399 197.093 127.699 196.938 126.95 196.938C126.201 196.938 125.496 197.093 124.837 197.403C124.177 197.712 123.595 198.14 123.09 198.685C122.593 199.223 122.202 199.846 121.917 200.554C121.64 201.263 121.502 202.02 121.502 202.826C121.502 203.641 121.644 204.402 121.929 205.111C122.214 205.819 122.605 206.446 123.102 206.992C123.607 207.529 124.185 207.953 124.837 208.262C125.496 208.564 126.201 208.714 126.95 208.714ZM148.904 203.657V211.377H145.924V204.439C145.924 203.958 145.806 203.523 145.569 203.132C145.333 202.733 145.016 202.419 144.617 202.191C144.226 201.955 143.79 201.837 143.31 201.837C142.829 201.837 142.389 201.955 141.99 202.191C141.599 202.419 141.286 202.733 141.05 203.132C140.822 203.523 140.708 203.958 140.708 204.439V211.377H137.727L137.715 199.162H140.695L140.708 200.249C141.123 199.809 141.62 199.463 142.198 199.21C142.776 198.95 143.399 198.82 144.067 198.82C144.955 198.82 145.765 199.039 146.498 199.479C147.231 199.911 147.813 200.493 148.245 201.226C148.684 201.951 148.904 202.761 148.904 203.657ZM151.338 202.558H159.156V205.538H151.338V202.558ZM162.11 211.377L162.098 199.162H165.079L165.091 200.249C165.506 199.809 166.003 199.463 166.581 199.21C167.16 198.95 167.783 198.82 168.45 198.82C168.898 198.82 169.346 198.885 169.794 199.015L168.621 202.02C168.312 201.898 168.002 201.837 167.693 201.837C167.213 201.837 166.773 201.955 166.374 202.191C165.983 202.419 165.669 202.733 165.433 203.132C165.205 203.523 165.091 203.958 165.091 204.439V211.377H162.11ZM179.802 199.162H182.783V211.377H179.802L179.668 209.862C179.334 210.408 178.89 210.852 178.337 211.194C177.791 211.528 177.144 211.695 176.394 211.695C175.49 211.695 174.643 211.524 173.853 211.182C173.064 210.84 172.367 210.367 171.765 209.765C171.17 209.162 170.702 208.466 170.36 207.676C170.026 206.886 169.859 206.039 169.859 205.135C169.859 204.264 170.018 203.445 170.335 202.68C170.661 201.914 171.113 201.242 171.691 200.664C172.27 200.086 172.937 199.634 173.695 199.308C174.452 198.982 175.266 198.82 176.138 198.82C176.944 198.82 177.665 198.999 178.3 199.357C178.943 199.715 179.489 200.171 179.937 200.725L179.802 199.162ZM176.321 208.824C176.956 208.824 177.518 208.665 178.007 208.348C178.495 208.03 178.878 207.603 179.155 207.065C179.432 206.519 179.57 205.921 179.57 205.269C179.57 204.61 179.432 204.011 179.155 203.474C178.878 202.928 178.491 202.496 177.995 202.179C177.506 201.861 176.948 201.702 176.321 201.702C175.694 201.702 175.12 201.865 174.599 202.191C174.086 202.509 173.674 202.936 173.365 203.474C173.064 204.011 172.913 204.61 172.913 205.269C172.913 205.929 173.068 206.528 173.377 207.065C173.687 207.603 174.098 208.03 174.611 208.348C175.132 208.665 175.702 208.824 176.321 208.824ZM185.217 211.377V199.162H188.198V200.249C188.613 199.809 189.11 199.463 189.688 199.21C190.266 198.95 190.889 198.82 191.557 198.82C192.404 198.82 193.182 199.019 193.89 199.418C194.607 199.817 195.177 200.351 195.6 201.018C196.032 200.351 196.602 199.817 197.311 199.418C198.019 199.019 198.797 198.82 199.644 198.82C200.54 198.82 201.35 199.039 202.075 199.479C202.808 199.911 203.39 200.493 203.822 201.226C204.261 201.951 204.481 202.761 204.481 203.657V211.377H201.501V204.451C201.501 203.979 201.382 203.547 201.146 203.156C200.918 202.757 200.609 202.439 200.218 202.203C199.835 201.959 199.404 201.837 198.923 201.837C198.443 201.837 198.007 201.955 197.616 202.191C197.233 202.419 196.924 202.729 196.688 203.119C196.451 203.51 196.333 203.954 196.333 204.451V211.377H193.353V204.451C193.353 203.954 193.239 203.51 193.011 203.119C192.783 202.729 192.473 202.419 192.082 202.191C191.691 201.955 191.256 201.837 190.775 201.837C190.303 201.837 189.871 201.959 189.48 202.203C189.09 202.439 188.776 202.757 188.54 203.156C188.312 203.547 188.198 203.979 188.198 204.451V211.377H185.217ZM209.909 217.485H206.928V199.162H209.909V200.713C210.308 200.159 210.797 199.711 211.375 199.369C211.961 199.019 212.645 198.844 213.427 198.844C214.323 198.844 215.158 199.011 215.931 199.345C216.705 199.679 217.385 200.143 217.971 200.737C218.566 201.324 219.026 202.004 219.352 202.777C219.686 203.551 219.853 204.382 219.853 205.269C219.853 206.157 219.686 206.992 219.352 207.774C219.026 208.555 218.566 209.244 217.971 209.838C217.385 210.424 216.705 210.885 215.931 211.218C215.158 211.552 214.323 211.719 213.427 211.719C212.645 211.719 211.961 211.548 211.375 211.206C210.797 210.856 210.308 210.404 209.909 209.85V217.485ZM213.391 201.715C212.772 201.715 212.218 201.878 211.729 202.203C211.241 202.521 210.858 202.948 210.581 203.486C210.304 204.023 210.166 204.618 210.166 205.269C210.166 205.921 210.304 206.519 210.581 207.065C210.858 207.603 211.241 208.034 211.729 208.36C212.218 208.678 212.772 208.836 213.391 208.836C214.018 208.836 214.592 208.678 215.113 208.36C215.634 208.042 216.049 207.615 216.359 207.077C216.668 206.532 216.823 205.929 216.823 205.269C216.823 204.618 216.668 204.023 216.359 203.486C216.049 202.948 215.634 202.521 215.113 202.203C214.6 201.878 214.026 201.715 213.391 201.715Z" fill="#077453"/>
<path d="M39.3293 468.222C38.1729 468.222 37.0857 467.994 36.0677 467.538C35.0498 467.073 34.154 466.434 33.3803 465.62C32.6066 464.805 31.9999 463.865 31.5602 462.798C31.1204 461.723 30.9005 460.575 30.9005 459.353C30.9005 458.132 31.1204 456.987 31.5602 455.921C31.9999 454.846 32.6066 453.901 33.3803 453.087C34.154 452.272 35.0498 451.637 36.0677 451.181C37.0857 450.717 38.1729 450.485 39.3293 450.485C40.4938 450.485 41.5851 450.717 42.6031 451.181C43.621 451.637 44.5168 452.272 45.2905 453.087C46.0641 453.901 46.6668 454.846 47.0984 455.921C47.5381 456.987 47.758 458.132 47.758 459.353C47.758 460.575 47.5381 461.723 47.0984 462.798C46.6668 463.865 46.0641 464.805 45.2905 465.62C44.5168 466.434 43.621 467.073 42.6031 467.538C41.5851 467.994 40.4938 468.222 39.3293 468.222ZM39.3293 465.241C40.0785 465.241 40.7829 465.086 41.4426 464.777C42.1022 464.467 42.6804 464.044 43.1772 463.506C43.6821 462.961 44.073 462.334 44.3499 461.625C44.6349 460.917 44.7774 460.159 44.7774 459.353C44.7774 458.547 44.6349 457.79 44.3499 457.081C44.0649 456.364 43.6699 455.737 43.165 455.2C42.6682 454.662 42.09 454.239 41.4304 453.929C40.7789 453.62 40.0785 453.465 39.3293 453.465C38.5801 453.465 37.8756 453.62 37.216 453.929C36.5563 454.239 35.9741 454.666 35.4692 455.212C34.9724 455.75 34.5815 456.373 34.2965 457.081C34.0196 457.79 33.8811 458.547 33.8811 459.353C33.8811 460.168 34.0237 460.929 34.3087 461.637C34.5937 462.346 34.9846 462.973 35.4814 463.519C35.9863 464.056 36.5645 464.48 37.216 464.789C37.8756 465.09 38.5801 465.241 39.3293 465.241ZM53.6467 453.123V455.688H56.9815V458.669H53.6467V467.904H50.6661V458.669H49.3346V455.688H50.6661V453.123C50.6661 452.423 50.8371 451.784 51.1791 451.205C51.5293 450.619 51.9976 450.155 52.5839 449.813C53.1703 449.463 53.8177 449.288 54.5262 449.288C55.0393 449.288 55.5482 449.393 56.0532 449.605C56.5581 449.817 57.006 450.143 57.3969 450.582L55.2469 452.683C55.1736 452.545 55.0678 452.443 54.9293 452.378C54.799 452.305 54.6647 452.268 54.5262 452.268C54.29 452.268 54.0824 452.354 53.9032 452.525C53.7322 452.688 53.6467 452.887 53.6467 453.123ZM62.6652 453.123V455.688H66.0001V458.669H62.6652V467.904H59.6846V458.669H58.3531V455.688H59.6846V453.123C59.6846 452.423 59.8556 451.784 60.1977 451.205C60.5479 450.619 61.0161 450.155 61.6025 449.813C62.1888 449.463 62.8362 449.288 63.5447 449.288C64.0578 449.288 64.5668 449.393 65.0717 449.605C65.5766 449.817 66.0245 450.143 66.4154 450.582L64.2655 452.683C64.1922 452.545 64.0863 452.443 63.9479 452.378C63.8176 452.305 63.6832 452.268 63.5447 452.268C63.3086 452.268 63.1009 452.354 62.9217 452.525C62.7507 452.688 62.6652 452.887 62.6652 453.123ZM67.8689 459.084H75.6868V462.065H67.8689V459.084ZM78.6413 467.904L78.6291 455.688H81.6097L81.6219 456.776C82.0372 456.336 82.534 455.99 83.1122 455.737C83.6904 455.477 84.3134 455.346 84.9812 455.346C85.4291 455.346 85.877 455.412 86.3249 455.542L85.1522 458.547C84.8427 458.425 84.5332 458.364 84.2238 458.364C83.7433 458.364 83.3035 458.482 82.9045 458.718C82.5136 458.946 82.2001 459.26 81.9639 459.659C81.7359 460.049 81.6219 460.485 81.6219 460.966V467.904H78.6413ZM96.3332 455.688H99.3138V467.904H96.3332L96.1989 466.389C95.865 466.935 95.4211 467.379 94.8674 467.721C94.3217 468.055 93.6743 468.222 92.9251 468.222C92.0211 468.222 91.1742 468.051 90.3843 467.709C89.5943 467.367 88.898 466.894 88.2954 466.292C87.7009 465.689 87.2326 464.993 86.8906 464.203C86.5567 463.413 86.3898 462.566 86.3898 461.662C86.3898 460.791 86.5486 459.972 86.8662 459.207C87.1919 458.441 87.6439 457.769 88.2221 457.191C88.8003 456.613 89.4681 456.161 90.2254 455.835C90.9828 455.509 91.7972 455.346 92.6686 455.346C93.4748 455.346 94.1955 455.526 94.8307 455.884C95.4741 456.242 96.0197 456.698 96.4676 457.252L96.3332 455.688ZM92.8518 465.351C93.487 465.351 94.0489 465.192 94.5375 464.875C95.0262 464.557 95.4089 464.129 95.6858 463.592C95.9627 463.046 96.1011 462.448 96.1011 461.796C96.1011 461.137 95.9627 460.538 95.6858 460.001C95.4089 459.455 95.0221 459.023 94.5253 458.706C94.0367 458.388 93.4789 458.229 92.8518 458.229C92.2247 458.229 91.6506 458.392 91.1294 458.718C90.6163 459.036 90.2051 459.463 89.8956 460.001C89.5943 460.538 89.4437 461.137 89.4437 461.796C89.4437 462.456 89.5984 463.054 89.9078 463.592C90.2173 464.129 90.6286 464.557 91.1416 464.875C91.6628 465.192 92.2329 465.351 92.8518 465.351ZM101.748 467.904V455.688H104.729V456.776C105.144 456.336 105.641 455.99 106.219 455.737C106.797 455.477 107.42 455.346 108.088 455.346C108.935 455.346 109.713 455.546 110.421 455.945C111.138 456.344 111.708 456.877 112.131 457.545C112.563 456.877 113.133 456.344 113.841 455.945C114.55 455.546 115.328 455.346 116.175 455.346C117.07 455.346 117.881 455.566 118.605 456.006C119.338 456.438 119.921 457.02 120.352 457.753C120.792 458.478 121.012 459.288 121.012 460.184V467.904H118.031V460.978C118.031 460.505 117.913 460.074 117.677 459.683C117.449 459.284 117.14 458.966 116.749 458.73C116.366 458.486 115.934 458.364 115.454 458.364C114.973 458.364 114.538 458.482 114.147 458.718C113.764 458.946 113.455 459.255 113.218 459.646C112.982 460.037 112.864 460.481 112.864 460.978V467.904H109.884V460.978C109.884 460.481 109.77 460.037 109.542 459.646C109.313 459.255 109.004 458.946 108.613 458.718C108.222 458.482 107.787 458.364 107.306 458.364C106.834 458.364 106.402 458.486 106.011 458.73C105.62 458.966 105.307 459.284 105.071 459.683C104.843 460.074 104.729 460.505 104.729 460.978V467.904H101.748ZM126.44 474.012H123.459V455.688H126.44V457.24C126.839 456.686 127.328 456.238 127.906 455.896C128.492 455.546 129.176 455.371 129.958 455.371C130.854 455.371 131.688 455.538 132.462 455.872C133.236 456.206 133.916 456.67 134.502 457.264C135.097 457.851 135.557 458.531 135.882 459.304C136.216 460.078 136.383 460.909 136.383 461.796C136.383 462.684 136.216 463.519 135.882 464.3C135.557 465.082 135.097 465.77 134.502 466.365C133.916 466.951 133.236 467.411 132.462 467.745C131.688 468.079 130.854 468.246 129.958 468.246C129.176 468.246 128.492 468.075 127.906 467.733C127.328 467.383 126.839 466.931 126.44 466.377V474.012ZM129.921 458.242C129.302 458.242 128.749 458.404 128.26 458.73C127.771 459.048 127.389 459.475 127.112 460.013C126.835 460.55 126.696 461.145 126.696 461.796C126.696 462.448 126.835 463.046 127.112 463.592C127.389 464.129 127.771 464.561 128.26 464.887C128.749 465.204 129.302 465.363 129.921 465.363C130.548 465.363 131.122 465.204 131.644 464.887C132.165 464.569 132.58 464.142 132.89 463.604C133.199 463.059 133.354 462.456 133.354 461.796C133.354 461.145 133.199 460.55 132.89 460.013C132.58 459.475 132.165 459.048 131.644 458.73C131.131 458.404 130.556 458.242 129.921 458.242Z" fill="#077453"/>
<path d="M544.108 382.395V365.293H554.833V368.274H547.088V371.743H553.233V374.724H547.088V379.414H554.833V382.395H544.108ZM556.336 382.395L560.807 376.263L556.372 370.167H560.049L562.639 373.722L565.241 370.167H568.918L564.484 376.263L568.955 382.395H565.278L562.639 378.779L560.013 382.395H556.336ZM577.711 378.718L580.399 380.172C579.837 380.937 579.132 381.552 578.285 382.016C577.438 382.481 576.514 382.713 575.512 382.713C574.389 382.713 573.362 382.424 572.434 381.845C571.514 381.267 570.777 380.493 570.223 379.524C569.677 378.547 569.405 377.468 569.405 376.287C569.405 375.391 569.563 374.557 569.881 373.783C570.199 373.001 570.634 372.317 571.188 371.731C571.75 371.136 572.401 370.672 573.143 370.338C573.884 370.004 574.674 369.837 575.512 369.837C576.514 369.837 577.438 370.07 578.285 370.534C579.132 370.998 579.837 371.621 580.399 372.403L577.711 373.844C577.426 373.518 577.088 373.266 576.697 373.087C576.315 372.908 575.92 372.818 575.512 372.818C574.926 372.818 574.397 372.981 573.924 373.307C573.452 373.624 573.077 374.048 572.801 374.577C572.524 375.098 572.385 375.668 572.385 376.287C572.385 376.898 572.524 377.468 572.801 377.997C573.077 378.519 573.452 378.938 573.924 379.256C574.397 379.573 574.926 379.732 575.512 379.732C575.936 379.732 576.339 379.642 576.722 379.463C577.104 379.276 577.434 379.028 577.711 378.718ZM593.399 374.675V382.395H590.419V375.457C590.419 374.976 590.301 374.54 590.065 374.15C589.828 373.75 589.511 373.437 589.112 373.209C588.721 372.973 588.285 372.855 587.805 372.855C587.324 372.855 586.884 372.973 586.485 373.209C586.094 373.437 585.781 373.75 585.545 374.15C585.317 374.54 585.203 374.976 585.203 375.457V382.395H582.222L582.21 364.072H585.191L585.203 371.267C585.618 370.827 586.115 370.481 586.693 370.228C587.271 369.968 587.894 369.837 588.562 369.837C589.45 369.837 590.26 370.057 590.993 370.497C591.726 370.929 592.308 371.511 592.74 372.244C593.18 372.969 593.399 373.779 593.399 374.675ZM604.805 370.179H607.786V382.395H604.805L604.671 380.88C604.337 381.426 603.893 381.87 603.339 382.212C602.794 382.546 602.146 382.713 601.397 382.713C600.493 382.713 599.646 382.542 598.856 382.2C598.066 381.858 597.37 381.385 596.767 380.783C596.173 380.18 595.705 379.484 595.362 378.694C595.029 377.904 594.862 377.057 594.862 376.153C594.862 375.281 595.02 374.463 595.338 373.698C595.664 372.932 596.116 372.26 596.694 371.682C597.272 371.104 597.94 370.652 598.697 370.326C599.455 370 600.269 369.837 601.14 369.837C601.947 369.837 602.667 370.017 603.303 370.375C603.946 370.733 604.492 371.189 604.939 371.743L604.805 370.179ZM601.324 379.842C601.959 379.842 602.521 379.683 603.009 379.366C603.498 379.048 603.881 378.62 604.158 378.083C604.435 377.537 604.573 376.939 604.573 376.287C604.573 375.628 604.435 375.029 604.158 374.492C603.881 373.946 603.494 373.514 602.997 373.197C602.509 372.879 601.951 372.72 601.324 372.72C600.697 372.72 600.122 372.883 599.601 373.209C599.088 373.527 598.677 373.954 598.368 374.492C598.066 375.029 597.916 375.628 597.916 376.287C597.916 376.947 598.07 377.545 598.38 378.083C598.689 378.62 599.1 379.048 599.614 379.366C600.135 379.683 600.705 379.842 601.324 379.842ZM621.409 374.675V382.395H618.429V375.457C618.429 374.976 618.311 374.54 618.074 374.15C617.838 373.75 617.521 373.437 617.122 373.209C616.731 372.973 616.295 372.855 615.815 372.855C615.334 372.855 614.894 372.973 614.495 373.209C614.104 373.437 613.791 373.75 613.555 374.15C613.327 374.54 613.213 374.976 613.213 375.457V382.395H610.232L610.22 370.179H613.2L613.213 371.267C613.628 370.827 614.125 370.481 614.703 370.228C615.281 369.968 615.904 369.837 616.572 369.837C617.46 369.837 618.27 370.057 619.003 370.497C619.736 370.929 620.318 371.511 620.75 372.244C621.189 372.969 621.409 373.779 621.409 374.675ZM632.668 370.179H635.649V382.627C635.649 383.507 635.47 384.305 635.112 385.021C634.753 385.746 634.265 386.365 633.646 386.878C633.027 387.399 632.318 387.798 631.52 388.075C630.722 388.36 629.883 388.503 629.004 388.503C628.149 388.503 627.326 388.328 626.536 387.978C625.746 387.627 625.046 387.147 624.435 386.536C623.833 385.933 623.372 385.245 623.055 384.472L625.779 383.238C625.942 383.686 626.186 384.077 626.512 384.411C626.846 384.753 627.228 385.017 627.66 385.205C628.092 385.4 628.54 385.498 629.004 385.498C629.476 385.498 629.928 385.433 630.36 385.302C630.799 385.172 631.194 384.981 631.545 384.728C631.895 384.484 632.168 384.183 632.363 383.824C632.567 383.474 632.668 383.075 632.668 382.627V380.905C632.286 381.442 631.805 381.878 631.227 382.212C630.649 382.546 629.981 382.713 629.224 382.713C628.344 382.713 627.522 382.546 626.756 382.212C625.991 381.878 625.315 381.418 624.728 380.831C624.15 380.237 623.694 379.553 623.36 378.779C623.034 378.006 622.872 377.175 622.872 376.287C622.872 375.4 623.034 374.569 623.36 373.795C623.694 373.022 624.15 372.342 624.728 371.755C625.315 371.161 625.991 370.697 626.756 370.363C627.522 370.029 628.344 369.862 629.224 369.862C629.981 369.862 630.649 370.029 631.227 370.363C631.805 370.688 632.286 371.12 632.668 371.658V370.179ZM629.26 379.842C629.887 379.842 630.441 379.683 630.922 379.366C631.41 379.04 631.793 378.608 632.07 378.071C632.347 377.525 632.485 376.931 632.485 376.287C632.485 375.636 632.343 375.041 632.058 374.504C631.781 373.966 631.398 373.535 630.909 373.209C630.429 372.883 629.879 372.72 629.26 372.72C628.65 372.72 628.092 372.883 627.587 373.209C627.082 373.527 626.679 373.954 626.377 374.492C626.076 375.029 625.925 375.628 625.925 376.287C625.925 376.947 626.076 377.545 626.377 378.083C626.679 378.62 627.082 379.048 627.587 379.366C628.092 379.683 628.65 379.842 629.26 379.842ZM643.676 382.713C642.552 382.713 641.526 382.424 640.598 381.845C639.678 381.267 638.941 380.489 638.387 379.512C637.841 378.535 637.568 377.456 637.568 376.275C637.568 375.387 637.727 374.557 638.045 373.783C638.362 373.001 638.798 372.317 639.352 371.731C639.914 371.136 640.565 370.672 641.306 370.338C642.047 370.004 642.837 369.837 643.676 369.837C644.629 369.837 645.5 370.041 646.29 370.448C647.088 370.847 647.764 371.397 648.318 372.097C648.872 372.798 649.275 373.596 649.527 374.492C649.78 375.387 649.837 376.324 649.698 377.301H640.769C640.883 377.757 641.07 378.168 641.331 378.535C641.591 378.893 641.921 379.182 642.32 379.402C642.719 379.614 643.171 379.724 643.676 379.732C644.197 379.74 644.67 379.618 645.093 379.366C645.525 379.105 645.883 378.755 646.168 378.315L649.21 379.024C648.713 380.107 647.972 380.994 646.987 381.687C646.001 382.371 644.898 382.713 643.676 382.713ZM640.671 375.066H646.681C646.592 374.577 646.4 374.137 646.107 373.746C645.822 373.347 645.468 373.03 645.044 372.794C644.621 372.557 644.165 372.439 643.676 372.439C643.188 372.439 642.736 372.557 642.32 372.794C641.905 373.022 641.551 373.335 641.258 373.734C640.972 374.125 640.777 374.569 640.671 375.066Z" fill="#077453"/>
<path fill-rule="evenodd" clip-rule="evenodd" d="M398.026 46.8261C398.026 44.0151 400.305 41.7363 403.116 41.7363H447.906C450.717 41.7363 452.996 44.0151 452.996 46.8261V50.898H398.026V46.8261ZM407.188 46.3172C407.188 47.1605 406.504 47.8441 405.661 47.8441C404.817 47.8441 404.134 47.1605 404.134 46.3172C404.134 45.4739 404.817 44.7902 405.661 44.7902C406.504 44.7902 407.188 45.4739 407.188 46.3172ZM414.822 47.8441C415.666 47.8441 416.349 47.1605 416.349 46.3172C416.349 45.4739 415.666 44.7902 414.822 44.7902C413.979 44.7902 413.295 45.4739 413.295 46.3172C413.295 47.1605 413.979 47.8441 414.822 47.8441ZM411.768 46.3172C411.768 47.1605 411.085 47.8441 410.241 47.8441C409.398 47.8441 408.715 47.1605 408.715 46.3172C408.715 45.4739 409.398 44.7902 410.241 44.7902C411.085 44.7902 411.768 45.4739 411.768 46.3172ZM403.115 86.5267H447.906C449.592 86.5267 450.96 85.1595 450.96 83.4729V54.9699H400.061V83.4729C400.061 85.1595 401.429 86.5267 403.115 86.5267ZM398.025 83.4729C398.025 86.2839 400.304 88.5627 403.115 88.5627H447.906C450.717 88.5627 452.995 86.2839 452.995 83.4729V54.9699V52.9339H450.96H400.061H398.025V54.9699V83.4729Z" fill="#077453"/>
<path d="M405.019 71.9721V72.0602L405.101 72.0936L418.404 77.545L418.585 77.6192V77.4236V75.2111V75.1228L418.503 75.0895L408.704 71.1024L418.505 66.9151L418.585 66.8811V66.7944V64.5819V64.3835L418.403 64.4612L405.099 70.1179L405.019 70.1518V70.2386V71.9721ZM422.526 77.4179H422.605L422.642 77.3475L430.583 62.1565L430.684 61.9645H430.467H428.205H428.125L428.088 62.0349L420.147 77.2259L420.046 77.4179H420.263H422.526ZM432.151 77.4236V77.6192L432.332 77.545L445.636 72.0936L445.717 72.0602V71.9721V70.2386V70.1518L445.638 70.1179L432.334 64.4612L432.151 64.3835V64.5819V66.7944V66.8811L432.231 66.9151L442.032 71.1024L432.233 75.0895L432.151 75.1228V75.2111V77.4236Z" fill="#077453" stroke="#077453" stroke-width="0.262459"/>
<path fill-rule="evenodd" clip-rule="evenodd" d="M312.512 559.88C312.512 557.069 314.791 554.79 317.602 554.79H362.392C365.203 554.79 367.482 557.069 367.482 559.88V563.952H312.512V559.88ZM321.673 559.371C321.673 560.214 320.99 560.898 320.146 560.898C319.303 560.898 318.62 560.214 318.62 559.371C318.62 558.528 319.303 557.844 320.146 557.844C320.99 557.844 321.673 558.528 321.673 559.371ZM329.308 560.898C330.151 560.898 330.835 560.214 330.835 559.371C330.835 558.528 330.151 557.844 329.308 557.844C328.465 557.844 327.781 558.528 327.781 559.371C327.781 560.214 328.465 560.898 329.308 560.898ZM326.254 559.371C326.254 560.214 325.571 560.898 324.727 560.898C323.884 560.898 323.2 560.214 323.2 559.371C323.2 558.528 323.884 557.844 324.727 557.844C325.571 557.844 326.254 558.528 326.254 559.371ZM317.602 599.581H362.393C364.079 599.581 365.447 598.213 365.447 596.527V568.024H314.548V596.527C314.548 598.213 315.916 599.581 317.602 599.581ZM312.512 596.527C312.512 599.338 314.791 601.616 317.602 601.616H362.393C365.204 601.616 367.482 599.338 367.482 596.527V568.024V565.988H365.447H314.548H312.512V568.024V596.527ZM346.226 582.402H318.213V585.029H346.226V582.402ZM349.34 582.402H361.79V585.029H349.34V582.402ZM333.778 577.776L361.791 577.776V575.15L333.778 575.15V577.776ZM330.663 577.776H318.213L318.213 575.15L330.663 575.15V577.776ZM333.778 592.3H361.791V589.673L333.778 589.673V592.3ZM330.663 592.3H318.213L318.213 589.673L330.663 589.673V592.3Z" fill="#077453"/>
<path fill-rule="evenodd" clip-rule="evenodd" d="M569.046 303.353C569.046 300.542 571.325 298.264 574.136 298.264H618.926C621.737 298.264 624.016 300.542 624.016 303.353V307.425H569.046V303.353ZM578.207 302.845C578.207 303.688 577.524 304.371 576.681 304.371C575.837 304.371 575.154 303.688 575.154 302.845C575.154 302.001 575.837 301.318 576.681 301.318C577.524 301.318 578.207 302.001 578.207 302.845ZM585.842 304.371C586.686 304.371 587.369 303.688 587.369 302.845C587.369 302.001 586.686 301.318 585.842 301.318C584.999 301.318 584.315 302.001 584.315 302.845C584.315 303.688 584.999 304.371 585.842 304.371ZM582.788 302.845C582.788 303.688 582.105 304.371 581.261 304.371C580.418 304.371 579.734 303.688 579.734 302.845C579.734 302.001 580.418 301.318 581.261 301.318C582.105 301.318 582.788 302.001 582.788 302.845ZM574.135 343.054H618.925C620.612 343.054 621.979 341.687 621.979 340V311.497H571.081V340C571.081 341.687 572.448 343.054 574.135 343.054ZM569.045 340C569.045 342.811 571.324 345.09 574.135 345.09H618.925C621.736 345.09 624.015 342.811 624.015 340V311.497V309.461H621.979H571.081H569.045V311.497V340ZM604.247 316.587V320.326C604.121 320.202 603.991 320.076 603.856 319.951C602.148 318.36 599.563 316.573 596.464 316.573C591.757 316.573 589.074 318.369 587.614 320.358C586.906 321.321 586.521 322.282 586.312 323.002C586.207 323.364 586.144 323.669 586.108 323.892C586.09 324.004 586.078 324.095 586.07 324.163C586.066 324.197 586.063 324.225 586.061 324.247L586.059 324.275L586.058 324.286L586.058 324.29L586.058 324.292C586.058 324.293 586.058 324.294 587.368 324.384C588.678 324.474 588.678 324.474 588.678 324.475L588.678 324.477L588.677 324.479L588.677 324.483L588.678 324.476L588.68 324.458C588.683 324.431 588.689 324.383 588.7 324.317C588.721 324.184 588.762 323.983 588.834 323.735C588.978 323.237 589.245 322.573 589.731 321.912C590.655 320.653 592.521 319.2 596.464 319.2C598.563 319.2 600.526 320.438 602.067 321.873C602.338 322.126 602.59 322.379 602.821 322.625H598.21V325.251L605.56 325.251H606.874V323.938L606.874 316.587L604.247 316.587ZM588.681 333.639L588.681 337.378H586.055L586.055 330.027V328.714H587.368L594.719 328.714L594.719 331.34L590.107 331.34C590.338 331.586 590.591 331.839 590.862 332.092C592.403 333.527 594.365 334.765 596.465 334.765C600.407 334.765 602.273 333.312 603.198 332.053C603.683 331.392 603.95 330.728 604.095 330.23C604.167 329.983 604.207 329.781 604.229 329.648C604.24 329.582 604.246 329.534 604.249 329.507C604.25 329.493 604.251 329.485 604.252 329.482L604.252 329.482L604.251 329.486L604.251 329.488L604.251 329.49C604.251 329.491 604.251 329.491 605.561 329.581C606.871 329.671 606.871 329.672 606.871 329.673L606.871 329.675L606.87 329.679L606.87 329.69L606.867 329.718C606.865 329.74 606.863 329.768 606.859 329.802C606.851 329.87 606.839 329.961 606.821 330.073C606.784 330.296 606.722 330.602 606.617 330.963C606.408 331.683 606.023 332.644 605.315 333.607C603.855 335.596 601.172 337.392 596.465 337.392C593.366 337.392 590.78 335.605 589.072 334.014C588.938 333.889 588.807 333.763 588.681 333.639Z" fill="#077453"/>
<path fill-rule="evenodd" clip-rule="evenodd" d="M162.576 133.487C166.353 129.711 172.476 129.711 176.253 133.487L177.692 132.048C173.121 127.476 165.708 127.476 161.137 132.048L162.576 133.487ZM162.576 165.794C166.353 169.571 172.476 169.571 176.253 165.794L177.692 167.234C173.121 171.805 165.708 171.805 161.137 167.234L162.576 165.794ZM207.666 149.641C207.666 158.636 200.374 165.928 191.378 165.928C182.383 165.928 175.091 158.636 175.091 149.641C175.091 140.645 182.383 133.353 191.378 133.353C200.374 133.353 207.666 140.645 207.666 149.641ZM195.423 143.207C197.781 144.02 199.507 145.238 199.167 147.503C198.922 149.162 198.003 149.965 196.782 150.246C198.458 151.119 199.311 152.458 198.498 154.777C197.49 157.658 195.095 157.901 191.909 157.298L191.137 160.396L189.269 159.931L190.032 156.875C189.548 156.754 189.053 156.626 188.543 156.489L187.778 159.558L185.912 159.094L186.684 155.99C186.5 155.943 186.315 155.894 186.129 155.846L186.128 155.845C185.873 155.779 185.615 155.711 185.354 155.646L182.922 155.04L183.85 152.902C183.85 152.902 185.226 153.267 185.207 153.24C185.736 153.371 185.971 153.026 186.064 152.797L187.285 147.899L187.483 147.948C187.407 147.918 187.34 147.899 187.288 147.886L188.159 144.39C188.182 143.992 188.046 143.492 187.289 143.302C187.319 143.283 185.932 142.965 185.932 142.965L186.429 140.97L189.006 141.613L189.003 141.623C189.364 141.714 189.736 141.799 190.115 141.885L190.115 141.885L190.196 141.904L190.962 138.836L192.829 139.301L192.078 142.309L192.109 142.316C192.601 142.428 193.094 142.541 193.575 142.662L194.32 139.673L196.188 140.138L195.423 143.207ZM189.514 154.335C191.039 154.737 194.37 155.617 194.898 153.489C195.442 151.314 192.214 150.589 190.637 150.234C190.46 150.194 190.304 150.159 190.176 150.127L189.149 154.24C189.254 154.266 189.377 154.298 189.514 154.335ZM190.953 148.325C192.224 148.665 194.994 149.404 195.477 147.47C195.97 145.491 193.277 144.896 191.961 144.604C191.813 144.572 191.682 144.543 191.575 144.516L190.646 148.245C190.734 148.267 190.837 148.294 190.953 148.325ZM163.895 149.641C163.895 158.636 156.603 165.928 147.608 165.928C138.612 165.928 131.32 158.636 131.32 149.641C131.32 140.645 138.612 133.353 147.608 133.353C156.603 133.353 163.895 140.645 163.895 149.641ZM142.787 157.832C141.752 156.857 141.115 155.453 140.876 153.622H143.563C143.702 154.597 144.051 155.354 144.608 155.891C145.126 156.329 145.693 156.618 146.31 156.757V150.875C143.125 150.297 141.533 148.486 141.533 145.44C141.533 144.624 141.662 143.858 141.921 143.141C142.18 142.424 142.568 141.807 143.085 141.29C143.921 140.454 144.996 139.946 146.31 139.767V138.035H148.938V139.767C150.59 140.006 151.884 140.702 152.82 141.857C153.656 142.932 154.154 144.246 154.313 145.799L154.253 145.828H151.655C151.556 145.052 151.347 144.415 151.028 143.917C150.55 143.141 149.854 142.653 148.938 142.454V148.456C150.212 148.675 151.297 149.053 152.193 149.591C153.626 150.506 154.343 151.92 154.343 153.831C154.343 154.587 154.193 155.314 153.895 156.011C153.616 156.688 153.208 157.285 152.67 157.802C151.675 158.778 150.431 159.365 148.938 159.564V161.236H146.31V159.504C144.857 159.265 143.683 158.708 142.787 157.832ZM144.548 147.053C144.986 147.61 145.574 147.968 146.31 148.128V142.484C145.514 142.643 144.907 142.982 144.489 143.499C144.091 143.997 143.892 144.564 143.892 145.201C143.892 145.878 144.111 146.495 144.548 147.053ZM151.237 152.189C150.879 151.771 150.112 151.442 148.938 151.203V156.847C149.774 156.668 150.451 156.279 150.968 155.682C151.506 155.085 151.775 154.438 151.775 153.741C151.775 153.184 151.595 152.666 151.237 152.189Z" fill="#077453"/>
<path fill-rule="evenodd" clip-rule="evenodd" d="M77.0665 390.014C80.8431 386.238 86.9662 386.238 90.7428 390.014L92.1825 388.575C87.6107 384.003 80.1985 384.003 75.6268 388.575L77.0665 390.014ZM77.0665 422.321C80.8431 426.098 86.9662 426.098 90.7428 422.321L92.1825 423.761C87.6107 428.333 80.1985 428.333 75.6268 423.761L77.0665 422.321ZM71.0979 392.625C68.4195 390.836 65.2705 389.881 62.0491 389.881C57.7294 389.881 53.5867 391.596 50.5322 394.651C47.4777 397.705 45.7617 401.848 45.7617 406.168C45.7617 409.389 46.717 412.538 48.5066 415.217C50.2963 417.895 52.8401 419.983 55.8162 421.216C58.7924 422.448 62.0672 422.771 65.2267 422.142C68.3861 421.514 71.2883 419.963 73.5661 417.685C75.8439 415.407 77.3952 412.505 78.0236 409.345C78.6521 406.186 78.3295 402.911 77.0968 399.935C75.864 396.959 73.7764 394.415 71.0979 392.625ZM62.0488 394.636L62.0508 394.639V394.636L65.9139 400.393L69.7769 406.166L69.7611 406.16L69.7632 406.163L69.7769 406.169L69.7692 406.172L69.7749 406.181L62.0488 410.073L55.531 406.777L54.3226 406.169L54.3252 406.168L54.3226 406.166L58.1857 400.393L62.0488 394.636ZM54.7511 407.735L54.7558 407.737L54.754 407.735L62.0502 411.627L69.3464 407.735L69.3357 407.749L69.3631 407.735L62.0517 417.71V417.711L62.0512 417.71L62.0508 417.711V417.71L56.7124 410.412L54.7511 407.735ZM105.869 422.455C114.864 422.455 122.157 415.163 122.157 406.168C122.157 397.173 114.864 389.881 105.869 389.881C96.8739 389.881 89.5817 397.173 89.5817 406.168C89.5817 415.163 96.8739 422.455 105.869 422.455ZM94.6443 405.447H97.4836C97.4641 405.709 97.4545 405.946 97.4545 406.169C97.4545 406.462 97.4682 406.763 97.4954 407.064H96.1168H96.0621L96.0391 407.113L94.6923 410L94.6352 410.123H94.771H98.2839C99.9051 413.807 103.595 416.185 107.701 416.185C109.769 416.185 111.762 415.585 113.465 414.45L113.503 414.425V414.378V410.84V410.61L113.352 410.783C112.008 412.313 110.075 413.19 108.048 413.19C105.717 413.19 103.555 412.046 102.23 410.123H109.542H109.598L109.621 410.074L110.967 407.186L111.025 407.064H110.888H101.043C100.999 406.738 100.976 406.41 100.976 406.086C100.976 405.874 100.986 405.66 101.005 405.447H111.723H111.778L111.801 405.397L113.147 402.511L113.205 402.388H113.069H102.011C103.292 400.283 105.591 398.982 108.048 398.982C110.18 398.982 112.177 399.934 113.527 401.594L113.614 401.702L113.673 401.577L114.842 399.07L114.868 399.013L114.823 398.97C112.901 397.153 110.372 396.153 107.701 396.153C105.615 396.153 103.609 396.762 101.897 397.915C100.243 399.03 98.9694 400.576 98.2132 402.388H95.9906H95.935L95.9119 402.437L94.5661 405.324L94.5085 405.447H94.6443Z" fill="#077453"/>
</svg>
